solid Cable Chain
facet normal 0.0 0.0 -1.0
  outer loop
    vertex -8.349073947558592 -0.2499999999999999 8.199999999999992
    vertex -21.34907394755859 -1.2500000000000009 8.199999999999992
    vertex -21.34907394755859 -0.2499999999999999 8.199999999999992
  endloop
endfacet
facet normal 0.0 0.0 -1.0
  outer loop
    vertex -21.34907394755859 -1.2500000000000009 8.199999999999992
    vertex -8.349073947558592 -0.2499999999999999 8.199999999999992
    vertex -8.349073947558592 -1.2500000000000009 8.199999999999992
  endloop
endfacet
facet normal -6.343981792935835e-19 -1.0 -1.627732170555981e-16
  outer loop
    vertex -8.349073947558587 -1.2500000000000009 11.499999999999991
    vertex -21.34907394755859 -1.2500000000000009 8.199999999999992
    vertex -8.349073947558592 -1.2500000000000009 8.199999999999992
  endloop
endfacet
facet normal -6.343981792935835e-19 -1.0 -1.627732170555981e-16
  outer loop
    vertex -21.34907394755859 -1.2500000000000009 8.199999999999992
    vertex -8.349073947558587 -1.2500000000000009 11.499999999999991
    vertex -21.34907394755859 -1.2500000000000009 11.499999999999991
  endloop
endfacet
facet normal -6.831618858062816e-34 1.0 2.338375915866672e-16
  outer loop
    vertex -21.34907394755859 -0.2499999999999999 10.499999999999993
    vertex -8.349073947558592 -0.2499999999999999 8.999999999999991
    vertex -21.34907394755859 -0.2499999999999999 8.999999999999991
  endloop
endfacet
facet normal -6.831618858062816e-34 1.0 2.338375915866672e-16
  outer loop
    vertex -8.349073947558592 -0.2499999999999999 8.999999999999991
    vertex -21.34907394755859 -0.2499999999999999 10.499999999999993
    vertex -8.349073947558592 -0.2499999999999999 10.499999999999993
  endloop
endfacet
facet normal 0.0 0.0 1.0
  outer loop
    vertex -8.349073947558592 -0.2499999999999999 8.999999999999991
    vertex -21.34907394755859 0.5500000000000015 8.999999999999991
    vertex -21.34907394755859 -0.2499999999999999 8.999999999999991
  endloop
endfacet
facet normal 0.0 0.0 1.0
  outer loop
    vertex -21.34907394755859 0.5500000000000015 8.999999999999991
    vertex -8.349073947558592 -0.2499999999999999 8.999999999999991
    vertex -8.349073947558592 0.5500000000000015 8.999999999999991
  endloop
endfacet
facet normal 0.0 1.0 0.0
  outer loop
    vertex -19.349073947558594 0.7499999999999982 11.499999999999991
    vertex -10.349073947558587 0.7499999999999982 10.499999999999993
    vertex -19.349073947558594 0.7499999999999982 10.499999999999993
  endloop
endfacet
facet normal 0.0 1.0 0.0
  outer loop
    vertex -10.349073947558587 0.7499999999999982 10.499999999999993
    vertex -19.349073947558594 0.7499999999999982 11.499999999999991
    vertex -10.349073947558587 0.7499999999999982 11.499999999999991
  endloop
endfacet
facet normal 6.653299463028373e-33 0.7071067811865471 -0.707106781186548
  outer loop
    vertex -21.34907394755859 0.5500000000000015 8.999999999999991
    vertex -8.349073947558592 -0.2499999999999999 8.199999999999992
    vertex -21.34907394755859 -0.2499999999999999 8.199999999999992
  endloop
endfacet
facet normal 6.653299463028373e-33 0.7071067811865471 -0.707106781186548
  outer loop
    vertex -8.349073947558592 -0.2499999999999999 8.199999999999992
    vertex -21.34907394755859 0.5500000000000015 8.999999999999991
    vertex -8.349073947558592 0.5500000000000015 8.999999999999991
  endloop
endfacet
facet normal 0.0 0.0 1.0
  outer loop
    vertex -8.349073947558592 19.44999999999999 8.999999999999991
    vertex -21.34907394755859 20.24999999999999 8.999999999999991
    vertex -21.34907394755859 19.44999999999999 8.999999999999991
  endloop
endfacet
facet normal 0.0 0.0 1.0
  outer loop
    vertex -21.34907394755859 20.24999999999999 8.999999999999991
    vertex -8.349073947558592 19.44999999999999 8.999999999999991
    vertex -8.349073947558592 20.24999999999999 8.999999999999991
  endloop
endfacet
facet normal 0.0 0.0 -1.0
  outer loop
    vertex -21.34907394755859 20.24999999999999 10.499999999999993
    vertex -19.349073947558594 19.249999999999993 10.499999999999993
    vertex -21.34907394755859 -0.2499999999999999 10.499999999999993
  endloop
endfacet
facet normal 0.0 0.0 -1.0
  outer loop
    vertex -19.349073947558594 19.249999999999993 10.499999999999993
    vertex -21.34907394755859 20.24999999999999 10.499999999999993
    vertex -8.349073947558592 20.24999999999999 10.499999999999993
  endloop
endfacet
facet normal 0.0 0.0 -1.0
  outer loop
    vertex -19.349073947558594 19.249999999999993 10.499999999999993
    vertex -8.349073947558592 20.24999999999999 10.499999999999993
    vertex -10.349073947558587 19.249999999999993 10.499999999999993
  endloop
endfacet
facet normal 0.0 0.0 -1.0
  outer loop
    vertex -10.349073947558587 19.249999999999993 10.499999999999993
    vertex -8.349073947558592 20.24999999999999 10.499999999999993
    vertex -10.349073947558587 0.7499999999999982 10.499999999999993
  endloop
endfacet
facet normal 0.0 0.0 -1.0
  outer loop
    vertex -21.34907394755859 -0.2499999999999999 10.499999999999993
    vertex -19.349073947558594 0.7499999999999982 10.499999999999993
    vertex -8.349073947558592 -0.2499999999999999 10.499999999999993
  endloop
endfacet
facet normal 0.0 0.0 -1.0
  outer loop
    vertex -19.349073947558594 0.7499999999999982 10.499999999999993
    vertex -21.34907394755859 -0.2499999999999999 10.499999999999993
    vertex -19.349073947558594 19.249999999999993 10.499999999999993
  endloop
endfacet
facet normal 0.0 0.0 -1.0
  outer loop
    vertex -8.349073947558592 -0.2499999999999999 10.499999999999993
    vertex -19.349073947558594 0.7499999999999982 10.499999999999993
    vertex -10.349073947558587 0.7499999999999982 10.499999999999993
  endloop
endfacet
facet normal 0.0 0.0 -1.0
  outer loop
    vertex -8.349073947558592 -0.2499999999999999 10.499999999999993
    vertex -10.349073947558587 0.7499999999999982 10.499999999999993
    vertex -8.349073947558592 20.24999999999999 10.499999999999993
  endloop
endfacet
facet normal 1.0 -1.9925270473478968e-34 -1.4055127807753e-15
  outer loop
    vertex -8.349073947558592 0.5500000000000015 8.999999999999991
    vertex -8.349073947558592 -0.2499999999999999 8.999999999999991
    vertex -8.349073947558592 -0.2499999999999999 8.199999999999992
  endloop
endfacet
facet normal 1.0 -1.9925270473478968e-34 -1.4055127807753e-15
  outer loop
    vertex -8.349073947558592 20.24999999999999 8.199999999999992
    vertex -8.349073947558592 20.24999999999999 8.999999999999991
    vertex -8.349073947558592 19.44999999999999 8.999999999999991
  endloop
endfacet
facet normal 1.0 -1.9925270473478968e-34 -1.4055127807753e-15
  outer loop
    vertex -8.349073947558592 20.24999999999999 8.999999999999991
    vertex -8.349073947558592 20.24999999999999 8.199999999999992
    vertex -8.349073947558592 21.249999999999993 8.199999999999992
  endloop
endfacet
facet normal 1.0 -1.9925270473478968e-34 -1.4055127807753e-15
  outer loop
    vertex -8.349073947558592 20.24999999999999 8.999999999999991
    vertex -8.349073947558592 21.249999999999993 8.199999999999992
    vertex -8.349073947558592 20.24999999999999 10.499999999999993
  endloop
endfacet
facet normal 1.0 -1.9925270473478968e-34 -1.4055127807753e-15
  outer loop
    vertex -8.349073947558592 -0.2499999999999999 8.199999999999992
    vertex -8.349073947558587 -1.2500000000000009 11.499999999999991
    vertex -8.349073947558592 -1.2500000000000009 8.199999999999992
  endloop
endfacet
facet normal 1.0 -1.9925270473478968e-34 -1.4055127807753e-15
  outer loop
    vertex -8.349073947558587 -1.2500000000000009 11.499999999999991
    vertex -8.349073947558592 -0.2499999999999999 8.199999999999992
    vertex -8.349073947558592 -0.2499999999999999 10.499999999999993
  endloop
endfacet
facet normal 1.0 -1.9925270473478968e-34 -1.4055127807753e-15
  outer loop
    vertex -8.349073947558587 -1.2500000000000009 11.499999999999991
    vertex -8.349073947558592 -0.2499999999999999 10.499999999999993
    vertex -8.349073947558587 21.249999999999993 11.499999999999991
  endloop
endfacet
facet normal 1.0 -1.9925270473478968e-34 -1.4055127807753e-15
  outer loop
    vertex -8.349073947558592 -0.2499999999999999 10.499999999999993
    vertex -8.349073947558592 -0.2499999999999999 8.199999999999992
    vertex -8.349073947558592 -0.2499999999999999 8.999999999999991
  endloop
endfacet
facet normal 1.0 -1.9925270473478968e-34 -1.4055127807753e-15
  outer loop
    vertex -8.349073947558587 21.249999999999993 11.499999999999991
    vertex -8.349073947558592 -0.2499999999999999 10.499999999999993
    vertex -8.349073947558592 20.24999999999999 10.499999999999993
  endloop
endfacet
facet normal 1.0 -1.9925270473478968e-34 -1.4055127807753e-15
  outer loop
    vertex -8.349073947558587 21.249999999999993 11.499999999999991
    vertex -8.349073947558592 20.24999999999999 10.499999999999993
    vertex -8.349073947558592 21.249999999999993 8.199999999999992
  endloop
endfacet
facet normal -6.831618858062816e-34 -1.0 2.338375915866672e-16
  outer loop
    vertex -8.349073947558592 20.24999999999999 10.499999999999993
    vertex -21.34907394755859 20.24999999999999 8.999999999999991
    vertex -8.349073947558592 20.24999999999999 8.999999999999991
  endloop
endfacet
facet normal -6.831618858062816e-34 -1.0 2.338375915866672e-16
  outer loop
    vertex -21.34907394755859 20.24999999999999 8.999999999999991
    vertex -8.349073947558592 20.24999999999999 10.499999999999993
    vertex -21.34907394755859 20.24999999999999 10.499999999999993
  endloop
endfacet
facet normal 1.0 0.0 0.0
  outer loop
    vertex -19.349073947558594 19.249999999999993 10.499999999999993
    vertex -19.349073947558594 0.7499999999999982 11.499999999999991
    vertex -19.349073947558594 0.7499999999999982 10.499999999999993
  endloop
endfacet
facet normal 1.0 0.0 0.0
  outer loop
    vertex -19.349073947558594 0.7499999999999982 11.499999999999991
    vertex -19.349073947558594 19.249999999999993 10.499999999999993
    vertex -19.349073947558594 19.249999999999993 11.499999999999991
  endloop
endfacet
facet normal 0.0 -1.0 0.0
  outer loop
    vertex -10.349073947558587 19.249999999999993 11.499999999999991
    vertex -19.349073947558594 19.249999999999993 10.499999999999993
    vertex -10.349073947558587 19.249999999999993 10.499999999999993
  endloop
endfacet
facet normal 0.0 -1.0 0.0
  outer loop
    vertex -19.349073947558594 19.249999999999993 10.499999999999993
    vertex -10.349073947558587 19.249999999999993 11.499999999999991
    vertex -19.349073947558594 19.249999999999993 11.499999999999991
  endloop
endfacet
facet normal -1.0 0.0 0.0
  outer loop
    vertex -10.349073947558587 19.249999999999993 11.499999999999991
    vertex -10.349073947558587 0.7499999999999982 10.499999999999993
    vertex -10.349073947558587 0.7499999999999982 11.499999999999991
  endloop
endfacet
facet normal -1.0 0.0 0.0
  outer loop
    vertex -10.349073947558587 0.7499999999999982 10.499999999999993
    vertex -10.349073947558587 19.249999999999993 11.499999999999991
    vertex -10.349073947558587 19.249999999999993 10.499999999999993
  endloop
endfacet
facet normal 6.653299463028373e-33 -0.7071067811865471 -0.707106781186548
  outer loop
    vertex -8.349073947558592 20.24999999999999 8.199999999999992
    vertex -21.34907394755859 19.44999999999999 8.999999999999991
    vertex -21.34907394755859 20.24999999999999 8.199999999999992
  endloop
endfacet
facet normal 6.653299463028373e-33 -0.7071067811865471 -0.707106781186548
  outer loop
    vertex -21.34907394755859 19.44999999999999 8.999999999999991
    vertex -8.349073947558592 20.24999999999999 8.199999999999992
    vertex -8.349073947558592 19.44999999999999 8.999999999999991
  endloop
endfacet
facet normal -6.343981792935835e-19 1.0 -1.627732170555981e-16
  outer loop
    vertex -21.34907394755859 21.249999999999993 11.499999999999991
    vertex -8.349073947558592 21.249999999999993 8.199999999999992
    vertex -21.34907394755859 21.249999999999993 8.199999999999992
  endloop
endfacet
facet normal -6.343981792935835e-19 1.0 -1.627732170555981e-16
  outer loop
    vertex -8.349073947558592 21.249999999999993 8.199999999999992
    vertex -21.34907394755859 21.249999999999993 11.499999999999991
    vertex -8.349073947558587 21.249999999999993 11.499999999999991
  endloop
endfacet
facet normal 0.0 0.0 1.0
  outer loop
    vertex -21.34907394755859 -1.2500000000000009 11.499999999999991
    vertex -19.349073947558594 0.7499999999999982 11.499999999999991
    vertex -21.34907394755859 21.249999999999993 11.499999999999991
  endloop
endfacet
facet normal 0.0 0.0 1.0
  outer loop
    vertex -19.349073947558594 0.7499999999999982 11.499999999999991
    vertex -21.34907394755859 -1.2500000000000009 11.499999999999991
    vertex -8.349073947558587 -1.2500000000000009 11.499999999999991
  endloop
endfacet
facet normal 0.0 0.0 1.0
  outer loop
    vertex -19.349073947558594 0.7499999999999982 11.499999999999991
    vertex -8.349073947558587 -1.2500000000000009 11.499999999999991
    vertex -10.349073947558587 0.7499999999999982 11.499999999999991
  endloop
endfacet
facet normal 0.0 0.0 1.0
  outer loop
    vertex -10.349073947558587 0.7499999999999982 11.499999999999991
    vertex -8.349073947558587 -1.2500000000000009 11.499999999999991
    vertex -10.349073947558587 19.249999999999993 11.499999999999991
  endloop
endfacet
facet normal 0.0 0.0 1.0
  outer loop
    vertex -21.34907394755859 21.249999999999993 11.499999999999991
    vertex -19.349073947558594 19.249999999999993 11.499999999999991
    vertex -8.349073947558587 21.249999999999993 11.499999999999991
  endloop
endfacet
facet normal 0.0 0.0 1.0
  outer loop
    vertex -19.349073947558594 19.249999999999993 11.499999999999991
    vertex -21.34907394755859 21.249999999999993 11.499999999999991
    vertex -19.349073947558594 0.7499999999999982 11.499999999999991
  endloop
endfacet
facet normal 0.0 0.0 1.0
  outer loop
    vertex -8.349073947558587 21.249999999999993 11.499999999999991
    vertex -19.349073947558594 19.249999999999993 11.499999999999991
    vertex -10.349073947558587 19.249999999999993 11.499999999999991
  endloop
endfacet
facet normal 0.0 0.0 1.0
  outer loop
    vertex -8.349073947558587 21.249999999999993 11.499999999999991
    vertex -10.349073947558587 19.249999999999993 11.499999999999991
    vertex -8.349073947558587 -1.2500000000000009 11.499999999999991
  endloop
endfacet
facet normal 0.0 0.0 -1.0
  outer loop
    vertex -8.349073947558592 21.249999999999993 8.199999999999992
    vertex -21.34907394755859 20.24999999999999 8.199999999999992
    vertex -21.34907394755859 21.249999999999993 8.199999999999992
  endloop
endfacet
facet normal 0.0 0.0 -1.0
  outer loop
    vertex -21.34907394755859 20.24999999999999 8.199999999999992
    vertex -8.349073947558592 21.249999999999993 8.199999999999992
    vertex -8.349073947558592 20.24999999999999 8.199999999999992
  endloop
endfacet
facet normal -1.0 1.7275003421875313e-33 -1.573602095524508e-16
  outer loop
    vertex -21.34907394755859 -1.2500000000000009 11.499999999999991
    vertex -21.34907394755859 -0.2499999999999999 10.499999999999993
    vertex -21.34907394755859 -1.2500000000000009 8.199999999999992
  endloop
endfacet
facet normal -1.0 1.7275003421875313e-33 -1.573602095524508e-16
  outer loop
    vertex -21.34907394755859 -0.2499999999999999 10.499999999999993
    vertex -21.34907394755859 -1.2500000000000009 11.499999999999991
    vertex -21.34907394755859 21.249999999999993 11.499999999999991
  endloop
endfacet
facet normal -1.0 1.7275003421875313e-33 -1.573602095524508e-16
  outer loop
    vertex -21.34907394755859 -0.2499999999999999 10.499999999999993
    vertex -21.34907394755859 21.249999999999993 11.499999999999991
    vertex -21.34907394755859 20.24999999999999 10.499999999999993
  endloop
endfacet
facet normal -1.0 1.7275003421875313e-33 -1.573602095524508e-16
  outer loop
    vertex -21.34907394755859 20.24999999999999 10.499999999999993
    vertex -21.34907394755859 21.249999999999993 11.499999999999991
    vertex -21.34907394755859 20.24999999999999 8.999999999999991
  endloop
endfacet
facet normal -1.0 1.7275003421875313e-33 -1.573602095524508e-16
  outer loop
    vertex -21.34907394755859 20.24999999999999 8.999999999999991
    vertex -21.34907394755859 21.249999999999993 11.499999999999991
    vertex -21.34907394755859 20.24999999999999 8.199999999999992
  endloop
endfacet
facet normal -1.0 1.7275003421875313e-33 -1.573602095524508e-16
  outer loop
    vertex -21.34907394755859 20.24999999999999 8.199999999999992
    vertex -21.34907394755859 21.249999999999993 11.499999999999991
    vertex -21.34907394755859 21.249999999999993 8.199999999999992
  endloop
endfacet
facet normal -1.0 1.7275003421875313e-33 -1.573602095524508e-16
  outer loop
    vertex -21.34907394755859 20.24999999999999 8.199999999999992
    vertex -21.34907394755859 19.44999999999999 8.999999999999991
    vertex -21.34907394755859 20.24999999999999 8.999999999999991
  endloop
endfacet
facet normal -1.0 1.7275003421875313e-33 -1.573602095524508e-16
  outer loop
    vertex -21.34907394755859 -0.2499999999999999 10.499999999999993
    vertex -21.34907394755859 -0.2499999999999999 8.199999999999992
    vertex -21.34907394755859 -1.2500000000000009 8.199999999999992
  endloop
endfacet
facet normal -1.0 1.7275003421875313e-33 -1.573602095524508e-16
  outer loop
    vertex -21.34907394755859 -0.2499999999999999 8.199999999999992
    vertex -21.34907394755859 -0.2499999999999999 10.499999999999993
    vertex -21.34907394755859 -0.2499999999999999 8.999999999999991
  endloop
endfacet
facet normal -1.0 1.7275003421875313e-33 -1.573602095524508e-16
  outer loop
    vertex -21.34907394755859 -0.2499999999999999 8.199999999999992
    vertex -21.34907394755859 -0.2499999999999999 8.999999999999991
    vertex -21.34907394755859 0.5500000000000015 8.999999999999991
  endloop
endfacet
endsolid Cable Chain
