solid Nova
facet normal 1.0 2.914335439641036e-16 -1.832978213656133e-15
  outer loop
    vertex 72.2549939120224 72.24282937019643 3.004387994028852
    vertex 72.25499391202241 47.000188683077184 10.999999994028844
    vertex 72.25499391202241 47.0001886830772 2.999999994028835
  endloop
endfacet
facet normal 1.0 2.914335439641036e-16 -1.832978213656133e-15
  outer loop
    vertex 72.25499391202241 47.000188683077184 10.999999994028844
    vertex 72.2549939120224 72.24282937019643 3.004387994028852
    vertex 72.2549939120224 72.24282937019642 10.999999994028844
  endloop
endfacet
facet normal 2.914335439641036e-16 -1.0 -1.8329782136561332e-15
  outer loop
    vertex 26.254993912022318 47.000188683077184 10.999999994028844
    vertex 72.25499391202241 47.0001886830772 2.999999994028835
    vertex 72.25499391202241 47.000188683077184 10.999999994028844
  endloop
endfacet
facet normal 2.914335439641036e-16 -1.0 -1.8329782136561332e-15
  outer loop
    vertex 72.25499391202241 47.0001886830772 2.999999994028835
    vertex 26.254993912022318 47.000188683077184 10.999999994028844
    vertex 26.254993912022318 47.0001886830772 2.999999994028835
  endloop
endfacet
facet normal -1.0 -2.914335439641103e-16 1.832978213656133e-15
  outer loop
    vertex 26.254993912022318 47.000188683077184 10.999999994028844
    vertex 26.254993912022318 93.00018868307718 2.999999994028993
    vertex 26.254993912022318 47.0001886830772 2.999999994028835
  endloop
endfacet
facet normal -1.0 -2.914335439641103e-16 1.832978213656133e-15
  outer loop
    vertex 26.254993912022318 93.00018868307718 2.999999994028993
    vertex 26.254993912022318 47.000188683077184 10.999999994028844
    vertex 26.254993912022318 93.00018868307718 10.99999999402899
  endloop
endfacet
facet normal -2.914335439640969e-16 1.0 1.8329782136561332e-15
  outer loop
    vertex 26.254993912022318 93.00018868307718 2.999999994028993
    vertex 51.497634599141605 93.00018868307718 10.999999994028878
    vertex 51.497634599141605 93.00018868307718 3.004387994028886
  endloop
endfacet
facet normal -2.914335439640969e-16 1.0 1.8329782136561332e-15
  outer loop
    vertex 51.497634599141605 93.00018868307718 10.999999994028878
    vertex 26.254993912022318 93.00018868307718 2.999999994028993
    vertex 26.254993912022318 93.00018868307718 10.99999999402899
  endloop
endfacet
facet normal 0.7071067811865468 0.7071067811865482 -1.1527578585341675e-15
  outer loop
    vertex 51.497634599141605 93.00018868307718 3.004387994028886
    vertex 72.2549939120224 72.24282937019642 10.999999994028844
    vertex 72.2549939120224 72.24282937019643 3.004387994028852
  endloop
endfacet
facet normal 0.7071067811865468 0.7071067811865482 -1.1527578585341675e-15
  outer loop
    vertex 72.2549939120224 72.24282937019642 10.999999994028844
    vertex 51.497634599141605 93.00018868307718 3.004387994028886
    vertex 51.497634599141605 93.00018868307718 10.999999994028878
  endloop
endfacet
facet normal 6.30933974033433e-05 6.309339740647146e-05 -0.9999999960192232
  outer loop
    vertex 26.254993912022318 47.0001886830772 2.999999994028835
    vertex 72.2549939120224 72.24282937019643 3.004387994028852
    vertex 72.25499391202241 47.0001886830772 2.999999994028835
  endloop
endfacet
facet normal 6.30933974033433e-05 6.309339740647146e-05 -0.9999999960192232
  outer loop
    vertex 72.2549939120224 72.24282937019643 3.004387994028852
    vertex 26.254993912022318 47.0001886830772 2.999999994028835
    vertex 26.254993912022318 93.00018868307718 2.999999994028993
  endloop
endfacet
facet normal 6.30933974033433e-05 6.309339740647146e-05 -0.9999999960192232
  outer loop
    vertex 72.2549939120224 72.24282937019643 3.004387994028852
    vertex 26.254993912022318 93.00018868307718 2.999999994028993
    vertex 51.497634599141605 93.00018868307718 3.004387994028886
  endloop
endfacet
facet normal 1.0 2.1692049865753164e-16 -6.266592183439768e-16
  outer loop
    vertex 29.754993912022332 89.50018868307718 5.999999994028943
    vertex 29.754993912022343 50.50018868307718 10.499999994028876
    vertex 29.754993912022343 50.500188683077184 5.999999994028875
  endloop
endfacet
facet normal 1.0 2.1692049865753164e-16 -6.266592183439768e-16
  outer loop
    vertex 29.754993912022343 50.50018868307718 10.499999994028876
    vertex 29.754993912022332 89.50018868307718 5.999999994028943
    vertex 29.75499391202234 89.50018868307718 10.499999994028943
  endloop
endfacet
facet normal -5.502373624483695e-16 -1.0 3.601362628091521e-31
  outer loop
    vertex 29.75499391202234 89.50018868307718 10.499999994028943
    vertex 50.254993912022364 89.50018868307717 5.999999994028909
    vertex 50.254993912022364 89.50018868307717 10.49999999402891
  endloop
endfacet
facet normal -5.502373624483695e-16 -1.0 3.601362628091521e-31
  outer loop
    vertex 50.254993912022364 89.50018868307717 5.999999994028909
    vertex 29.75499391202234 89.50018868307718 10.499999994028943
    vertex 29.754993912022332 89.50018868307718 5.999999994028943
  endloop
endfacet
facet normal 1.4844152913981732e-15 -1.672675857183557e-15 1.0
  outer loop
    vertex 68.75499391202239 71.00018868307717 5.999999994028852
    vertex 29.754993912022343 50.500188683077184 5.999999994028875
    vertex 68.7549939120224 50.50018868307719 5.999999994028818
  endloop
endfacet
facet normal 1.4844152913981732e-15 -1.672675857183557e-15 1.0
  outer loop
    vertex 29.754993912022343 50.500188683077184 5.999999994028875
    vertex 68.75499391202239 71.00018868307717 5.999999994028852
    vertex 29.754993912022332 89.50018868307718 5.999999994028943
  endloop
endfacet
facet normal 1.4844152913981732e-15 -1.672675857183557e-15 1.0
  outer loop
    vertex 29.754993912022332 89.50018868307718 5.999999994028943
    vertex 68.75499391202239 71.00018868307717 5.999999994028852
    vertex 50.254993912022364 89.50018868307717 5.999999994028909
  endloop
endfacet
facet normal 1.2577064954228485e-15 -1.6665835019636228e-15 1.0
  outer loop
    vertex 72.25499391202241 47.000188683077184 10.999999994028844
    vertex 69.2549939120224 50.00018868307719 10.99999999402882
    vertex 26.254993912022318 47.000188683077184 10.999999994028844
  endloop
endfacet
facet normal 1.2577064954228485e-15 -1.6665835019636228e-15 1.0
  outer loop
    vertex 69.2549939120224 50.00018868307719 10.99999999402882
    vertex 72.25499391202241 47.000188683077184 10.999999994028844
    vertex 72.2549939120224 72.24282937019642 10.999999994028844
  endloop
endfacet
facet normal 1.2577064954228485e-15 -1.6665835019636228e-15 1.0
  outer loop
    vertex 69.2549939120224 50.00018868307719 10.99999999402882
    vertex 72.2549939120224 72.24282937019642 10.999999994028844
    vertex 69.25499391202239 71.20729546426371 10.999999994028855
  endloop
endfacet
facet normal 1.2577064954228485e-15 -1.6665835019636228e-15 1.0
  outer loop
    vertex 69.25499391202239 71.20729546426371 10.999999994028855
    vertex 72.2549939120224 72.24282937019642 10.999999994028844
    vertex 50.46210069320891 90.00018868307717 10.999999994028911
  endloop
endfacet
facet normal 1.2577064954228485e-15 -1.6665835019636228e-15 1.0
  outer loop
    vertex 50.46210069320891 90.00018868307717 10.999999994028911
    vertex 72.2549939120224 72.24282937019642 10.999999994028844
    vertex 51.497634599141605 93.00018868307718 10.999999994028878
  endloop
endfacet
facet normal 1.2577064954228485e-15 -1.6665835019636228e-15 1.0
  outer loop
    vertex 50.46210069320891 90.00018868307717 10.999999994028911
    vertex 51.497634599141605 93.00018868307718 10.999999994028878
    vertex 29.254993912022332 90.00018868307718 10.999999994028947
  endloop
endfacet
facet normal 1.2577064954228485e-15 -1.6665835019636228e-15 1.0
  outer loop
    vertex 29.254993912022332 90.00018868307718 10.999999994028947
    vertex 51.497634599141605 93.00018868307718 10.999999994028878
    vertex 26.254993912022318 93.00018868307718 10.99999999402899
  endloop
endfacet
facet normal 1.2577064954228485e-15 -1.6665835019636228e-15 1.0
  outer loop
    vertex 26.254993912022318 47.000188683077184 10.999999994028844
    vertex 29.254993912022346 50.00018868307718 10.999999994028876
    vertex 26.254993912022318 93.00018868307718 10.99999999402899
  endloop
endfacet
facet normal 1.2577064954228485e-15 -1.6665835019636228e-15 1.0
  outer loop
    vertex 29.254993912022346 50.00018868307718 10.999999994028876
    vertex 26.254993912022318 47.000188683077184 10.999999994028844
    vertex 69.2549939120224 50.00018868307719 10.99999999402882
  endloop
endfacet
facet normal 1.2577064954228485e-15 -1.6665835019636228e-15 1.0
  outer loop
    vertex 26.254993912022318 93.00018868307718 10.99999999402899
    vertex 29.254993912022346 50.00018868307718 10.999999994028876
    vertex 29.254993912022332 90.00018868307718 10.999999994028947
  endloop
endfacet
facet normal -2.8922733154337185e-16 1.0 1.2533184366879536e-15
  outer loop
    vertex 29.754993912022343 50.500188683077184 5.999999994028875
    vertex 68.7549939120224 50.50018868307719 10.499999994028821
    vertex 68.7549939120224 50.50018868307719 5.999999994028818
  endloop
endfacet
facet normal -2.8922733154337185e-16 1.0 1.2533184366879536e-15
  outer loop
    vertex 68.7549939120224 50.50018868307719 10.499999994028821
    vertex 29.754993912022343 50.500188683077184 5.999999994028875
    vertex 29.754993912022343 50.50018868307718 10.499999994028876
  endloop
endfacet
facet normal 8.073502454271061e-16 0.7071067811865476 0.7071067811865476
  outer loop
    vertex 68.7549939120224 50.50018868307719 10.499999994028821
    vertex 29.254993912022346 50.00018868307718 10.999999994028876
    vertex 69.2549939120224 50.00018868307719 10.99999999402882
  endloop
endfacet
facet normal 8.073502454271061e-16 0.7071067811865476 0.7071067811865476
  outer loop
    vertex 29.254993912022346 50.00018868307718 10.999999994028876
    vertex 68.7549939120224 50.50018868307719 10.499999994028821
    vertex 29.754993912022343 50.50018868307718 10.499999994028876
  endloop
endfacet
facet normal -1.0 -5.502373624483709e-16 -9.68345110904308e-31
  outer loop
    vertex 68.7549939120224 50.50018868307719 10.499999994028821
    vertex 68.75499391202239 71.00018868307717 5.999999994028852
    vertex 68.7549939120224 50.50018868307719 5.999999994028818
  endloop
endfacet
facet normal -1.0 -5.502373624483709e-16 -9.68345110904308e-31
  outer loop
    vertex 68.75499391202239 71.00018868307717 5.999999994028852
    vertex 68.7549939120224 50.50018868307719 10.499999994028821
    vertex 68.75499391202239 71.00018868307716 10.499999994028855
  endloop
endfacet
facet normal -0.7071067811865482 -1.5547300657282402e-15 0.7071067811865468
  outer loop
    vertex 69.2549939120224 50.00018868307719 10.99999999402882
    vertex 68.75499391202239 71.00018868307716 10.499999994028855
    vertex 68.7549939120224 50.50018868307719 10.499999994028821
  endloop
endfacet
facet normal -0.7071067811865482 -1.5547300657282402e-15 0.7071067811865468
  outer loop
    vertex 68.75499391202239 71.00018868307716 10.499999994028855
    vertex 69.2549939120224 50.00018868307719 10.99999999402882
    vertex 69.25499391202239 71.20729546426371 10.999999994028855
  endloop
endfacet
facet normal 0.7071067811865465 -1.0847501099048915e-15 0.7071067811865486
  outer loop
    vertex 29.754993912022343 50.50018868307718 10.499999994028876
    vertex 29.254993912022332 90.00018868307718 10.999999994028947
    vertex 29.254993912022346 50.00018868307718 10.999999994028876
  endloop
endfacet
facet normal 0.7071067811865465 -1.0847501099048915e-15 0.7071067811865486
  outer loop
    vertex 29.254993912022332 90.00018868307718 10.999999994028947
    vertex 29.754993912022343 50.50018868307718 10.499999994028876
    vertex 29.75499391202234 89.50018868307718 10.499999994028943
  endloop
endfacet
facet normal 7.89059984285846e-16 -0.7071067811865489 0.7071067811865462
  outer loop
    vertex 29.254993912022332 90.00018868307718 10.999999994028947
    vertex 50.254993912022364 89.50018868307717 10.49999999402891
    vertex 50.46210069320891 90.00018868307717 10.999999994028911
  endloop
endfacet
facet normal 7.89059984285846e-16 -0.7071067811865489 0.7071067811865462
  outer loop
    vertex 50.254993912022364 89.50018868307717 10.49999999402891
    vertex 29.254993912022332 90.00018868307718 10.999999994028947
    vertex 29.75499391202234 89.50018868307718 10.499999994028943
  endloop
endfacet
facet normal -0.7071067811865472 -0.7071067811865479 -9.379267135596144e-16
  outer loop
    vertex 50.254993912022364 89.50018868307717 10.49999999402891
    vertex 68.75499391202239 71.00018868307717 5.999999994028852
    vertex 68.75499391202239 71.00018868307716 10.499999994028855
  endloop
endfacet
facet normal -0.7071067811865472 -0.7071067811865479 -9.379267135596144e-16
  outer loop
    vertex 68.75499391202239 71.00018868307717 5.999999994028852
    vertex 50.254993912022364 89.50018868307717 10.49999999402891
    vertex 50.254993912022364 89.50018868307717 5.999999994028909
  endloop
endfacet
facet normal -0.5000000000000553 -0.5000000000000578 0.7071067811864675
  outer loop
    vertex 69.25499391202239 71.20729546426371 10.999999994028855
    vertex 50.254993912022364 89.50018868307717 10.49999999402891
    vertex 68.75499391202239 71.00018868307716 10.499999994028855
  endloop
endfacet
facet normal -0.5000000000000553 -0.5000000000000578 0.7071067811864675
  outer loop
    vertex 50.254993912022364 89.50018868307717 10.49999999402891
    vertex 69.25499391202239 71.20729546426371 10.999999994028855
    vertex 50.46210069320891 90.00018868307717 10.999999994028911
  endloop
endfacet
endsolid Nova
