solid Bed Inside Rails
facet normal -2.7755575615628877e-17 1.0 5.007417855406814e-32
  outer loop
    vertex -1.5946153482150358 479.9999999999993 505.09879380054434
    vertex 7.978333227365798 479.9999999999992 508.5050161871674
    vertex 25.928805781537786 479.9999999999993 505.09879380054434
  endloop
endfacet
facet normal -2.7755575615628877e-17 1.0 5.007417855406814e-32
  outer loop
    vertex 7.978333227365798 479.9999999999992 508.5050161871674
    vertex -1.5946153482150358 479.9999999999993 505.09879380054434
    vertex 7.580384651784976 479.9999999999992 508.66985188430004
  endloop
endfacet
facet normal -2.7755575615628877e-17 1.0 5.007417855406814e-32
  outer loop
    vertex 7.580384651784976 479.9999999999992 508.66985188430004
    vertex -1.5946153482150358 479.9999999999993 505.09879380054434
    vertex -1.5946153482150471 479.9999999999993 515.0987938005443
  endloop
endfacet
facet normal -2.7755575615628877e-17 1.0 5.007417855406814e-32
  outer loop
    vertex 25.928805781537786 479.9999999999993 505.09879380054434
    vertex 7.978333227365798 479.9999999999992 508.5050161871674
    vertex 8.405384651784956 479.9999999999992 508.44879380054437
  endloop
endfacet
facet normal -2.7755575615628877e-17 1.0 5.007417855406814e-32
  outer loop
    vertex 7.580384651784976 479.9999999999992 508.66985188430004
    vertex -1.5946153482150471 479.9999999999993 515.0987938005443
    vertex 7.2386584628271695 479.9999999999992 508.9320676115866
  endloop
endfacet
facet normal -2.7755575615628877e-17 1.0 5.007417855406814e-32
  outer loop
    vertex 7.2386584628271695 479.9999999999992 508.9320676115866
    vertex -1.5946153482150471 479.9999999999993 515.0987938005443
    vertex 6.9764427355406555 479.9999999999992 509.27379380054435
  endloop
endfacet
facet normal -2.7755575615628877e-17 1.0 5.007417855406814e-32
  outer loop
    vertex 6.9764427355406555 479.9999999999992 509.27379380054435
    vertex -1.5946153482150471 479.9999999999993 515.0987938005443
    vertex 6.811607038408017 479.9999999999992 509.6717423761252
  endloop
endfacet
facet normal -2.7755575615628877e-17 1.0 5.007417855406814e-32
  outer loop
    vertex 6.811607038408017 479.9999999999992 509.6717423761252
    vertex -1.5946153482150471 479.9999999999993 515.0987938005443
    vertex 6.755384651784977 479.9999999999992 510.09879380054434
  endloop
endfacet
facet normal -2.7755575615628877e-17 1.0 5.007417855406814e-32
  outer loop
    vertex 6.755384651784977 479.9999999999992 510.09879380054434
    vertex -1.5946153482150471 479.9999999999993 515.0987938005443
    vertex 6.811607038408011 479.9999999999992 510.5258452249635
  endloop
endfacet
facet normal -2.7755575615628877e-17 1.0 5.007417855406814e-32
  outer loop
    vertex 6.811607038408011 479.9999999999992 510.5258452249635
    vertex -1.5946153482150471 479.9999999999993 515.0987938005443
    vertex 6.976442735540649 479.9999999999992 510.9237938005444
  endloop
endfacet
facet normal -2.7755575615628877e-17 1.0 5.007417855406814e-32
  outer loop
    vertex 6.976442735540649 479.9999999999992 510.9237938005444
    vertex -1.5946153482150471 479.9999999999993 515.0987938005443
    vertex 7.238658462827164 479.9999999999992 511.26551998950214
  endloop
endfacet
facet normal -2.7755575615628877e-17 1.0 5.007417855406814e-32
  outer loop
    vertex 7.238658462827164 479.9999999999992 511.26551998950214
    vertex -1.5946153482150471 479.9999999999993 515.0987938005443
    vertex 7.580384651784964 479.9999999999992 511.5277357167887
  endloop
endfacet
facet normal -2.7755575615628877e-17 1.0 5.007417855406814e-32
  outer loop
    vertex 7.580384651784964 479.9999999999992 511.5277357167887
    vertex -1.5946153482150471 479.9999999999993 515.0987938005443
    vertex 7.978333227365787 479.9999999999992 511.6925714139213
  endloop
endfacet
facet normal -2.7755575615628877e-17 1.0 5.007417855406814e-32
  outer loop
    vertex 7.978333227365787 479.9999999999992 511.6925714139213
    vertex -1.5946153482150471 479.9999999999993 515.0987938005443
    vertex 8.405384651784946 479.9999999999992 511.7487938005444
  endloop
endfacet
facet normal -2.7755575615628877e-17 1.0 5.007417855406814e-32
  outer loop
    vertex 8.405384651784946 479.9999999999992 511.7487938005444
    vertex -1.5946153482150471 479.9999999999993 515.0987938005443
    vertex 28.40538465178499 479.9999999999993 511.7487938005444
  endloop
endfacet
facet normal -2.7755575615628877e-17 1.0 5.007417855406814e-32
  outer loop
    vertex 25.928805781537786 479.9999999999993 505.09879380054434
    vertex 46.428805781537804 479.9999999999993 484.5987938005443
    vertex 25.928805781537775 479.9999999999993 484.5987938005443
  endloop
endfacet
facet normal -2.7755575615628877e-17 1.0 5.007417855406814e-32
  outer loop
    vertex 46.428805781537804 479.9999999999993 484.5987938005443
    vertex 25.928805781537786 479.9999999999993 505.09879380054434
    vertex 46.42880578153782 479.9999999999993 515.0987938005445
  endloop
endfacet
facet normal -2.7755575615628877e-17 1.0 5.007417855406814e-32
  outer loop
    vertex 46.42880578153782 479.9999999999993 515.0987938005445
    vertex 25.928805781537786 479.9999999999993 505.09879380054434
    vertex 28.832436076204147 479.9999999999993 508.5050161871674
  endloop
endfacet
facet normal -2.7755575615628877e-17 1.0 5.007417855406814e-32
  outer loop
    vertex 28.832436076204147 479.9999999999993 508.5050161871674
    vertex 25.928805781537786 479.9999999999993 505.09879380054434
    vertex 28.40538465178499 479.9999999999993 508.44879380054437
  endloop
endfacet
facet normal -2.7755575615628877e-17 1.0 5.007417855406814e-32
  outer loop
    vertex 28.40538465178499 479.9999999999993 508.44879380054437
    vertex 25.928805781537786 479.9999999999993 505.09879380054434
    vertex 8.405384651784956 479.9999999999992 508.44879380054437
  endloop
endfacet
facet normal -2.7755575615628877e-17 1.0 5.007417855406814e-32
  outer loop
    vertex 46.42880578153782 479.9999999999993 515.0987938005445
    vertex 28.832436076204147 479.9999999999993 508.5050161871674
    vertex 29.23038465178498 479.9999999999993 508.66985188430004
  endloop
endfacet
facet normal -2.7755575615628877e-17 1.0 5.007417855406814e-32
  outer loop
    vertex 46.42880578153782 479.9999999999993 515.0987938005445
    vertex 29.23038465178498 479.9999999999993 508.66985188430004
    vertex 29.57211084074278 479.9999999999993 508.9320676115866
  endloop
endfacet
facet normal -2.7755575615628877e-17 1.0 5.007417855406814e-32
  outer loop
    vertex 46.42880578153782 479.9999999999993 515.0987938005445
    vertex 29.57211084074278 479.9999999999993 508.9320676115866
    vertex 29.8343265680293 479.9999999999993 509.27379380054435
  endloop
endfacet
facet normal -2.7755575615628877e-17 1.0 5.007417855406814e-32
  outer loop
    vertex 46.42880578153782 479.9999999999993 515.0987938005445
    vertex 29.8343265680293 479.9999999999993 509.27379380054435
    vertex 29.99916226516194 479.9999999999993 509.6717423761252
  endloop
endfacet
facet normal -2.7755575615628877e-17 1.0 5.007417855406814e-32
  outer loop
    vertex 46.42880578153782 479.9999999999993 515.0987938005445
    vertex 29.99916226516194 479.9999999999993 509.6717423761252
    vertex 30.055384651784973 479.9999999999993 510.09879380054434
  endloop
endfacet
facet normal -2.7755575615628877e-17 1.0 5.007417855406814e-32
  outer loop
    vertex 46.42880578153782 479.9999999999993 515.0987938005445
    vertex 30.055384651784973 479.9999999999993 510.09879380054434
    vertex 29.99916226516194 479.9999999999993 510.5258452249635
  endloop
endfacet
facet normal -2.7755575615628877e-17 1.0 5.007417855406814e-32
  outer loop
    vertex 46.42880578153782 479.9999999999993 515.0987938005445
    vertex 29.99916226516194 479.9999999999993 510.5258452249635
    vertex 29.8343265680293 479.9999999999993 510.9237938005444
  endloop
endfacet
facet normal -2.7755575615628877e-17 1.0 5.007417855406814e-32
  outer loop
    vertex 46.42880578153782 479.9999999999993 515.0987938005445
    vertex 29.8343265680293 479.9999999999993 510.9237938005444
    vertex 29.57211084074278 479.9999999999993 511.26551998950214
  endloop
endfacet
facet normal -2.7755575615628877e-17 1.0 5.007417855406814e-32
  outer loop
    vertex 46.42880578153782 479.9999999999993 515.0987938005445
    vertex 29.57211084074278 479.9999999999993 511.26551998950214
    vertex 29.23038465178498 479.9999999999993 511.5277357167887
  endloop
endfacet
facet normal -2.7755575615628877e-17 1.0 5.007417855406814e-32
  outer loop
    vertex 46.42880578153782 479.9999999999993 515.0987938005445
    vertex 29.23038465178498 479.9999999999993 511.5277357167887
    vertex 28.83243607620414 479.9999999999993 511.6925714139213
  endloop
endfacet
facet normal -2.7755575615628877e-17 1.0 5.007417855406814e-32
  outer loop
    vertex 46.42880578153782 479.9999999999993 515.0987938005445
    vertex 28.83243607620414 479.9999999999993 511.6925714139213
    vertex 28.40538465178499 479.9999999999993 511.7487938005444
  endloop
endfacet
facet normal -2.7755575615628877e-17 1.0 5.007417855406814e-32
  outer loop
    vertex 46.42880578153782 479.9999999999993 515.0987938005445
    vertex 28.40538465178499 479.9999999999993 511.7487938005444
    vertex -1.5946153482150471 479.9999999999993 515.0987938005443
  endloop
endfacet
facet normal -2.7755575615628877e-17 1.0 5.007417855406814e-32
  outer loop
    vertex 8.832436076204116 479.9999999999992 508.5050161871674
    vertex 28.40538465178499 479.9999999999993 508.44879380054437
    vertex 8.405384651784956 479.9999999999992 508.44879380054437
  endloop
endfacet
facet normal -2.7755575615628877e-17 1.0 5.007417855406814e-32
  outer loop
    vertex 28.40538465178499 479.9999999999993 508.44879380054437
    vertex 8.832436076204116 479.9999999999992 508.5050161871674
    vertex 27.978333227365834 479.9999999999993 508.5050161871674
  endloop
endfacet
facet normal -2.7755575615628877e-17 1.0 5.007417855406814e-32
  outer loop
    vertex 27.978333227365834 479.9999999999993 508.5050161871674
    vertex 8.832436076204116 479.9999999999992 508.5050161871674
    vertex 9.230384651784966 479.9999999999992 508.66985188430004
  endloop
endfacet
facet normal -2.7755575615628877e-17 1.0 5.007417855406814e-32
  outer loop
    vertex 27.978333227365834 479.9999999999993 508.5050161871674
    vertex 9.230384651784966 479.9999999999992 508.66985188430004
    vertex 27.580384651784996 479.9999999999993 508.66985188430004
  endloop
endfacet
facet normal -2.7755575615628877e-17 1.0 5.007417855406814e-32
  outer loop
    vertex 27.580384651784996 479.9999999999993 508.66985188430004
    vertex 9.230384651784966 479.9999999999992 508.66985188430004
    vertex 9.572110840742766 479.9999999999992 508.9320676115866
  endloop
endfacet
facet normal -2.7755575615628877e-17 1.0 5.007417855406814e-32
  outer loop
    vertex 27.580384651784996 479.9999999999993 508.66985188430004
    vertex 9.572110840742766 479.9999999999992 508.9320676115866
    vertex 27.238658462827196 479.9999999999993 508.9320676115866
  endloop
endfacet
facet normal -2.7755575615628877e-17 1.0 5.007417855406814e-32
  outer loop
    vertex 27.238658462827196 479.9999999999993 508.9320676115866
    vertex 9.572110840742766 479.9999999999992 508.9320676115866
    vertex 9.834326568029287 479.9999999999992 509.27379380054435
  endloop
endfacet
facet normal -2.7755575615628877e-17 1.0 5.007417855406814e-32
  outer loop
    vertex 27.238658462827196 479.9999999999993 508.9320676115866
    vertex 9.834326568029287 479.9999999999992 509.27379380054435
    vertex 26.976442735540676 479.9999999999993 509.27379380054435
  endloop
endfacet
facet normal -2.7755575615628877e-17 1.0 5.007417855406814e-32
  outer loop
    vertex 26.976442735540676 479.9999999999993 509.27379380054435
    vertex 9.834326568029287 479.9999999999992 509.27379380054435
    vertex 9.999162265161926 479.9999999999992 509.6717423761252
  endloop
endfacet
facet normal -2.7755575615628877e-17 1.0 5.007417855406814e-32
  outer loop
    vertex 26.976442735540676 479.9999999999993 509.27379380054435
    vertex 9.999162265161926 479.9999999999992 509.6717423761252
    vertex 26.811607038408038 479.9999999999993 509.6717423761252
  endloop
endfacet
facet normal -2.7755575615628877e-17 1.0 5.007417855406814e-32
  outer loop
    vertex 26.811607038408038 479.9999999999993 509.6717423761252
    vertex 9.999162265161926 479.9999999999992 509.6717423761252
    vertex 10.05538465178496 479.9999999999992 510.09879380054434
  endloop
endfacet
facet normal -2.7755575615628877e-17 1.0 5.007417855406814e-32
  outer loop
    vertex 26.811607038408038 479.9999999999993 509.6717423761252
    vertex 10.05538465178496 479.9999999999992 510.09879380054434
    vertex 26.755384651785004 479.9999999999993 510.09879380054434
  endloop
endfacet
facet normal -2.7755575615628877e-17 1.0 5.007417855406814e-32
  outer loop
    vertex 26.755384651785004 479.9999999999993 510.09879380054434
    vertex 10.05538465178496 479.9999999999992 510.09879380054434
    vertex 9.999162265161926 479.9999999999992 510.5258452249635
  endloop
endfacet
facet normal -2.7755575615628877e-17 1.0 5.007417855406814e-32
  outer loop
    vertex 26.755384651785004 479.9999999999993 510.09879380054434
    vertex 9.999162265161926 479.9999999999992 510.5258452249635
    vertex 26.811607038408038 479.9999999999993 510.5258452249635
  endloop
endfacet
facet normal -2.7755575615628877e-17 1.0 5.007417855406814e-32
  outer loop
    vertex 26.811607038408038 479.9999999999993 510.5258452249635
    vertex 9.999162265161926 479.9999999999992 510.5258452249635
    vertex 9.834326568029287 479.9999999999992 510.9237938005444
  endloop
endfacet
facet normal -2.7755575615628877e-17 1.0 5.007417855406814e-32
  outer loop
    vertex 26.811607038408038 479.9999999999993 510.5258452249635
    vertex 9.834326568029287 479.9999999999992 510.9237938005444
    vertex 26.976442735540676 479.9999999999993 510.9237938005444
  endloop
endfacet
facet normal -2.7755575615628877e-17 1.0 5.007417855406814e-32
  outer loop
    vertex 26.976442735540676 479.9999999999993 510.9237938005444
    vertex 9.834326568029287 479.9999999999992 510.9237938005444
    vertex 9.572110840742766 479.9999999999992 511.26551998950214
  endloop
endfacet
facet normal -2.7755575615628877e-17 1.0 5.007417855406814e-32
  outer loop
    vertex 26.976442735540676 479.9999999999993 510.9237938005444
    vertex 9.572110840742766 479.9999999999992 511.26551998950214
    vertex 27.238658462827196 479.9999999999993 511.26551998950214
  endloop
endfacet
facet normal -2.7755575615628877e-17 1.0 5.007417855406814e-32
  outer loop
    vertex 27.238658462827196 479.9999999999993 511.26551998950214
    vertex 9.572110840742766 479.9999999999992 511.26551998950214
    vertex 9.230384651784966 479.9999999999992 511.5277357167887
  endloop
endfacet
facet normal -2.7755575615628877e-17 1.0 5.007417855406814e-32
  outer loop
    vertex 27.238658462827196 479.9999999999993 511.26551998950214
    vertex 9.230384651784966 479.9999999999992 511.5277357167887
    vertex 27.580384651784996 479.9999999999993 511.5277357167887
  endloop
endfacet
facet normal -2.7755575615628877e-17 1.0 5.007417855406814e-32
  outer loop
    vertex 27.580384651784996 479.9999999999993 511.5277357167887
    vertex 9.230384651784966 479.9999999999992 511.5277357167887
    vertex 8.832436076204104 479.9999999999992 511.6925714139213
  endloop
endfacet
facet normal -2.7755575615628877e-17 1.0 5.007417855406814e-32
  outer loop
    vertex 27.580384651784996 479.9999999999993 511.5277357167887
    vertex 8.832436076204104 479.9999999999992 511.6925714139213
    vertex 27.97833322736583 479.9999999999993 511.6925714139213
  endloop
endfacet
facet normal -2.7755575615628877e-17 1.0 5.007417855406814e-32
  outer loop
    vertex 27.97833322736583 479.9999999999993 511.6925714139213
    vertex 8.832436076204104 479.9999999999992 511.6925714139213
    vertex 8.405384651784946 479.9999999999992 511.7487938005444
  endloop
endfacet
facet normal -2.7755575615628877e-17 1.0 5.007417855406814e-32
  outer loop
    vertex 27.97833322736583 479.9999999999993 511.6925714139213
    vertex 8.405384651784946 479.9999999999992 511.7487938005444
    vertex 28.40538465178499 479.9999999999993 511.7487938005444
  endloop
endfacet
facet normal 2.775557561562934e-17 1.1970421191150235e-16 -1.0
  outer loop
    vertex 25.928805781537775 474.9999999999997 484.5987938005443
    vertex 46.428805781537804 479.9999999999993 484.5987938005443
    vertex 46.42880578153782 474.9999999999997 484.5987938005443
  endloop
endfacet
facet normal 2.775557561562934e-17 1.1970421191150235e-16 -1.0
  outer loop
    vertex 46.428805781537804 479.9999999999993 484.5987938005443
    vertex 25.928805781537775 474.9999999999997 484.5987938005443
    vertex 25.928805781537775 479.9999999999993 484.5987938005443
  endloop
endfacet
facet normal 1.0 2.7755575615628873e-17 2.7755575615629283e-17
  outer loop
    vertex 46.42880578153782 474.9999999999997 515.0987938005445
    vertex 46.428805781537804 479.9999999999993 484.5987938005443
    vertex 46.42880578153782 479.9999999999993 515.0987938005445
  endloop
endfacet
facet normal 1.0 2.7755575615628873e-17 2.7755575615629283e-17
  outer loop
    vertex 46.428805781537804 479.9999999999993 484.5987938005443
    vertex 46.42880578153782 474.9999999999997 515.0987938005445
    vertex 46.42880578153782 474.9999999999997 484.5987938005443
  endloop
endfacet
facet normal 2.7755575615628877e-17 -1.0 -5.007417855406814e-32
  outer loop
    vertex 46.42880578153782 474.9999999999997 515.0987938005445
    vertex 25.928805781537775 474.9999999999997 484.5987938005443
    vertex 46.42880578153782 474.9999999999997 484.5987938005443
  endloop
endfacet
facet normal 2.7755575615628877e-17 -1.0 -5.007417855406814e-32
  outer loop
    vertex 25.928805781537775 474.9999999999997 484.5987938005443
    vertex 46.42880578153782 474.9999999999997 515.0987938005445
    vertex 25.928805781537786 474.9999999999997 505.09879380054434
  endloop
endfacet
facet normal 2.7755575615628877e-17 -1.0 -5.007417855406814e-32
  outer loop
    vertex 25.928805781537786 474.9999999999997 505.09879380054434
    vertex 46.42880578153782 474.9999999999997 515.0987938005445
    vertex 28.832436076204147 474.9999999999997 508.5050161871674
  endloop
endfacet
facet normal 2.7755575615628877e-17 -1.0 -5.007417855406814e-32
  outer loop
    vertex 25.928805781537786 474.9999999999997 505.09879380054434
    vertex 28.832436076204147 474.9999999999997 508.5050161871674
    vertex 28.40538465178499 474.9999999999997 508.44879380054437
  endloop
endfacet
facet normal 2.7755575615628877e-17 -1.0 -5.007417855406814e-32
  outer loop
    vertex 25.928805781537786 474.9999999999997 505.09879380054434
    vertex 28.40538465178499 474.9999999999997 508.44879380054437
    vertex -1.5946153482150358 474.9999999999997 505.09879380054434
  endloop
endfacet
facet normal 2.7755575615628877e-17 -1.0 -5.007417855406814e-32
  outer loop
    vertex 28.832436076204147 474.9999999999997 508.5050161871674
    vertex 46.42880578153782 474.9999999999997 515.0987938005445
    vertex 29.23038465178498 474.9999999999997 508.66985188430004
  endloop
endfacet
facet normal 2.7755575615628877e-17 -1.0 -5.007417855406814e-32
  outer loop
    vertex 29.23038465178498 474.9999999999997 508.66985188430004
    vertex 46.42880578153782 474.9999999999997 515.0987938005445
    vertex 29.57211084074278 474.9999999999997 508.9320676115866
  endloop
endfacet
facet normal 2.7755575615628877e-17 -1.0 -5.007417855406814e-32
  outer loop
    vertex 29.57211084074278 474.9999999999997 508.9320676115866
    vertex 46.42880578153782 474.9999999999997 515.0987938005445
    vertex 29.8343265680293 474.9999999999997 509.27379380054435
  endloop
endfacet
facet normal 2.7755575615628877e-17 -1.0 -5.007417855406814e-32
  outer loop
    vertex 29.8343265680293 474.9999999999997 509.27379380054435
    vertex 46.42880578153782 474.9999999999997 515.0987938005445
    vertex 29.99916226516194 474.9999999999997 509.6717423761252
  endloop
endfacet
facet normal 2.7755575615628877e-17 -1.0 -5.007417855406814e-32
  outer loop
    vertex 29.99916226516194 474.9999999999997 509.6717423761252
    vertex 46.42880578153782 474.9999999999997 515.0987938005445
    vertex 30.055384651784973 474.9999999999997 510.09879380054434
  endloop
endfacet
facet normal 2.7755575615628877e-17 -1.0 -5.007417855406814e-32
  outer loop
    vertex 30.055384651784973 474.9999999999997 510.09879380054434
    vertex 46.42880578153782 474.9999999999997 515.0987938005445
    vertex 29.99916226516194 474.9999999999997 510.5258452249635
  endloop
endfacet
facet normal 2.7755575615628877e-17 -1.0 -5.007417855406814e-32
  outer loop
    vertex 29.99916226516194 474.9999999999997 510.5258452249635
    vertex 46.42880578153782 474.9999999999997 515.0987938005445
    vertex 29.8343265680293 474.9999999999997 510.9237938005444
  endloop
endfacet
facet normal 2.7755575615628877e-17 -1.0 -5.007417855406814e-32
  outer loop
    vertex 29.8343265680293 474.9999999999997 510.9237938005444
    vertex 46.42880578153782 474.9999999999997 515.0987938005445
    vertex 29.57211084074278 474.9999999999997 511.26551998950214
  endloop
endfacet
facet normal 2.7755575615628877e-17 -1.0 -5.007417855406814e-32
  outer loop
    vertex 29.57211084074278 474.9999999999997 511.26551998950214
    vertex 46.42880578153782 474.9999999999997 515.0987938005445
    vertex 29.23038465178498 474.9999999999997 511.5277357167887
  endloop
endfacet
facet normal 2.7755575615628877e-17 -1.0 -5.007417855406814e-32
  outer loop
    vertex 29.23038465178498 474.9999999999997 511.5277357167887
    vertex 46.42880578153782 474.9999999999997 515.0987938005445
    vertex 28.83243607620414 474.9999999999997 511.6925714139213
  endloop
endfacet
facet normal 2.7755575615628877e-17 -1.0 -5.007417855406814e-32
  outer loop
    vertex 28.83243607620414 474.9999999999997 511.6925714139213
    vertex 46.42880578153782 474.9999999999997 515.0987938005445
    vertex 28.40538465178499 474.9999999999997 511.7487938005444
  endloop
endfacet
facet normal 2.7755575615628877e-17 -1.0 -5.007417855406814e-32
  outer loop
    vertex 28.40538465178499 474.9999999999997 511.7487938005444
    vertex 46.42880578153782 474.9999999999997 515.0987938005445
    vertex 8.405384651784946 474.9999999999997 511.7487938005444
  endloop
endfacet
facet normal 2.7755575615628877e-17 -1.0 -5.007417855406814e-32
  outer loop
    vertex 8.405384651784946 474.9999999999997 511.7487938005444
    vertex 46.42880578153782 474.9999999999997 515.0987938005445
    vertex -1.5946153482150471 474.9999999999997 515.0987938005443
  endloop
endfacet
facet normal 2.7755575615628877e-17 -1.0 -5.007417855406814e-32
  outer loop
    vertex -1.5946153482150358 474.9999999999997 505.09879380054434
    vertex 7.580384651784976 474.9999999999997 508.66985188430004
    vertex -1.5946153482150471 474.9999999999997 515.0987938005443
  endloop
endfacet
facet normal 2.7755575615628877e-17 -1.0 -5.007417855406814e-32
  outer loop
    vertex 7.580384651784976 474.9999999999997 508.66985188430004
    vertex -1.5946153482150358 474.9999999999997 505.09879380054434
    vertex 7.978333227365798 474.9999999999997 508.5050161871674
  endloop
endfacet
facet normal 2.7755575615628877e-17 -1.0 -5.007417855406814e-32
  outer loop
    vertex 7.978333227365798 474.9999999999997 508.5050161871674
    vertex -1.5946153482150358 474.9999999999997 505.09879380054434
    vertex 8.405384651784956 474.9999999999997 508.44879380054437
  endloop
endfacet
facet normal 2.7755575615628877e-17 -1.0 -5.007417855406814e-32
  outer loop
    vertex 8.405384651784956 474.9999999999997 508.44879380054437
    vertex -1.5946153482150358 474.9999999999997 505.09879380054434
    vertex 28.40538465178499 474.9999999999997 508.44879380054437
  endloop
endfacet
facet normal 2.7755575615628877e-17 -1.0 -5.007417855406814e-32
  outer loop
    vertex -1.5946153482150471 474.9999999999997 515.0987938005443
    vertex 7.580384651784976 474.9999999999997 508.66985188430004
    vertex 7.2386584628271695 474.9999999999997 508.9320676115866
  endloop
endfacet
facet normal 2.7755575615628877e-17 -1.0 -5.007417855406814e-32
  outer loop
    vertex -1.5946153482150471 474.9999999999997 515.0987938005443
    vertex 7.2386584628271695 474.9999999999997 508.9320676115866
    vertex 6.9764427355406555 474.9999999999997 509.27379380054435
  endloop
endfacet
facet normal 2.7755575615628877e-17 -1.0 -5.007417855406814e-32
  outer loop
    vertex -1.5946153482150471 474.9999999999997 515.0987938005443
    vertex 6.9764427355406555 474.9999999999997 509.27379380054435
    vertex 6.811607038408017 474.9999999999997 509.6717423761252
  endloop
endfacet
facet normal 2.7755575615628877e-17 -1.0 -5.007417855406814e-32
  outer loop
    vertex -1.5946153482150471 474.9999999999997 515.0987938005443
    vertex 6.811607038408017 474.9999999999997 509.6717423761252
    vertex 6.755384651784977 474.9999999999997 510.09879380054434
  endloop
endfacet
facet normal 2.7755575615628877e-17 -1.0 -5.007417855406814e-32
  outer loop
    vertex -1.5946153482150471 474.9999999999997 515.0987938005443
    vertex 6.755384651784977 474.9999999999997 510.09879380054434
    vertex 6.811607038408011 474.9999999999997 510.5258452249635
  endloop
endfacet
facet normal 2.7755575615628877e-17 -1.0 -5.007417855406814e-32
  outer loop
    vertex -1.5946153482150471 474.9999999999997 515.0987938005443
    vertex 6.811607038408011 474.9999999999997 510.5258452249635
    vertex 6.976442735540649 474.9999999999997 510.9237938005444
  endloop
endfacet
facet normal 2.7755575615628877e-17 -1.0 -5.007417855406814e-32
  outer loop
    vertex -1.5946153482150471 474.9999999999997 515.0987938005443
    vertex 6.976442735540649 474.9999999999997 510.9237938005444
    vertex 7.238658462827164 474.9999999999997 511.26551998950214
  endloop
endfacet
facet normal 2.7755575615628877e-17 -1.0 -5.007417855406814e-32
  outer loop
    vertex -1.5946153482150471 474.9999999999997 515.0987938005443
    vertex 7.238658462827164 474.9999999999997 511.26551998950214
    vertex 7.580384651784964 474.9999999999997 511.5277357167887
  endloop
endfacet
facet normal 2.7755575615628877e-17 -1.0 -5.007417855406814e-32
  outer loop
    vertex -1.5946153482150471 474.9999999999997 515.0987938005443
    vertex 7.580384651784964 474.9999999999997 511.5277357167887
    vertex 7.978333227365787 474.9999999999997 511.6925714139213
  endloop
endfacet
facet normal 2.7755575615628877e-17 -1.0 -5.007417855406814e-32
  outer loop
    vertex -1.5946153482150471 474.9999999999997 515.0987938005443
    vertex 7.978333227365787 474.9999999999997 511.6925714139213
    vertex 8.405384651784946 474.9999999999997 511.7487938005444
  endloop
endfacet
facet normal 2.7755575615628877e-17 -1.0 -5.007417855406814e-32
  outer loop
    vertex 27.978333227365834 474.9999999999997 508.5050161871674
    vertex 8.405384651784956 474.9999999999997 508.44879380054437
    vertex 28.40538465178499 474.9999999999997 508.44879380054437
  endloop
endfacet
facet normal 2.7755575615628877e-17 -1.0 -5.007417855406814e-32
  outer loop
    vertex 8.405384651784956 474.9999999999997 508.44879380054437
    vertex 27.978333227365834 474.9999999999997 508.5050161871674
    vertex 8.832436076204116 474.9999999999997 508.5050161871674
  endloop
endfacet
facet normal 2.7755575615628877e-17 -1.0 -5.007417855406814e-32
  outer loop
    vertex 8.832436076204116 474.9999999999997 508.5050161871674
    vertex 27.978333227365834 474.9999999999997 508.5050161871674
    vertex 27.580384651784996 474.9999999999997 508.66985188430004
  endloop
endfacet
facet normal 2.7755575615628877e-17 -1.0 -5.007417855406814e-32
  outer loop
    vertex 8.832436076204116 474.9999999999997 508.5050161871674
    vertex 27.580384651784996 474.9999999999997 508.66985188430004
    vertex 9.230384651784966 474.9999999999997 508.66985188430004
  endloop
endfacet
facet normal 2.7755575615628877e-17 -1.0 -5.007417855406814e-32
  outer loop
    vertex 9.230384651784966 474.9999999999997 508.66985188430004
    vertex 27.580384651784996 474.9999999999997 508.66985188430004
    vertex 27.238658462827196 474.9999999999997 508.9320676115866
  endloop
endfacet
facet normal 2.7755575615628877e-17 -1.0 -5.007417855406814e-32
  outer loop
    vertex 9.230384651784966 474.9999999999997 508.66985188430004
    vertex 27.238658462827196 474.9999999999997 508.9320676115866
    vertex 9.572110840742766 474.9999999999997 508.9320676115866
  endloop
endfacet
facet normal 2.7755575615628877e-17 -1.0 -5.007417855406814e-32
  outer loop
    vertex 9.572110840742766 474.9999999999997 508.9320676115866
    vertex 27.238658462827196 474.9999999999997 508.9320676115866
    vertex 26.976442735540676 474.9999999999997 509.27379380054435
  endloop
endfacet
facet normal 2.7755575615628877e-17 -1.0 -5.007417855406814e-32
  outer loop
    vertex 9.572110840742766 474.9999999999997 508.9320676115866
    vertex 26.976442735540676 474.9999999999997 509.27379380054435
    vertex 9.834326568029287 474.9999999999997 509.27379380054435
  endloop
endfacet
facet normal 2.7755575615628877e-17 -1.0 -5.007417855406814e-32
  outer loop
    vertex 9.834326568029287 474.9999999999997 509.27379380054435
    vertex 26.976442735540676 474.9999999999997 509.27379380054435
    vertex 26.811607038408038 474.9999999999997 509.6717423761252
  endloop
endfacet
facet normal 2.7755575615628877e-17 -1.0 -5.007417855406814e-32
  outer loop
    vertex 9.834326568029287 474.9999999999997 509.27379380054435
    vertex 26.811607038408038 474.9999999999997 509.6717423761252
    vertex 9.999162265161926 474.9999999999997 509.6717423761252
  endloop
endfacet
facet normal 2.7755575615628877e-17 -1.0 -5.007417855406814e-32
  outer loop
    vertex 9.999162265161926 474.9999999999997 509.6717423761252
    vertex 26.811607038408038 474.9999999999997 509.6717423761252
    vertex 26.755384651785004 474.9999999999997 510.09879380054434
  endloop
endfacet
facet normal 2.7755575615628877e-17 -1.0 -5.007417855406814e-32
  outer loop
    vertex 9.999162265161926 474.9999999999997 509.6717423761252
    vertex 26.755384651785004 474.9999999999997 510.09879380054434
    vertex 10.05538465178496 474.9999999999997 510.09879380054434
  endloop
endfacet
facet normal 2.7755575615628877e-17 -1.0 -5.007417855406814e-32
  outer loop
    vertex 10.05538465178496 474.9999999999997 510.09879380054434
    vertex 26.755384651785004 474.9999999999997 510.09879380054434
    vertex 26.811607038408038 474.9999999999997 510.5258452249635
  endloop
endfacet
facet normal 2.7755575615628877e-17 -1.0 -5.007417855406814e-32
  outer loop
    vertex 10.05538465178496 474.9999999999997 510.09879380054434
    vertex 26.811607038408038 474.9999999999997 510.5258452249635
    vertex 9.999162265161926 474.9999999999997 510.5258452249635
  endloop
endfacet
facet normal 2.7755575615628877e-17 -1.0 -5.007417855406814e-32
  outer loop
    vertex 9.999162265161926 474.9999999999997 510.5258452249635
    vertex 26.811607038408038 474.9999999999997 510.5258452249635
    vertex 26.976442735540676 474.9999999999997 510.9237938005444
  endloop
endfacet
facet normal 2.7755575615628877e-17 -1.0 -5.007417855406814e-32
  outer loop
    vertex 9.999162265161926 474.9999999999997 510.5258452249635
    vertex 26.976442735540676 474.9999999999997 510.9237938005444
    vertex 9.834326568029287 474.9999999999997 510.9237938005444
  endloop
endfacet
facet normal 2.7755575615628877e-17 -1.0 -5.007417855406814e-32
  outer loop
    vertex 9.834326568029287 474.9999999999997 510.9237938005444
    vertex 26.976442735540676 474.9999999999997 510.9237938005444
    vertex 27.238658462827196 474.9999999999997 511.26551998950214
  endloop
endfacet
facet normal 2.7755575615628877e-17 -1.0 -5.007417855406814e-32
  outer loop
    vertex 9.834326568029287 474.9999999999997 510.9237938005444
    vertex 27.238658462827196 474.9999999999997 511.26551998950214
    vertex 9.572110840742766 474.9999999999997 511.26551998950214
  endloop
endfacet
facet normal 2.7755575615628877e-17 -1.0 -5.007417855406814e-32
  outer loop
    vertex 9.572110840742766 474.9999999999997 511.26551998950214
    vertex 27.238658462827196 474.9999999999997 511.26551998950214
    vertex 27.580384651784996 474.9999999999997 511.5277357167887
  endloop
endfacet
facet normal 2.7755575615628877e-17 -1.0 -5.007417855406814e-32
  outer loop
    vertex 9.572110840742766 474.9999999999997 511.26551998950214
    vertex 27.580384651784996 474.9999999999997 511.5277357167887
    vertex 9.230384651784966 474.9999999999997 511.5277357167887
  endloop
endfacet
facet normal 2.7755575615628877e-17 -1.0 -5.007417855406814e-32
  outer loop
    vertex 9.230384651784966 474.9999999999997 511.5277357167887
    vertex 27.580384651784996 474.9999999999997 511.5277357167887
    vertex 27.97833322736583 474.9999999999997 511.6925714139213
  endloop
endfacet
facet normal 2.7755575615628877e-17 -1.0 -5.007417855406814e-32
  outer loop
    vertex 9.230384651784966 474.9999999999997 511.5277357167887
    vertex 27.97833322736583 474.9999999999997 511.6925714139213
    vertex 8.832436076204104 474.9999999999997 511.6925714139213
  endloop
endfacet
facet normal 2.7755575615628877e-17 -1.0 -5.007417855406814e-32
  outer loop
    vertex 8.832436076204104 474.9999999999997 511.6925714139213
    vertex 27.97833322736583 474.9999999999997 511.6925714139213
    vertex 28.40538465178499 474.9999999999997 511.7487938005444
  endloop
endfacet
facet normal 2.7755575615628877e-17 -1.0 -5.007417855406814e-32
  outer loop
    vertex 8.832436076204104 474.9999999999997 511.6925714139213
    vertex 28.40538465178499 474.9999999999997 511.7487938005444
    vertex 8.405384651784946 474.9999999999997 511.7487938005444
  endloop
endfacet
facet normal -4.9793397218011945e-15 -1.1970421191150625e-16 1.0
  outer loop
    vertex -1.5946153482150471 479.9999999999993 515.0987938005443
    vertex 46.42880578153782 474.9999999999997 515.0987938005445
    vertex 46.42880578153782 479.9999999999993 515.0987938005445
  endloop
endfacet
facet normal -4.9793397218011945e-15 -1.1970421191150625e-16 1.0
  outer loop
    vertex 46.42880578153782 474.9999999999997 515.0987938005445
    vertex -1.5946153482150471 479.9999999999993 515.0987938005443
    vertex -1.5946153482150471 474.9999999999997 515.0987938005443
  endloop
endfacet
facet normal -1.0 2.7755575615628914e-17 2.8331425541254476e-16
  outer loop
    vertex 25.928805781537775 474.9999999999997 484.5987938005443
    vertex 25.928805781537786 479.9999999999993 505.09879380054434
    vertex 25.928805781537775 479.9999999999993 484.5987938005443
  endloop
endfacet
facet normal -1.0 2.7755575615628914e-17 2.8331425541254476e-16
  outer loop
    vertex 25.928805781537786 479.9999999999993 505.09879380054434
    vertex 25.928805781537775 474.9999999999997 484.5987938005443
    vertex 25.928805781537786 474.9999999999997 505.09879380054434
  endloop
endfacet
facet normal -1.0 2.7755575615628914e-17 -1.1279865930191575e-15
  outer loop
    vertex -1.5946153482150358 474.9999999999997 505.09879380054434
    vertex -1.5946153482150471 479.9999999999993 515.0987938005443
    vertex -1.5946153482150358 479.9999999999993 505.09879380054434
  endloop
endfacet
facet normal -1.0 2.7755575615628914e-17 -1.1279865930191575e-15
  outer loop
    vertex -1.5946153482150471 479.9999999999993 515.0987938005443
    vertex -1.5946153482150358 474.9999999999997 505.09879380054434
    vertex -1.5946153482150471 474.9999999999997 515.0987938005443
  endloop
endfacet
facet normal 1.1279865930191589e-15 -9.272197124257908e-32 -1.0
  outer loop
    vertex -1.5946153482150358 474.9999999999997 505.09879380054434
    vertex 25.928805781537786 479.9999999999993 505.09879380054434
    vertex 25.928805781537786 474.9999999999997 505.09879380054434
  endloop
endfacet
facet normal 1.1279865930191589e-15 -9.272197124257908e-32 -1.0
  outer loop
    vertex 25.928805781537786 479.9999999999993 505.09879380054434
    vertex -1.5946153482150358 474.9999999999997 505.09879380054434
    vertex -1.5946153482150358 479.9999999999993 505.09879380054434
  endloop
endfacet
facet normal -0.3826834323650247 1.0621598943855932e-17 0.9238795325113137
  outer loop
    vertex 8.832436076204116 479.9999999999992 508.5050161871674
    vertex 9.230384651784966 474.9999999999997 508.66985188430004
    vertex 9.230384651784966 479.9999999999992 508.66985188430004
  endloop
endfacet
facet normal -0.3826834323650247 1.0621598943855932e-17 0.9238795325113137
  outer loop
    vertex 9.230384651784966 474.9999999999997 508.66985188430004
    vertex 8.832436076204116 479.9999999999992 508.5050161871674
    vertex 8.832436076204116 474.9999999999997 508.5050161871674
  endloop
endfacet
facet normal -0.6087614290087411 1.689652387473048e-17 0.7933533402912195
  outer loop
    vertex 9.230384651784966 479.9999999999992 508.66985188430004
    vertex 9.572110840742766 474.9999999999997 508.9320676115866
    vertex 9.572110840742766 479.9999999999992 508.9320676115866
  endloop
endfacet
facet normal -0.6087614290087411 1.689652387473048e-17 0.7933533402912195
  outer loop
    vertex 9.572110840742766 474.9999999999997 508.9320676115866
    vertex 9.230384651784966 479.9999999999992 508.66985188430004
    vertex 9.230384651784966 474.9999999999997 508.66985188430004
  endloop
endfacet
facet normal -0.7933533402912258 2.2019978626364948e-17 0.6087614290087329
  outer loop
    vertex 9.572110840742766 474.9999999999997 508.9320676115866
    vertex 9.834326568029287 479.9999999999992 509.27379380054435
    vertex 9.572110840742766 479.9999999999992 508.9320676115866
  endloop
endfacet
facet normal -0.7933533402912258 2.2019978626364948e-17 0.6087614290087329
  outer loop
    vertex 9.834326568029287 479.9999999999992 509.27379380054435
    vertex 9.572110840742766 474.9999999999997 508.9320676115866
    vertex 9.834326568029287 474.9999999999997 509.27379380054435
  endloop
endfacet
facet normal -0.9238795325112938 2.5642808224349163e-17 0.3826834323650726
  outer loop
    vertex 9.834326568029287 474.9999999999997 509.27379380054435
    vertex 9.999162265161926 479.9999999999992 509.6717423761252
    vertex 9.834326568029287 479.9999999999992 509.27379380054435
  endloop
endfacet
facet normal -0.9238795325112938 2.5642808224349163e-17 0.3826834323650726
  outer loop
    vertex 9.999162265161926 479.9999999999992 509.6717423761252
    vertex 9.834326568029287 474.9999999999997 509.27379380054435
    vertex 9.999162265161926 474.9999999999997 509.6717423761252
  endloop
endfacet
facet normal -0.99144486137381 2.7518122818587474e-17 0.1305261922200548
  outer loop
    vertex 9.999162265161926 474.9999999999997 509.6717423761252
    vertex 10.05538465178496 479.9999999999992 510.09879380054434
    vertex 9.999162265161926 479.9999999999992 509.6717423761252
  endloop
endfacet
facet normal -0.99144486137381 2.7518122818587474e-17 0.1305261922200548
  outer loop
    vertex 10.05538465178496 479.9999999999992 510.09879380054434
    vertex 9.999162265161926 474.9999999999997 509.6717423761252
    vertex 10.05538465178496 474.9999999999997 510.09879380054434
  endloop
endfacet
facet normal -0.9914448613738092 2.7518122818587474e-17 -0.13052619222006123
  outer loop
    vertex 10.05538465178496 474.9999999999997 510.09879380054434
    vertex 9.999162265161926 479.9999999999992 510.5258452249635
    vertex 10.05538465178496 479.9999999999992 510.09879380054434
  endloop
endfacet
facet normal -0.9914448613738092 2.7518122818587474e-17 -0.13052619222006123
  outer loop
    vertex 9.999162265161926 479.9999999999992 510.5258452249635
    vertex 10.05538465178496 474.9999999999997 510.09879380054434
    vertex 9.999162265161926 474.9999999999997 510.5258452249635
  endloop
endfacet
facet normal -0.9238795325112938 2.5642808224349107e-17 -0.3826834323650726
  outer loop
    vertex 9.999162265161926 474.9999999999997 510.5258452249635
    vertex 9.834326568029287 479.9999999999992 510.9237938005444
    vertex 9.999162265161926 479.9999999999992 510.5258452249635
  endloop
endfacet
facet normal -0.9238795325112938 2.5642808224349107e-17 -0.3826834323650726
  outer loop
    vertex 9.834326568029287 479.9999999999992 510.9237938005444
    vertex 9.999162265161926 474.9999999999997 510.5258452249635
    vertex 9.834326568029287 474.9999999999997 510.9237938005444
  endloop
endfacet
facet normal -0.7933533402912243 2.201997862636482e-17 -0.608761429008735
  outer loop
    vertex 9.834326568029287 474.9999999999997 510.9237938005444
    vertex 9.572110840742766 479.9999999999992 511.26551998950214
    vertex 9.834326568029287 479.9999999999992 510.9237938005444
  endloop
endfacet
facet normal -0.7933533402912243 2.201997862636482e-17 -0.608761429008735
  outer loop
    vertex 9.572110840742766 479.9999999999992 511.26551998950214
    vertex 9.834326568029287 474.9999999999997 510.9237938005444
    vertex 9.572110840742766 474.9999999999997 511.26551998950214
  endloop
endfacet
facet normal -0.6087614290087394 1.6896523874730318e-17 -0.7933533402912207
  outer loop
    vertex 9.230384651784966 474.9999999999997 511.5277357167887
    vertex 9.572110840742766 479.9999999999992 511.26551998950214
    vertex 9.572110840742766 474.9999999999997 511.26551998950214
  endloop
endfacet
facet normal -0.6087614290087394 1.6896523874730318e-17 -0.7933533402912207
  outer loop
    vertex 9.572110840742766 479.9999999999992 511.26551998950214
    vertex 9.230384651784966 474.9999999999997 511.5277357167887
    vertex 9.230384651784966 479.9999999999992 511.5277357167887
  endloop
endfacet
facet normal -0.3826834323650247 1.0621598943855821e-17 -0.9238795325113137
  outer loop
    vertex 8.832436076204104 474.9999999999997 511.6925714139213
    vertex 9.230384651784966 479.9999999999992 511.5277357167887
    vertex 9.230384651784966 474.9999999999997 511.5277357167887
  endloop
endfacet
facet normal -0.3826834323650247 1.0621598943855821e-17 -0.9238795325113137
  outer loop
    vertex 9.230384651784966 479.9999999999992 511.5277357167887
    vertex 8.832436076204104 474.9999999999997 511.6925714139213
    vertex 8.832436076204104 479.9999999999992 511.6925714139213
  endloop
endfacet
facet normal -0.13052619222012302 3.622829597985692e-18 -0.9914448613738012
  outer loop
    vertex 8.405384651784946 474.9999999999997 511.7487938005444
    vertex 8.832436076204104 479.9999999999992 511.6925714139213
    vertex 8.832436076204104 474.9999999999997 511.6925714139213
  endloop
endfacet
facet normal -0.13052619222012302 3.622829597985692e-18 -0.9914448613738012
  outer loop
    vertex 8.832436076204104 479.9999999999992 511.6925714139213
    vertex 8.405384651784946 474.9999999999997 511.7487938005444
    vertex 8.405384651784946 479.9999999999992 511.7487938005444
  endloop
endfacet
facet normal 0.13052619222012254 -3.6228295979857804e-18 -0.9914448613738011
  outer loop
    vertex 7.978333227365787 474.9999999999997 511.6925714139213
    vertex 8.405384651784946 479.9999999999992 511.7487938005444
    vertex 8.405384651784946 474.9999999999997 511.7487938005444
  endloop
endfacet
facet normal 0.13052619222012254 -3.6228295979857804e-18 -0.9914448613738011
  outer loop
    vertex 8.405384651784946 479.9999999999992 511.7487938005444
    vertex 7.978333227365787 474.9999999999997 511.6925714139213
    vertex 7.978333227365787 479.9999999999992 511.6925714139213
  endloop
endfacet
facet normal 0.3826834323650259 -1.0621598943855999e-17 -0.9238795325113132
  outer loop
    vertex 7.580384651784964 474.9999999999997 511.5277357167887
    vertex 7.978333227365787 479.9999999999992 511.6925714139213
    vertex 7.978333227365787 474.9999999999997 511.6925714139213
  endloop
endfacet
facet normal 0.3826834323650259 -1.0621598943855999e-17 -0.9238795325113132
  outer loop
    vertex 7.978333227365787 479.9999999999992 511.6925714139213
    vertex 7.580384651784964 474.9999999999997 511.5277357167887
    vertex 7.580384651784964 479.9999999999992 511.5277357167887
  endloop
endfacet
facet normal 0.6087614290087411 -1.689652387473048e-17 -0.7933533402912195
  outer loop
    vertex 7.238658462827164 474.9999999999997 511.26551998950214
    vertex 7.580384651784964 479.9999999999992 511.5277357167887
    vertex 7.580384651784964 474.9999999999997 511.5277357167887
  endloop
endfacet
facet normal 0.6087614290087411 -1.689652387473048e-17 -0.7933533402912195
  outer loop
    vertex 7.580384651784964 479.9999999999992 511.5277357167887
    vertex 7.238658462827164 474.9999999999997 511.26551998950214
    vertex 7.238658462827164 479.9999999999992 511.26551998950214
  endloop
endfacet
facet normal 0.7933533402912258 -2.2019978626364948e-17 -0.6087614290087329
  outer loop
    vertex 7.238658462827164 474.9999999999997 511.26551998950214
    vertex 6.976442735540649 479.9999999999992 510.9237938005444
    vertex 7.238658462827164 479.9999999999992 511.26551998950214
  endloop
endfacet
facet normal 0.7933533402912258 -2.2019978626364948e-17 -0.6087614290087329
  outer loop
    vertex 6.976442735540649 479.9999999999992 510.9237938005444
    vertex 7.238658462827164 474.9999999999997 511.26551998950214
    vertex 6.976442735540649 474.9999999999997 510.9237938005444
  endloop
endfacet
facet normal 0.9238795325112938 -2.5642808224349163e-17 -0.3826834323650726
  outer loop
    vertex 6.976442735540649 474.9999999999997 510.9237938005444
    vertex 6.811607038408011 479.9999999999992 510.5258452249635
    vertex 6.976442735540649 479.9999999999992 510.9237938005444
  endloop
endfacet
facet normal 0.9238795325112938 -2.5642808224349163e-17 -0.3826834323650726
  outer loop
    vertex 6.811607038408011 479.9999999999992 510.5258452249635
    vertex 6.976442735540649 474.9999999999997 510.9237938005444
    vertex 6.811607038408011 474.9999999999997 510.5258452249635
  endloop
endfacet
facet normal 0.99144486137381 -2.7518122818587474e-17 -0.1305261922200548
  outer loop
    vertex 6.811607038408011 474.9999999999997 510.5258452249635
    vertex 6.755384651784977 479.9999999999992 510.09879380054434
    vertex 6.811607038408011 479.9999999999992 510.5258452249635
  endloop
endfacet
facet normal 0.99144486137381 -2.7518122818587474e-17 -0.1305261922200548
  outer loop
    vertex 6.755384651784977 479.9999999999992 510.09879380054434
    vertex 6.811607038408011 474.9999999999997 510.5258452249635
    vertex 6.755384651784977 474.9999999999997 510.09879380054434
  endloop
endfacet
facet normal 0.9914448613738092 -2.7518122818587474e-17 0.13052619222006123
  outer loop
    vertex 6.755384651784977 474.9999999999997 510.09879380054434
    vertex 6.811607038408017 479.9999999999992 509.6717423761252
    vertex 6.755384651784977 479.9999999999992 510.09879380054434
  endloop
endfacet
facet normal 0.9914448613738092 -2.7518122818587474e-17 0.13052619222006123
  outer loop
    vertex 6.811607038408017 479.9999999999992 509.6717423761252
    vertex 6.755384651784977 474.9999999999997 510.09879380054434
    vertex 6.811607038408017 474.9999999999997 509.6717423761252
  endloop
endfacet
facet normal 0.9238795325112938 -2.5642808224349107e-17 0.3826834323650726
  outer loop
    vertex 6.811607038408017 474.9999999999997 509.6717423761252
    vertex 6.9764427355406555 479.9999999999992 509.27379380054435
    vertex 6.811607038408017 479.9999999999992 509.6717423761252
  endloop
endfacet
facet normal 0.9238795325112938 -2.5642808224349107e-17 0.3826834323650726
  outer loop
    vertex 6.9764427355406555 479.9999999999992 509.27379380054435
    vertex 6.811607038408017 474.9999999999997 509.6717423761252
    vertex 6.9764427355406555 474.9999999999997 509.27379380054435
  endloop
endfacet
facet normal 0.7933533402912243 -2.201997862636482e-17 0.608761429008735
  outer loop
    vertex 6.9764427355406555 474.9999999999997 509.27379380054435
    vertex 7.2386584628271695 479.9999999999992 508.9320676115866
    vertex 6.9764427355406555 479.9999999999992 509.27379380054435
  endloop
endfacet
facet normal 0.7933533402912243 -2.201997862636482e-17 0.608761429008735
  outer loop
    vertex 7.2386584628271695 479.9999999999992 508.9320676115866
    vertex 6.9764427355406555 474.9999999999997 509.27379380054435
    vertex 7.2386584628271695 474.9999999999997 508.9320676115866
  endloop
endfacet
facet normal 0.6087614290087394 -1.6896523874730318e-17 0.7933533402912207
  outer loop
    vertex 7.2386584628271695 479.9999999999992 508.9320676115866
    vertex 7.580384651784976 474.9999999999997 508.66985188430004
    vertex 7.580384651784976 479.9999999999992 508.66985188430004
  endloop
endfacet
facet normal 0.6087614290087394 -1.6896523874730318e-17 0.7933533402912207
  outer loop
    vertex 7.580384651784976 474.9999999999997 508.66985188430004
    vertex 7.2386584628271695 479.9999999999992 508.9320676115866
    vertex 7.2386584628271695 474.9999999999997 508.9320676115866
  endloop
endfacet
facet normal 0.38268343236502356 -1.0621598943855804e-17 0.9238795325113143
  outer loop
    vertex 7.580384651784976 479.9999999999992 508.66985188430004
    vertex 7.978333227365798 474.9999999999997 508.5050161871674
    vertex 7.978333227365798 479.9999999999992 508.5050161871674
  endloop
endfacet
facet normal 0.38268343236502356 -1.0621598943855804e-17 0.9238795325113143
  outer loop
    vertex 7.978333227365798 474.9999999999997 508.5050161871674
    vertex 7.580384651784976 479.9999999999992 508.66985188430004
    vertex 7.580384651784976 474.9999999999997 508.66985188430004
  endloop
endfacet
facet normal 0.1305261922201234 -3.622829597985706e-18 0.9914448613738011
  outer loop
    vertex 7.978333227365798 479.9999999999992 508.5050161871674
    vertex 8.405384651784956 474.9999999999997 508.44879380054437
    vertex 8.405384651784956 479.9999999999992 508.44879380054437
  endloop
endfacet
facet normal 0.1305261922201234 -3.622829597985706e-18 0.9914448613738011
  outer loop
    vertex 8.405384651784956 474.9999999999997 508.44879380054437
    vertex 7.978333227365798 479.9999999999992 508.5050161871674
    vertex 7.978333227365798 474.9999999999997 508.5050161871674
  endloop
endfacet
facet normal -0.13052619222012302 3.622829597985792e-18 0.9914448613738012
  outer loop
    vertex 8.405384651784956 479.9999999999992 508.44879380054437
    vertex 8.832436076204116 474.9999999999997 508.5050161871674
    vertex 8.832436076204116 479.9999999999992 508.5050161871674
  endloop
endfacet
facet normal -0.13052619222012302 3.622829597985792e-18 0.9914448613738012
  outer loop
    vertex 8.832436076204116 474.9999999999997 508.5050161871674
    vertex 8.405384651784956 479.9999999999992 508.44879380054437
    vertex 8.405384651784956 474.9999999999997 508.44879380054437
  endloop
endfacet
facet normal -0.13052619222012385 3.622829597985718e-18 -0.9914448613738011
  outer loop
    vertex 28.40538465178499 474.9999999999997 511.7487938005444
    vertex 28.83243607620414 479.9999999999993 511.6925714139213
    vertex 28.83243607620414 474.9999999999997 511.6925714139213
  endloop
endfacet
facet normal -0.13052619222012385 3.622829597985718e-18 -0.9914448613738011
  outer loop
    vertex 28.83243607620414 479.9999999999993 511.6925714139213
    vertex 28.40538465178499 474.9999999999997 511.7487938005444
    vertex 28.40538465178499 479.9999999999993 511.7487938005444
  endloop
endfacet
facet normal 0.13052619222012216 -3.622829597985742e-18 -0.9914448613738013
  outer loop
    vertex 27.97833322736583 474.9999999999997 511.6925714139213
    vertex 28.40538465178499 479.9999999999993 511.7487938005444
    vertex 28.40538465178499 474.9999999999997 511.7487938005444
  endloop
endfacet
facet normal 0.13052619222012216 -3.622829597985742e-18 -0.9914448613738013
  outer loop
    vertex 28.40538465178499 479.9999999999993 511.7487938005444
    vertex 27.97833322736583 474.9999999999997 511.6925714139213
    vertex 27.97833322736583 479.9999999999993 511.6925714139213
  endloop
endfacet
facet normal 0.3826834323650271 -1.0621598943855977e-17 -0.9238795325113128
  outer loop
    vertex 27.580384651784996 474.9999999999997 511.5277357167887
    vertex 27.97833322736583 479.9999999999993 511.6925714139213
    vertex 27.97833322736583 474.9999999999997 511.6925714139213
  endloop
endfacet
facet normal 0.3826834323650271 -1.0621598943855977e-17 -0.9238795325113128
  outer loop
    vertex 27.97833322736583 479.9999999999993 511.6925714139213
    vertex 27.580384651784996 474.9999999999997 511.5277357167887
    vertex 27.580384651784996 479.9999999999993 511.5277357167887
  endloop
endfacet
facet normal 0.6087614290087411 -1.689652387473048e-17 -0.7933533402912195
  outer loop
    vertex 27.238658462827196 474.9999999999997 511.26551998950214
    vertex 27.580384651784996 479.9999999999993 511.5277357167887
    vertex 27.580384651784996 474.9999999999997 511.5277357167887
  endloop
endfacet
facet normal 0.6087614290087411 -1.689652387473048e-17 -0.7933533402912195
  outer loop
    vertex 27.580384651784996 479.9999999999993 511.5277357167887
    vertex 27.238658462827196 474.9999999999997 511.26551998950214
    vertex 27.238658462827196 479.9999999999993 511.26551998950214
  endloop
endfacet
facet normal 0.7933533402912226 -2.201997862636484e-17 -0.608761429008737
  outer loop
    vertex 27.238658462827196 474.9999999999997 511.26551998950214
    vertex 26.976442735540676 479.9999999999993 510.9237938005444
    vertex 27.238658462827196 479.9999999999993 511.26551998950214
  endloop
endfacet
facet normal 0.7933533402912226 -2.201997862636484e-17 -0.608761429008737
  outer loop
    vertex 26.976442735540676 479.9999999999993 510.9237938005444
    vertex 27.238658462827196 474.9999999999997 511.26551998950214
    vertex 26.976442735540676 474.9999999999997 510.9237938005444
  endloop
endfacet
facet normal 0.9238795325112927 -2.5642808224349107e-17 -0.38268343236507535
  outer loop
    vertex 26.976442735540676 474.9999999999997 510.9237938005444
    vertex 26.811607038408038 479.9999999999993 510.5258452249635
    vertex 26.976442735540676 479.9999999999993 510.9237938005444
  endloop
endfacet
facet normal 0.9238795325112927 -2.5642808224349107e-17 -0.38268343236507535
  outer loop
    vertex 26.811607038408038 479.9999999999993 510.5258452249635
    vertex 26.976442735540676 474.9999999999997 510.9237938005444
    vertex 26.811607038408038 474.9999999999997 510.5258452249635
  endloop
endfacet
facet normal 0.9914448613738104 -2.75181228185875e-17 -0.13052619222005157
  outer loop
    vertex 26.811607038408038 474.9999999999997 510.5258452249635
    vertex 26.755384651785004 479.9999999999993 510.09879380054434
    vertex 26.811607038408038 479.9999999999993 510.5258452249635
  endloop
endfacet
facet normal 0.9914448613738104 -2.75181228185875e-17 -0.13052619222005157
  outer loop
    vertex 26.755384651785004 479.9999999999993 510.09879380054434
    vertex 26.811607038408038 474.9999999999997 510.5258452249635
    vertex 26.755384651785004 474.9999999999997 510.09879380054434
  endloop
endfacet
facet normal 0.9914448613738104 -2.75181228185875e-17 0.13052619222005157
  outer loop
    vertex 26.755384651785004 474.9999999999997 510.09879380054434
    vertex 26.811607038408038 479.9999999999993 509.6717423761252
    vertex 26.755384651785004 479.9999999999993 510.09879380054434
  endloop
endfacet
facet normal 0.9914448613738104 -2.75181228185875e-17 0.13052619222005157
  outer loop
    vertex 26.811607038408038 479.9999999999993 509.6717423761252
    vertex 26.755384651785004 474.9999999999997 510.09879380054434
    vertex 26.811607038408038 474.9999999999997 509.6717423761252
  endloop
endfacet
facet normal 0.9238795325112927 -2.564280822434907e-17 0.38268343236507535
  outer loop
    vertex 26.811607038408038 474.9999999999997 509.6717423761252
    vertex 26.976442735540676 479.9999999999993 509.27379380054435
    vertex 26.811607038408038 479.9999999999993 509.6717423761252
  endloop
endfacet
facet normal 0.9238795325112927 -2.564280822434907e-17 0.38268343236507535
  outer loop
    vertex 26.976442735540676 479.9999999999993 509.27379380054435
    vertex 26.811607038408038 474.9999999999997 509.6717423761252
    vertex 26.976442735540676 474.9999999999997 509.27379380054435
  endloop
endfacet
facet normal 0.7933533402912226 -2.2019978626364797e-17 0.608761429008737
  outer loop
    vertex 26.976442735540676 474.9999999999997 509.27379380054435
    vertex 27.238658462827196 479.9999999999993 508.9320676115866
    vertex 26.976442735540676 479.9999999999993 509.27379380054435
  endloop
endfacet
facet normal 0.7933533402912226 -2.2019978626364797e-17 0.608761429008737
  outer loop
    vertex 27.238658462827196 479.9999999999993 508.9320676115866
    vertex 26.976442735540676 474.9999999999997 509.27379380054435
    vertex 27.238658462827196 474.9999999999997 508.9320676115866
  endloop
endfacet
facet normal 0.6087614290087411 -1.689652387473037e-17 0.7933533402912195
  outer loop
    vertex 27.238658462827196 479.9999999999993 508.9320676115866
    vertex 27.580384651784996 474.9999999999997 508.66985188430004
    vertex 27.580384651784996 479.9999999999993 508.66985188430004
  endloop
endfacet
facet normal 0.6087614290087411 -1.689652387473037e-17 0.7933533402912195
  outer loop
    vertex 27.580384651784996 474.9999999999997 508.66985188430004
    vertex 27.238658462827196 479.9999999999993 508.9320676115866
    vertex 27.238658462827196 474.9999999999997 508.9320676115866
  endloop
endfacet
facet normal 0.38268343236502245 -1.0621598943855737e-17 0.9238795325113146
  outer loop
    vertex 27.580384651784996 479.9999999999993 508.66985188430004
    vertex 27.978333227365834 474.9999999999997 508.5050161871674
    vertex 27.978333227365834 479.9999999999993 508.5050161871674
  endloop
endfacet
facet normal 0.38268343236502245 -1.0621598943855737e-17 0.9238795325113146
  outer loop
    vertex 27.978333227365834 474.9999999999997 508.5050161871674
    vertex 27.580384651784996 479.9999999999993 508.66985188430004
    vertex 27.580384651784996 474.9999999999997 508.66985188430004
  endloop
endfacet
facet normal 0.13052619222012385 -3.622829597985718e-18 0.9914448613738011
  outer loop
    vertex 27.978333227365834 479.9999999999993 508.5050161871674
    vertex 28.40538465178499 474.9999999999997 508.44879380054437
    vertex 28.40538465178499 479.9999999999993 508.44879380054437
  endloop
endfacet
facet normal 0.13052619222012385 -3.622829597985718e-18 0.9914448613738011
  outer loop
    vertex 28.40538465178499 474.9999999999997 508.44879380054437
    vertex 27.978333227365834 479.9999999999993 508.5050161871674
    vertex 27.978333227365834 474.9999999999997 508.5050161871674
  endloop
endfacet
facet normal -0.13052619222012216 3.622829597985742e-18 0.9914448613738013
  outer loop
    vertex 28.40538465178499 479.9999999999993 508.44879380054437
    vertex 28.832436076204147 474.9999999999997 508.5050161871674
    vertex 28.832436076204147 479.9999999999993 508.5050161871674
  endloop
endfacet
facet normal -0.13052619222012216 3.622829597985742e-18 0.9914448613738013
  outer loop
    vertex 28.832436076204147 474.9999999999997 508.5050161871674
    vertex 28.40538465178499 479.9999999999993 508.44879380054437
    vertex 28.40538465178499 474.9999999999997 508.44879380054437
  endloop
endfacet
facet normal -0.3826834323650271 1.0621598943855977e-17 0.9238795325113128
  outer loop
    vertex 28.832436076204147 479.9999999999993 508.5050161871674
    vertex 29.23038465178498 474.9999999999997 508.66985188430004
    vertex 29.23038465178498 479.9999999999993 508.66985188430004
  endloop
endfacet
facet normal -0.3826834323650271 1.0621598943855977e-17 0.9238795325113128
  outer loop
    vertex 29.23038465178498 474.9999999999997 508.66985188430004
    vertex 28.832436076204147 479.9999999999993 508.5050161871674
    vertex 28.832436076204147 474.9999999999997 508.5050161871674
  endloop
endfacet
facet normal -0.6087614290087411 1.689652387473048e-17 0.7933533402912195
  outer loop
    vertex 29.23038465178498 479.9999999999993 508.66985188430004
    vertex 29.57211084074278 474.9999999999997 508.9320676115866
    vertex 29.57211084074278 479.9999999999993 508.9320676115866
  endloop
endfacet
facet normal -0.6087614290087411 1.689652387473048e-17 0.7933533402912195
  outer loop
    vertex 29.57211084074278 474.9999999999997 508.9320676115866
    vertex 29.23038465178498 479.9999999999993 508.66985188430004
    vertex 29.23038465178498 474.9999999999997 508.66985188430004
  endloop
endfacet
facet normal -0.7933533402912226 2.201997862636484e-17 0.608761429008737
  outer loop
    vertex 29.57211084074278 474.9999999999997 508.9320676115866
    vertex 29.8343265680293 479.9999999999993 509.27379380054435
    vertex 29.57211084074278 479.9999999999993 508.9320676115866
  endloop
endfacet
facet normal -0.7933533402912226 2.201997862636484e-17 0.608761429008737
  outer loop
    vertex 29.8343265680293 479.9999999999993 509.27379380054435
    vertex 29.57211084074278 474.9999999999997 508.9320676115866
    vertex 29.8343265680293 474.9999999999997 509.27379380054435
  endloop
endfacet
facet normal -0.9238795325112927 2.5642808224349107e-17 0.38268343236507535
  outer loop
    vertex 29.8343265680293 474.9999999999997 509.27379380054435
    vertex 29.99916226516194 479.9999999999993 509.6717423761252
    vertex 29.8343265680293 479.9999999999993 509.27379380054435
  endloop
endfacet
facet normal -0.9238795325112927 2.5642808224349107e-17 0.38268343236507535
  outer loop
    vertex 29.99916226516194 479.9999999999993 509.6717423761252
    vertex 29.8343265680293 474.9999999999997 509.27379380054435
    vertex 29.99916226516194 474.9999999999997 509.6717423761252
  endloop
endfacet
facet normal -0.9914448613738104 2.75181228185875e-17 0.13052619222005157
  outer loop
    vertex 29.99916226516194 474.9999999999997 509.6717423761252
    vertex 30.055384651784973 479.9999999999993 510.09879380054434
    vertex 29.99916226516194 479.9999999999993 509.6717423761252
  endloop
endfacet
facet normal -0.9914448613738104 2.75181228185875e-17 0.13052619222005157
  outer loop
    vertex 30.055384651784973 479.9999999999993 510.09879380054434
    vertex 29.99916226516194 474.9999999999997 509.6717423761252
    vertex 30.055384651784973 474.9999999999997 510.09879380054434
  endloop
endfacet
facet normal -0.9914448613738104 2.75181228185875e-17 -0.13052619222005157
  outer loop
    vertex 30.055384651784973 474.9999999999997 510.09879380054434
    vertex 29.99916226516194 479.9999999999993 510.5258452249635
    vertex 30.055384651784973 479.9999999999993 510.09879380054434
  endloop
endfacet
facet normal -0.9914448613738104 2.75181228185875e-17 -0.13052619222005157
  outer loop
    vertex 29.99916226516194 479.9999999999993 510.5258452249635
    vertex 30.055384651784973 474.9999999999997 510.09879380054434
    vertex 29.99916226516194 474.9999999999997 510.5258452249635
  endloop
endfacet
facet normal -0.9238795325112927 2.564280822434907e-17 -0.38268343236507535
  outer loop
    vertex 29.99916226516194 474.9999999999997 510.5258452249635
    vertex 29.8343265680293 479.9999999999993 510.9237938005444
    vertex 29.99916226516194 479.9999999999993 510.5258452249635
  endloop
endfacet
facet normal -0.9238795325112927 2.564280822434907e-17 -0.38268343236507535
  outer loop
    vertex 29.8343265680293 479.9999999999993 510.9237938005444
    vertex 29.99916226516194 474.9999999999997 510.5258452249635
    vertex 29.8343265680293 474.9999999999997 510.9237938005444
  endloop
endfacet
facet normal -0.7933533402912226 2.2019978626364797e-17 -0.608761429008737
  outer loop
    vertex 29.8343265680293 474.9999999999997 510.9237938005444
    vertex 29.57211084074278 479.9999999999993 511.26551998950214
    vertex 29.8343265680293 479.9999999999993 510.9237938005444
  endloop
endfacet
facet normal -0.7933533402912226 2.2019978626364797e-17 -0.608761429008737
  outer loop
    vertex 29.57211084074278 479.9999999999993 511.26551998950214
    vertex 29.8343265680293 474.9999999999997 510.9237938005444
    vertex 29.57211084074278 474.9999999999997 511.26551998950214
  endloop
endfacet
facet normal -0.6087614290087411 1.689652387473037e-17 -0.7933533402912195
  outer loop
    vertex 29.23038465178498 474.9999999999997 511.5277357167887
    vertex 29.57211084074278 479.9999999999993 511.26551998950214
    vertex 29.57211084074278 474.9999999999997 511.26551998950214
  endloop
endfacet
facet normal -0.6087614290087411 1.689652387473037e-17 -0.7933533402912195
  outer loop
    vertex 29.57211084074278 479.9999999999993 511.26551998950214
    vertex 29.23038465178498 474.9999999999997 511.5277357167887
    vertex 29.23038465178498 479.9999999999993 511.5277357167887
  endloop
endfacet
facet normal -0.38268343236502245 1.0621598943855737e-17 -0.9238795325113146
  outer loop
    vertex 28.83243607620414 474.9999999999997 511.6925714139213
    vertex 29.23038465178498 479.9999999999993 511.5277357167887
    vertex 29.23038465178498 474.9999999999997 511.5277357167887
  endloop
endfacet
facet normal -0.38268343236502245 1.0621598943855737e-17 -0.9238795325113146
  outer loop
    vertex 29.23038465178498 479.9999999999993 511.5277357167887
    vertex 28.83243607620414 474.9999999999997 511.6925714139213
    vertex 28.83243607620414 479.9999999999993 511.6925714139213
  endloop
endfacet
endsolid Bed Inside Rails
