solid Bed Inside Rails
facet normal -1.0 1.9227044199190294e-16 -3.845607238211519e-17
  outer loop
    vertex -6.499999999998981 469.99999999999824 557.3871990000001
    vertex -6.499999999998981 474.0562223866213 529.295372575581
    vertex -6.499999999998981 469.99999999999824 520.7224240000002
  endloop
endfacet
facet normal -1.0 1.9227044199190294e-16 -3.845607238211519e-17
  outer loop
    vertex -6.499999999998981 474.2210580837539 528.8974240000002
    vertex -6.499999999998981 469.99999999999824 520.7224240000002
    vertex -6.499999999998981 474.0562223866213 529.295372575581
  endloop
endfacet
facet normal -1.0 1.9227044199190294e-16 -3.845607238211519e-17
  outer loop
    vertex -6.49999999999898 474.4832738110404 528.5556978110424
    vertex -6.499999999998981 469.99999999999824 520.7224240000002
    vertex -6.499999999998981 474.2210580837539 528.8974240000002
  endloop
endfacet
facet normal -1.0 1.9227044199190294e-16 -3.845607238211519e-17
  outer loop
    vertex -6.49999999999898 474.8249999999982 528.2934820837559
    vertex -6.499999999998981 469.99999999999824 520.7224240000002
    vertex -6.49999999999898 474.4832738110404 528.5556978110424
  endloop
endfacet
facet normal -1.0 1.9227044199190294e-16 -3.845607238211519e-17
  outer loop
    vertex -6.499999999998976 491.999999999998 520.7224240000002
    vertex -6.499999999998981 469.99999999999824 520.7224240000002
    vertex -6.49999999999898 474.8249999999982 528.2934820837559
  endloop
endfacet
facet normal -1.0 1.9227044199190294e-16 -3.845607238211519e-17
  outer loop
    vertex -6.499999999998981 473.99999999999824 529.7224240000002
    vertex -6.499999999998981 474.0562223866213 529.295372575581
    vertex -6.499999999998981 469.99999999999824 557.3871990000001
  endloop
endfacet
facet normal -1.0 1.9227044199190294e-16 -3.845607238211519e-17
  outer loop
    vertex -6.49999999999898 475.2229485755791 528.1286463866232
    vertex -6.499999999998976 491.999999999998 520.7224240000002
    vertex -6.49999999999898 474.8249999999982 528.2934820837559
  endloop
endfacet
facet normal -1.0 1.9227044199190294e-16 -3.845607238211519e-17
  outer loop
    vertex -6.49999999999898 475.6499999999982 528.0724240000002
    vertex -6.499999999998976 491.999999999998 520.7224240000002
    vertex -6.49999999999898 475.2229485755791 528.1286463866232
  endloop
endfacet
facet normal -1.0 1.9227044199190294e-16 -3.845607238211519e-17
  outer loop
    vertex -6.49999999999898 476.07705142441733 528.1286463866232
    vertex -6.499999999998976 491.999999999998 520.7224240000002
    vertex -6.49999999999898 475.6499999999982 528.0724240000002
  endloop
endfacet
facet normal -1.0 1.9227044199190294e-16 -3.845607238211519e-17
  outer loop
    vertex -6.49999999999898 476.4749999999982 528.2934820837559
    vertex -6.499999999998976 491.999999999998 520.7224240000002
    vertex -6.49999999999898 476.07705142441733 528.1286463866232
  endloop
endfacet
facet normal -1.0 1.9227044199190294e-16 -3.845607238211519e-17
  outer loop
    vertex -6.49999999999898 476.816726188956 528.5556978110424
    vertex -6.499999999998976 491.999999999998 520.7224240000002
    vertex -6.49999999999898 476.4749999999982 528.2934820837559
  endloop
endfacet
facet normal -1.0 1.9227044199190294e-16 -3.845607238211519e-17
  outer loop
    vertex -6.499999999998979 477.0789419162425 528.8974240000002
    vertex -6.499999999998976 491.999999999998 520.7224240000002
    vertex -6.49999999999898 476.816726188956 528.5556978110424
  endloop
endfacet
facet normal -1.0 1.9227044199190294e-16 -3.845607238211519e-17
  outer loop
    vertex -6.499999999998979 477.24377761337513 529.295372575581
    vertex -6.499999999998976 491.999999999998 520.7224240000002
    vertex -6.499999999998979 477.0789419162425 528.8974240000002
  endloop
endfacet
facet normal -1.0 1.9227044199190294e-16 -3.845607238211519e-17
  outer loop
    vertex -6.499999999998979 477.2999999999982 529.7224240000002
    vertex -6.499999999998976 491.999999999998 520.7224240000002
    vertex -6.499999999998979 477.24377761337513 529.295372575581
  endloop
endfacet
facet normal -1.0 1.9227044199190294e-16 -3.845607238211519e-17
  outer loop
    vertex -6.49999999999898 485.18327381104035 528.5556978110424
    vertex -6.499999999998976 491.999999999998 520.7224240000002
    vertex -6.499999999998979 477.2999999999982 529.7224240000002
  endloop
endfacet
facet normal -1.0 1.9227044199190294e-16 -3.845607238211519e-17
  outer loop
    vertex -6.499999999998981 484.9210580837538 528.8974240000002
    vertex -6.49999999999898 485.18327381104035 528.5556978110424
    vertex -6.499999999998979 477.2999999999982 529.7224240000002
  endloop
endfacet
facet normal -1.0 1.9227044199190294e-16 -3.845607238211519e-17
  outer loop
    vertex -6.499999999998981 484.75622238662123 529.295372575581
    vertex -6.499999999998981 484.9210580837538 528.8974240000002
    vertex -6.499999999998979 477.2999999999982 529.7224240000002
  endloop
endfacet
facet normal -1.0 1.9227044199190294e-16 -3.845607238211519e-17
  outer loop
    vertex -6.499999999998981 484.69999999999817 529.7224240000002
    vertex -6.499999999998981 484.75622238662123 529.295372575581
    vertex -6.499999999998979 477.2999999999982 529.7224240000002
  endloop
endfacet
facet normal -1.0 1.9227044199190294e-16 -3.845607238211519e-17
  outer loop
    vertex -6.49999999999898 485.52499999999816 528.2934820837559
    vertex -6.499999999998976 491.999999999998 520.7224240000002
    vertex -6.49999999999898 485.18327381104035 528.5556978110424
  endloop
endfacet
facet normal -1.0 1.9227044199190294e-16 -3.845607238211519e-17
  outer loop
    vertex -6.49999999999898 485.92294857557897 528.1286463866232
    vertex -6.499999999998976 491.999999999998 520.7224240000002
    vertex -6.49999999999898 485.52499999999816 528.2934820837559
  endloop
endfacet
facet normal -1.0 1.9227044199190294e-16 -3.845607238211519e-17
  outer loop
    vertex -6.49999999999898 486.34999999999815 528.0724240000002
    vertex -6.499999999998976 491.999999999998 520.7224240000002
    vertex -6.49999999999898 485.92294857557897 528.1286463866232
  endloop
endfacet
facet normal -1.0 1.9227044199190294e-16 -3.845607238211519e-17
  outer loop
    vertex -6.49999999999898 486.77705142441727 528.1286463866232
    vertex -6.499999999998976 491.999999999998 520.7224240000002
    vertex -6.49999999999898 486.34999999999815 528.0724240000002
  endloop
endfacet
facet normal -1.0 1.9227044199190294e-16 -3.845607238211519e-17
  outer loop
    vertex -6.49999999999898 487.17499999999814 528.2934820837559
    vertex -6.499999999998976 491.999999999998 520.7224240000002
    vertex -6.49999999999898 486.77705142441727 528.1286463866232
  endloop
endfacet
facet normal -1.0 1.9227044199190294e-16 -3.845607238211519e-17
  outer loop
    vertex -6.49999999999898 487.5167261889559 528.5556978110424
    vertex -6.499999999998976 491.999999999998 520.7224240000002
    vertex -6.49999999999898 487.17499999999814 528.2934820837559
  endloop
endfacet
facet normal -1.0 1.9227044199190294e-16 -3.845607238211519e-17
  outer loop
    vertex -6.499999999998979 487.77894191624245 528.8974240000002
    vertex -6.499999999998976 491.999999999998 520.7224240000002
    vertex -6.49999999999898 487.5167261889559 528.5556978110424
  endloop
endfacet
facet normal -1.0 1.9227044199190294e-16 -3.845607238211519e-17
  outer loop
    vertex -6.499999999998979 487.94377761337506 529.295372575581
    vertex -6.499999999998976 491.999999999998 520.7224240000002
    vertex -6.499999999998979 487.77894191624245 528.8974240000002
  endloop
endfacet
facet normal -1.0 1.9227044199190294e-16 -3.845607238211519e-17
  outer loop
    vertex -6.499999999998979 487.9999999999981 529.7224240000002
    vertex -6.499999999998976 491.999999999998 520.7224240000002
    vertex -6.499999999998979 487.94377761337506 529.295372575581
  endloop
endfacet
facet normal -1.0 1.9227044199190294e-16 -3.845607238211519e-17
  outer loop
    vertex -6.499999999998979 491.9999999999982 557.3871990000001
    vertex -6.499999999998981 474.2210580837539 530.5474240000002
    vertex -6.499999999998981 469.99999999999824 557.3871990000001
  endloop
endfacet
facet normal -1.0 1.9227044199190294e-16 -3.845607238211519e-17
  outer loop
    vertex -6.499999999998981 474.0562223866213 530.1494754244193
    vertex -6.499999999998981 469.99999999999824 557.3871990000001
    vertex -6.499999999998981 474.2210580837539 530.5474240000002
  endloop
endfacet
facet normal -1.0 1.9227044199190294e-16 -3.845607238211519e-17
  outer loop
    vertex -6.499999999998981 473.99999999999824 529.7224240000002
    vertex -6.499999999998981 469.99999999999824 557.3871990000001
    vertex -6.499999999998981 474.0562223866213 530.1494754244193
  endloop
endfacet
facet normal -1.0 1.9227044199190294e-16 -3.845607238211519e-17
  outer loop
    vertex -6.49999999999898 474.4832738110404 530.889150188958
    vertex -6.499999999998981 474.2210580837539 530.5474240000002
    vertex -6.499999999998979 491.9999999999982 557.3871990000001
  endloop
endfacet
facet normal -1.0 1.9227044199190294e-16 -3.845607238211519e-17
  outer loop
    vertex -6.49999999999898 474.8249999999982 531.1513659162445
    vertex -6.49999999999898 474.4832738110404 530.889150188958
    vertex -6.499999999998979 491.9999999999982 557.3871990000001
  endloop
endfacet
facet normal -1.0 1.9227044199190294e-16 -3.845607238211519e-17
  outer loop
    vertex -6.49999999999898 475.2229485755791 531.3162016133771
    vertex -6.49999999999898 474.8249999999982 531.1513659162445
    vertex -6.499999999998979 491.9999999999982 557.3871990000001
  endloop
endfacet
facet normal -1.0 1.9227044199190294e-16 -3.845607238211519e-17
  outer loop
    vertex -6.49999999999898 475.6499999999982 531.3724240000001
    vertex -6.49999999999898 475.2229485755791 531.3162016133771
    vertex -6.499999999998979 491.9999999999982 557.3871990000001
  endloop
endfacet
facet normal -1.0 1.9227044199190294e-16 -3.845607238211519e-17
  outer loop
    vertex -6.49999999999898 476.07705142441733 531.3162016133771
    vertex -6.49999999999898 475.6499999999982 531.3724240000001
    vertex -6.499999999998979 491.9999999999982 557.3871990000001
  endloop
endfacet
facet normal -1.0 1.9227044199190294e-16 -3.845607238211519e-17
  outer loop
    vertex -6.49999999999898 476.4749999999982 531.1513659162445
    vertex -6.49999999999898 476.07705142441733 531.3162016133771
    vertex -6.499999999998979 491.9999999999982 557.3871990000001
  endloop
endfacet
facet normal -1.0 1.9227044199190294e-16 -3.845607238211519e-17
  outer loop
    vertex -6.49999999999898 476.816726188956 530.889150188958
    vertex -6.49999999999898 476.4749999999982 531.1513659162445
    vertex -6.499999999998979 491.9999999999982 557.3871990000001
  endloop
endfacet
facet normal -1.0 1.9227044199190294e-16 -3.845607238211519e-17
  outer loop
    vertex -6.499999999998979 477.0789419162425 530.5474240000002
    vertex -6.49999999999898 476.816726188956 530.889150188958
    vertex -6.499999999998979 491.9999999999982 557.3871990000001
  endloop
endfacet
facet normal -1.0 1.9227044199190294e-16 -3.845607238211519e-17
  outer loop
    vertex -6.499999999998979 477.24377761337513 530.1494754244193
    vertex -6.499999999998979 477.0789419162425 530.5474240000002
    vertex -6.499999999998979 491.9999999999982 557.3871990000001
  endloop
endfacet
facet normal -1.0 1.9227044199190294e-16 -3.845607238211519e-17
  outer loop
    vertex -6.499999999998979 477.2999999999982 529.7224240000002
    vertex -6.499999999998979 477.24377761337513 530.1494754244193
    vertex -6.499999999998979 491.9999999999982 557.3871990000001
  endloop
endfacet
facet normal -1.0 1.9227044199190294e-16 -3.845607238211519e-17
  outer loop
    vertex -6.499999999998981 484.75622238662123 530.1494754244193
    vertex -6.499999999998979 477.2999999999982 529.7224240000002
    vertex -6.499999999998979 491.9999999999982 557.3871990000001
  endloop
endfacet
facet normal -1.0 1.9227044199190294e-16 -3.845607238211519e-17
  outer loop
    vertex -6.499999999998981 484.69999999999817 529.7224240000002
    vertex -6.499999999998979 477.2999999999982 529.7224240000002
    vertex -6.499999999998981 484.75622238662123 530.1494754244193
  endloop
endfacet
facet normal -1.0 1.9227044199190294e-16 -3.845607238211519e-17
  outer loop
    vertex -6.499999999998981 484.9210580837538 530.5474240000002
    vertex -6.499999999998981 484.75622238662123 530.1494754244193
    vertex -6.499999999998979 491.9999999999982 557.3871990000001
  endloop
endfacet
facet normal -1.0 1.9227044199190294e-16 -3.845607238211519e-17
  outer loop
    vertex -6.49999999999898 485.18327381104035 530.889150188958
    vertex -6.499999999998981 484.9210580837538 530.5474240000002
    vertex -6.499999999998979 491.9999999999982 557.3871990000001
  endloop
endfacet
facet normal -1.0 1.9227044199190294e-16 -3.845607238211519e-17
  outer loop
    vertex -6.49999999999898 485.52499999999816 531.1513659162445
    vertex -6.49999999999898 485.18327381104035 530.889150188958
    vertex -6.499999999998979 491.9999999999982 557.3871990000001
  endloop
endfacet
facet normal -1.0 1.9227044199190294e-16 -3.845607238211519e-17
  outer loop
    vertex -6.49999999999898 485.92294857557897 531.3162016133771
    vertex -6.49999999999898 485.52499999999816 531.1513659162445
    vertex -6.499999999998979 491.9999999999982 557.3871990000001
  endloop
endfacet
facet normal -1.0 1.9227044199190294e-16 -3.845607238211519e-17
  outer loop
    vertex -6.49999999999898 486.34999999999815 531.3724240000001
    vertex -6.49999999999898 485.92294857557897 531.3162016133771
    vertex -6.499999999998979 491.9999999999982 557.3871990000001
  endloop
endfacet
facet normal -1.0 1.9227044199190294e-16 -3.845607238211519e-17
  outer loop
    vertex -6.49999999999898 486.77705142441727 531.3162016133771
    vertex -6.49999999999898 486.34999999999815 531.3724240000001
    vertex -6.499999999998979 491.9999999999982 557.3871990000001
  endloop
endfacet
facet normal -1.0 1.9227044199190294e-16 -3.845607238211519e-17
  outer loop
    vertex -6.49999999999898 487.17499999999814 531.1513659162445
    vertex -6.49999999999898 486.77705142441727 531.3162016133771
    vertex -6.499999999998979 491.9999999999982 557.3871990000001
  endloop
endfacet
facet normal -1.0 1.9227044199190294e-16 -3.845607238211519e-17
  outer loop
    vertex -6.49999999999898 487.5167261889559 530.889150188958
    vertex -6.49999999999898 487.17499999999814 531.1513659162445
    vertex -6.499999999998979 491.9999999999982 557.3871990000001
  endloop
endfacet
facet normal -1.0 1.9227044199190294e-16 -3.845607238211519e-17
  outer loop
    vertex -6.499999999998979 487.77894191624245 530.5474240000002
    vertex -6.49999999999898 487.5167261889559 530.889150188958
    vertex -6.499999999998979 491.9999999999982 557.3871990000001
  endloop
endfacet
facet normal -1.0 1.9227044199190294e-16 -3.845607238211519e-17
  outer loop
    vertex -6.499999999998979 487.94377761337506 530.1494754244193
    vertex -6.499999999998979 487.77894191624245 530.5474240000002
    vertex -6.499999999998979 491.9999999999982 557.3871990000001
  endloop
endfacet
facet normal -1.0 1.9227044199190294e-16 -3.845607238211519e-17
  outer loop
    vertex -6.499999999998979 487.9999999999981 529.7224240000002
    vertex -6.499999999998979 487.94377761337506 530.1494754244193
    vertex -6.499999999998979 491.9999999999982 557.3871990000001
  endloop
endfacet
facet normal -1.0 1.9227044199190294e-16 -3.845607238211519e-17
  outer loop
    vertex -6.499999999998976 491.999999999998 520.7224240000002
    vertex -6.499999999998979 487.9999999999981 529.7224240000002
    vertex -6.499999999998979 491.9999999999982 557.3871990000001
  endloop
endfacet
facet normal 0.0 -1.0 0.0
  outer loop
    vertex -1.4999999999993685 469.99999999999824 557.3871990000001
    vertex -6.499999999998981 469.99999999999824 557.3871990000001
    vertex -1.4999999999993685 469.99999999999824 520.7224240000002
  endloop
endfacet
facet normal 0.0 -1.0 0.0
  outer loop
    vertex -6.499999999998981 469.99999999999824 520.7224240000002
    vertex -1.4999999999993685 469.99999999999824 520.7224240000002
    vertex -6.499999999998981 469.99999999999824 557.3871990000001
  endloop
endfacet
facet normal 0.0 0.0 1.0
  outer loop
    vertex -6.499999999998981 469.99999999999824 557.3871990000001
    vertex -1.4999999999993685 469.99999999999824 557.3871990000001
    vertex -6.499999999998979 491.9999999999982 557.3871990000001
  endloop
endfacet
facet normal 0.0 0.0 1.0
  outer loop
    vertex -1.4999999999993598 491.9999999999982 557.3871990000001
    vertex -6.499999999998979 491.9999999999982 557.3871990000001
    vertex -1.4999999999993685 469.99999999999824 557.3871990000001
  endloop
endfacet
facet normal 1.0 -4.806761049797577e-16 5.768410857317325e-17
  outer loop
    vertex -1.4999999999993685 469.99999999999824 520.7224240000002
    vertex -1.4999999999989806 474.2210580837539 530.5474240000002
    vertex -1.4999999999993685 469.99999999999824 557.3871990000001
  endloop
endfacet
facet normal 1.0 -4.806761049797577e-16 5.768410857317325e-17
  outer loop
    vertex -1.4999999999993598 491.9999999999982 557.3871990000001
    vertex -1.4999999999993685 469.99999999999824 557.3871990000001
    vertex -1.4999999999989806 474.2210580837539 530.5474240000002
  endloop
endfacet
facet normal 1.0 -4.806761049797577e-16 5.768410857317325e-17
  outer loop
    vertex -1.4999999999989806 474.0562223866213 530.1494754244193
    vertex -1.4999999999989806 474.2210580837539 530.5474240000002
    vertex -1.4999999999993685 469.99999999999824 520.7224240000002
  endloop
endfacet
facet normal 1.0 -4.806761049797577e-16 5.768410857317325e-17
  outer loop
    vertex -1.4999999999989806 473.99999999999824 529.7224240000002
    vertex -1.4999999999989806 474.0562223866213 530.1494754244193
    vertex -1.4999999999993685 469.99999999999824 520.7224240000002
  endloop
endfacet
facet normal 1.0 -4.806761049797577e-16 5.768410857317325e-17
  outer loop
    vertex -1.4999999999989806 474.4832738110404 530.889150188958
    vertex -1.4999999999993598 491.9999999999982 557.3871990000001
    vertex -1.4999999999989806 474.2210580837539 530.5474240000002
  endloop
endfacet
facet normal 1.0 -4.806761049797577e-16 5.768410857317325e-17
  outer loop
    vertex -1.4999999999989806 474.8249999999982 531.1513659162445
    vertex -1.4999999999993598 491.9999999999982 557.3871990000001
    vertex -1.4999999999989806 474.4832738110404 530.889150188958
  endloop
endfacet
facet normal 1.0 -4.806761049797577e-16 5.768410857317325e-17
  outer loop
    vertex -1.4999999999989806 475.2229485755791 531.3162016133771
    vertex -1.4999999999993598 491.9999999999982 557.3871990000001
    vertex -1.4999999999989806 474.8249999999982 531.1513659162445
  endloop
endfacet
facet normal 1.0 -4.806761049797577e-16 5.768410857317325e-17
  outer loop
    vertex -1.4999999999989806 475.6499999999982 531.3724240000001
    vertex -1.4999999999993598 491.9999999999982 557.3871990000001
    vertex -1.4999999999989806 475.2229485755791 531.3162016133771
  endloop
endfacet
facet normal 1.0 -4.806761049797577e-16 5.768410857317325e-17
  outer loop
    vertex -1.4999999999989806 476.07705142441733 531.3162016133771
    vertex -1.4999999999993598 491.9999999999982 557.3871990000001
    vertex -1.4999999999989806 475.6499999999982 531.3724240000001
  endloop
endfacet
facet normal 1.0 -4.806761049797577e-16 5.768410857317325e-17
  outer loop
    vertex -1.4999999999989806 476.4749999999982 531.1513659162445
    vertex -1.4999999999993598 491.9999999999982 557.3871990000001
    vertex -1.4999999999989806 476.07705142441733 531.3162016133771
  endloop
endfacet
facet normal 1.0 -4.806761049797577e-16 5.768410857317325e-17
  outer loop
    vertex -1.4999999999989806 476.816726188956 530.889150188958
    vertex -1.4999999999993598 491.9999999999982 557.3871990000001
    vertex -1.4999999999989806 476.4749999999982 531.1513659162445
  endloop
endfacet
facet normal 1.0 -4.806761049797577e-16 5.768410857317325e-17
  outer loop
    vertex -1.499999999998978 477.0789419162425 530.5474240000002
    vertex -1.4999999999993598 491.9999999999982 557.3871990000001
    vertex -1.4999999999989806 476.816726188956 530.889150188958
  endloop
endfacet
facet normal 1.0 -4.806761049797577e-16 5.768410857317325e-17
  outer loop
    vertex -1.499999999998978 477.24377761337513 530.1494754244193
    vertex -1.4999999999993598 491.9999999999982 557.3871990000001
    vertex -1.499999999998978 477.0789419162425 530.5474240000002
  endloop
endfacet
facet normal 1.0 -4.806761049797577e-16 5.768410857317325e-17
  outer loop
    vertex -1.499999999998978 477.2999999999982 529.7224240000002
    vertex -1.4999999999993598 491.9999999999982 557.3871990000001
    vertex -1.499999999998978 477.24377761337513 530.1494754244193
  endloop
endfacet
facet normal 1.0 -4.806761049797577e-16 5.768410857317325e-17
  outer loop
    vertex -1.4999999999993598 484.75622238662123 530.1494754244193
    vertex -1.4999999999993598 491.9999999999982 557.3871990000001
    vertex -1.499999999998978 477.2999999999982 529.7224240000002
  endloop
endfacet
facet normal 1.0 -4.806761049797577e-16 5.768410857317325e-17
  outer loop
    vertex -1.4999999999993598 484.69999999999817 529.7224240000002
    vertex -1.4999999999993598 484.75622238662123 530.1494754244193
    vertex -1.499999999998978 477.2999999999982 529.7224240000002
  endloop
endfacet
facet normal 1.0 -4.806761049797577e-16 5.768410857317325e-17
  outer loop
    vertex -1.4999999999993598 484.9210580837538 530.5474240000002
    vertex -1.4999999999993598 491.9999999999982 557.3871990000001
    vertex -1.4999999999993598 484.75622238662123 530.1494754244193
  endloop
endfacet
facet normal 1.0 -4.806761049797577e-16 5.768410857317325e-17
  outer loop
    vertex -1.4999999999993543 485.18327381104035 530.889150188958
    vertex -1.4999999999993598 491.9999999999982 557.3871990000001
    vertex -1.4999999999993598 484.9210580837538 530.5474240000002
  endloop
endfacet
facet normal 1.0 -4.806761049797577e-16 5.768410857317325e-17
  outer loop
    vertex -1.4999999999993543 485.52499999999816 531.1513659162445
    vertex -1.4999999999993598 491.9999999999982 557.3871990000001
    vertex -1.4999999999993543 485.18327381104035 530.889150188958
  endloop
endfacet
facet normal 1.0 -4.806761049797577e-16 5.768410857317325e-17
  outer loop
    vertex -1.4999999999993543 485.92294857557897 531.3162016133771
    vertex -1.4999999999993598 491.9999999999982 557.3871990000001
    vertex -1.4999999999993543 485.52499999999816 531.1513659162445
  endloop
endfacet
facet normal 1.0 -4.806761049797577e-16 5.768410857317325e-17
  outer loop
    vertex -1.4999999999993543 486.34999999999815 531.3724240000001
    vertex -1.4999999999993598 491.9999999999982 557.3871990000001
    vertex -1.4999999999993543 485.92294857557897 531.3162016133771
  endloop
endfacet
facet normal 1.0 -4.806761049797577e-16 5.768410857317325e-17
  outer loop
    vertex -1.4999999999993543 486.77705142441727 531.3162016133771
    vertex -1.4999999999993598 491.9999999999982 557.3871990000001
    vertex -1.4999999999993543 486.34999999999815 531.3724240000001
  endloop
endfacet
facet normal 1.0 -4.806761049797577e-16 5.768410857317325e-17
  outer loop
    vertex -1.4999999999993543 487.17499999999814 531.1513659162445
    vertex -1.4999999999993598 491.9999999999982 557.3871990000001
    vertex -1.4999999999993543 486.77705142441727 531.3162016133771
  endloop
endfacet
facet normal 1.0 -4.806761049797577e-16 5.768410857317325e-17
  outer loop
    vertex -1.4999999999993543 487.5167261889559 530.889150188958
    vertex -1.4999999999993598 491.9999999999982 557.3871990000001
    vertex -1.4999999999993543 487.17499999999814 531.1513659162445
  endloop
endfacet
facet normal 1.0 -4.806761049797577e-16 5.768410857317325e-17
  outer loop
    vertex -1.4999999999993487 487.77894191624245 530.5474240000002
    vertex -1.4999999999993598 491.9999999999982 557.3871990000001
    vertex -1.4999999999993543 487.5167261889559 530.889150188958
  endloop
endfacet
facet normal 1.0 -4.806761049797577e-16 5.768410857317325e-17
  outer loop
    vertex -1.4999999999993487 487.94377761337506 530.1494754244193
    vertex -1.4999999999993598 491.9999999999982 557.3871990000001
    vertex -1.4999999999993487 487.77894191624245 530.5474240000002
  endloop
endfacet
facet normal 1.0 -4.806761049797577e-16 5.768410857317325e-17
  outer loop
    vertex -1.4999999999993487 487.9999999999981 529.7224240000002
    vertex -1.4999999999993598 491.9999999999982 557.3871990000001
    vertex -1.4999999999993487 487.94377761337506 530.1494754244193
  endloop
endfacet
facet normal 1.0 -4.806761049797577e-16 5.768410857317325e-17
  outer loop
    vertex -1.4999999999993556 491.999999999998 520.7224240000002
    vertex -1.4999999999993598 491.9999999999982 557.3871990000001
    vertex -1.4999999999993487 487.9999999999981 529.7224240000002
  endloop
endfacet
facet normal 1.0 -4.806761049797577e-16 5.768410857317325e-17
  outer loop
    vertex -1.4999999999993556 491.999999999998 520.7224240000002
    vertex -1.4999999999989806 474.8249999999982 528.2934820837559
    vertex -1.4999999999993685 469.99999999999824 520.7224240000002
  endloop
endfacet
facet normal 1.0 -4.806761049797577e-16 5.768410857317325e-17
  outer loop
    vertex -1.4999999999989806 474.4832738110404 528.5556978110424
    vertex -1.4999999999993685 469.99999999999824 520.7224240000002
    vertex -1.4999999999989806 474.8249999999982 528.2934820837559
  endloop
endfacet
facet normal 1.0 -4.806761049797577e-16 5.768410857317325e-17
  outer loop
    vertex -1.4999999999989806 474.2210580837539 528.8974240000002
    vertex -1.4999999999993685 469.99999999999824 520.7224240000002
    vertex -1.4999999999989806 474.4832738110404 528.5556978110424
  endloop
endfacet
facet normal 1.0 -4.806761049797577e-16 5.768410857317325e-17
  outer loop
    vertex -1.4999999999989806 474.0562223866213 529.295372575581
    vertex -1.4999999999993685 469.99999999999824 520.7224240000002
    vertex -1.4999999999989806 474.2210580837539 528.8974240000002
  endloop
endfacet
facet normal 1.0 -4.806761049797577e-16 5.768410857317325e-17
  outer loop
    vertex -1.4999999999989806 473.99999999999824 529.7224240000002
    vertex -1.4999999999993685 469.99999999999824 520.7224240000002
    vertex -1.4999999999989806 474.0562223866213 529.295372575581
  endloop
endfacet
facet normal 1.0 -4.806761049797577e-16 5.768410857317325e-17
  outer loop
    vertex -1.4999999999989806 475.2229485755791 528.1286463866232
    vertex -1.4999999999989806 474.8249999999982 528.2934820837559
    vertex -1.4999999999993556 491.999999999998 520.7224240000002
  endloop
endfacet
facet normal 1.0 -4.806761049797577e-16 5.768410857317325e-17
  outer loop
    vertex -1.4999999999989806 475.6499999999982 528.0724240000002
    vertex -1.4999999999989806 475.2229485755791 528.1286463866232
    vertex -1.4999999999993556 491.999999999998 520.7224240000002
  endloop
endfacet
facet normal 1.0 -4.806761049797577e-16 5.768410857317325e-17
  outer loop
    vertex -1.4999999999989806 476.07705142441733 528.1286463866232
    vertex -1.4999999999989806 475.6499999999982 528.0724240000002
    vertex -1.4999999999993556 491.999999999998 520.7224240000002
  endloop
endfacet
facet normal 1.0 -4.806761049797577e-16 5.768410857317325e-17
  outer loop
    vertex -1.4999999999989806 476.4749999999982 528.2934820837559
    vertex -1.4999999999989806 476.07705142441733 528.1286463866232
    vertex -1.4999999999993556 491.999999999998 520.7224240000002
  endloop
endfacet
facet normal 1.0 -4.806761049797577e-16 5.768410857317325e-17
  outer loop
    vertex -1.4999999999989806 476.816726188956 528.5556978110424
    vertex -1.4999999999989806 476.4749999999982 528.2934820837559
    vertex -1.4999999999993556 491.999999999998 520.7224240000002
  endloop
endfacet
facet normal 1.0 -4.806761049797577e-16 5.768410857317325e-17
  outer loop
    vertex -1.499999999998978 477.0789419162425 528.8974240000002
    vertex -1.4999999999989806 476.816726188956 528.5556978110424
    vertex -1.4999999999993556 491.999999999998 520.7224240000002
  endloop
endfacet
facet normal 1.0 -4.806761049797577e-16 5.768410857317325e-17
  outer loop
    vertex -1.499999999998978 477.24377761337513 529.295372575581
    vertex -1.499999999998978 477.0789419162425 528.8974240000002
    vertex -1.4999999999993556 491.999999999998 520.7224240000002
  endloop
endfacet
facet normal 1.0 -4.806761049797577e-16 5.768410857317325e-17
  outer loop
    vertex -1.499999999998978 477.2999999999982 529.7224240000002
    vertex -1.499999999998978 477.24377761337513 529.295372575581
    vertex -1.4999999999993556 491.999999999998 520.7224240000002
  endloop
endfacet
facet normal 1.0 -4.806761049797577e-16 5.768410857317325e-17
  outer loop
    vertex -1.4999999999993543 485.18327381104035 528.5556978110424
    vertex -1.499999999998978 477.2999999999982 529.7224240000002
    vertex -1.4999999999993556 491.999999999998 520.7224240000002
  endloop
endfacet
facet normal 1.0 -4.806761049797577e-16 5.768410857317325e-17
  outer loop
    vertex -1.4999999999993598 484.9210580837538 528.8974240000002
    vertex -1.499999999998978 477.2999999999982 529.7224240000002
    vertex -1.4999999999993543 485.18327381104035 528.5556978110424
  endloop
endfacet
facet normal 1.0 -4.806761049797577e-16 5.768410857317325e-17
  outer loop
    vertex -1.4999999999993598 484.75622238662123 529.295372575581
    vertex -1.499999999998978 477.2999999999982 529.7224240000002
    vertex -1.4999999999993598 484.9210580837538 528.8974240000002
  endloop
endfacet
facet normal 1.0 -4.806761049797577e-16 5.768410857317325e-17
  outer loop
    vertex -1.4999999999993598 484.69999999999817 529.7224240000002
    vertex -1.499999999998978 477.2999999999982 529.7224240000002
    vertex -1.4999999999993598 484.75622238662123 529.295372575581
  endloop
endfacet
facet normal 1.0 -4.806761049797577e-16 5.768410857317325e-17
  outer loop
    vertex -1.4999999999993543 485.52499999999816 528.2934820837559
    vertex -1.4999999999993543 485.18327381104035 528.5556978110424
    vertex -1.4999999999993556 491.999999999998 520.7224240000002
  endloop
endfacet
facet normal 1.0 -4.806761049797577e-16 5.768410857317325e-17
  outer loop
    vertex -1.4999999999993543 485.92294857557897 528.1286463866232
    vertex -1.4999999999993543 485.52499999999816 528.2934820837559
    vertex -1.4999999999993556 491.999999999998 520.7224240000002
  endloop
endfacet
facet normal 1.0 -4.806761049797577e-16 5.768410857317325e-17
  outer loop
    vertex -1.4999999999993543 486.34999999999815 528.0724240000002
    vertex -1.4999999999993543 485.92294857557897 528.1286463866232
    vertex -1.4999999999993556 491.999999999998 520.7224240000002
  endloop
endfacet
facet normal 1.0 -4.806761049797577e-16 5.768410857317325e-17
  outer loop
    vertex -1.4999999999993543 486.77705142441727 528.1286463866232
    vertex -1.4999999999993543 486.34999999999815 528.0724240000002
    vertex -1.4999999999993556 491.999999999998 520.7224240000002
  endloop
endfacet
facet normal 1.0 -4.806761049797577e-16 5.768410857317325e-17
  outer loop
    vertex -1.4999999999993543 487.17499999999814 528.2934820837559
    vertex -1.4999999999993543 486.77705142441727 528.1286463866232
    vertex -1.4999999999993556 491.999999999998 520.7224240000002
  endloop
endfacet
facet normal 1.0 -4.806761049797577e-16 5.768410857317325e-17
  outer loop
    vertex -1.4999999999993543 487.5167261889559 528.5556978110424
    vertex -1.4999999999993543 487.17499999999814 528.2934820837559
    vertex -1.4999999999993556 491.999999999998 520.7224240000002
  endloop
endfacet
facet normal 1.0 -4.806761049797577e-16 5.768410857317325e-17
  outer loop
    vertex -1.4999999999993487 487.77894191624245 528.8974240000002
    vertex -1.4999999999993543 487.5167261889559 528.5556978110424
    vertex -1.4999999999993556 491.999999999998 520.7224240000002
  endloop
endfacet
facet normal 1.0 -4.806761049797577e-16 5.768410857317325e-17
  outer loop
    vertex -1.4999999999993487 487.94377761337506 529.295372575581
    vertex -1.4999999999993487 487.77894191624245 528.8974240000002
    vertex -1.4999999999993556 491.999999999998 520.7224240000002
  endloop
endfacet
facet normal 1.0 -4.806761049797577e-16 5.768410857317325e-17
  outer loop
    vertex -1.4999999999993487 487.9999999999981 529.7224240000002
    vertex -1.4999999999993487 487.94377761337506 529.295372575581
    vertex -1.4999999999993556 491.999999999998 520.7224240000002
  endloop
endfacet
facet normal 3.7552484929365626e-30 1.0 -4.951584146185563e-15
  outer loop
    vertex -6.499999999998979 491.9999999999982 557.3871990000001
    vertex -1.4999999999993598 491.9999999999982 557.3871990000001
    vertex -6.499999999998976 491.999999999998 520.7224240000002
  endloop
endfacet
facet normal 3.7552484929365626e-30 1.0 -4.951584146185563e-15
  outer loop
    vertex -1.4999999999993556 491.999999999998 520.7224240000002
    vertex -6.499999999998976 491.999999999998 520.7224240000002
    vertex -1.4999999999993598 491.9999999999982 557.3871990000001
  endloop
endfacet
facet normal 0.0 0.0 -1.0
  outer loop
    vertex -6.499999999998981 469.99999999999824 520.7224240000002
    vertex -6.499999999998976 491.999999999998 520.7224240000002
    vertex -1.4999999999993685 469.99999999999824 520.7224240000002
  endloop
endfacet
facet normal 0.0 0.0 -1.0
  outer loop
    vertex -1.4999999999993556 491.999999999998 520.7224240000002
    vertex -1.4999999999993685 469.99999999999824 520.7224240000002
    vertex -6.499999999998976 491.999999999998 520.7224240000002
  endloop
endfacet
facet normal 0.0 0.9238795325113205 -0.38268343236500835
  outer loop
    vertex -6.499999999998981 484.9210580837538 530.5474240000002
    vertex -1.4999999999993598 484.9210580837538 530.5474240000002
    vertex -6.499999999998981 484.75622238662123 530.1494754244193
  endloop
endfacet
facet normal 0.0 0.9238795325113205 -0.38268343236500835
  outer loop
    vertex -1.4999999999993598 484.75622238662123 530.1494754244193
    vertex -6.499999999998981 484.75622238662123 530.1494754244193
    vertex -1.4999999999993598 484.9210580837538 530.5474240000002
  endloop
endfacet
facet normal 0.0 0.9914448613738003 -0.13052619222012887
  outer loop
    vertex -6.499999999998981 484.75622238662123 530.1494754244193
    vertex -1.4999999999993598 484.75622238662123 530.1494754244193
    vertex -6.499999999998981 484.69999999999817 529.7224240000002
  endloop
endfacet
facet normal 0.0 0.9914448613738003 -0.13052619222012887
  outer loop
    vertex -1.4999999999993598 484.69999999999817 529.7224240000002
    vertex -6.499999999998981 484.69999999999817 529.7224240000002
    vertex -1.4999999999993598 484.75622238662123 530.1494754244193
  endloop
endfacet
facet normal 0.0 0.9914448613738003 0.13052619222012887
  outer loop
    vertex -6.499999999998981 484.69999999999817 529.7224240000002
    vertex -1.4999999999993598 484.69999999999817 529.7224240000002
    vertex -6.499999999998981 484.75622238662123 529.295372575581
  endloop
endfacet
facet normal 0.0 0.9914448613738003 0.13052619222012887
  outer loop
    vertex -1.4999999999993598 484.75622238662123 529.295372575581
    vertex -6.499999999998981 484.75622238662123 529.295372575581
    vertex -1.4999999999993598 484.69999999999817 529.7224240000002
  endloop
endfacet
facet normal 0.0 0.9238795325113205 0.38268343236500835
  outer loop
    vertex -6.499999999998981 484.75622238662123 529.295372575581
    vertex -1.4999999999993598 484.75622238662123 529.295372575581
    vertex -6.499999999998981 484.9210580837538 528.8974240000002
  endloop
endfacet
facet normal 0.0 0.9238795325113205 0.38268343236500835
  outer loop
    vertex -1.4999999999993598 484.9210580837538 528.8974240000002
    vertex -6.499999999998981 484.9210580837538 528.8974240000002
    vertex -1.4999999999993598 484.75622238662123 529.295372575581
  endloop
endfacet
facet normal -1.6043657577003749e-18 0.79335334029121 0.6087614290087534
  outer loop
    vertex -6.499999999998981 484.9210580837538 528.8974240000002
    vertex -1.4999999999993598 484.9210580837538 528.8974240000002
    vertex -6.49999999999898 485.18327381104035 528.5556978110424
  endloop
endfacet
facet normal -1.6043657577003749e-18 0.79335334029121 0.6087614290087534
  outer loop
    vertex -1.4999999999993543 485.18327381104035 528.5556978110424
    vertex -6.49999999999898 485.18327381104035 528.5556978110424
    vertex -1.4999999999993598 484.9210580837538 528.8974240000002
  endloop
endfacet
facet normal 0.0 0.6087614290087535 0.79335334029121
  outer loop
    vertex -6.49999999999898 485.52499999999816 528.2934820837559
    vertex -6.49999999999898 485.18327381104035 528.5556978110424
    vertex -1.4999999999993543 485.52499999999816 528.2934820837559
  endloop
endfacet
facet normal 0.0 0.6087614290087535 0.79335334029121
  outer loop
    vertex -1.4999999999993543 485.18327381104035 528.5556978110424
    vertex -1.4999999999993543 485.52499999999816 528.2934820837559
    vertex -6.49999999999898 485.18327381104035 528.5556978110424
  endloop
endfacet
facet normal 0.0 0.3826834323650084 0.9238795325113205
  outer loop
    vertex -6.49999999999898 485.92294857557897 528.1286463866232
    vertex -6.49999999999898 485.52499999999816 528.2934820837559
    vertex -1.4999999999993543 485.92294857557897 528.1286463866232
  endloop
endfacet
facet normal 0.0 0.3826834323650084 0.9238795325113205
  outer loop
    vertex -1.4999999999993543 485.52499999999816 528.2934820837559
    vertex -1.4999999999993543 485.92294857557897 528.1286463866232
    vertex -6.49999999999898 485.52499999999816 528.2934820837559
  endloop
endfacet
facet normal 0.0 0.13052619222012887 0.9914448613738003
  outer loop
    vertex -6.49999999999898 486.34999999999815 528.0724240000002
    vertex -6.49999999999898 485.92294857557897 528.1286463866232
    vertex -1.4999999999993543 486.34999999999815 528.0724240000002
  endloop
endfacet
facet normal 0.0 0.13052619222012887 0.9914448613738003
  outer loop
    vertex -1.4999999999993543 485.92294857557897 528.1286463866232
    vertex -1.4999999999993543 486.34999999999815 528.0724240000002
    vertex -6.49999999999898 485.92294857557897 528.1286463866232
  endloop
endfacet
facet normal -0.0 -0.13052619222012887 0.9914448613738003
  outer loop
    vertex -6.49999999999898 486.77705142441727 528.1286463866232
    vertex -6.49999999999898 486.34999999999815 528.0724240000002
    vertex -1.4999999999993543 486.77705142441727 528.1286463866232
  endloop
endfacet
facet normal -0.0 -0.13052619222012887 0.9914448613738003
  outer loop
    vertex -1.4999999999993543 486.34999999999815 528.0724240000002
    vertex -1.4999999999993543 486.77705142441727 528.1286463866232
    vertex -6.49999999999898 486.34999999999815 528.0724240000002
  endloop
endfacet
facet normal -0.0 -0.3826834323650084 0.9238795325113205
  outer loop
    vertex -6.49999999999898 487.17499999999814 528.2934820837559
    vertex -6.49999999999898 486.77705142441727 528.1286463866232
    vertex -1.4999999999993543 487.17499999999814 528.2934820837559
  endloop
endfacet
facet normal -0.0 -0.3826834323650084 0.9238795325113205
  outer loop
    vertex -1.4999999999993543 486.77705142441727 528.1286463866232
    vertex -1.4999999999993543 487.17499999999814 528.2934820837559
    vertex -6.49999999999898 486.77705142441727 528.1286463866232
  endloop
endfacet
facet normal -0.0 -0.6087614290087535 0.79335334029121
  outer loop
    vertex -6.49999999999898 487.5167261889559 528.5556978110424
    vertex -6.49999999999898 487.17499999999814 528.2934820837559
    vertex -1.4999999999993543 487.5167261889559 528.5556978110424
  endloop
endfacet
facet normal -0.0 -0.6087614290087535 0.79335334029121
  outer loop
    vertex -1.4999999999993543 487.17499999999814 528.2934820837559
    vertex -1.4999999999993543 487.5167261889559 528.5556978110424
    vertex -6.49999999999898 487.17499999999814 528.2934820837559
  endloop
endfacet
facet normal -9.890945214696269e-20 -0.79335334029121 0.6087614290087535
  outer loop
    vertex -1.4999999999993487 487.77894191624245 528.8974240000002
    vertex -6.499999999998979 487.77894191624245 528.8974240000002
    vertex -1.4999999999993543 487.5167261889559 528.5556978110424
  endloop
endfacet
facet normal -9.890945214696269e-20 -0.79335334029121 0.6087614290087535
  outer loop
    vertex -6.49999999999898 487.5167261889559 528.5556978110424
    vertex -1.4999999999993543 487.5167261889559 528.5556978110424
    vertex -6.499999999998979 487.77894191624245 528.8974240000002
  endloop
endfacet
facet normal 0.0 -0.9238795325113205 0.38268343236500835
  outer loop
    vertex -1.4999999999993487 487.94377761337506 529.295372575581
    vertex -6.499999999998979 487.94377761337506 529.295372575581
    vertex -1.4999999999993487 487.77894191624245 528.8974240000002
  endloop
endfacet
facet normal 0.0 -0.9238795325113205 0.38268343236500835
  outer loop
    vertex -6.499999999998979 487.77894191624245 528.8974240000002
    vertex -1.4999999999993487 487.77894191624245 528.8974240000002
    vertex -6.499999999998979 487.94377761337506 529.295372575581
  endloop
endfacet
facet normal 0.0 -0.9914448613738003 0.13052619222012887
  outer loop
    vertex -1.4999999999993487 487.9999999999981 529.7224240000002
    vertex -6.499999999998979 487.9999999999981 529.7224240000002
    vertex -1.4999999999993487 487.94377761337506 529.295372575581
  endloop
endfacet
facet normal 0.0 -0.9914448613738003 0.13052619222012887
  outer loop
    vertex -6.499999999998979 487.94377761337506 529.295372575581
    vertex -1.4999999999993487 487.94377761337506 529.295372575581
    vertex -6.499999999998979 487.9999999999981 529.7224240000002
  endloop
endfacet
facet normal 0.0 -0.9914448613738003 -0.13052619222012887
  outer loop
    vertex -1.4999999999993487 487.94377761337506 530.1494754244193
    vertex -6.499999999998979 487.94377761337506 530.1494754244193
    vertex -1.4999999999993487 487.9999999999981 529.7224240000002
  endloop
endfacet
facet normal 0.0 -0.9914448613738003 -0.13052619222012887
  outer loop
    vertex -6.499999999998979 487.9999999999981 529.7224240000002
    vertex -1.4999999999993487 487.9999999999981 529.7224240000002
    vertex -6.499999999998979 487.94377761337506 530.1494754244193
  endloop
endfacet
facet normal 0.0 -0.9238795325113205 -0.38268343236500835
  outer loop
    vertex -1.4999999999993487 487.77894191624245 530.5474240000002
    vertex -6.499999999998979 487.77894191624245 530.5474240000002
    vertex -1.4999999999993487 487.94377761337506 530.1494754244193
  endloop
endfacet
facet normal 0.0 -0.9238795325113205 -0.38268343236500835
  outer loop
    vertex -6.499999999998979 487.94377761337506 530.1494754244193
    vertex -1.4999999999993487 487.94377761337506 530.1494754244193
    vertex -6.499999999998979 487.77894191624245 530.5474240000002
  endloop
endfacet
facet normal -9.890945214696269e-20 -0.79335334029121 -0.6087614290087535
  outer loop
    vertex -1.4999999999993543 487.5167261889559 530.889150188958
    vertex -6.49999999999898 487.5167261889559 530.889150188958
    vertex -1.4999999999993487 487.77894191624245 530.5474240000002
  endloop
endfacet
facet normal -9.890945214696269e-20 -0.79335334029121 -0.6087614290087535
  outer loop
    vertex -6.499999999998979 487.77894191624245 530.5474240000002
    vertex -1.4999999999993487 487.77894191624245 530.5474240000002
    vertex -6.49999999999898 487.5167261889559 530.889150188958
  endloop
endfacet
facet normal 0.0 -0.6087614290087535 -0.79335334029121
  outer loop
    vertex -6.49999999999898 487.17499999999814 531.1513659162445
    vertex -6.49999999999898 487.5167261889559 530.889150188958
    vertex -1.4999999999993543 487.17499999999814 531.1513659162445
  endloop
endfacet
facet normal 0.0 -0.6087614290087535 -0.79335334029121
  outer loop
    vertex -1.4999999999993543 487.5167261889559 530.889150188958
    vertex -1.4999999999993543 487.17499999999814 531.1513659162445
    vertex -6.49999999999898 487.5167261889559 530.889150188958
  endloop
endfacet
facet normal 0.0 -0.3826834323650084 -0.9238795325113205
  outer loop
    vertex -6.49999999999898 486.77705142441727 531.3162016133771
    vertex -6.49999999999898 487.17499999999814 531.1513659162445
    vertex -1.4999999999993543 486.77705142441727 531.3162016133771
  endloop
endfacet
facet normal 0.0 -0.3826834323650084 -0.9238795325113205
  outer loop
    vertex -1.4999999999993543 487.17499999999814 531.1513659162445
    vertex -1.4999999999993543 486.77705142441727 531.3162016133771
    vertex -6.49999999999898 487.17499999999814 531.1513659162445
  endloop
endfacet
facet normal 0.0 -0.13052619222012887 -0.9914448613738003
  outer loop
    vertex -6.49999999999898 486.34999999999815 531.3724240000001
    vertex -6.49999999999898 486.77705142441727 531.3162016133771
    vertex -1.4999999999993543 486.34999999999815 531.3724240000001
  endloop
endfacet
facet normal 0.0 -0.13052619222012887 -0.9914448613738003
  outer loop
    vertex -1.4999999999993543 486.77705142441727 531.3162016133771
    vertex -1.4999999999993543 486.34999999999815 531.3724240000001
    vertex -6.49999999999898 486.77705142441727 531.3162016133771
  endloop
endfacet
facet normal 0.0 0.13052619222012887 -0.9914448613738003
  outer loop
    vertex -6.49999999999898 485.92294857557897 531.3162016133771
    vertex -6.49999999999898 486.34999999999815 531.3724240000001
    vertex -1.4999999999993543 485.92294857557897 531.3162016133771
  endloop
endfacet
facet normal 0.0 0.13052619222012887 -0.9914448613738003
  outer loop
    vertex -1.4999999999993543 486.34999999999815 531.3724240000001
    vertex -1.4999999999993543 485.92294857557897 531.3162016133771
    vertex -6.49999999999898 486.34999999999815 531.3724240000001
  endloop
endfacet
facet normal 0.0 0.3826834323650084 -0.9238795325113205
  outer loop
    vertex -6.49999999999898 485.52499999999816 531.1513659162445
    vertex -6.49999999999898 485.92294857557897 531.3162016133771
    vertex -1.4999999999993543 485.52499999999816 531.1513659162445
  endloop
endfacet
facet normal 0.0 0.3826834323650084 -0.9238795325113205
  outer loop
    vertex -1.4999999999993543 485.92294857557897 531.3162016133771
    vertex -1.4999999999993543 485.52499999999816 531.1513659162445
    vertex -6.49999999999898 485.92294857557897 531.3162016133771
  endloop
endfacet
facet normal 0.0 0.6087614290087535 -0.79335334029121
  outer loop
    vertex -6.49999999999898 485.18327381104035 530.889150188958
    vertex -6.49999999999898 485.52499999999816 531.1513659162445
    vertex -1.4999999999993543 485.18327381104035 530.889150188958
  endloop
endfacet
facet normal 0.0 0.6087614290087535 -0.79335334029121
  outer loop
    vertex -1.4999999999993543 485.52499999999816 531.1513659162445
    vertex -1.4999999999993543 485.18327381104035 530.889150188958
    vertex -6.49999999999898 485.52499999999816 531.1513659162445
  endloop
endfacet
facet normal -1.6043657577003749e-18 0.79335334029121 -0.6087614290087534
  outer loop
    vertex -6.49999999999898 485.18327381104035 530.889150188958
    vertex -1.4999999999993543 485.18327381104035 530.889150188958
    vertex -6.499999999998981 484.9210580837538 530.5474240000002
  endloop
endfacet
facet normal -1.6043657577003749e-18 0.79335334029121 -0.6087614290087534
  outer loop
    vertex -1.4999999999993598 484.9210580837538 530.5474240000002
    vertex -6.499999999998981 484.9210580837538 530.5474240000002
    vertex -1.4999999999993543 485.18327381104035 530.889150188958
  endloop
endfacet
facet normal -4.702006365852623e-30 0.9238795325113205 0.38268343236500846
  outer loop
    vertex -6.499999999998981 474.0562223866213 529.295372575581
    vertex -1.4999999999989806 474.0562223866213 529.295372575581
    vertex -6.499999999998981 474.2210580837539 528.8974240000002
  endloop
endfacet
facet normal -4.702006365852623e-30 0.9238795325113205 0.38268343236500846
  outer loop
    vertex -1.4999999999989806 474.2210580837539 528.8974240000002
    vertex -6.499999999998981 474.2210580837539 528.8974240000002
    vertex -1.4999999999989806 474.0562223866213 529.295372575581
  endloop
endfacet
facet normal 1.538464281704026e-19 0.79335334029121 0.6087614290087535
  outer loop
    vertex -6.499999999998981 474.2210580837539 528.8974240000002
    vertex -1.4999999999989806 474.2210580837539 528.8974240000002
    vertex -6.49999999999898 474.4832738110404 528.5556978110424
  endloop
endfacet
facet normal 1.538464281704026e-19 0.79335334029121 0.6087614290087535
  outer loop
    vertex -1.4999999999989806 474.4832738110404 528.5556978110424
    vertex -6.49999999999898 474.4832738110404 528.5556978110424
    vertex -1.4999999999989806 474.2210580837539 528.8974240000002
  endloop
endfacet
facet normal 0.0 0.6087614290087535 0.79335334029121
  outer loop
    vertex -6.49999999999898 474.8249999999982 528.2934820837559
    vertex -6.49999999999898 474.4832738110404 528.5556978110424
    vertex -1.4999999999989806 474.8249999999982 528.2934820837559
  endloop
endfacet
facet normal 0.0 0.6087614290087535 0.79335334029121
  outer loop
    vertex -1.4999999999989806 474.4832738110404 528.5556978110424
    vertex -1.4999999999989806 474.8249999999982 528.2934820837559
    vertex -6.49999999999898 474.4832738110404 528.5556978110424
  endloop
endfacet
facet normal 0.0 0.3826834323650084 0.9238795325113205
  outer loop
    vertex -6.49999999999898 475.2229485755791 528.1286463866232
    vertex -6.49999999999898 474.8249999999982 528.2934820837559
    vertex -1.4999999999989806 475.2229485755791 528.1286463866232
  endloop
endfacet
facet normal 0.0 0.3826834323650084 0.9238795325113205
  outer loop
    vertex -1.4999999999989806 474.8249999999982 528.2934820837559
    vertex -1.4999999999989806 475.2229485755791 528.1286463866232
    vertex -6.49999999999898 474.8249999999982 528.2934820837559
  endloop
endfacet
facet normal 0.0 0.13052619222012887 0.9914448613738003
  outer loop
    vertex -6.49999999999898 475.6499999999982 528.0724240000002
    vertex -6.49999999999898 475.2229485755791 528.1286463866232
    vertex -1.4999999999989806 475.6499999999982 528.0724240000002
  endloop
endfacet
facet normal 0.0 0.13052619222012887 0.9914448613738003
  outer loop
    vertex -1.4999999999989806 475.2229485755791 528.1286463866232
    vertex -1.4999999999989806 475.6499999999982 528.0724240000002
    vertex -6.49999999999898 475.2229485755791 528.1286463866232
  endloop
endfacet
facet normal -0.0 -0.13052619222012887 0.9914448613738003
  outer loop
    vertex -6.49999999999898 476.07705142441733 528.1286463866232
    vertex -6.49999999999898 475.6499999999982 528.0724240000002
    vertex -1.4999999999989806 476.07705142441733 528.1286463866232
  endloop
endfacet
facet normal -0.0 -0.13052619222012887 0.9914448613738003
  outer loop
    vertex -1.4999999999989806 475.6499999999982 528.0724240000002
    vertex -1.4999999999989806 476.07705142441733 528.1286463866232
    vertex -6.49999999999898 475.6499999999982 528.0724240000002
  endloop
endfacet
facet normal -0.0 -0.3826834323650084 0.9238795325113205
  outer loop
    vertex -6.49999999999898 476.4749999999982 528.2934820837559
    vertex -6.49999999999898 476.07705142441733 528.1286463866232
    vertex -1.4999999999989806 476.4749999999982 528.2934820837559
  endloop
endfacet
facet normal -0.0 -0.3826834323650084 0.9238795325113205
  outer loop
    vertex -1.4999999999989806 476.07705142441733 528.1286463866232
    vertex -1.4999999999989806 476.4749999999982 528.2934820837559
    vertex -6.49999999999898 476.07705142441733 528.1286463866232
  endloop
endfacet
facet normal -0.0 -0.6087614290087535 0.79335334029121
  outer loop
    vertex -6.49999999999898 476.816726188956 528.5556978110424
    vertex -6.49999999999898 476.4749999999982 528.2934820837559
    vertex -1.4999999999989806 476.816726188956 528.5556978110424
  endloop
endfacet
facet normal -0.0 -0.6087614290087535 0.79335334029121
  outer loop
    vertex -1.4999999999989806 476.4749999999982 528.2934820837559
    vertex -1.4999999999989806 476.816726188956 528.5556978110424
    vertex -6.49999999999898 476.4749999999982 528.2934820837559
  endloop
endfacet
facet normal -1.4944918056411058e-18 -0.79335334029121 0.6087614290087535
  outer loop
    vertex -1.499999999998978 477.0789419162425 528.8974240000002
    vertex -6.499999999998979 477.0789419162425 528.8974240000002
    vertex -1.4999999999989806 476.816726188956 528.5556978110424
  endloop
endfacet
facet normal -1.4944918056411058e-18 -0.79335334029121 0.6087614290087535
  outer loop
    vertex -6.49999999999898 476.816726188956 528.5556978110424
    vertex -1.4999999999989806 476.816726188956 528.5556978110424
    vertex -6.499999999998979 477.0789419162425 528.8974240000002
  endloop
endfacet
facet normal 4.702006365852623e-30 -0.9238795325113205 0.38268343236500846
  outer loop
    vertex -1.499999999998978 477.24377761337513 529.295372575581
    vertex -6.499999999998979 477.24377761337513 529.295372575581
    vertex -1.499999999998978 477.0789419162425 528.8974240000002
  endloop
endfacet
facet normal 4.702006365852623e-30 -0.9238795325113205 0.38268343236500846
  outer loop
    vertex -6.499999999998979 477.0789419162425 528.8974240000002
    vertex -1.499999999998978 477.0789419162425 528.8974240000002
    vertex -6.499999999998979 477.24377761337513 529.295372575581
  endloop
endfacet
facet normal 0.0 -0.9914448613738003 0.13052619222012887
  outer loop
    vertex -1.499999999998978 477.2999999999982 529.7224240000002
    vertex -6.499999999998979 477.2999999999982 529.7224240000002
    vertex -1.499999999998978 477.24377761337513 529.295372575581
  endloop
endfacet
facet normal 0.0 -0.9914448613738003 0.13052619222012887
  outer loop
    vertex -6.499999999998979 477.24377761337513 529.295372575581
    vertex -1.499999999998978 477.24377761337513 529.295372575581
    vertex -6.499999999998979 477.2999999999982 529.7224240000002
  endloop
endfacet
facet normal 0.0 -0.9914448613738003 -0.13052619222012887
  outer loop
    vertex -1.499999999998978 477.24377761337513 530.1494754244193
    vertex -6.499999999998979 477.24377761337513 530.1494754244193
    vertex -1.499999999998978 477.2999999999982 529.7224240000002
  endloop
endfacet
facet normal 0.0 -0.9914448613738003 -0.13052619222012887
  outer loop
    vertex -6.499999999998979 477.2999999999982 529.7224240000002
    vertex -1.499999999998978 477.2999999999982 529.7224240000002
    vertex -6.499999999998979 477.24377761337513 530.1494754244193
  endloop
endfacet
facet normal 4.702006365852623e-30 -0.9238795325113205 -0.38268343236500846
  outer loop
    vertex -1.499999999998978 477.0789419162425 530.5474240000002
    vertex -6.499999999998979 477.0789419162425 530.5474240000002
    vertex -1.499999999998978 477.24377761337513 530.1494754244193
  endloop
endfacet
facet normal 4.702006365852623e-30 -0.9238795325113205 -0.38268343236500846
  outer loop
    vertex -6.499999999998979 477.24377761337513 530.1494754244193
    vertex -1.499999999998978 477.24377761337513 530.1494754244193
    vertex -6.499999999998979 477.0789419162425 530.5474240000002
  endloop
endfacet
facet normal -1.4944918056411058e-18 -0.79335334029121 -0.6087614290087535
  outer loop
    vertex -1.4999999999989806 476.816726188956 530.889150188958
    vertex -6.49999999999898 476.816726188956 530.889150188958
    vertex -1.499999999998978 477.0789419162425 530.5474240000002
  endloop
endfacet
facet normal -1.4944918056411058e-18 -0.79335334029121 -0.6087614290087535
  outer loop
    vertex -6.499999999998979 477.0789419162425 530.5474240000002
    vertex -1.499999999998978 477.0789419162425 530.5474240000002
    vertex -6.49999999999898 476.816726188956 530.889150188958
  endloop
endfacet
facet normal 0.0 -0.6087614290087535 -0.79335334029121
  outer loop
    vertex -6.49999999999898 476.4749999999982 531.1513659162445
    vertex -6.49999999999898 476.816726188956 530.889150188958
    vertex -1.4999999999989806 476.4749999999982 531.1513659162445
  endloop
endfacet
facet normal 0.0 -0.6087614290087535 -0.79335334029121
  outer loop
    vertex -1.4999999999989806 476.816726188956 530.889150188958
    vertex -1.4999999999989806 476.4749999999982 531.1513659162445
    vertex -6.49999999999898 476.816726188956 530.889150188958
  endloop
endfacet
facet normal 0.0 -0.3826834323650084 -0.9238795325113205
  outer loop
    vertex -6.49999999999898 476.07705142441733 531.3162016133771
    vertex -6.49999999999898 476.4749999999982 531.1513659162445
    vertex -1.4999999999989806 476.07705142441733 531.3162016133771
  endloop
endfacet
facet normal 0.0 -0.3826834323650084 -0.9238795325113205
  outer loop
    vertex -1.4999999999989806 476.4749999999982 531.1513659162445
    vertex -1.4999999999989806 476.07705142441733 531.3162016133771
    vertex -6.49999999999898 476.4749999999982 531.1513659162445
  endloop
endfacet
facet normal 0.0 -0.13052619222012887 -0.9914448613738003
  outer loop
    vertex -6.49999999999898 475.6499999999982 531.3724240000001
    vertex -6.49999999999898 476.07705142441733 531.3162016133771
    vertex -1.4999999999989806 475.6499999999982 531.3724240000001
  endloop
endfacet
facet normal 0.0 -0.13052619222012887 -0.9914448613738003
  outer loop
    vertex -1.4999999999989806 476.07705142441733 531.3162016133771
    vertex -1.4999999999989806 475.6499999999982 531.3724240000001
    vertex -6.49999999999898 476.07705142441733 531.3162016133771
  endloop
endfacet
facet normal 0.0 0.13052619222012887 -0.9914448613738003
  outer loop
    vertex -6.49999999999898 475.2229485755791 531.3162016133771
    vertex -6.49999999999898 475.6499999999982 531.3724240000001
    vertex -1.4999999999989806 475.2229485755791 531.3162016133771
  endloop
endfacet
facet normal 0.0 0.13052619222012887 -0.9914448613738003
  outer loop
    vertex -1.4999999999989806 475.6499999999982 531.3724240000001
    vertex -1.4999999999989806 475.2229485755791 531.3162016133771
    vertex -6.49999999999898 475.6499999999982 531.3724240000001
  endloop
endfacet
facet normal 0.0 0.3826834323650084 -0.9238795325113205
  outer loop
    vertex -6.49999999999898 474.8249999999982 531.1513659162445
    vertex -6.49999999999898 475.2229485755791 531.3162016133771
    vertex -1.4999999999989806 474.8249999999982 531.1513659162445
  endloop
endfacet
facet normal 0.0 0.3826834323650084 -0.9238795325113205
  outer loop
    vertex -1.4999999999989806 475.2229485755791 531.3162016133771
    vertex -1.4999999999989806 474.8249999999982 531.1513659162445
    vertex -6.49999999999898 475.2229485755791 531.3162016133771
  endloop
endfacet
facet normal 0.0 0.6087614290087535 -0.79335334029121
  outer loop
    vertex -6.49999999999898 474.4832738110404 530.889150188958
    vertex -6.49999999999898 474.8249999999982 531.1513659162445
    vertex -1.4999999999989806 474.4832738110404 530.889150188958
  endloop
endfacet
facet normal 0.0 0.6087614290087535 -0.79335334029121
  outer loop
    vertex -1.4999999999989806 474.8249999999982 531.1513659162445
    vertex -1.4999999999989806 474.4832738110404 530.889150188958
    vertex -6.49999999999898 474.8249999999982 531.1513659162445
  endloop
endfacet
facet normal 1.538464281704026e-19 0.79335334029121 -0.6087614290087535
  outer loop
    vertex -6.49999999999898 474.4832738110404 530.889150188958
    vertex -1.4999999999989806 474.4832738110404 530.889150188958
    vertex -6.499999999998981 474.2210580837539 530.5474240000002
  endloop
endfacet
facet normal 1.538464281704026e-19 0.79335334029121 -0.6087614290087535
  outer loop
    vertex -1.4999999999989806 474.2210580837539 530.5474240000002
    vertex -6.499999999998981 474.2210580837539 530.5474240000002
    vertex -1.4999999999989806 474.4832738110404 530.889150188958
  endloop
endfacet
facet normal -4.702006365852623e-30 0.9238795325113205 -0.38268343236500846
  outer loop
    vertex -6.499999999998981 474.2210580837539 530.5474240000002
    vertex -1.4999999999989806 474.2210580837539 530.5474240000002
    vertex -6.499999999998981 474.0562223866213 530.1494754244193
  endloop
endfacet
facet normal -4.702006365852623e-30 0.9238795325113205 -0.38268343236500846
  outer loop
    vertex -1.4999999999989806 474.0562223866213 530.1494754244193
    vertex -6.499999999998981 474.0562223866213 530.1494754244193
    vertex -1.4999999999989806 474.2210580837539 530.5474240000002
  endloop
endfacet
facet normal 0.0 0.9914448613738003 -0.13052619222012887
  outer loop
    vertex -6.499999999998981 474.0562223866213 530.1494754244193
    vertex -1.4999999999989806 474.0562223866213 530.1494754244193
    vertex -6.499999999998981 473.99999999999824 529.7224240000002
  endloop
endfacet
facet normal 0.0 0.9914448613738003 -0.13052619222012887
  outer loop
    vertex -1.4999999999989806 473.99999999999824 529.7224240000002
    vertex -6.499999999998981 473.99999999999824 529.7224240000002
    vertex -1.4999999999989806 474.0562223866213 530.1494754244193
  endloop
endfacet
facet normal 0.0 0.9914448613738003 0.13052619222012887
  outer loop
    vertex -6.499999999998981 473.99999999999824 529.7224240000002
    vertex -1.4999999999989806 473.99999999999824 529.7224240000002
    vertex -6.499999999998981 474.0562223866213 529.295372575581
  endloop
endfacet
facet normal 0.0 0.9914448613738003 0.13052619222012887
  outer loop
    vertex -1.4999999999989806 474.0562223866213 529.295372575581
    vertex -6.499999999998981 474.0562223866213 529.295372575581
    vertex -1.4999999999989806 473.99999999999824 529.7224240000002
  endloop
endfacet
endsolid Bed Inside Rails
