solid Bed Inside Rails
facet normal 0.0 -1.0 0.0
  outer loop
    vertex 483.88812645699795 420.68449081018053 571.5000000000001
    vertex 464.8881264569983 420.68449081018053 566.5000000000001
    vertex 483.88812645699795 420.68449081018053 566.5000000000001
  endloop
endfacet
facet normal 0.0 -1.0 0.0
  outer loop
    vertex 464.8881264569983 420.68449081018053 566.5000000000001
    vertex 483.88812645699795 420.68449081018053 571.5000000000001
    vertex 464.8881264569983 420.68449081018053 571.5000000000001
  endloop
endfacet
facet normal -1.0 8.32667268468864e-17 -6.938893903907223e-16
  outer loop
    vertex 442.888126456998 440.68449081018 571.5000000000003
    vertex 442.88812645699846 404.3934888101828 566.5000000000001
    vertex 442.88812645699846 404.3934888101828 571.5000000000001
  endloop
endfacet
facet normal -1.0 8.32667268468864e-17 -6.938893903907223e-16
  outer loop
    vertex 442.88812645699846 404.3934888101828 566.5000000000001
    vertex 442.888126456998 440.68449081018 571.5000000000003
    vertex 442.888126456998 440.68449081018 566.5000000000003
  endloop
endfacet
facet normal 1.5013786462652688e-15 -2.070839321185641e-15 1.0
  outer loop
    vertex 442.88812645699846 404.3934888101828 571.5000000000001
    vertex 451.8426451349358 430.27038033801637 571.5000000000003
    vertex 451.7881264569983 430.6844908101804 571.5000000000003
  endloop
endfacet
facet normal 1.5013786462652688e-15 -2.070839321185641e-15 1.0
  outer loop
    vertex 451.8426451349358 430.27038033801637 571.5000000000003
    vertex 442.88812645699846 404.3934888101828 571.5000000000001
    vertex 452.0024858109432 429.8844908101804 571.5000000000003
  endloop
endfacet
facet normal 1.5013786462652688e-15 -2.070839321185641e-15 1.0
  outer loop
    vertex 452.0024858109432 429.8844908101804 571.5000000000003
    vertex 442.88812645699846 404.3934888101828 571.5000000000001
    vertex 464.8881264569984 404.393488810183 571.5000000000001
  endloop
endfacet
facet normal 1.5013786462652688e-15 -2.070839321185641e-15 1.0
  outer loop
    vertex 452.0024858109432 429.8844908101804 571.5000000000003
    vertex 464.8881264569984 404.393488810183 571.5000000000001
    vertex 452.2567556070998 429.5531199602819 571.5000000000003
  endloop
endfacet
facet normal 1.5013786462652688e-15 -2.070839321185641e-15 1.0
  outer loop
    vertex 452.2567556070998 429.5531199602819 571.5000000000003
    vertex 464.8881264569984 404.393488810183 571.5000000000001
    vertex 452.58812645699834 429.29885016412527 571.5000000000003
  endloop
endfacet
facet normal 1.5013786462652688e-15 -2.070839321185641e-15 1.0
  outer loop
    vertex 452.58812645699834 429.29885016412527 571.5000000000003
    vertex 464.8881264569984 404.393488810183 571.5000000000001
    vertex 452.97401598483424 429.13900948811784 571.5000000000003
  endloop
endfacet
facet normal 1.5013786462652688e-15 -2.070839321185641e-15 1.0
  outer loop
    vertex 452.97401598483424 429.13900948811784 571.5000000000003
    vertex 464.8881264569984 404.393488810183 571.5000000000001
    vertex 453.3881264569983 429.08449081018045 571.5000000000003
  endloop
endfacet
facet normal 1.5013786462652688e-15 -2.070839321185641e-15 1.0
  outer loop
    vertex 453.3881264569983 429.08449081018045 571.5000000000003
    vertex 464.8881264569984 404.393488810183 571.5000000000001
    vertex 453.80223692916235 429.13900948811784 571.5000000000003
  endloop
endfacet
facet normal 1.5013786462652688e-15 -2.070839321185641e-15 1.0
  outer loop
    vertex 453.80223692916235 429.13900948811784 571.5000000000003
    vertex 464.8881264569984 404.393488810183 571.5000000000001
    vertex 454.1881264569983 429.29885016412527 571.5000000000003
  endloop
endfacet
facet normal 1.5013786462652688e-15 -2.070839321185641e-15 1.0
  outer loop
    vertex 454.1881264569983 429.29885016412527 571.5000000000003
    vertex 464.8881264569984 404.393488810183 571.5000000000001
    vertex 454.5194973068968 429.5531199602819 571.5000000000003
  endloop
endfacet
facet normal 1.5013786462652688e-15 -2.070839321185641e-15 1.0
  outer loop
    vertex 454.5194973068968 429.5531199602819 571.5000000000003
    vertex 464.8881264569984 404.393488810183 571.5000000000001
    vertex 454.77376710305344 429.8844908101804 571.5000000000003
  endloop
endfacet
facet normal 1.5013786462652688e-15 -2.070839321185641e-15 1.0
  outer loop
    vertex 454.77376710305344 429.8844908101804 571.5000000000003
    vertex 464.8881264569984 404.393488810183 571.5000000000001
    vertex 454.93360777906076 430.27038033801637 571.5000000000003
  endloop
endfacet
facet normal 1.5013786462652688e-15 -2.070839321185641e-15 1.0
  outer loop
    vertex 454.93360777906076 430.27038033801637 571.5000000000003
    vertex 464.8881264569984 404.393488810183 571.5000000000001
    vertex 454.9881264569983 430.6844908101804 571.5000000000003
  endloop
endfacet
facet normal 1.5013786462652688e-15 -2.070839321185641e-15 1.0
  outer loop
    vertex 454.9881264569983 430.6844908101804 571.5000000000003
    vertex 464.8881264569984 404.393488810183 571.5000000000001
    vertex 464.8881264569983 420.68449081018053 571.5000000000001
  endloop
endfacet
facet normal 1.5013786462652688e-15 -2.070839321185641e-15 1.0
  outer loop
    vertex 464.8881264569983 420.68449081018053 571.5000000000001
    vertex 471.84264513493554 430.27038033801654 571.5000000000001
    vertex 471.788126456998 430.6844908101806 571.5000000000001
  endloop
endfacet
facet normal 1.5013786462652688e-15 -2.070839321185641e-15 1.0
  outer loop
    vertex 471.84264513493554 430.27038033801654 571.5000000000001
    vertex 464.8881264569983 420.68449081018053 571.5000000000001
    vertex 472.00248581094286 429.88449081018064 571.5000000000001
  endloop
endfacet
facet normal 1.5013786462652688e-15 -2.070839321185641e-15 1.0
  outer loop
    vertex 472.00248581094286 429.88449081018064 571.5000000000001
    vertex 464.8881264569983 420.68449081018053 571.5000000000001
    vertex 472.2567556070995 429.5531199602821 571.5000000000001
  endloop
endfacet
facet normal 1.5013786462652688e-15 -2.070839321185641e-15 1.0
  outer loop
    vertex 472.2567556070995 429.5531199602821 571.5000000000001
    vertex 464.8881264569983 420.68449081018053 571.5000000000001
    vertex 472.588126456998 429.2988501641255 571.5000000000001
  endloop
endfacet
facet normal 1.5013786462652688e-15 -2.070839321185641e-15 1.0
  outer loop
    vertex 472.588126456998 429.2988501641255 571.5000000000001
    vertex 464.8881264569983 420.68449081018053 571.5000000000001
    vertex 483.88812645699795 420.68449081018053 571.5000000000001
  endloop
endfacet
facet normal 1.5013786462652688e-15 -2.070839321185641e-15 1.0
  outer loop
    vertex 472.588126456998 429.2988501641255 571.5000000000001
    vertex 483.88812645699795 420.68449081018053 571.5000000000001
    vertex 472.97401598483395 429.1390094881181 571.5000000000001
  endloop
endfacet
facet normal 1.5013786462652688e-15 -2.070839321185641e-15 1.0
  outer loop
    vertex 472.97401598483395 429.1390094881181 571.5000000000001
    vertex 483.88812645699795 420.68449081018053 571.5000000000001
    vertex 473.388126456998 429.0844908101806 571.5000000000001
  endloop
endfacet
facet normal 1.5013786462652688e-15 -2.070839321185641e-15 1.0
  outer loop
    vertex 473.388126456998 429.0844908101806 571.5000000000001
    vertex 483.88812645699795 420.68449081018053 571.5000000000001
    vertex 473.80223692916206 429.1390094881181 571.5000000000001
  endloop
endfacet
facet normal 1.5013786462652688e-15 -2.070839321185641e-15 1.0
  outer loop
    vertex 473.80223692916206 429.1390094881181 571.5000000000001
    vertex 483.88812645699795 420.68449081018053 571.5000000000001
    vertex 474.188126456998 429.2988501641255 571.5000000000001
  endloop
endfacet
facet normal 1.5013786462652688e-15 -2.070839321185641e-15 1.0
  outer loop
    vertex 474.188126456998 429.2988501641255 571.5000000000001
    vertex 483.88812645699795 420.68449081018053 571.5000000000001
    vertex 474.51949730689654 429.5531199602821 571.5000000000001
  endloop
endfacet
facet normal 1.5013786462652688e-15 -2.070839321185641e-15 1.0
  outer loop
    vertex 474.51949730689654 429.5531199602821 571.5000000000001
    vertex 483.88812645699795 420.68449081018053 571.5000000000001
    vertex 474.77376710305316 429.88449081018064 571.5000000000001
  endloop
endfacet
facet normal 1.5013786462652688e-15 -2.070839321185641e-15 1.0
  outer loop
    vertex 474.77376710305316 429.88449081018064 571.5000000000001
    vertex 483.88812645699795 420.68449081018053 571.5000000000001
    vertex 474.9336077790605 430.27038033801654 571.5000000000001
  endloop
endfacet
facet normal 1.5013786462652688e-15 -2.070839321185641e-15 1.0
  outer loop
    vertex 474.9336077790605 430.27038033801654 571.5000000000001
    vertex 483.88812645699795 420.68449081018053 571.5000000000001
    vertex 474.988126456998 430.6844908101806 571.5000000000001
  endloop
endfacet
facet normal 1.5013786462652688e-15 -2.070839321185641e-15 1.0
  outer loop
    vertex 474.988126456998 430.6844908101806 571.5000000000001
    vertex 483.88812645699795 420.68449081018053 571.5000000000001
    vertex 483.8881264569979 440.6844908101807 571.5000000000001
  endloop
endfacet
facet normal 1.5013786462652688e-15 -2.070839321185641e-15 1.0
  outer loop
    vertex 442.888126456998 440.68449081018 571.5000000000003
    vertex 452.97401598483424 432.2299721322429 571.5000000000003
    vertex 483.8881264569979 440.6844908101807 571.5000000000001
  endloop
endfacet
facet normal 1.5013786462652688e-15 -2.070839321185641e-15 1.0
  outer loop
    vertex 452.97401598483424 432.2299721322429 571.5000000000003
    vertex 442.888126456998 440.68449081018 571.5000000000003
    vertex 452.58812645699834 432.07013145623546 571.5000000000003
  endloop
endfacet
facet normal 1.5013786462652688e-15 -2.070839321185641e-15 1.0
  outer loop
    vertex 452.58812645699834 432.07013145623546 571.5000000000003
    vertex 442.888126456998 440.68449081018 571.5000000000003
    vertex 452.2567556070998 431.81586166007884 571.5000000000003
  endloop
endfacet
facet normal 1.5013786462652688e-15 -2.070839321185641e-15 1.0
  outer loop
    vertex 452.2567556070998 431.81586166007884 571.5000000000003
    vertex 442.888126456998 440.68449081018 571.5000000000003
    vertex 452.0024858109432 431.48449081018043 571.5000000000003
  endloop
endfacet
facet normal 1.5013786462652688e-15 -2.070839321185641e-15 1.0
  outer loop
    vertex 452.0024858109432 431.48449081018043 571.5000000000003
    vertex 442.888126456998 440.68449081018 571.5000000000003
    vertex 451.8426451349358 431.0986012823445 571.5000000000003
  endloop
endfacet
facet normal 1.5013786462652688e-15 -2.070839321185641e-15 1.0
  outer loop
    vertex 451.8426451349358 431.0986012823445 571.5000000000003
    vertex 442.888126456998 440.68449081018 571.5000000000003
    vertex 442.88812645699846 404.3934888101828 571.5000000000001
  endloop
endfacet
facet normal 1.5013786462652688e-15 -2.070839321185641e-15 1.0
  outer loop
    vertex 451.8426451349358 431.0986012823445 571.5000000000003
    vertex 442.88812645699846 404.3934888101828 571.5000000000001
    vertex 451.7881264569983 430.6844908101804 571.5000000000003
  endloop
endfacet
facet normal 1.5013786462652688e-15 -2.070839321185641e-15 1.0
  outer loop
    vertex 483.8881264569979 440.6844908101807 571.5000000000001
    vertex 452.97401598483424 432.2299721322429 571.5000000000003
    vertex 453.3881264569983 432.28449081018044 571.5000000000003
  endloop
endfacet
facet normal 1.5013786462652688e-15 -2.070839321185641e-15 1.0
  outer loop
    vertex 483.8881264569979 440.6844908101807 571.5000000000001
    vertex 453.3881264569983 432.28449081018044 571.5000000000003
    vertex 453.80223692916235 432.2299721322429 571.5000000000003
  endloop
endfacet
facet normal 1.5013786462652688e-15 -2.070839321185641e-15 1.0
  outer loop
    vertex 483.8881264569979 440.6844908101807 571.5000000000001
    vertex 453.80223692916235 432.2299721322429 571.5000000000003
    vertex 454.1881264569983 432.07013145623546 571.5000000000003
  endloop
endfacet
facet normal 1.5013786462652688e-15 -2.070839321185641e-15 1.0
  outer loop
    vertex 483.8881264569979 440.6844908101807 571.5000000000001
    vertex 454.1881264569983 432.07013145623546 571.5000000000003
    vertex 454.5194973068968 431.81586166007884 571.5000000000003
  endloop
endfacet
facet normal 1.5013786462652688e-15 -2.070839321185641e-15 1.0
  outer loop
    vertex 483.8881264569979 440.6844908101807 571.5000000000001
    vertex 454.5194973068968 431.81586166007884 571.5000000000003
    vertex 454.77376710305344 431.48449081018043 571.5000000000003
  endloop
endfacet
facet normal 1.5013786462652688e-15 -2.070839321185641e-15 1.0
  outer loop
    vertex 483.8881264569979 440.6844908101807 571.5000000000001
    vertex 454.77376710305344 431.48449081018043 571.5000000000003
    vertex 454.93360777906076 431.0986012823445 571.5000000000003
  endloop
endfacet
facet normal 1.5013786462652688e-15 -2.070839321185641e-15 1.0
  outer loop
    vertex 483.8881264569979 440.6844908101807 571.5000000000001
    vertex 454.93360777906076 431.0986012823445 571.5000000000003
    vertex 454.9881264569983 430.6844908101804 571.5000000000003
  endloop
endfacet
facet normal 1.5013786462652688e-15 -2.070839321185641e-15 1.0
  outer loop
    vertex 483.8881264569979 440.6844908101807 571.5000000000001
    vertex 454.9881264569983 430.6844908101804 571.5000000000003
    vertex 472.588126456998 432.07013145623574 571.5000000000001
  endloop
endfacet
facet normal 1.5013786462652688e-15 -2.070839321185641e-15 1.0
  outer loop
    vertex 472.588126456998 432.07013145623574 571.5000000000001
    vertex 454.9881264569983 430.6844908101804 571.5000000000003
    vertex 472.2567556070995 431.8158616600791 571.5000000000001
  endloop
endfacet
facet normal 1.5013786462652688e-15 -2.070839321185641e-15 1.0
  outer loop
    vertex 472.2567556070995 431.8158616600791 571.5000000000001
    vertex 454.9881264569983 430.6844908101804 571.5000000000003
    vertex 472.00248581094286 431.4844908101806 571.5000000000001
  endloop
endfacet
facet normal 1.5013786462652688e-15 -2.070839321185641e-15 1.0
  outer loop
    vertex 472.00248581094286 431.4844908101806 571.5000000000001
    vertex 454.9881264569983 430.6844908101804 571.5000000000003
    vertex 464.8881264569983 420.68449081018053 571.5000000000001
  endloop
endfacet
facet normal 1.5013786462652688e-15 -2.070839321185641e-15 1.0
  outer loop
    vertex 472.00248581094286 431.4844908101806 571.5000000000001
    vertex 464.8881264569983 420.68449081018053 571.5000000000001
    vertex 471.84264513493554 431.09860128234465 571.5000000000001
  endloop
endfacet
facet normal 1.5013786462652688e-15 -2.070839321185641e-15 1.0
  outer loop
    vertex 471.84264513493554 431.09860128234465 571.5000000000001
    vertex 464.8881264569983 420.68449081018053 571.5000000000001
    vertex 471.788126456998 430.6844908101806 571.5000000000001
  endloop
endfacet
facet normal 1.5013786462652688e-15 -2.070839321185641e-15 1.0
  outer loop
    vertex 483.8881264569979 440.6844908101807 571.5000000000001
    vertex 472.588126456998 432.07013145623574 571.5000000000001
    vertex 472.97401598483395 432.22997213224306 571.5000000000001
  endloop
endfacet
facet normal 1.5013786462652688e-15 -2.070839321185641e-15 1.0
  outer loop
    vertex 483.8881264569979 440.6844908101807 571.5000000000001
    vertex 472.97401598483395 432.22997213224306 571.5000000000001
    vertex 473.388126456998 432.2844908101806 571.5000000000001
  endloop
endfacet
facet normal 1.5013786462652688e-15 -2.070839321185641e-15 1.0
  outer loop
    vertex 483.8881264569979 440.6844908101807 571.5000000000001
    vertex 473.388126456998 432.2844908101806 571.5000000000001
    vertex 473.80223692916206 432.22997213224306 571.5000000000001
  endloop
endfacet
facet normal 1.5013786462652688e-15 -2.070839321185641e-15 1.0
  outer loop
    vertex 483.8881264569979 440.6844908101807 571.5000000000001
    vertex 473.80223692916206 432.22997213224306 571.5000000000001
    vertex 474.188126456998 432.07013145623574 571.5000000000001
  endloop
endfacet
facet normal 1.5013786462652688e-15 -2.070839321185641e-15 1.0
  outer loop
    vertex 483.8881264569979 440.6844908101807 571.5000000000001
    vertex 474.188126456998 432.07013145623574 571.5000000000001
    vertex 474.51949730689654 431.8158616600791 571.5000000000001
  endloop
endfacet
facet normal 1.5013786462652688e-15 -2.070839321185641e-15 1.0
  outer loop
    vertex 483.8881264569979 440.6844908101807 571.5000000000001
    vertex 474.51949730689654 431.8158616600791 571.5000000000001
    vertex 474.77376710305316 431.4844908101806 571.5000000000001
  endloop
endfacet
facet normal 1.5013786462652688e-15 -2.070839321185641e-15 1.0
  outer loop
    vertex 483.8881264569979 440.6844908101807 571.5000000000001
    vertex 474.77376710305316 431.4844908101806 571.5000000000001
    vertex 474.9336077790605 431.09860128234465 571.5000000000001
  endloop
endfacet
facet normal 1.5013786462652688e-15 -2.070839321185641e-15 1.0
  outer loop
    vertex 483.8881264569979 440.6844908101807 571.5000000000001
    vertex 474.9336077790605 431.09860128234465 571.5000000000001
    vertex 474.988126456998 430.6844908101806 571.5000000000001
  endloop
endfacet
facet normal -1.5013786462652688e-15 2.070839321185641e-15 -1.0
  outer loop
    vertex 442.888126456998 440.68449081018 566.5000000000003
    vertex 451.8426451349358 431.0986012823444 566.5000000000001
    vertex 442.88812645699846 404.3934888101828 566.5000000000001
  endloop
endfacet
facet normal -1.5013786462652688e-15 2.070839321185641e-15 -1.0
  outer loop
    vertex 451.8426451349358 431.0986012823444 566.5000000000001
    vertex 442.888126456998 440.68449081018 566.5000000000003
    vertex 452.0024858109432 431.48449081018043 566.5000000000001
  endloop
endfacet
facet normal -1.5013786462652688e-15 2.070839321185641e-15 -1.0
  outer loop
    vertex 452.0024858109432 431.48449081018043 566.5000000000001
    vertex 442.888126456998 440.68449081018 566.5000000000003
    vertex 452.2567556070998 431.81586166007884 566.5000000000001
  endloop
endfacet
facet normal -1.5013786462652688e-15 2.070839321185641e-15 -1.0
  outer loop
    vertex 452.2567556070998 431.81586166007884 566.5000000000001
    vertex 442.888126456998 440.68449081018 566.5000000000003
    vertex 452.58812645699834 432.07013145623546 566.5000000000001
  endloop
endfacet
facet normal -1.5013786462652688e-15 2.070839321185641e-15 -1.0
  outer loop
    vertex 452.58812645699834 432.07013145623546 566.5000000000001
    vertex 442.888126456998 440.68449081018 566.5000000000003
    vertex 452.97401598483424 432.2299721322429 566.5000000000001
  endloop
endfacet
facet normal -1.5013786462652688e-15 2.070839321185641e-15 -1.0
  outer loop
    vertex 452.97401598483424 432.2299721322429 566.5000000000001
    vertex 442.888126456998 440.68449081018 566.5000000000003
    vertex 483.8881264569979 440.6844908101807 566.5000000000001
  endloop
endfacet
facet normal -1.5013786462652688e-15 2.070839321185641e-15 -1.0
  outer loop
    vertex 442.88812645699846 404.3934888101828 566.5000000000001
    vertex 451.8426451349358 431.0986012823444 566.5000000000001
    vertex 451.7881264569983 430.6844908101804 566.5000000000001
  endloop
endfacet
facet normal -1.5013786462652688e-15 2.070839321185641e-15 -1.0
  outer loop
    vertex 452.97401598483424 432.2299721322429 566.5000000000001
    vertex 483.8881264569979 440.6844908101807 566.5000000000001
    vertex 453.3881264569983 432.28449081018044 566.5000000000001
  endloop
endfacet
facet normal -1.5013786462652688e-15 2.070839321185641e-15 -1.0
  outer loop
    vertex 453.3881264569983 432.28449081018044 566.5000000000001
    vertex 483.8881264569979 440.6844908101807 566.5000000000001
    vertex 453.80223692916235 432.2299721322429 566.5000000000001
  endloop
endfacet
facet normal -1.5013786462652688e-15 2.070839321185641e-15 -1.0
  outer loop
    vertex 453.80223692916235 432.2299721322429 566.5000000000001
    vertex 483.8881264569979 440.6844908101807 566.5000000000001
    vertex 454.1881264569983 432.07013145623546 566.5000000000001
  endloop
endfacet
facet normal -1.5013786462652688e-15 2.070839321185641e-15 -1.0
  outer loop
    vertex 454.1881264569983 432.07013145623546 566.5000000000001
    vertex 483.8881264569979 440.6844908101807 566.5000000000001
    vertex 454.5194973068968 431.81586166007884 566.5000000000001
  endloop
endfacet
facet normal -1.5013786462652688e-15 2.070839321185641e-15 -1.0
  outer loop
    vertex 454.5194973068968 431.81586166007884 566.5000000000001
    vertex 483.8881264569979 440.6844908101807 566.5000000000001
    vertex 454.77376710305344 431.48449081018043 566.5000000000001
  endloop
endfacet
facet normal -1.5013786462652688e-15 2.070839321185641e-15 -1.0
  outer loop
    vertex 454.77376710305344 431.48449081018043 566.5000000000001
    vertex 483.8881264569979 440.6844908101807 566.5000000000001
    vertex 454.93360777906076 431.0986012823444 566.5000000000001
  endloop
endfacet
facet normal -1.5013786462652688e-15 2.070839321185641e-15 -1.0
  outer loop
    vertex 454.93360777906076 431.0986012823444 566.5000000000001
    vertex 483.8881264569979 440.6844908101807 566.5000000000001
    vertex 454.9881264569983 430.6844908101804 566.5000000000001
  endloop
endfacet
facet normal -1.5013786462652688e-15 2.070839321185641e-15 -1.0
  outer loop
    vertex 454.9881264569983 430.6844908101804 566.5000000000001
    vertex 483.8881264569979 440.6844908101807 566.5000000000001
    vertex 472.588126456998 432.07013145623574 566.5000000000003
  endloop
endfacet
facet normal -1.5013786462652688e-15 2.070839321185641e-15 -1.0
  outer loop
    vertex 454.9881264569983 430.6844908101804 566.5000000000001
    vertex 472.588126456998 432.07013145623574 566.5000000000003
    vertex 472.2567556070995 431.8158616600791 566.5000000000003
  endloop
endfacet
facet normal -1.5013786462652688e-15 2.070839321185641e-15 -1.0
  outer loop
    vertex 454.9881264569983 430.6844908101804 566.5000000000001
    vertex 472.2567556070995 431.8158616600791 566.5000000000003
    vertex 472.00248581094286 431.4844908101806 566.5000000000003
  endloop
endfacet
facet normal -1.5013786462652688e-15 2.070839321185641e-15 -1.0
  outer loop
    vertex 454.9881264569983 430.6844908101804 566.5000000000001
    vertex 472.00248581094286 431.4844908101806 566.5000000000003
    vertex 464.8881264569983 420.68449081018053 566.5000000000001
  endloop
endfacet
facet normal -1.5013786462652688e-15 2.070839321185641e-15 -1.0
  outer loop
    vertex 464.8881264569983 420.68449081018053 566.5000000000001
    vertex 472.00248581094286 431.4844908101806 566.5000000000003
    vertex 471.84264513493554 431.09860128234465 566.5000000000003
  endloop
endfacet
facet normal -1.5013786462652688e-15 2.070839321185641e-15 -1.0
  outer loop
    vertex 464.8881264569983 420.68449081018053 566.5000000000001
    vertex 471.84264513493554 431.09860128234465 566.5000000000003
    vertex 471.788126456998 430.6844908101806 566.5000000000003
  endloop
endfacet
facet normal -1.5013786462652688e-15 2.070839321185641e-15 -1.0
  outer loop
    vertex 472.588126456998 432.07013145623574 566.5000000000003
    vertex 483.8881264569979 440.6844908101807 566.5000000000001
    vertex 472.97401598483395 432.22997213224306 566.5000000000003
  endloop
endfacet
facet normal -1.5013786462652688e-15 2.070839321185641e-15 -1.0
  outer loop
    vertex 472.97401598483395 432.22997213224306 566.5000000000003
    vertex 483.8881264569979 440.6844908101807 566.5000000000001
    vertex 473.388126456998 432.2844908101806 566.5000000000003
  endloop
endfacet
facet normal -1.5013786462652688e-15 2.070839321185641e-15 -1.0
  outer loop
    vertex 473.388126456998 432.2844908101806 566.5000000000003
    vertex 483.8881264569979 440.6844908101807 566.5000000000001
    vertex 473.80223692916206 432.22997213224306 566.5000000000003
  endloop
endfacet
facet normal -1.5013786462652688e-15 2.070839321185641e-15 -1.0
  outer loop
    vertex 473.80223692916206 432.22997213224306 566.5000000000003
    vertex 483.8881264569979 440.6844908101807 566.5000000000001
    vertex 474.188126456998 432.07013145623574 566.5000000000003
  endloop
endfacet
facet normal -1.5013786462652688e-15 2.070839321185641e-15 -1.0
  outer loop
    vertex 474.188126456998 432.07013145623574 566.5000000000003
    vertex 483.8881264569979 440.6844908101807 566.5000000000001
    vertex 474.51949730689654 431.8158616600791 566.5000000000003
  endloop
endfacet
facet normal -1.5013786462652688e-15 2.070839321185641e-15 -1.0
  outer loop
    vertex 474.51949730689654 431.8158616600791 566.5000000000003
    vertex 483.8881264569979 440.6844908101807 566.5000000000001
    vertex 474.77376710305316 431.4844908101806 566.5000000000003
  endloop
endfacet
facet normal -1.5013786462652688e-15 2.070839321185641e-15 -1.0
  outer loop
    vertex 474.77376710305316 431.4844908101806 566.5000000000003
    vertex 483.8881264569979 440.6844908101807 566.5000000000001
    vertex 474.9336077790605 431.09860128234465 566.5000000000003
  endloop
endfacet
facet normal -1.5013786462652688e-15 2.070839321185641e-15 -1.0
  outer loop
    vertex 474.9336077790605 431.09860128234465 566.5000000000003
    vertex 483.8881264569979 440.6844908101807 566.5000000000001
    vertex 474.988126456998 430.6844908101806 566.5000000000003
  endloop
endfacet
facet normal -1.5013786462652688e-15 2.070839321185641e-15 -1.0
  outer loop
    vertex 464.8881264569983 420.68449081018053 566.5000000000001
    vertex 472.588126456998 429.2988501641255 566.5000000000003
    vertex 483.88812645699795 420.68449081018053 566.5000000000001
  endloop
endfacet
facet normal -1.5013786462652688e-15 2.070839321185641e-15 -1.0
  outer loop
    vertex 472.588126456998 429.2988501641255 566.5000000000003
    vertex 464.8881264569983 420.68449081018053 566.5000000000001
    vertex 472.2567556070995 429.5531199602821 566.5000000000003
  endloop
endfacet
facet normal -1.5013786462652688e-15 2.070839321185641e-15 -1.0
  outer loop
    vertex 472.2567556070995 429.5531199602821 566.5000000000003
    vertex 464.8881264569983 420.68449081018053 566.5000000000001
    vertex 472.00248581094286 429.88449081018064 566.5000000000003
  endloop
endfacet
facet normal -1.5013786462652688e-15 2.070839321185641e-15 -1.0
  outer loop
    vertex 472.00248581094286 429.88449081018064 566.5000000000003
    vertex 464.8881264569983 420.68449081018053 566.5000000000001
    vertex 471.84264513493554 430.27038033801654 566.5000000000003
  endloop
endfacet
facet normal -1.5013786462652688e-15 2.070839321185641e-15 -1.0
  outer loop
    vertex 471.84264513493554 430.27038033801654 566.5000000000003
    vertex 464.8881264569983 420.68449081018053 566.5000000000001
    vertex 471.788126456998 430.6844908101806 566.5000000000003
  endloop
endfacet
facet normal -1.5013786462652688e-15 2.070839321185641e-15 -1.0
  outer loop
    vertex 483.88812645699795 420.68449081018053 566.5000000000001
    vertex 472.588126456998 429.2988501641255 566.5000000000003
    vertex 472.97401598483395 429.1390094881181 566.5000000000003
  endloop
endfacet
facet normal -1.5013786462652688e-15 2.070839321185641e-15 -1.0
  outer loop
    vertex 483.88812645699795 420.68449081018053 566.5000000000001
    vertex 472.97401598483395 429.1390094881181 566.5000000000003
    vertex 473.388126456998 429.0844908101806 566.5000000000003
  endloop
endfacet
facet normal -1.5013786462652688e-15 2.070839321185641e-15 -1.0
  outer loop
    vertex 483.88812645699795 420.68449081018053 566.5000000000001
    vertex 473.388126456998 429.0844908101806 566.5000000000003
    vertex 473.80223692916206 429.1390094881181 566.5000000000003
  endloop
endfacet
facet normal -1.5013786462652688e-15 2.070839321185641e-15 -1.0
  outer loop
    vertex 483.88812645699795 420.68449081018053 566.5000000000001
    vertex 473.80223692916206 429.1390094881181 566.5000000000003
    vertex 474.188126456998 429.2988501641255 566.5000000000003
  endloop
endfacet
facet normal -1.5013786462652688e-15 2.070839321185641e-15 -1.0
  outer loop
    vertex 483.88812645699795 420.68449081018053 566.5000000000001
    vertex 474.188126456998 429.2988501641255 566.5000000000003
    vertex 474.51949730689654 429.5531199602821 566.5000000000003
  endloop
endfacet
facet normal -1.5013786462652688e-15 2.070839321185641e-15 -1.0
  outer loop
    vertex 483.88812645699795 420.68449081018053 566.5000000000001
    vertex 474.51949730689654 429.5531199602821 566.5000000000003
    vertex 474.77376710305316 429.88449081018064 566.5000000000003
  endloop
endfacet
facet normal -1.5013786462652688e-15 2.070839321185641e-15 -1.0
  outer loop
    vertex 483.88812645699795 420.68449081018053 566.5000000000001
    vertex 474.77376710305316 429.88449081018064 566.5000000000003
    vertex 474.9336077790605 430.27038033801654 566.5000000000003
  endloop
endfacet
facet normal -1.5013786462652688e-15 2.070839321185641e-15 -1.0
  outer loop
    vertex 483.88812645699795 420.68449081018053 566.5000000000001
    vertex 474.9336077790605 430.27038033801654 566.5000000000003
    vertex 474.988126456998 430.6844908101806 566.5000000000003
  endloop
endfacet
facet normal -1.5013786462652688e-15 2.070839321185641e-15 -1.0
  outer loop
    vertex 483.88812645699795 420.68449081018053 566.5000000000001
    vertex 474.988126456998 430.6844908101806 566.5000000000003
    vertex 483.8881264569979 440.6844908101807 566.5000000000001
  endloop
endfacet
facet normal -1.5013786462652688e-15 2.070839321185641e-15 -1.0
  outer loop
    vertex 442.88812645699846 404.3934888101828 566.5000000000001
    vertex 452.0024858109432 429.8844908101804 566.5000000000001
    vertex 464.8881264569984 404.393488810183 566.5000000000001
  endloop
endfacet
facet normal -1.5013786462652688e-15 2.070839321185641e-15 -1.0
  outer loop
    vertex 452.0024858109432 429.8844908101804 566.5000000000001
    vertex 442.88812645699846 404.3934888101828 566.5000000000001
    vertex 451.8426451349358 430.27038033801637 566.5000000000001
  endloop
endfacet
facet normal -1.5013786462652688e-15 2.070839321185641e-15 -1.0
  outer loop
    vertex 451.8426451349358 430.27038033801637 566.5000000000001
    vertex 442.88812645699846 404.3934888101828 566.5000000000001
    vertex 451.7881264569983 430.6844908101804 566.5000000000001
  endloop
endfacet
facet normal -1.5013786462652688e-15 2.070839321185641e-15 -1.0
  outer loop
    vertex 464.8881264569984 404.393488810183 566.5000000000001
    vertex 452.0024858109432 429.8844908101804 566.5000000000001
    vertex 452.2567556070998 429.5531199602819 566.5000000000001
  endloop
endfacet
facet normal -1.5013786462652688e-15 2.070839321185641e-15 -1.0
  outer loop
    vertex 464.8881264569984 404.393488810183 566.5000000000001
    vertex 452.2567556070998 429.5531199602819 566.5000000000001
    vertex 452.58812645699834 429.29885016412527 566.5000000000001
  endloop
endfacet
facet normal -1.5013786462652688e-15 2.070839321185641e-15 -1.0
  outer loop
    vertex 464.8881264569984 404.393488810183 566.5000000000001
    vertex 452.58812645699834 429.29885016412527 566.5000000000001
    vertex 452.97401598483424 429.13900948811784 566.5000000000001
  endloop
endfacet
facet normal -1.5013786462652688e-15 2.070839321185641e-15 -1.0
  outer loop
    vertex 464.8881264569984 404.393488810183 566.5000000000001
    vertex 452.97401598483424 429.13900948811784 566.5000000000001
    vertex 453.3881264569983 429.08449081018045 566.5000000000001
  endloop
endfacet
facet normal -1.5013786462652688e-15 2.070839321185641e-15 -1.0
  outer loop
    vertex 464.8881264569984 404.393488810183 566.5000000000001
    vertex 453.3881264569983 429.08449081018045 566.5000000000001
    vertex 453.80223692916235 429.13900948811784 566.5000000000001
  endloop
endfacet
facet normal -1.5013786462652688e-15 2.070839321185641e-15 -1.0
  outer loop
    vertex 464.8881264569984 404.393488810183 566.5000000000001
    vertex 453.80223692916235 429.13900948811784 566.5000000000001
    vertex 454.1881264569983 429.29885016412527 566.5000000000001
  endloop
endfacet
facet normal -1.5013786462652688e-15 2.070839321185641e-15 -1.0
  outer loop
    vertex 464.8881264569984 404.393488810183 566.5000000000001
    vertex 454.1881264569983 429.29885016412527 566.5000000000001
    vertex 454.5194973068968 429.5531199602819 566.5000000000001
  endloop
endfacet
facet normal -1.5013786462652688e-15 2.070839321185641e-15 -1.0
  outer loop
    vertex 464.8881264569984 404.393488810183 566.5000000000001
    vertex 454.5194973068968 429.5531199602819 566.5000000000001
    vertex 454.77376710305344 429.8844908101804 566.5000000000001
  endloop
endfacet
facet normal -1.5013786462652688e-15 2.070839321185641e-15 -1.0
  outer loop
    vertex 464.8881264569984 404.393488810183 566.5000000000001
    vertex 454.77376710305344 429.8844908101804 566.5000000000001
    vertex 454.93360777906076 430.27038033801637 566.5000000000001
  endloop
endfacet
facet normal -1.5013786462652688e-15 2.070839321185641e-15 -1.0
  outer loop
    vertex 464.8881264569984 404.393488810183 566.5000000000001
    vertex 454.93360777906076 430.27038033801637 566.5000000000001
    vertex 454.9881264569983 430.6844908101804 566.5000000000001
  endloop
endfacet
facet normal -1.5013786462652688e-15 2.070839321185641e-15 -1.0
  outer loop
    vertex 464.8881264569984 404.393488810183 566.5000000000001
    vertex 454.9881264569983 430.6844908101804 566.5000000000001
    vertex 464.8881264569983 420.68449081018053 566.5000000000001
  endloop
endfacet
facet normal -0.38268343236510527 -0.9238795325112805 4.50397344353373e-16
  outer loop
    vertex 454.1881264569983 432.07013145623546 571.5000000000003
    vertex 453.80223692916235 432.2299721322429 566.5000000000001
    vertex 454.1881264569983 432.07013145623546 566.5000000000001
  endloop
endfacet
facet normal -0.38268343236510527 -0.9238795325112805 4.50397344353373e-16
  outer loop
    vertex 453.80223692916235 432.2299721322429 566.5000000000001
    vertex 454.1881264569983 432.07013145623546 571.5000000000003
    vertex 453.80223692916235 432.2299721322429 571.5000000000003
  endloop
endfacet
facet normal -0.1305261922200419 -0.9914448613738118 7.010512886177574e-16
  outer loop
    vertex 453.80223692916235 432.2299721322429 571.5000000000003
    vertex 453.3881264569983 432.28449081018044 566.5000000000001
    vertex 453.80223692916235 432.2299721322429 566.5000000000001
  endloop
endfacet
facet normal -0.1305261922200419 -0.9914448613738118 7.010512886177574e-16
  outer loop
    vertex 453.3881264569983 432.28449081018044 566.5000000000001
    vertex 453.80223692916235 432.2299721322429 571.5000000000003
    vertex 453.3881264569983 432.28449081018044 571.5000000000003
  endloop
endfacet
facet normal 0.1305261922200431 -0.9914448613738116 9.039297461048333e-16
  outer loop
    vertex 453.3881264569983 432.28449081018044 571.5000000000003
    vertex 452.97401598483424 432.2299721322429 566.5000000000001
    vertex 453.3881264569983 432.28449081018044 566.5000000000001
  endloop
endfacet
facet normal 0.1305261922200431 -0.9914448613738116 9.039297461048333e-16
  outer loop
    vertex 452.97401598483424 432.2299721322429 566.5000000000001
    vertex 453.3881264569983 432.28449081018044 571.5000000000003
    vertex 452.97401598483424 432.2299721322429 571.5000000000003
  endloop
endfacet
facet normal 0.3826834323651065 -0.9238795325112801 1.0452068852094274e-15
  outer loop
    vertex 452.97401598483424 432.2299721322429 571.5000000000003
    vertex 452.58812645699834 432.07013145623546 566.5000000000001
    vertex 452.97401598483424 432.2299721322429 566.5000000000001
  endloop
endfacet
facet normal 0.3826834323651065 -0.9238795325112801 1.0452068852094274e-15
  outer loop
    vertex 452.58812645699834 432.07013145623546 566.5000000000001
    vertex 452.97401598483424 432.2299721322429 571.5000000000003
    vertex 452.58812645699834 432.07013145623546 571.5000000000003
  endloop
endfacet
facet normal 0.6087614290086749 -0.7933533402912705 1.1152549023730185e-15
  outer loop
    vertex 452.58812645699834 432.07013145623546 571.5000000000003
    vertex 452.2567556070998 431.81586166007884 566.5000000000001
    vertex 452.58812645699834 432.07013145623546 566.5000000000001
  endloop
endfacet
facet normal 0.6087614290086749 -0.7933533402912705 1.1152549023730185e-15
  outer loop
    vertex 452.2567556070998 431.81586166007884 566.5000000000001
    vertex 452.58812645699834 432.07013145623546 571.5000000000003
    vertex 452.2567556070998 431.81586166007884 571.5000000000003
  endloop
endfacet
facet normal 0.7933533402912492 -0.6087614290087026 1.109300140985774e-15
  outer loop
    vertex 452.2567556070998 431.81586166007884 566.5000000000001
    vertex 452.0024858109432 431.48449081018043 571.5000000000003
    vertex 452.0024858109432 431.48449081018043 566.5000000000001
  endloop
endfacet
facet normal 0.7933533402912492 -0.6087614290087026 1.109300140985774e-15
  outer loop
    vertex 452.0024858109432 431.48449081018043 571.5000000000003
    vertex 452.2567556070998 431.81586166007884 566.5000000000001
    vertex 452.2567556070998 431.81586166007884 571.5000000000003
  endloop
endfacet
facet normal 0.9238795325113361 -0.3826834323649709 1.0277484081954516e-15
  outer loop
    vertex 452.0024858109432 431.48449081018043 566.5000000000001
    vertex 451.8426451349358 431.0986012823445 571.5000000000003
    vertex 451.8426451349358 431.0986012823444 566.5000000000001
  endloop
endfacet
facet normal 0.9238795325113361 -0.3826834323649709 1.0277484081954516e-15
  outer loop
    vertex 451.8426451349358 431.0986012823445 571.5000000000003
    vertex 452.0024858109432 431.48449081018043 566.5000000000001
    vertex 452.0024858109432 431.48449081018043 571.5000000000003
  endloop
endfacet
facet normal 0.9914448613738022 -0.13052619222011524 8.76157319821311e-16
  outer loop
    vertex 451.8426451349358 431.0986012823444 566.5000000000001
    vertex 451.7881264569983 430.6844908101804 571.5000000000003
    vertex 451.7881264569983 430.6844908101804 566.5000000000001
  endloop
endfacet
facet normal 0.9914448613738022 -0.13052619222011524 8.76157319821311e-16
  outer loop
    vertex 451.7881264569983 430.6844908101804 571.5000000000003
    vertex 451.8426451349358 431.0986012823444 566.5000000000001
    vertex 451.8426451349358 431.0986012823445 571.5000000000003
  endloop
endfacet
facet normal 0.9914448613738019 0.13052619222011647 6.648575580195763e-16
  outer loop
    vertex 451.7881264569983 430.6844908101804 566.5000000000001
    vertex 451.8426451349358 430.27038033801637 571.5000000000003
    vertex 451.8426451349358 430.27038033801637 566.5000000000001
  endloop
endfacet
facet normal 0.9914448613738019 0.13052619222011647 6.648575580195763e-16
  outer loop
    vertex 451.8426451349358 430.27038033801637 571.5000000000003
    vertex 451.7881264569983 430.6844908101804 566.5000000000001
    vertex 451.7881264569983 430.6844908101804 571.5000000000003
  endloop
endfacet
facet normal 0.9238795325113355 0.382683432364972 4.0824885236816324e-16
  outer loop
    vertex 451.8426451349358 430.27038033801637 566.5000000000001
    vertex 452.0024858109432 429.8844908101804 571.5000000000003
    vertex 452.0024858109432 429.8844908101804 566.5000000000001
  endloop
endfacet
facet normal 0.9238795325113355 0.382683432364972 4.0824885236816324e-16
  outer loop
    vertex 452.0024858109432 429.8844908101804 571.5000000000003
    vertex 451.8426451349358 430.27038033801637 566.5000000000001
    vertex 451.8426451349358 430.27038033801637 571.5000000000003
  endloop
endfacet
facet normal 0.7933533402912485 0.6087614290087036 1.2381866209069432e-16
  outer loop
    vertex 452.0024858109432 429.8844908101804 566.5000000000001
    vertex 452.2567556070998 429.5531199602819 571.5000000000003
    vertex 452.2567556070998 429.5531199602819 566.5000000000001
  endloop
endfacet
facet normal 0.7933533402912485 0.6087614290087036 1.2381866209069432e-16
  outer loop
    vertex 452.2567556070998 429.5531199602819 571.5000000000003
    vertex 452.0024858109432 429.8844908101804 566.5000000000001
    vertex 452.0024858109432 429.8844908101804 571.5000000000003
  endloop
endfacet
facet normal 0.6087614290086739 0.7933533402912711 -1.6904956538821885e-16
  outer loop
    vertex 452.2567556070998 429.5531199602819 571.5000000000003
    vertex 452.58812645699834 429.29885016412527 566.5000000000001
    vertex 452.2567556070998 429.5531199602819 566.5000000000001
  endloop
endfacet
facet normal 0.6087614290086739 0.7933533402912711 -1.6904956538821885e-16
  outer loop
    vertex 452.58812645699834 429.29885016412527 566.5000000000001
    vertex 452.2567556070998 429.5531199602819 571.5000000000003
    vertex 452.58812645699834 429.29885016412527 571.5000000000003
  endloop
endfacet
facet normal 0.38268343236510527 0.9238795325112805 -4.50397344353373e-16
  outer loop
    vertex 452.58812645699834 429.29885016412527 571.5000000000003
    vertex 452.97401598483424 429.13900948811784 566.5000000000001
    vertex 452.58812645699834 429.29885016412527 566.5000000000001
  endloop
endfacet
facet normal 0.38268343236510527 0.9238795325112805 -4.50397344353373e-16
  outer loop
    vertex 452.97401598483424 429.13900948811784 566.5000000000001
    vertex 452.58812645699834 429.29885016412527 571.5000000000003
    vertex 452.97401598483424 429.13900948811784 571.5000000000003
  endloop
endfacet
facet normal 0.1305261922200419 0.9914448613738118 -7.010512886177574e-16
  outer loop
    vertex 452.97401598483424 429.13900948811784 571.5000000000003
    vertex 453.3881264569983 429.08449081018045 566.5000000000001
    vertex 452.97401598483424 429.13900948811784 566.5000000000001
  endloop
endfacet
facet normal 0.1305261922200419 0.9914448613738118 -7.010512886177574e-16
  outer loop
    vertex 453.3881264569983 429.08449081018045 566.5000000000001
    vertex 452.97401598483424 429.13900948811784 571.5000000000003
    vertex 453.3881264569983 429.08449081018045 571.5000000000003
  endloop
endfacet
facet normal -0.1305261922200431 0.9914448613738116 -9.039297461048333e-16
  outer loop
    vertex 453.3881264569983 429.08449081018045 571.5000000000003
    vertex 453.80223692916235 429.13900948811784 566.5000000000001
    vertex 453.3881264569983 429.08449081018045 566.5000000000001
  endloop
endfacet
facet normal -0.1305261922200431 0.9914448613738116 -9.039297461048333e-16
  outer loop
    vertex 453.80223692916235 429.13900948811784 566.5000000000001
    vertex 453.3881264569983 429.08449081018045 571.5000000000003
    vertex 453.80223692916235 429.13900948811784 571.5000000000003
  endloop
endfacet
facet normal -0.3826834323651065 0.9238795325112801 -1.0452068852094274e-15
  outer loop
    vertex 453.80223692916235 429.13900948811784 571.5000000000003
    vertex 454.1881264569983 429.29885016412527 566.5000000000001
    vertex 453.80223692916235 429.13900948811784 566.5000000000001
  endloop
endfacet
facet normal -0.3826834323651065 0.9238795325112801 -1.0452068852094274e-15
  outer loop
    vertex 454.1881264569983 429.29885016412527 566.5000000000001
    vertex 453.80223692916235 429.13900948811784 571.5000000000003
    vertex 454.1881264569983 429.29885016412527 571.5000000000003
  endloop
endfacet
facet normal -0.6087614290086749 0.7933533402912705 -1.1152549023730185e-15
  outer loop
    vertex 454.1881264569983 429.29885016412527 571.5000000000003
    vertex 454.5194973068968 429.5531199602819 566.5000000000001
    vertex 454.1881264569983 429.29885016412527 566.5000000000001
  endloop
endfacet
facet normal -0.6087614290086749 0.7933533402912705 -1.1152549023730185e-15
  outer loop
    vertex 454.5194973068968 429.5531199602819 566.5000000000001
    vertex 454.1881264569983 429.29885016412527 571.5000000000003
    vertex 454.5194973068968 429.5531199602819 571.5000000000003
  endloop
endfacet
facet normal -0.7933533402912492 0.6087614290087026 -1.109300140985774e-15
  outer loop
    vertex 454.77376710305344 429.8844908101804 571.5000000000003
    vertex 454.5194973068968 429.5531199602819 566.5000000000001
    vertex 454.5194973068968 429.5531199602819 571.5000000000003
  endloop
endfacet
facet normal -0.7933533402912492 0.6087614290087026 -1.109300140985774e-15
  outer loop
    vertex 454.5194973068968 429.5531199602819 566.5000000000001
    vertex 454.77376710305344 429.8844908101804 571.5000000000003
    vertex 454.77376710305344 429.8844908101804 566.5000000000001
  endloop
endfacet
facet normal -0.9238795325113361 0.3826834323649709 -1.0277484081954516e-15
  outer loop
    vertex 454.93360777906076 430.27038033801637 571.5000000000003
    vertex 454.77376710305344 429.8844908101804 566.5000000000001
    vertex 454.77376710305344 429.8844908101804 571.5000000000003
  endloop
endfacet
facet normal -0.9238795325113361 0.3826834323649709 -1.0277484081954516e-15
  outer loop
    vertex 454.77376710305344 429.8844908101804 566.5000000000001
    vertex 454.93360777906076 430.27038033801637 571.5000000000003
    vertex 454.93360777906076 430.27038033801637 566.5000000000001
  endloop
endfacet
facet normal -0.9914448613738022 0.13052619222011524 -8.76157319821311e-16
  outer loop
    vertex 454.9881264569983 430.6844908101804 571.5000000000003
    vertex 454.93360777906076 430.27038033801637 566.5000000000001
    vertex 454.93360777906076 430.27038033801637 571.5000000000003
  endloop
endfacet
facet normal -0.9914448613738022 0.13052619222011524 -8.76157319821311e-16
  outer loop
    vertex 454.93360777906076 430.27038033801637 566.5000000000001
    vertex 454.9881264569983 430.6844908101804 571.5000000000003
    vertex 454.9881264569983 430.6844908101804 566.5000000000001
  endloop
endfacet
facet normal -0.9914448613738019 -0.13052619222011647 -6.648575580195763e-16
  outer loop
    vertex 454.93360777906076 431.0986012823445 571.5000000000003
    vertex 454.9881264569983 430.6844908101804 566.5000000000001
    vertex 454.9881264569983 430.6844908101804 571.5000000000003
  endloop
endfacet
facet normal -0.9914448613738019 -0.13052619222011647 -6.648575580195763e-16
  outer loop
    vertex 454.9881264569983 430.6844908101804 566.5000000000001
    vertex 454.93360777906076 431.0986012823445 571.5000000000003
    vertex 454.93360777906076 431.0986012823444 566.5000000000001
  endloop
endfacet
facet normal -0.9238795325113355 -0.382683432364972 -4.0824885236816324e-16
  outer loop
    vertex 454.93360777906076 431.0986012823445 571.5000000000003
    vertex 454.77376710305344 431.48449081018043 566.5000000000001
    vertex 454.93360777906076 431.0986012823444 566.5000000000001
  endloop
endfacet
facet normal -0.9238795325113355 -0.382683432364972 -4.0824885236816324e-16
  outer loop
    vertex 454.77376710305344 431.48449081018043 566.5000000000001
    vertex 454.93360777906076 431.0986012823445 571.5000000000003
    vertex 454.77376710305344 431.48449081018043 571.5000000000003
  endloop
endfacet
facet normal -0.7933533402912485 -0.6087614290087036 -1.2381866209069432e-16
  outer loop
    vertex 454.5194973068968 431.81586166007884 571.5000000000003
    vertex 454.77376710305344 431.48449081018043 566.5000000000001
    vertex 454.77376710305344 431.48449081018043 571.5000000000003
  endloop
endfacet
facet normal -0.7933533402912485 -0.6087614290087036 -1.2381866209069432e-16
  outer loop
    vertex 454.77376710305344 431.48449081018043 566.5000000000001
    vertex 454.5194973068968 431.81586166007884 571.5000000000003
    vertex 454.5194973068968 431.81586166007884 566.5000000000001
  endloop
endfacet
facet normal -0.6087614290086739 -0.7933533402912711 1.6904956538821885e-16
  outer loop
    vertex 454.5194973068968 431.81586166007884 571.5000000000003
    vertex 454.1881264569983 432.07013145623546 566.5000000000001
    vertex 454.5194973068968 431.81586166007884 566.5000000000001
  endloop
endfacet
facet normal -0.6087614290086739 -0.7933533402912711 1.6904956538821885e-16
  outer loop
    vertex 454.1881264569983 432.07013145623546 566.5000000000001
    vertex 454.5194973068968 431.81586166007884 571.5000000000003
    vertex 454.1881264569983 432.07013145623546 571.5000000000003
  endloop
endfacet
facet normal 1.0 4.511946372076603e-15 5.4966810984791515e-31
  outer loop
    vertex 483.8881264569979 440.6844908101807 566.5000000000001
    vertex 483.88812645699795 420.68449081018053 571.5000000000001
    vertex 483.88812645699795 420.68449081018053 566.5000000000001
  endloop
endfacet
facet normal 1.0 4.511946372076603e-15 5.4966810984791515e-31
  outer loop
    vertex 483.88812645699795 420.68449081018053 571.5000000000001
    vertex 483.8881264569979 440.6844908101807 566.5000000000001
    vertex 483.8881264569979 440.6844908101807 571.5000000000001
  endloop
endfacet
facet normal -1.524257854484264e-14 1.0 6.794064546215964e-28
  outer loop
    vertex 442.888126456998 440.68449081018 566.5000000000003
    vertex 483.8881264569979 440.6844908101807 571.5000000000001
    vertex 483.8881264569979 440.6844908101807 566.5000000000001
  endloop
endfacet
facet normal -1.524257854484264e-14 1.0 6.794064546215964e-28
  outer loop
    vertex 483.8881264569979 440.6844908101807 571.5000000000001
    vertex 442.888126456998 440.68449081018 566.5000000000003
    vertex 442.888126456998 440.68449081018 571.5000000000003
  endloop
endfacet
facet normal -0.38268343236499053 -0.9238795325113278 -5.916456789157587e-31
  outer loop
    vertex 474.188126456998 432.07013145623574 571.5000000000001
    vertex 473.80223692916206 432.22997213224306 566.5000000000003
    vertex 474.188126456998 432.07013145623574 566.5000000000003
  endloop
endfacet
facet normal -0.38268343236499053 -0.9238795325113278 -5.916456789157587e-31
  outer loop
    vertex 473.80223692916206 432.22997213224306 566.5000000000003
    vertex 474.188126456998 432.07013145623574 571.5000000000001
    vertex 473.80223692916206 432.22997213224306 571.5000000000001
  endloop
endfacet
facet normal -0.13052619222010886 -0.9914448613738028 -5.916456789157587e-31
  outer loop
    vertex 473.80223692916206 432.22997213224306 571.5000000000001
    vertex 473.388126456998 432.2844908101806 566.5000000000003
    vertex 473.80223692916206 432.22997213224306 566.5000000000003
  endloop
endfacet
facet normal -0.13052619222010886 -0.9914448613738028 -5.916456789157587e-31
  outer loop
    vertex 473.388126456998 432.2844908101806 566.5000000000003
    vertex 473.80223692916206 432.22997213224306 571.5000000000001
    vertex 473.388126456998 432.2844908101806 571.5000000000001
  endloop
endfacet
facet normal 0.13052619222010886 -0.9914448613738028 -5.916456789157587e-31
  outer loop
    vertex 473.388126456998 432.2844908101806 571.5000000000001
    vertex 472.97401598483395 432.22997213224306 566.5000000000003
    vertex 473.388126456998 432.2844908101806 566.5000000000003
  endloop
endfacet
facet normal 0.13052619222010886 -0.9914448613738028 -5.916456789157587e-31
  outer loop
    vertex 472.97401598483395 432.22997213224306 566.5000000000003
    vertex 473.388126456998 432.2844908101806 571.5000000000001
    vertex 472.97401598483395 432.22997213224306 571.5000000000001
  endloop
endfacet
facet normal 0.38268343236499053 -0.9238795325113278 0.0
  outer loop
    vertex 472.97401598483395 432.22997213224306 571.5000000000001
    vertex 472.588126456998 432.07013145623574 566.5000000000003
    vertex 472.97401598483395 432.22997213224306 566.5000000000003
  endloop
endfacet
facet normal 0.38268343236499053 -0.9238795325113278 0.0
  outer loop
    vertex 472.588126456998 432.07013145623574 566.5000000000003
    vertex 472.97401598483395 432.22997213224306 571.5000000000001
    vertex 472.588126456998 432.07013145623574 571.5000000000001
  endloop
endfacet
facet normal 0.6087614290086574 -0.7933533402912838 -9.860761315262648e-32
  outer loop
    vertex 472.588126456998 432.07013145623574 571.5000000000001
    vertex 472.2567556070995 431.8158616600791 566.5000000000003
    vertex 472.588126456998 432.07013145623574 566.5000000000003
  endloop
endfacet
facet normal 0.6087614290086574 -0.7933533402912838 -9.860761315262648e-32
  outer loop
    vertex 472.2567556070995 431.8158616600791 566.5000000000003
    vertex 472.588126456998 432.07013145623574 571.5000000000001
    vertex 472.2567556070995 431.8158616600791 571.5000000000001
  endloop
endfacet
facet normal 0.7933533402912838 -0.6087614290086574 -9.860761315262648e-32
  outer loop
    vertex 472.2567556070995 431.8158616600791 566.5000000000003
    vertex 472.00248581094286 431.4844908101806 571.5000000000001
    vertex 472.00248581094286 431.4844908101806 566.5000000000003
  endloop
endfacet
facet normal 0.7933533402912838 -0.6087614290086574 -9.860761315262648e-32
  outer loop
    vertex 472.00248581094286 431.4844908101806 571.5000000000001
    vertex 472.2567556070995 431.8158616600791 566.5000000000003
    vertex 472.2567556070995 431.8158616600791 571.5000000000001
  endloop
endfacet
facet normal 0.9238795325113278 -0.38268343236499053 4.9303806576313227e-32
  outer loop
    vertex 472.00248581094286 431.4844908101806 566.5000000000003
    vertex 471.84264513493554 431.09860128234465 571.5000000000001
    vertex 471.84264513493554 431.09860128234465 566.5000000000003
  endloop
endfacet
facet normal 0.9238795325113278 -0.38268343236499053 4.9303806576313227e-32
  outer loop
    vertex 471.84264513493554 431.09860128234465 571.5000000000001
    vertex 472.00248581094286 431.4844908101806 566.5000000000003
    vertex 472.00248581094286 431.4844908101806 571.5000000000001
  endloop
endfacet
facet normal 0.9914448613738028 -0.13052619222010886 5.546678239835238e-31
  outer loop
    vertex 471.84264513493554 431.09860128234465 566.5000000000003
    vertex 471.788126456998 430.6844908101806 571.5000000000001
    vertex 471.788126456998 430.6844908101806 566.5000000000003
  endloop
endfacet
facet normal 0.9914448613738028 -0.13052619222010886 5.546678239835238e-31
  outer loop
    vertex 471.788126456998 430.6844908101806 571.5000000000001
    vertex 471.84264513493554 431.09860128234465 566.5000000000003
    vertex 471.84264513493554 431.09860128234465 571.5000000000001
  endloop
endfacet
facet normal 0.9914448613738028 0.13052619222010886 6.286235338479936e-31
  outer loop
    vertex 471.788126456998 430.6844908101806 566.5000000000003
    vertex 471.84264513493554 430.27038033801654 571.5000000000001
    vertex 471.84264513493554 430.27038033801654 566.5000000000003
  endloop
endfacet
facet normal 0.9914448613738028 0.13052619222010886 6.286235338479936e-31
  outer loop
    vertex 471.84264513493554 430.27038033801654 571.5000000000001
    vertex 471.788126456998 430.6844908101806 566.5000000000003
    vertex 471.788126456998 430.6844908101806 571.5000000000001
  endloop
endfacet
facet normal 0.9238795325113278 0.38268343236499053 5.9164567891575885e-31
  outer loop
    vertex 471.84264513493554 430.27038033801654 566.5000000000003
    vertex 472.00248581094286 429.88449081018064 571.5000000000001
    vertex 472.00248581094286 429.88449081018064 566.5000000000003
  endloop
endfacet
facet normal 0.9238795325113278 0.38268343236499053 5.9164567891575885e-31
  outer loop
    vertex 472.00248581094286 429.88449081018064 571.5000000000001
    vertex 471.84264513493554 430.27038033801654 566.5000000000003
    vertex 471.84264513493554 430.27038033801654 571.5000000000001
  endloop
endfacet
facet normal 0.7933533402912838 0.6087614290086574 5.9164567891575885e-31
  outer loop
    vertex 472.00248581094286 429.88449081018064 566.5000000000003
    vertex 472.2567556070995 429.5531199602821 571.5000000000001
    vertex 472.2567556070995 429.5531199602821 566.5000000000003
  endloop
endfacet
facet normal 0.7933533402912838 0.6087614290086574 5.9164567891575885e-31
  outer loop
    vertex 472.2567556070995 429.5531199602821 571.5000000000001
    vertex 472.00248581094286 429.88449081018064 566.5000000000003
    vertex 472.00248581094286 429.88449081018064 571.5000000000001
  endloop
endfacet
facet normal 0.6087614290086574 0.7933533402912838 0.0
  outer loop
    vertex 472.2567556070995 429.5531199602821 571.5000000000001
    vertex 472.588126456998 429.2988501641255 566.5000000000003
    vertex 472.2567556070995 429.5531199602821 566.5000000000003
  endloop
endfacet
facet normal 0.6087614290086574 0.7933533402912838 0.0
  outer loop
    vertex 472.588126456998 429.2988501641255 566.5000000000003
    vertex 472.2567556070995 429.5531199602821 571.5000000000001
    vertex 472.588126456998 429.2988501641255 571.5000000000001
  endloop
endfacet
facet normal 0.38268343236499053 0.9238795325113278 5.916456789157587e-31
  outer loop
    vertex 472.588126456998 429.2988501641255 571.5000000000001
    vertex 472.97401598483395 429.1390094881181 566.5000000000003
    vertex 472.588126456998 429.2988501641255 566.5000000000003
  endloop
endfacet
facet normal 0.38268343236499053 0.9238795325113278 5.916456789157587e-31
  outer loop
    vertex 472.97401598483395 429.1390094881181 566.5000000000003
    vertex 472.588126456998 429.2988501641255 571.5000000000001
    vertex 472.97401598483395 429.1390094881181 571.5000000000001
  endloop
endfacet
facet normal 0.13052619222010886 0.9914448613738028 5.916456789157587e-31
  outer loop
    vertex 472.97401598483395 429.1390094881181 571.5000000000001
    vertex 473.388126456998 429.0844908101806 566.5000000000003
    vertex 472.97401598483395 429.1390094881181 566.5000000000003
  endloop
endfacet
facet normal 0.13052619222010886 0.9914448613738028 5.916456789157587e-31
  outer loop
    vertex 473.388126456998 429.0844908101806 566.5000000000003
    vertex 472.97401598483395 429.1390094881181 571.5000000000001
    vertex 473.388126456998 429.0844908101806 571.5000000000001
  endloop
endfacet
facet normal -0.13052619222010886 0.9914448613738028 5.916456789157587e-31
  outer loop
    vertex 473.388126456998 429.0844908101806 571.5000000000001
    vertex 473.80223692916206 429.1390094881181 566.5000000000003
    vertex 473.388126456998 429.0844908101806 566.5000000000003
  endloop
endfacet
facet normal -0.13052619222010886 0.9914448613738028 5.916456789157587e-31
  outer loop
    vertex 473.80223692916206 429.1390094881181 566.5000000000003
    vertex 473.388126456998 429.0844908101806 571.5000000000001
    vertex 473.80223692916206 429.1390094881181 571.5000000000001
  endloop
endfacet
facet normal -0.38268343236499053 0.9238795325113278 0.0
  outer loop
    vertex 473.80223692916206 429.1390094881181 571.5000000000001
    vertex 474.188126456998 429.2988501641255 566.5000000000003
    vertex 473.80223692916206 429.1390094881181 566.5000000000003
  endloop
endfacet
facet normal -0.38268343236499053 0.9238795325113278 0.0
  outer loop
    vertex 474.188126456998 429.2988501641255 566.5000000000003
    vertex 473.80223692916206 429.1390094881181 571.5000000000001
    vertex 474.188126456998 429.2988501641255 571.5000000000001
  endloop
endfacet
facet normal -0.6087614290086574 0.7933533402912838 9.860761315262648e-32
  outer loop
    vertex 474.188126456998 429.2988501641255 571.5000000000001
    vertex 474.51949730689654 429.5531199602821 566.5000000000003
    vertex 474.188126456998 429.2988501641255 566.5000000000003
  endloop
endfacet
facet normal -0.6087614290086574 0.7933533402912838 9.860761315262648e-32
  outer loop
    vertex 474.51949730689654 429.5531199602821 566.5000000000003
    vertex 474.188126456998 429.2988501641255 571.5000000000001
    vertex 474.51949730689654 429.5531199602821 571.5000000000001
  endloop
endfacet
facet normal -0.7933533402912838 0.6087614290086574 9.860761315262648e-32
  outer loop
    vertex 474.77376710305316 429.88449081018064 571.5000000000001
    vertex 474.51949730689654 429.5531199602821 566.5000000000003
    vertex 474.51949730689654 429.5531199602821 571.5000000000001
  endloop
endfacet
facet normal -0.7933533402912838 0.6087614290086574 9.860761315262648e-32
  outer loop
    vertex 474.51949730689654 429.5531199602821 566.5000000000003
    vertex 474.77376710305316 429.88449081018064 571.5000000000001
    vertex 474.77376710305316 429.88449081018064 566.5000000000003
  endloop
endfacet
facet normal -0.9238795325113278 0.38268343236499053 -4.9303806576313227e-32
  outer loop
    vertex 474.9336077790605 430.27038033801654 571.5000000000001
    vertex 474.77376710305316 429.88449081018064 566.5000000000003
    vertex 474.77376710305316 429.88449081018064 571.5000000000001
  endloop
endfacet
facet normal -0.9238795325113278 0.38268343236499053 -4.9303806576313227e-32
  outer loop
    vertex 474.77376710305316 429.88449081018064 566.5000000000003
    vertex 474.9336077790605 430.27038033801654 571.5000000000001
    vertex 474.9336077790605 430.27038033801654 566.5000000000003
  endloop
endfacet
facet normal -0.9914448613738028 0.13052619222010886 -5.546678239835238e-31
  outer loop
    vertex 474.988126456998 430.6844908101806 571.5000000000001
    vertex 474.9336077790605 430.27038033801654 566.5000000000003
    vertex 474.9336077790605 430.27038033801654 571.5000000000001
  endloop
endfacet
facet normal -0.9914448613738028 0.13052619222010886 -5.546678239835238e-31
  outer loop
    vertex 474.9336077790605 430.27038033801654 566.5000000000003
    vertex 474.988126456998 430.6844908101806 571.5000000000001
    vertex 474.988126456998 430.6844908101806 566.5000000000003
  endloop
endfacet
facet normal -0.9914448613738028 -0.13052619222010886 -6.286235338479936e-31
  outer loop
    vertex 474.9336077790605 431.09860128234465 571.5000000000001
    vertex 474.988126456998 430.6844908101806 566.5000000000003
    vertex 474.988126456998 430.6844908101806 571.5000000000001
  endloop
endfacet
facet normal -0.9914448613738028 -0.13052619222010886 -6.286235338479936e-31
  outer loop
    vertex 474.988126456998 430.6844908101806 566.5000000000003
    vertex 474.9336077790605 431.09860128234465 571.5000000000001
    vertex 474.9336077790605 431.09860128234465 566.5000000000003
  endloop
endfacet
facet normal -0.9238795325113278 -0.38268343236499053 -5.9164567891575885e-31
  outer loop
    vertex 474.77376710305316 431.4844908101806 571.5000000000001
    vertex 474.9336077790605 431.09860128234465 566.5000000000003
    vertex 474.9336077790605 431.09860128234465 571.5000000000001
  endloop
endfacet
facet normal -0.9238795325113278 -0.38268343236499053 -5.9164567891575885e-31
  outer loop
    vertex 474.9336077790605 431.09860128234465 566.5000000000003
    vertex 474.77376710305316 431.4844908101806 571.5000000000001
    vertex 474.77376710305316 431.4844908101806 566.5000000000003
  endloop
endfacet
facet normal -0.7933533402912838 -0.6087614290086574 -5.9164567891575885e-31
  outer loop
    vertex 474.51949730689654 431.8158616600791 571.5000000000001
    vertex 474.77376710305316 431.4844908101806 566.5000000000003
    vertex 474.77376710305316 431.4844908101806 571.5000000000001
  endloop
endfacet
facet normal -0.7933533402912838 -0.6087614290086574 -5.9164567891575885e-31
  outer loop
    vertex 474.77376710305316 431.4844908101806 566.5000000000003
    vertex 474.51949730689654 431.8158616600791 571.5000000000001
    vertex 474.51949730689654 431.8158616600791 566.5000000000003
  endloop
endfacet
facet normal -0.6087614290086574 -0.7933533402912838 0.0
  outer loop
    vertex 474.51949730689654 431.8158616600791 571.5000000000001
    vertex 474.188126456998 432.07013145623574 566.5000000000003
    vertex 474.51949730689654 431.8158616600791 566.5000000000003
  endloop
endfacet
facet normal -0.6087614290086574 -0.7933533402912838 0.0
  outer loop
    vertex 474.188126456998 432.07013145623574 566.5000000000003
    vertex 474.51949730689654 431.8158616600791 571.5000000000001
    vertex 474.188126456998 432.07013145623574 571.5000000000001
  endloop
endfacet
facet normal 4.1017694291605886e-15 -1.0 1.9721522630525295e-30
  outer loop
    vertex 464.8881264569984 404.393488810183 571.5000000000001
    vertex 442.88812645699846 404.3934888101828 566.5000000000001
    vertex 464.8881264569984 404.393488810183 566.5000000000001
  endloop
endfacet
facet normal 4.1017694291605886e-15 -1.0 1.9721522630525295e-30
  outer loop
    vertex 442.88812645699846 404.3934888101828 566.5000000000001
    vertex 464.8881264569984 404.393488810183 571.5000000000001
    vertex 442.88812645699846 404.3934888101828 571.5000000000001
  endloop
endfacet
facet normal 1.0 4.101769429160586e-15 1.9809064900719486e-32
  outer loop
    vertex 464.8881264569983 420.68449081018053 566.5000000000001
    vertex 464.8881264569984 404.393488810183 571.5000000000001
    vertex 464.8881264569984 404.393488810183 566.5000000000001
  endloop
endfacet
facet normal 1.0 4.101769429160586e-15 1.9809064900719486e-32
  outer loop
    vertex 464.8881264569984 404.393488810183 571.5000000000001
    vertex 464.8881264569983 420.68449081018053 566.5000000000001
    vertex 464.8881264569983 420.68449081018053 571.5000000000001
  endloop
endfacet
endsolid Bed Inside Rails
