solid Ender 5 Clone
facet normal 0.4850712500726636 -0.4850712500726655 0.7276068751090009
  outer loop
    vertex 51.50000000000024 476.9999999999991 5.669449489682385e-14
    vertex 21.5000000000002 476.99999999999915 20.000000000000007
    vertex 21.5000000000002 446.99999999999915 4.579259498579828e-14
  endloop
endfacet
facet normal -1.6407077716642309e-15 -1.0 4.101769429160576e-16
  outer loop
    vertex 71.50000000000026 476.9999999999991 5.669449489682385e-14
    vertex 62.550000000000246 476.9999999999991 8.181346652052692
    vertex 51.50000000000024 476.9999999999991 5.669449489682385e-14
  endloop
endfacet
facet normal -1.6407077716642309e-15 -1.0 4.101769429160576e-16
  outer loop
    vertex 62.550000000000246 476.9999999999991 8.181346652052692
    vertex 71.50000000000026 476.9999999999991 5.669449489682385e-14
    vertex 62.98492424049199 476.9999999999991 8.515075759508264
  endloop
endfacet
facet normal -1.6407077716642309e-15 -1.0 4.101769429160576e-16
  outer loop
    vertex 62.98492424049199 476.9999999999991 8.515075759508264
    vertex 71.50000000000026 476.9999999999991 5.669449489682385e-14
    vertex 63.318653347947574 476.9999999999991 8.950000000000014
  endloop
endfacet
facet normal -1.6407077716642309e-15 -1.0 4.101769429160576e-16
  outer loop
    vertex 63.318653347947574 476.9999999999991 8.950000000000014
    vertex 71.50000000000026 476.9999999999991 5.669449489682385e-14
    vertex 71.50000000000026 476.9999999999991 20.00000000000001
  endloop
endfacet
facet normal -1.6407077716642309e-15 -1.0 4.101769429160576e-16
  outer loop
    vertex 51.50000000000024 476.9999999999991 5.669449489682385e-14
    vertex 62.550000000000246 476.9999999999991 8.181346652052692
    vertex 62.043519994715545 476.9999999999991 7.971555764792971
  endloop
endfacet
facet normal -1.6407077716642309e-15 -1.0 4.101769429160576e-16
  outer loop
    vertex 51.50000000000024 476.9999999999991 5.669449489682385e-14
    vertex 62.043519994715545 476.9999999999991 7.971555764792971
    vertex 61.50000000000025 476.9999999999991 7.900000000000014
  endloop
endfacet
facet normal -1.6407077716642309e-15 -1.0 4.101769429160576e-16
  outer loop
    vertex 63.318653347947574 476.9999999999991 8.950000000000014
    vertex 71.50000000000026 476.9999999999991 20.00000000000001
    vertex 63.52844423520729 476.9999999999991 9.456480005284718
  endloop
endfacet
facet normal -1.6407077716642309e-15 -1.0 4.101769429160576e-16
  outer loop
    vertex 63.52844423520729 476.9999999999991 9.456480005284718
    vertex 71.50000000000026 476.9999999999991 20.00000000000001
    vertex 63.60000000000024 476.9999999999991 10.00000000000001
  endloop
endfacet
facet normal -1.6407077716642309e-15 -1.0 4.101769429160576e-16
  outer loop
    vertex 63.60000000000024 476.9999999999991 10.00000000000001
    vertex 71.50000000000026 476.9999999999991 20.00000000000001
    vertex 63.52844423520729 476.9999999999991 10.543519994715306
  endloop
endfacet
facet normal -1.6407077716642309e-15 -1.0 4.101769429160576e-16
  outer loop
    vertex 63.52844423520729 476.9999999999991 10.543519994715306
    vertex 71.50000000000026 476.9999999999991 20.00000000000001
    vertex 63.31865334794756 476.9999999999991 11.050000000000011
  endloop
endfacet
facet normal -1.6407077716642309e-15 -1.0 4.101769429160576e-16
  outer loop
    vertex 63.31865334794756 476.9999999999991 11.050000000000011
    vertex 71.50000000000026 476.9999999999991 20.00000000000001
    vertex 62.98492424049199 476.9999999999991 11.48492424049176
  endloop
endfacet
facet normal -1.6407077716642309e-15 -1.0 4.101769429160576e-16
  outer loop
    vertex 62.98492424049199 476.9999999999991 11.48492424049176
    vertex 71.50000000000026 476.9999999999991 20.00000000000001
    vertex 62.550000000000246 476.9999999999991 11.818653347947329
  endloop
endfacet
facet normal -1.6407077716642309e-15 -1.0 4.101769429160576e-16
  outer loop
    vertex 62.550000000000246 476.9999999999991 11.818653347947329
    vertex 71.50000000000026 476.9999999999991 20.00000000000001
    vertex 62.04351999471554 476.9999999999991 12.02844423520705
  endloop
endfacet
facet normal -1.6407077716642309e-15 -1.0 4.101769429160576e-16
  outer loop
    vertex 62.04351999471554 476.9999999999991 12.02844423520705
    vertex 71.50000000000026 476.9999999999991 20.00000000000001
    vertex 61.50000000000025 476.9999999999991 12.100000000000007
  endloop
endfacet
facet normal -1.6407077716642309e-15 -1.0 4.101769429160576e-16
  outer loop
    vertex 61.50000000000025 476.9999999999991 12.100000000000007
    vertex 71.50000000000026 476.9999999999991 20.00000000000001
    vertex 21.5000000000002 476.99999999999915 20.000000000000007
  endloop
endfacet
facet normal -1.6407077716642309e-15 -1.0 4.101769429160576e-16
  outer loop
    vertex 51.50000000000024 476.9999999999991 5.669449489682385e-14
    vertex 60.95648000528496 476.9999999999991 7.971555764792969
    vertex 21.5000000000002 476.99999999999915 20.000000000000007
  endloop
endfacet
facet normal -1.6407077716642309e-15 -1.0 4.101769429160576e-16
  outer loop
    vertex 60.95648000528496 476.9999999999991 7.971555764792969
    vertex 51.50000000000024 476.9999999999991 5.669449489682385e-14
    vertex 61.50000000000025 476.9999999999991 7.900000000000014
  endloop
endfacet
facet normal -1.6407077716642309e-15 -1.0 4.101769429160576e-16
  outer loop
    vertex 21.5000000000002 476.99999999999915 20.000000000000007
    vertex 60.95648000528496 476.9999999999991 7.971555764792969
    vertex 60.45000000000025 476.9999999999991 8.181346652052692
  endloop
endfacet
facet normal -1.6407077716642309e-15 -1.0 4.101769429160576e-16
  outer loop
    vertex 21.5000000000002 476.99999999999915 20.000000000000007
    vertex 60.45000000000025 476.9999999999991 8.181346652052692
    vertex 60.015075759508505 476.9999999999991 8.515075759508262
  endloop
endfacet
facet normal -1.6407077716642309e-15 -1.0 4.101769429160576e-16
  outer loop
    vertex 21.5000000000002 476.99999999999915 20.000000000000007
    vertex 60.015075759508505 476.9999999999991 8.515075759508262
    vertex 59.68134665205294 476.9999999999991 8.95000000000001
  endloop
endfacet
facet normal -1.6407077716642309e-15 -1.0 4.101769429160576e-16
  outer loop
    vertex 21.5000000000002 476.99999999999915 20.000000000000007
    vertex 59.68134665205294 476.9999999999991 8.95000000000001
    vertex 59.4715557647932 476.9999999999991 9.456480005284716
  endloop
endfacet
facet normal -1.6407077716642309e-15 -1.0 4.101769429160576e-16
  outer loop
    vertex 21.5000000000002 476.99999999999915 20.000000000000007
    vertex 59.4715557647932 476.9999999999991 9.456480005284716
    vertex 59.400000000000254 476.9999999999991 10.000000000000009
  endloop
endfacet
facet normal -1.6407077716642309e-15 -1.0 4.101769429160576e-16
  outer loop
    vertex 21.5000000000002 476.99999999999915 20.000000000000007
    vertex 59.400000000000254 476.9999999999991 10.000000000000009
    vertex 59.4715557647932 476.9999999999991 10.5435199947153
  endloop
endfacet
facet normal -1.6407077716642309e-15 -1.0 4.101769429160576e-16
  outer loop
    vertex 21.5000000000002 476.99999999999915 20.000000000000007
    vertex 59.4715557647932 476.9999999999991 10.5435199947153
    vertex 59.68134665205292 476.9999999999991 11.050000000000006
  endloop
endfacet
facet normal -1.6407077716642309e-15 -1.0 4.101769429160576e-16
  outer loop
    vertex 21.5000000000002 476.99999999999915 20.000000000000007
    vertex 59.68134665205292 476.9999999999991 11.050000000000006
    vertex 60.015075759508505 476.9999999999991 11.484924240491754
  endloop
endfacet
facet normal -1.6407077716642309e-15 -1.0 4.101769429160576e-16
  outer loop
    vertex 21.5000000000002 476.99999999999915 20.000000000000007
    vertex 60.015075759508505 476.9999999999991 11.484924240491754
    vertex 60.45000000000025 476.9999999999991 11.818653347947327
  endloop
endfacet
facet normal -1.6407077716642309e-15 -1.0 4.101769429160576e-16
  outer loop
    vertex 21.5000000000002 476.99999999999915 20.000000000000007
    vertex 60.45000000000025 476.9999999999991 11.818653347947327
    vertex 60.95648000528495 476.9999999999991 12.028444235207049
  endloop
endfacet
facet normal -1.6407077716642309e-15 -1.0 4.101769429160576e-16
  outer loop
    vertex 21.5000000000002 476.99999999999915 20.000000000000007
    vertex 60.95648000528495 476.9999999999991 12.028444235207049
    vertex 61.50000000000025 476.9999999999991 12.100000000000007
  endloop
endfacet
facet normal 1.0 0.0 0.0
  outer loop
    vertex 21.5000000000002 426.99999999999915 4.579259498579828e-14
    vertex 21.5000000000002 435.1813466520519 8.949999999999987
    vertex 21.5000000000002 426.99999999999915 20.0
  endloop
endfacet
facet normal 1.0 0.0 0.0
  outer loop
    vertex 21.5000000000002 435.1813466520519 8.949999999999987
    vertex 21.5000000000002 426.99999999999915 4.579259498579828e-14
    vertex 21.5000000000002 435.51507575950745 8.515075759508248
  endloop
endfacet
facet normal 1.0 0.0 0.0
  outer loop
    vertex 21.5000000000002 435.51507575950745 8.515075759508248
    vertex 21.5000000000002 426.99999999999915 4.579259498579828e-14
    vertex 21.5000000000002 435.9499999999992 8.181346652052692
  endloop
endfacet
facet normal 1.0 0.0 0.0
  outer loop
    vertex 21.5000000000002 435.9499999999992 8.181346652052692
    vertex 21.5000000000002 426.99999999999915 4.579259498579828e-14
    vertex 21.5000000000002 446.99999999999915 4.579259498579828e-14
  endloop
endfacet
facet normal 1.0 0.0 0.0
  outer loop
    vertex 21.5000000000002 426.99999999999915 20.0
    vertex 21.5000000000002 435.1813466520519 8.949999999999987
    vertex 21.5000000000002 434.97155576479213 9.456480005284682
  endloop
endfacet
facet normal 1.0 0.0 0.0
  outer loop
    vertex 21.5000000000002 426.99999999999915 20.0
    vertex 21.5000000000002 434.97155576479213 9.456480005284682
    vertex 21.5000000000002 434.8999999999992 9.999999999999968
  endloop
endfacet
facet normal 1.0 0.0 0.0
  outer loop
    vertex 21.5000000000002 435.9499999999992 8.181346652052692
    vertex 21.5000000000002 446.99999999999915 4.579259498579828e-14
    vertex 21.5000000000002 436.45648000528394 7.971555764792982
  endloop
endfacet
facet normal 1.0 0.0 0.0
  outer loop
    vertex 21.5000000000002 436.45648000528394 7.971555764792982
    vertex 21.5000000000002 446.99999999999915 4.579259498579828e-14
    vertex 21.5000000000002 436.99999999999915 7.900000000000038
  endloop
endfacet
facet normal 1.0 0.0 0.0
  outer loop
    vertex 21.5000000000002 436.99999999999915 7.900000000000038
    vertex 21.5000000000002 446.99999999999915 4.579259498579828e-14
    vertex 21.5000000000002 437.5435199947145 7.971555764793004
  endloop
endfacet
facet normal 1.0 0.0 0.0
  outer loop
    vertex 21.5000000000002 437.5435199947145 7.971555764793004
    vertex 21.5000000000002 446.99999999999915 4.579259498579828e-14
    vertex 21.5000000000002 438.04999999999916 8.181346652052735
  endloop
endfacet
facet normal 1.0 0.0 0.0
  outer loop
    vertex 21.5000000000002 438.04999999999916 8.181346652052735
    vertex 21.5000000000002 446.99999999999915 4.579259498579828e-14
    vertex 21.5000000000002 438.4849242404909 8.51507575950831
  endloop
endfacet
facet normal 1.0 0.0 0.0
  outer loop
    vertex 21.5000000000002 438.4849242404909 8.51507575950831
    vertex 21.5000000000002 446.99999999999915 4.579259498579828e-14
    vertex 21.5000000000002 438.81865334794645 8.950000000000063
  endloop
endfacet
facet normal 1.0 0.0 0.0
  outer loop
    vertex 21.5000000000002 438.81865334794645 8.950000000000063
    vertex 21.5000000000002 446.99999999999915 4.579259498579828e-14
    vertex 21.5000000000002 439.0284442352062 9.456480005284767
  endloop
endfacet
facet normal 1.0 0.0 0.0
  outer loop
    vertex 21.5000000000002 439.0284442352062 9.456480005284767
    vertex 21.5000000000002 446.99999999999915 4.579259498579828e-14
    vertex 21.5000000000002 439.0999999999991 10.000000000000055
  endloop
endfacet
facet normal 1.0 0.0 0.0
  outer loop
    vertex 21.5000000000002 426.99999999999915 20.0
    vertex 21.5000000000002 436.4564800052838 12.028444235207017
    vertex 21.5000000000002 476.99999999999915 20.000000000000007
  endloop
endfacet
facet normal 1.0 0.0 0.0
  outer loop
    vertex 21.5000000000002 436.4564800052838 12.028444235207017
    vertex 21.5000000000002 426.99999999999915 20.0
    vertex 21.5000000000002 435.94999999999914 11.818653347947288
  endloop
endfacet
facet normal 1.0 0.0 0.0
  outer loop
    vertex 21.5000000000002 435.94999999999914 11.818653347947288
    vertex 21.5000000000002 426.99999999999915 20.0
    vertex 21.5000000000002 435.51507575950745 11.484924240491711
  endloop
endfacet
facet normal 1.0 0.0 0.0
  outer loop
    vertex 21.5000000000002 435.51507575950745 11.484924240491711
    vertex 21.5000000000002 426.99999999999915 20.0
    vertex 21.5000000000002 435.18134665205184 11.04999999999996
  endloop
endfacet
facet normal 1.0 0.0 0.0
  outer loop
    vertex 21.5000000000002 435.18134665205184 11.04999999999996
    vertex 21.5000000000002 426.99999999999915 20.0
    vertex 21.5000000000002 434.97155576479213 10.543519994715256
  endloop
endfacet
facet normal 1.0 0.0 0.0
  outer loop
    vertex 21.5000000000002 434.97155576479213 10.543519994715256
    vertex 21.5000000000002 426.99999999999915 20.0
    vertex 21.5000000000002 434.8999999999992 9.999999999999968
  endloop
endfacet
facet normal 1.0 0.0 0.0
  outer loop
    vertex 21.5000000000002 476.99999999999915 20.000000000000007
    vertex 21.5000000000002 436.4564800052838 12.028444235207017
    vertex 21.5000000000002 436.99999999999915 12.099999999999985
  endloop
endfacet
facet normal 1.0 0.0 0.0
  outer loop
    vertex 21.5000000000002 476.99999999999915 20.000000000000007
    vertex 21.5000000000002 436.99999999999915 12.099999999999985
    vertex 21.5000000000002 437.54351999471436 12.02844423520704
  endloop
endfacet
facet normal 1.0 0.0 0.0
  outer loop
    vertex 21.5000000000002 476.99999999999915 20.000000000000007
    vertex 21.5000000000002 437.54351999471436 12.02844423520704
    vertex 21.5000000000002 438.0499999999991 11.818653347947333
  endloop
endfacet
facet normal 1.0 0.0 0.0
  outer loop
    vertex 21.5000000000002 476.99999999999915 20.000000000000007
    vertex 21.5000000000002 438.0499999999991 11.818653347947333
    vertex 21.5000000000002 438.4849242404909 11.484924240491774
  endloop
endfacet
facet normal 1.0 0.0 0.0
  outer loop
    vertex 21.5000000000002 476.99999999999915 20.000000000000007
    vertex 21.5000000000002 438.4849242404909 11.484924240491774
    vertex 21.5000000000002 438.8186533479464 11.050000000000036
  endloop
endfacet
facet normal 1.0 0.0 0.0
  outer loop
    vertex 21.5000000000002 476.99999999999915 20.000000000000007
    vertex 21.5000000000002 438.8186533479464 11.050000000000036
    vertex 21.5000000000002 439.0284442352062 10.543519994715343
  endloop
endfacet
facet normal 1.0 0.0 0.0
  outer loop
    vertex 21.5000000000002 476.99999999999915 20.000000000000007
    vertex 21.5000000000002 439.0284442352062 10.543519994715343
    vertex 21.5000000000002 439.0999999999991 10.000000000000055
  endloop
endfacet
facet normal 1.0 0.0 0.0
  outer loop
    vertex 21.5000000000002 476.99999999999915 20.000000000000007
    vertex 21.5000000000002 439.0999999999991 10.000000000000055
    vertex 21.5000000000002 446.99999999999915 4.579259498579828e-14
  endloop
endfacet
facet normal -6.229163512075485e-17 -1.7932894286531105e-16 1.0
  outer loop
    vertex 21.5000000000002 426.99999999999915 20.0
    vertex 18.500000000000238 479.9999999999992 20.00000000000001
    vertex 18.5000000000002 426.99999999999915 20.0
  endloop
endfacet
facet normal -6.229163512075485e-17 -1.7932894286531105e-16 1.0
  outer loop
    vertex 18.500000000000238 479.9999999999992 20.00000000000001
    vertex 21.5000000000002 426.99999999999915 20.0
    vertex 21.5000000000002 476.99999999999915 20.000000000000007
  endloop
endfacet
facet normal -6.229163512075485e-17 -1.7932894286531105e-16 1.0
  outer loop
    vertex 18.500000000000238 479.9999999999992 20.00000000000001
    vertex 21.5000000000002 476.99999999999915 20.000000000000007
    vertex 71.50000000000026 479.99999999999915 20.00000000000001
  endloop
endfacet
facet normal -6.229163512075485e-17 -1.7932894286531105e-16 1.0
  outer loop
    vertex 71.50000000000026 479.99999999999915 20.00000000000001
    vertex 21.5000000000002 476.99999999999915 20.000000000000007
    vertex 71.50000000000026 476.9999999999991 20.00000000000001
  endloop
endfacet
facet normal 1.0 0.0 7.03454622521283e-17
  outer loop
    vertex 71.50000000000026 479.99999999999915 5.669449489682385e-14
    vertex 71.50000000000026 476.9999999999991 20.00000000000001
    vertex 71.50000000000026 476.9999999999991 5.669449489682385e-14
  endloop
endfacet
facet normal 1.0 0.0 7.03454622521283e-17
  outer loop
    vertex 71.50000000000026 476.9999999999991 20.00000000000001
    vertex 71.50000000000026 479.99999999999915 5.669449489682385e-14
    vertex 71.50000000000026 479.99999999999915 20.00000000000001
  endloop
endfacet
facet normal -1.0 7.448968067107648e-16 -7.034546225212816e-17
  outer loop
    vertex 18.5000000000002 426.99999999999915 20.0
    vertex 18.50000000000019 435.18134665205184 11.04999999999996
    vertex 18.5000000000002 426.99999999999915 4.579259498579828e-14
  endloop
endfacet
facet normal -1.0 7.448968067107648e-16 -7.034546225212816e-17
  outer loop
    vertex 18.50000000000019 435.18134665205184 11.04999999999996
    vertex 18.5000000000002 426.99999999999915 20.0
    vertex 18.50000000000019 435.51507575950745 11.484924240491711
  endloop
endfacet
facet normal -1.0 7.448968067107648e-16 -7.034546225212816e-17
  outer loop
    vertex 18.50000000000019 435.51507575950745 11.484924240491711
    vertex 18.5000000000002 426.99999999999915 20.0
    vertex 18.50000000000019 435.94999999999914 11.818653347947288
  endloop
endfacet
facet normal -1.0 7.448968067107648e-16 -7.034546225212816e-17
  outer loop
    vertex 18.50000000000019 435.94999999999914 11.818653347947288
    vertex 18.5000000000002 426.99999999999915 20.0
    vertex 18.50000000000019 436.4564800052838 12.028444235207017
  endloop
endfacet
facet normal -1.0 7.448968067107648e-16 -7.034546225212816e-17
  outer loop
    vertex 18.50000000000019 436.4564800052838 12.028444235207017
    vertex 18.5000000000002 426.99999999999915 20.0
    vertex 18.500000000000238 479.9999999999992 20.00000000000001
  endloop
endfacet
facet normal -1.0 7.448968067107648e-16 -7.034546225212816e-17
  outer loop
    vertex 18.5000000000002 426.99999999999915 4.579259498579828e-14
    vertex 18.50000000000019 435.18134665205184 11.04999999999996
    vertex 18.50000000000019 434.97155576479213 10.543519994715256
  endloop
endfacet
facet normal -1.0 7.448968067107648e-16 -7.034546225212816e-17
  outer loop
    vertex 18.5000000000002 426.99999999999915 4.579259498579828e-14
    vertex 18.50000000000019 434.97155576479213 10.543519994715256
    vertex 18.50000000000019 434.8999999999992 9.999999999999968
  endloop
endfacet
facet normal -1.0 7.448968067107648e-16 -7.034546225212816e-17
  outer loop
    vertex 18.50000000000019 436.4564800052838 12.028444235207017
    vertex 18.500000000000238 479.9999999999992 20.00000000000001
    vertex 18.50000000000019 436.99999999999915 12.099999999999985
  endloop
endfacet
facet normal -1.0 7.448968067107648e-16 -7.034546225212816e-17
  outer loop
    vertex 18.50000000000019 436.99999999999915 12.099999999999985
    vertex 18.500000000000238 479.9999999999992 20.00000000000001
    vertex 18.50000000000019 437.54351999471436 12.02844423520704
  endloop
endfacet
facet normal -1.0 7.448968067107648e-16 -7.034546225212816e-17
  outer loop
    vertex 18.50000000000019 437.54351999471436 12.02844423520704
    vertex 18.500000000000238 479.9999999999992 20.00000000000001
    vertex 18.50000000000019 438.0499999999991 11.818653347947333
  endloop
endfacet
facet normal -1.0 7.448968067107648e-16 -7.034546225212816e-17
  outer loop
    vertex 18.50000000000019 438.0499999999991 11.818653347947333
    vertex 18.500000000000238 479.9999999999992 20.00000000000001
    vertex 18.50000000000019 438.4849242404909 11.484924240491774
  endloop
endfacet
facet normal -1.0 7.448968067107648e-16 -7.034546225212816e-17
  outer loop
    vertex 18.50000000000019 438.4849242404909 11.484924240491774
    vertex 18.500000000000238 479.9999999999992 20.00000000000001
    vertex 18.50000000000019 438.8186533479464 11.050000000000036
  endloop
endfacet
facet normal -1.0 7.448968067107648e-16 -7.034546225212816e-17
  outer loop
    vertex 18.50000000000019 438.8186533479464 11.050000000000036
    vertex 18.500000000000238 479.9999999999992 20.00000000000001
    vertex 18.50000000000019 439.0284442352062 10.543519994715343
  endloop
endfacet
facet normal -1.0 7.448968067107648e-16 -7.034546225212816e-17
  outer loop
    vertex 18.50000000000019 439.0284442352062 10.543519994715343
    vertex 18.500000000000238 479.9999999999992 20.00000000000001
    vertex 18.50000000000019 439.0999999999991 10.000000000000055
  endloop
endfacet
facet normal -1.0 7.448968067107648e-16 -7.034546225212816e-17
  outer loop
    vertex 18.5000000000002 426.99999999999915 4.579259498579828e-14
    vertex 18.50000000000019 436.45648000528394 7.971555764792982
    vertex 18.500000000000238 479.9999999999992 5.4008380440064544e-14
  endloop
endfacet
facet normal -1.0 7.448968067107648e-16 -7.034546225212816e-17
  outer loop
    vertex 18.50000000000019 436.45648000528394 7.971555764792982
    vertex 18.5000000000002 426.99999999999915 4.579259498579828e-14
    vertex 18.50000000000019 435.9499999999992 8.181346652052692
  endloop
endfacet
facet normal -1.0 7.448968067107648e-16 -7.034546225212816e-17
  outer loop
    vertex 18.50000000000019 435.9499999999992 8.181346652052692
    vertex 18.5000000000002 426.99999999999915 4.579259498579828e-14
    vertex 18.50000000000019 435.51507575950745 8.515075759508248
  endloop
endfacet
facet normal -1.0 7.448968067107648e-16 -7.034546225212816e-17
  outer loop
    vertex 18.50000000000019 435.51507575950745 8.515075759508248
    vertex 18.5000000000002 426.99999999999915 4.579259498579828e-14
    vertex 18.50000000000019 435.1813466520519 8.949999999999987
  endloop
endfacet
facet normal -1.0 7.448968067107648e-16 -7.034546225212816e-17
  outer loop
    vertex 18.50000000000019 435.1813466520519 8.949999999999987
    vertex 18.5000000000002 426.99999999999915 4.579259498579828e-14
    vertex 18.50000000000019 434.97155576479213 9.456480005284682
  endloop
endfacet
facet normal -1.0 7.448968067107648e-16 -7.034546225212816e-17
  outer loop
    vertex 18.50000000000019 434.97155576479213 9.456480005284682
    vertex 18.5000000000002 426.99999999999915 4.579259498579828e-14
    vertex 18.50000000000019 434.8999999999992 9.999999999999968
  endloop
endfacet
facet normal -1.0 7.448968067107648e-16 -7.034546225212816e-17
  outer loop
    vertex 18.500000000000238 479.9999999999992 5.4008380440064544e-14
    vertex 18.50000000000019 436.45648000528394 7.971555764792982
    vertex 18.50000000000019 436.99999999999915 7.900000000000038
  endloop
endfacet
facet normal -1.0 7.448968067107648e-16 -7.034546225212816e-17
  outer loop
    vertex 18.500000000000238 479.9999999999992 5.4008380440064544e-14
    vertex 18.50000000000019 436.99999999999915 7.900000000000038
    vertex 18.50000000000019 437.5435199947145 7.971555764793004
  endloop
endfacet
facet normal -1.0 7.448968067107648e-16 -7.034546225212816e-17
  outer loop
    vertex 18.500000000000238 479.9999999999992 5.4008380440064544e-14
    vertex 18.50000000000019 437.5435199947145 7.971555764793004
    vertex 18.50000000000019 438.04999999999916 8.181346652052735
  endloop
endfacet
facet normal -1.0 7.448968067107648e-16 -7.034546225212816e-17
  outer loop
    vertex 18.500000000000238 479.9999999999992 5.4008380440064544e-14
    vertex 18.50000000000019 438.04999999999916 8.181346652052735
    vertex 18.50000000000019 438.4849242404909 8.51507575950831
  endloop
endfacet
facet normal -1.0 7.448968067107648e-16 -7.034546225212816e-17
  outer loop
    vertex 18.500000000000238 479.9999999999992 5.4008380440064544e-14
    vertex 18.50000000000019 438.4849242404909 8.51507575950831
    vertex 18.50000000000019 438.81865334794645 8.950000000000063
  endloop
endfacet
facet normal -1.0 7.448968067107648e-16 -7.034546225212816e-17
  outer loop
    vertex 18.500000000000238 479.9999999999992 5.4008380440064544e-14
    vertex 18.50000000000019 438.81865334794645 8.950000000000063
    vertex 18.50000000000019 439.0284442352062 9.456480005284767
  endloop
endfacet
facet normal -1.0 7.448968067107648e-16 -7.034546225212816e-17
  outer loop
    vertex 18.500000000000238 479.9999999999992 5.4008380440064544e-14
    vertex 18.50000000000019 439.0284442352062 9.456480005284767
    vertex 18.50000000000019 439.0999999999991 10.000000000000055
  endloop
endfacet
facet normal -1.0 7.448968067107648e-16 -7.034546225212816e-17
  outer loop
    vertex 18.500000000000238 479.9999999999992 5.4008380440064544e-14
    vertex 18.50000000000019 439.0999999999991 10.000000000000055
    vertex 18.500000000000238 479.9999999999992 20.00000000000001
  endloop
endfacet
facet normal -0.0 -1.0 -1.6317888758945688e-16
  outer loop
    vertex 21.5000000000002 426.99999999999915 20.0
    vertex 18.5000000000002 426.99999999999915 4.579259498579828e-14
    vertex 21.5000000000002 426.99999999999915 4.579259498579828e-14
  endloop
endfacet
facet normal -0.0 -1.0 -1.6317888758945688e-16
  outer loop
    vertex 18.5000000000002 426.99999999999915 4.579259498579828e-14
    vertex 21.5000000000002 426.99999999999915 20.0
    vertex 18.5000000000002 426.99999999999915 20.0
  endloop
endfacet
facet normal 1.7026212724817493e-15 1.0 1.6317888758945697e-16
  outer loop
    vertex 18.500000000000238 479.9999999999992 20.00000000000001
    vertex 71.50000000000026 479.99999999999915 5.669449489682385e-14
    vertex 18.500000000000238 479.9999999999992 5.4008380440064544e-14
  endloop
endfacet
facet normal 1.7026212724817493e-15 1.0 1.6317888758945697e-16
  outer loop
    vertex 71.50000000000026 479.99999999999915 5.669449489682385e-14
    vertex 18.500000000000238 479.9999999999992 20.00000000000001
    vertex 60.95648000528496 479.99999999999915 7.971555764792969
  endloop
endfacet
facet normal 1.7026212724817493e-15 1.0 1.6317888758945697e-16
  outer loop
    vertex 71.50000000000026 479.99999999999915 5.669449489682385e-14
    vertex 60.95648000528496 479.99999999999915 7.971555764792969
    vertex 61.50000000000025 479.99999999999915 7.900000000000014
  endloop
endfacet
facet normal 1.7026212724817493e-15 1.0 1.6317888758945697e-16
  outer loop
    vertex 60.95648000528496 479.99999999999915 7.971555764792969
    vertex 18.500000000000238 479.9999999999992 20.00000000000001
    vertex 60.45000000000025 479.99999999999915 8.181346652052692
  endloop
endfacet
facet normal 1.7026212724817493e-15 1.0 1.6317888758945697e-16
  outer loop
    vertex 60.45000000000025 479.99999999999915 8.181346652052692
    vertex 18.500000000000238 479.9999999999992 20.00000000000001
    vertex 60.015075759508505 479.99999999999915 8.515075759508262
  endloop
endfacet
facet normal 1.7026212724817493e-15 1.0 1.6317888758945697e-16
  outer loop
    vertex 60.015075759508505 479.99999999999915 8.515075759508262
    vertex 18.500000000000238 479.9999999999992 20.00000000000001
    vertex 59.68134665205294 479.99999999999915 8.95000000000001
  endloop
endfacet
facet normal 1.7026212724817493e-15 1.0 1.6317888758945697e-16
  outer loop
    vertex 59.68134665205294 479.99999999999915 8.95000000000001
    vertex 18.500000000000238 479.9999999999992 20.00000000000001
    vertex 59.4715557647932 479.99999999999915 9.456480005284716
  endloop
endfacet
facet normal 1.7026212724817493e-15 1.0 1.6317888758945697e-16
  outer loop
    vertex 59.4715557647932 479.99999999999915 9.456480005284716
    vertex 18.500000000000238 479.9999999999992 20.00000000000001
    vertex 59.400000000000254 479.99999999999915 10.000000000000009
  endloop
endfacet
facet normal 1.7026212724817493e-15 1.0 1.6317888758945697e-16
  outer loop
    vertex 59.400000000000254 479.99999999999915 10.000000000000009
    vertex 18.500000000000238 479.9999999999992 20.00000000000001
    vertex 59.4715557647932 479.99999999999915 10.5435199947153
  endloop
endfacet
facet normal 1.7026212724817493e-15 1.0 1.6317888758945697e-16
  outer loop
    vertex 59.4715557647932 479.99999999999915 10.5435199947153
    vertex 18.500000000000238 479.9999999999992 20.00000000000001
    vertex 59.68134665205292 479.99999999999915 11.050000000000006
  endloop
endfacet
facet normal 1.7026212724817493e-15 1.0 1.6317888758945697e-16
  outer loop
    vertex 59.68134665205292 479.99999999999915 11.050000000000006
    vertex 18.500000000000238 479.9999999999992 20.00000000000001
    vertex 60.015075759508505 479.99999999999915 11.484924240491754
  endloop
endfacet
facet normal 1.7026212724817493e-15 1.0 1.6317888758945697e-16
  outer loop
    vertex 60.015075759508505 479.99999999999915 11.484924240491754
    vertex 18.500000000000238 479.9999999999992 20.00000000000001
    vertex 60.45000000000025 479.99999999999915 11.818653347947327
  endloop
endfacet
facet normal 1.7026212724817493e-15 1.0 1.6317888758945697e-16
  outer loop
    vertex 60.45000000000025 479.99999999999915 11.818653347947327
    vertex 18.500000000000238 479.9999999999992 20.00000000000001
    vertex 60.95648000528495 479.99999999999915 12.028444235207049
  endloop
endfacet
facet normal 1.7026212724817493e-15 1.0 1.6317888758945697e-16
  outer loop
    vertex 60.95648000528495 479.99999999999915 12.028444235207049
    vertex 18.500000000000238 479.9999999999992 20.00000000000001
    vertex 61.50000000000025 479.99999999999915 12.100000000000007
  endloop
endfacet
facet normal 1.7026212724817493e-15 1.0 1.6317888758945697e-16
  outer loop
    vertex 71.50000000000026 479.99999999999915 5.669449489682385e-14
    vertex 63.318653347947574 479.99999999999915 8.950000000000014
    vertex 71.50000000000026 479.99999999999915 20.00000000000001
  endloop
endfacet
facet normal 1.7026212724817493e-15 1.0 1.6317888758945697e-16
  outer loop
    vertex 63.318653347947574 479.99999999999915 8.950000000000014
    vertex 71.50000000000026 479.99999999999915 5.669449489682385e-14
    vertex 62.98492424049199 479.99999999999915 8.515075759508264
  endloop
endfacet
facet normal 1.7026212724817493e-15 1.0 1.6317888758945697e-16
  outer loop
    vertex 62.98492424049199 479.99999999999915 8.515075759508264
    vertex 71.50000000000026 479.99999999999915 5.669449489682385e-14
    vertex 62.550000000000246 479.99999999999915 8.181346652052692
  endloop
endfacet
facet normal 1.7026212724817493e-15 1.0 1.6317888758945697e-16
  outer loop
    vertex 62.550000000000246 479.99999999999915 8.181346652052692
    vertex 71.50000000000026 479.99999999999915 5.669449489682385e-14
    vertex 62.043519994715545 479.99999999999915 7.971555764792971
  endloop
endfacet
facet normal 1.7026212724817493e-15 1.0 1.6317888758945697e-16
  outer loop
    vertex 62.043519994715545 479.99999999999915 7.971555764792971
    vertex 71.50000000000026 479.99999999999915 5.669449489682385e-14
    vertex 61.50000000000025 479.99999999999915 7.900000000000014
  endloop
endfacet
facet normal 1.7026212724817493e-15 1.0 1.6317888758945697e-16
  outer loop
    vertex 71.50000000000026 479.99999999999915 20.00000000000001
    vertex 63.318653347947574 479.99999999999915 8.950000000000014
    vertex 63.52844423520729 479.99999999999915 9.456480005284718
  endloop
endfacet
facet normal 1.7026212724817493e-15 1.0 1.6317888758945697e-16
  outer loop
    vertex 71.50000000000026 479.99999999999915 20.00000000000001
    vertex 63.52844423520729 479.99999999999915 9.456480005284718
    vertex 63.60000000000024 479.99999999999915 10.00000000000001
  endloop
endfacet
facet normal 1.7026212724817493e-15 1.0 1.6317888758945697e-16
  outer loop
    vertex 71.50000000000026 479.99999999999915 20.00000000000001
    vertex 63.60000000000024 479.99999999999915 10.00000000000001
    vertex 63.52844423520729 479.99999999999915 10.543519994715306
  endloop
endfacet
facet normal 1.7026212724817493e-15 1.0 1.6317888758945697e-16
  outer loop
    vertex 71.50000000000026 479.99999999999915 20.00000000000001
    vertex 63.52844423520729 479.99999999999915 10.543519994715306
    vertex 63.31865334794756 479.99999999999915 11.050000000000011
  endloop
endfacet
facet normal 1.7026212724817493e-15 1.0 1.6317888758945697e-16
  outer loop
    vertex 71.50000000000026 479.99999999999915 20.00000000000001
    vertex 63.31865334794756 479.99999999999915 11.050000000000011
    vertex 62.98492424049199 479.99999999999915 11.48492424049176
  endloop
endfacet
facet normal 1.7026212724817493e-15 1.0 1.6317888758945697e-16
  outer loop
    vertex 71.50000000000026 479.99999999999915 20.00000000000001
    vertex 62.98492424049199 479.99999999999915 11.48492424049176
    vertex 62.550000000000246 479.99999999999915 11.818653347947329
  endloop
endfacet
facet normal 1.7026212724817493e-15 1.0 1.6317888758945697e-16
  outer loop
    vertex 71.50000000000026 479.99999999999915 20.00000000000001
    vertex 62.550000000000246 479.99999999999915 11.818653347947329
    vertex 62.04351999471554 479.99999999999915 12.02844423520705
  endloop
endfacet
facet normal 1.7026212724817493e-15 1.0 1.6317888758945697e-16
  outer loop
    vertex 71.50000000000026 479.99999999999915 20.00000000000001
    vertex 62.04351999471554 479.99999999999915 12.02844423520705
    vertex 61.50000000000025 479.99999999999915 12.100000000000007
  endloop
endfacet
facet normal 1.7026212724817493e-15 1.0 1.6317888758945697e-16
  outer loop
    vertex 71.50000000000026 479.99999999999915 20.00000000000001
    vertex 61.50000000000025 479.99999999999915 12.100000000000007
    vertex 18.500000000000238 479.9999999999992 20.00000000000001
  endloop
endfacet
facet normal 7.034546225212828e-17 1.6317888758945685e-16 -1.0
  outer loop
    vertex 18.500000000000238 479.9999999999992 5.4008380440064544e-14
    vertex 51.50000000000024 476.9999999999991 5.669449489682385e-14
    vertex 21.5000000000002 446.99999999999915 4.579259498579828e-14
  endloop
endfacet
facet normal 7.034546225212828e-17 1.6317888758945685e-16 -1.0
  outer loop
    vertex 51.50000000000024 476.9999999999991 5.669449489682385e-14
    vertex 18.500000000000238 479.9999999999992 5.4008380440064544e-14
    vertex 71.50000000000026 479.99999999999915 5.669449489682385e-14
  endloop
endfacet
facet normal 7.034546225212828e-17 1.6317888758945685e-16 -1.0
  outer loop
    vertex 51.50000000000024 476.9999999999991 5.669449489682385e-14
    vertex 71.50000000000026 479.99999999999915 5.669449489682385e-14
    vertex 71.50000000000026 476.9999999999991 5.669449489682385e-14
  endloop
endfacet
facet normal 7.034546225212828e-17 1.6317888758945685e-16 -1.0
  outer loop
    vertex 18.500000000000238 479.9999999999992 5.4008380440064544e-14
    vertex 21.5000000000002 426.99999999999915 4.579259498579828e-14
    vertex 18.5000000000002 426.99999999999915 4.579259498579828e-14
  endloop
endfacet
facet normal 7.034546225212828e-17 1.6317888758945685e-16 -1.0
  outer loop
    vertex 21.5000000000002 426.99999999999915 4.579259498579828e-14
    vertex 18.500000000000238 479.9999999999992 5.4008380440064544e-14
    vertex 21.5000000000002 446.99999999999915 4.579259498579828e-14
  endloop
endfacet
facet normal -0.7933533402912278 2.0491002367950226e-29 0.6087614290087305
  outer loop
    vertex 63.318653347947574 479.99999999999915 8.950000000000014
    vertex 62.98492424049199 476.9999999999991 8.515075759508264
    vertex 63.318653347947574 476.9999999999991 8.950000000000014
  endloop
endfacet
facet normal -0.7933533402912278 2.0491002367950226e-29 0.6087614290087305
  outer loop
    vertex 62.98492424049199 476.9999999999991 8.515075759508264
    vertex 63.318653347947574 479.99999999999915 8.950000000000014
    vertex 62.98492424049199 479.99999999999915 8.515075759508264
  endloop
endfacet
facet normal -0.9238795325112882 1.2881182586644865e-29 0.3826834323650865
  outer loop
    vertex 63.52844423520729 479.99999999999915 9.456480005284718
    vertex 63.318653347947574 476.9999999999991 8.950000000000014
    vertex 63.52844423520729 476.9999999999991 9.456480005284718
  endloop
endfacet
facet normal -0.9238795325112882 1.2881182586644865e-29 0.3826834323650865
  outer loop
    vertex 63.318653347947574 476.9999999999991 8.950000000000014
    vertex 63.52844423520729 479.99999999999915 9.456480005284718
    vertex 63.318653347947574 479.99999999999915 8.950000000000014
  endloop
endfacet
facet normal -0.9914448613738114 4.3935314992206896e-30 0.13052619222004475
  outer loop
    vertex 63.60000000000024 479.99999999999915 10.00000000000001
    vertex 63.52844423520729 476.9999999999991 9.456480005284718
    vertex 63.60000000000024 476.9999999999991 10.00000000000001
  endloop
endfacet
facet normal -0.9914448613738114 4.3935314992206896e-30 0.13052619222004475
  outer loop
    vertex 63.52844423520729 476.9999999999991 9.456480005284718
    vertex 63.60000000000024 479.99999999999915 10.00000000000001
    vertex 63.52844423520729 479.99999999999915 9.456480005284718
  endloop
endfacet
facet normal -0.9914448613738114 -4.3935314992206994e-30 -0.13052619222004438
  outer loop
    vertex 63.52844423520729 479.99999999999915 10.543519994715306
    vertex 63.60000000000024 476.9999999999991 10.00000000000001
    vertex 63.52844423520729 476.9999999999991 10.543519994715306
  endloop
endfacet
facet normal -0.9914448613738114 -4.3935314992206994e-30 -0.13052619222004438
  outer loop
    vertex 63.60000000000024 476.9999999999991 10.00000000000001
    vertex 63.52844423520729 479.99999999999915 10.543519994715306
    vertex 63.60000000000024 479.99999999999915 10.00000000000001
  endloop
endfacet
facet normal -0.923879532511281 -1.2881182586645476e-29 -0.3826834323651041
  outer loop
    vertex 63.31865334794756 479.99999999999915 11.050000000000011
    vertex 63.52844423520729 476.9999999999991 10.543519994715306
    vertex 63.31865334794756 476.9999999999991 11.050000000000011
  endloop
endfacet
facet normal -0.923879532511281 -1.2881182586645476e-29 -0.3826834323651041
  outer loop
    vertex 63.52844423520729 476.9999999999991 10.543519994715306
    vertex 63.31865334794756 479.99999999999915 11.050000000000011
    vertex 63.52844423520729 479.99999999999915 10.543519994715306
  endloop
endfacet
facet normal -0.7933533402912367 -2.0491002367949845e-29 -0.6087614290087189
  outer loop
    vertex 62.98492424049199 479.99999999999915 11.48492424049176
    vertex 63.31865334794756 476.9999999999991 11.050000000000011
    vertex 62.98492424049199 476.9999999999991 11.48492424049176
  endloop
endfacet
facet normal -0.7933533402912367 -2.0491002367949845e-29 -0.6087614290087189
  outer loop
    vertex 63.31865334794756 476.9999999999991 11.050000000000011
    vertex 62.98492424049199 479.99999999999915 11.48492424049176
    vertex 63.31865334794756 479.99999999999915 11.050000000000011
  endloop
endfacet
facet normal -0.6087614290087232 -2.670439420086147e-29 -0.7933533402912332
  outer loop
    vertex 62.98492424049199 479.99999999999915 11.48492424049176
    vertex 62.550000000000246 476.9999999999991 11.818653347947329
    vertex 62.550000000000246 479.99999999999915 11.818653347947329
  endloop
endfacet
facet normal -0.6087614290087232 -2.670439420086147e-29 -0.7933533402912332
  outer loop
    vertex 62.550000000000246 476.9999999999991 11.818653347947329
    vertex 62.98492424049199 479.99999999999915 11.48492424049176
    vertex 62.98492424049199 476.9999999999991 11.48492424049176
  endloop
endfacet
facet normal -0.3826834323650851 -3.109792570008254e-29 -0.9238795325112888
  outer loop
    vertex 62.550000000000246 479.99999999999915 11.818653347947329
    vertex 62.04351999471554 476.9999999999991 12.02844423520705
    vertex 62.04351999471554 479.99999999999915 12.02844423520705
  endloop
endfacet
facet normal -0.3826834323650851 -3.109792570008254e-29 -0.9238795325112888
  outer loop
    vertex 62.04351999471554 476.9999999999991 12.02844423520705
    vertex 62.550000000000246 479.99999999999915 11.818653347947329
    vertex 62.550000000000246 476.9999999999991 11.818653347947329
  endloop
endfacet
facet normal -0.13052619222005113 -3.3372184954594884e-29 -0.9914448613738105
  outer loop
    vertex 62.04351999471554 479.99999999999915 12.02844423520705
    vertex 61.50000000000025 476.9999999999991 12.100000000000007
    vertex 61.50000000000025 479.99999999999915 12.100000000000007
  endloop
endfacet
facet normal -0.13052619222005113 -3.3372184954594884e-29 -0.9914448613738105
  outer loop
    vertex 61.50000000000025 476.9999999999991 12.100000000000007
    vertex 62.04351999471554 479.99999999999915 12.02844423520705
    vertex 62.04351999471554 476.9999999999991 12.02844423520705
  endloop
endfacet
facet normal 0.130526192220051 -3.3372184954594884e-29 -0.9914448613738105
  outer loop
    vertex 61.50000000000025 479.99999999999915 12.100000000000007
    vertex 60.95648000528495 476.9999999999991 12.028444235207049
    vertex 60.95648000528495 479.99999999999915 12.028444235207049
  endloop
endfacet
facet normal 0.130526192220051 -3.3372184954594884e-29 -0.9914448613738105
  outer loop
    vertex 60.95648000528495 476.9999999999991 12.028444235207049
    vertex 61.50000000000025 479.99999999999915 12.100000000000007
    vertex 61.50000000000025 476.9999999999991 12.100000000000007
  endloop
endfacet
facet normal 0.38268343236509456 -3.10979257000824e-29 -0.9238795325112849
  outer loop
    vertex 60.95648000528495 479.99999999999915 12.028444235207049
    vertex 60.45000000000025 476.9999999999991 11.818653347947327
    vertex 60.45000000000025 479.99999999999915 11.818653347947327
  endloop
endfacet
facet normal 0.38268343236509456 -3.10979257000824e-29 -0.9238795325112849
  outer loop
    vertex 60.45000000000025 476.9999999999991 11.818653347947327
    vertex 60.95648000528495 479.99999999999915 12.028444235207049
    vertex 60.95648000528495 476.9999999999991 12.028444235207049
  endloop
endfacet
facet normal 0.6087614290087249 -2.6704394200861416e-29 -0.793353340291232
  outer loop
    vertex 60.45000000000025 479.99999999999915 11.818653347947327
    vertex 60.015075759508505 476.9999999999991 11.484924240491754
    vertex 60.015075759508505 479.99999999999915 11.484924240491754
  endloop
endfacet
facet normal 0.6087614290087249 -2.6704394200861416e-29 -0.793353340291232
  outer loop
    vertex 60.015075759508505 476.9999999999991 11.484924240491754
    vertex 60.45000000000025 479.99999999999915 11.818653347947327
    vertex 60.45000000000025 476.9999999999991 11.818653347947327
  endloop
endfacet
facet normal 0.7933533402912268 -2.0491002367950265e-29 -0.6087614290087318
  outer loop
    vertex 59.68134665205292 479.99999999999915 11.050000000000006
    vertex 60.015075759508505 476.9999999999991 11.484924240491754
    vertex 59.68134665205292 476.9999999999991 11.050000000000006
  endloop
endfacet
facet normal 0.7933533402912268 -2.0491002367950265e-29 -0.6087614290087318
  outer loop
    vertex 60.015075759508505 476.9999999999991 11.484924240491754
    vertex 59.68134665205292 479.99999999999915 11.050000000000006
    vertex 60.015075759508505 479.99999999999915 11.484924240491754
  endloop
endfacet
facet normal 0.9238795325112886 -1.2881182586644837e-29 -0.3826834323650857
  outer loop
    vertex 59.4715557647932 479.99999999999915 10.5435199947153
    vertex 59.68134665205292 476.9999999999991 11.050000000000006
    vertex 59.4715557647932 476.9999999999991 10.5435199947153
  endloop
endfacet
facet normal 0.9238795325112886 -1.2881182586644837e-29 -0.3826834323650857
  outer loop
    vertex 59.68134665205292 476.9999999999991 11.050000000000006
    vertex 59.4715557647932 479.99999999999915 10.5435199947153
    vertex 59.68134665205292 479.99999999999915 11.050000000000006
  endloop
endfacet
facet normal 0.9914448613738114 -4.393531499220701e-30 -0.13052619222004508
  outer loop
    vertex 59.400000000000254 479.99999999999915 10.000000000000009
    vertex 59.4715557647932 476.9999999999991 10.5435199947153
    vertex 59.400000000000254 476.9999999999991 10.000000000000009
  endloop
endfacet
facet normal 0.9914448613738114 -4.393531499220701e-30 -0.13052619222004508
  outer loop
    vertex 59.4715557647932 476.9999999999991 10.5435199947153
    vertex 59.400000000000254 479.99999999999915 10.000000000000009
    vertex 59.4715557647932 479.99999999999915 10.5435199947153
  endloop
endfacet
facet normal 0.9914448613738114 4.3935314992207106e-30 0.13052619222004475
  outer loop
    vertex 59.4715557647932 479.99999999999915 9.456480005284716
    vertex 59.400000000000254 476.9999999999991 10.000000000000009
    vertex 59.4715557647932 476.9999999999991 9.456480005284716
  endloop
endfacet
facet normal 0.9914448613738114 4.3935314992207106e-30 0.13052619222004475
  outer loop
    vertex 59.400000000000254 476.9999999999991 10.000000000000009
    vertex 59.4715557647932 479.99999999999915 9.456480005284716
    vertex 59.400000000000254 479.99999999999915 10.000000000000009
  endloop
endfacet
facet normal 0.923879532511281 1.2881182586645476e-29 0.3826834323651041
  outer loop
    vertex 59.68134665205294 479.99999999999915 8.95000000000001
    vertex 59.4715557647932 476.9999999999991 9.456480005284716
    vertex 59.68134665205294 476.9999999999991 8.95000000000001
  endloop
endfacet
facet normal 0.923879532511281 1.2881182586645476e-29 0.3826834323651041
  outer loop
    vertex 59.4715557647932 476.9999999999991 9.456480005284716
    vertex 59.68134665205294 479.99999999999915 8.95000000000001
    vertex 59.4715557647932 479.99999999999915 9.456480005284716
  endloop
endfacet
facet normal 0.7933533402912376 2.04910023679498e-29 0.6087614290087175
  outer loop
    vertex 60.015075759508505 479.99999999999915 8.515075759508262
    vertex 59.68134665205294 476.9999999999991 8.95000000000001
    vertex 60.015075759508505 476.9999999999991 8.515075759508262
  endloop
endfacet
facet normal 0.7933533402912376 2.04910023679498e-29 0.6087614290087175
  outer loop
    vertex 59.68134665205294 476.9999999999991 8.95000000000001
    vertex 60.015075759508505 479.99999999999915 8.515075759508262
    vertex 59.68134665205294 479.99999999999915 8.95000000000001
  endloop
endfacet
facet normal 0.6087614290087217 2.670439420086152e-29 0.7933533402912344
  outer loop
    vertex 60.45000000000025 476.9999999999991 8.181346652052692
    vertex 60.015075759508505 479.99999999999915 8.515075759508262
    vertex 60.015075759508505 476.9999999999991 8.515075759508262
  endloop
endfacet
facet normal 0.6087614290087217 2.670439420086152e-29 0.7933533402912344
  outer loop
    vertex 60.015075759508505 479.99999999999915 8.515075759508262
    vertex 60.45000000000025 476.9999999999991 8.181346652052692
    vertex 60.45000000000025 479.99999999999915 8.181346652052692
  endloop
endfacet
facet normal 0.3826834323650873 3.1097925700082505e-29 0.9238795325112878
  outer loop
    vertex 60.95648000528496 476.9999999999991 7.971555764792969
    vertex 60.45000000000025 479.99999999999915 8.181346652052692
    vertex 60.45000000000025 476.9999999999991 8.181346652052692
  endloop
endfacet
facet normal 0.3826834323650873 3.1097925700082505e-29 0.9238795325112878
  outer loop
    vertex 60.45000000000025 479.99999999999915 8.181346652052692
    vertex 60.95648000528496 476.9999999999991 7.971555764792969
    vertex 60.95648000528496 479.99999999999915 7.971555764792969
  endloop
endfacet
facet normal 0.13052619222005113 3.3372184954594884e-29 0.9914448613738105
  outer loop
    vertex 61.50000000000025 476.9999999999991 7.900000000000014
    vertex 60.95648000528496 479.99999999999915 7.971555764792969
    vertex 60.95648000528496 476.9999999999991 7.971555764792969
  endloop
endfacet
facet normal 0.13052619222005113 3.3372184954594884e-29 0.9914448613738105
  outer loop
    vertex 60.95648000528496 479.99999999999915 7.971555764792969
    vertex 61.50000000000025 476.9999999999991 7.900000000000014
    vertex 61.50000000000025 479.99999999999915 7.900000000000014
  endloop
endfacet
facet normal -0.130526192220051 3.3372184954594884e-29 0.9914448613738105
  outer loop
    vertex 62.043519994715545 476.9999999999991 7.971555764792971
    vertex 61.50000000000025 479.99999999999915 7.900000000000014
    vertex 61.50000000000025 476.9999999999991 7.900000000000014
  endloop
endfacet
facet normal -0.130526192220051 3.3372184954594884e-29 0.9914448613738105
  outer loop
    vertex 61.50000000000025 479.99999999999915 7.900000000000014
    vertex 62.043519994715545 476.9999999999991 7.971555764792971
    vertex 62.043519994715545 479.99999999999915 7.971555764792971
  endloop
endfacet
facet normal -0.38268343236509456 3.10979257000824e-29 0.9238795325112849
  outer loop
    vertex 62.550000000000246 476.9999999999991 8.181346652052692
    vertex 62.043519994715545 479.99999999999915 7.971555764792971
    vertex 62.043519994715545 476.9999999999991 7.971555764792971
  endloop
endfacet
facet normal -0.38268343236509456 3.10979257000824e-29 0.9238795325112849
  outer loop
    vertex 62.043519994715545 479.99999999999915 7.971555764792971
    vertex 62.550000000000246 476.9999999999991 8.181346652052692
    vertex 62.550000000000246 479.99999999999915 8.181346652052692
  endloop
endfacet
facet normal -0.6087614290087232 2.670439420086146e-29 0.7933533402912332
  outer loop
    vertex 62.98492424049199 476.9999999999991 8.515075759508264
    vertex 62.550000000000246 479.99999999999915 8.181346652052692
    vertex 62.550000000000246 476.9999999999991 8.181346652052692
  endloop
endfacet
facet normal -0.6087614290087232 2.670439420086146e-29 0.7933533402912332
  outer loop
    vertex 62.550000000000246 479.99999999999915 8.181346652052692
    vertex 62.98492424049199 476.9999999999991 8.515075759508264
    vertex 62.98492424049199 479.99999999999915 8.515075759508264
  endloop
endfacet
facet normal 0.0 -0.9238795325112882 0.3826834323650865
  outer loop
    vertex 21.5000000000002 439.0284442352062 9.456480005284767
    vertex 18.50000000000019 438.81865334794645 8.950000000000063
    vertex 21.5000000000002 438.81865334794645 8.950000000000063
  endloop
endfacet
facet normal 0.0 -0.9238795325112882 0.3826834323650865
  outer loop
    vertex 18.50000000000019 438.81865334794645 8.950000000000063
    vertex 21.5000000000002 439.0284442352062 9.456480005284767
    vertex 18.50000000000019 439.0284442352062 9.456480005284767
  endloop
endfacet
facet normal 0.0 -0.9914448613738166 0.13052619222000564
  outer loop
    vertex 21.5000000000002 439.0999999999991 10.000000000000055
    vertex 18.50000000000019 439.0284442352062 9.456480005284767
    vertex 21.5000000000002 439.0284442352062 9.456480005284767
  endloop
endfacet
facet normal 0.0 -0.9914448613738166 0.13052619222000564
  outer loop
    vertex 18.50000000000019 439.0284442352062 9.456480005284767
    vertex 21.5000000000002 439.0999999999991 10.000000000000055
    vertex 18.50000000000019 439.0999999999991 10.000000000000055
  endloop
endfacet
facet normal -0.0 -0.9914448613738166 -0.13052619222000564
  outer loop
    vertex 21.5000000000002 439.0284442352062 10.543519994715343
    vertex 18.50000000000019 439.0999999999991 10.000000000000055
    vertex 21.5000000000002 439.0999999999991 10.000000000000055
  endloop
endfacet
facet normal -0.0 -0.9914448613738166 -0.13052619222000564
  outer loop
    vertex 18.50000000000019 439.0999999999991 10.000000000000055
    vertex 21.5000000000002 439.0284442352062 10.543519994715343
    vertex 18.50000000000019 439.0284442352062 10.543519994715343
  endloop
endfacet
facet normal -0.0 -0.9238795325112269 -0.3826834323652343
  outer loop
    vertex 21.5000000000002 438.8186533479464 11.050000000000036
    vertex 18.50000000000019 439.0284442352062 10.543519994715343
    vertex 21.5000000000002 439.0284442352062 10.543519994715343
  endloop
endfacet
facet normal -0.0 -0.9238795325112269 -0.3826834323652343
  outer loop
    vertex 18.50000000000019 439.0284442352062 10.543519994715343
    vertex 21.5000000000002 438.8186533479464 11.050000000000036
    vertex 18.50000000000019 438.8186533479464 11.050000000000036
  endloop
endfacet
facet normal -0.0 -0.7933533402912797 -0.6087614290086627
  outer loop
    vertex 21.5000000000002 438.4849242404909 11.484924240491774
    vertex 18.50000000000019 438.8186533479464 11.050000000000036
    vertex 21.5000000000002 438.8186533479464 11.050000000000036
  endloop
endfacet
facet normal -0.0 -0.7933533402912797 -0.6087614290086627
  outer loop
    vertex 18.50000000000019 438.8186533479464 11.050000000000036
    vertex 21.5000000000002 438.4849242404909 11.484924240491774
    vertex 18.50000000000019 438.4849242404909 11.484924240491774
  endloop
endfacet
facet normal -0.0 -0.6087614290086789 -0.7933533402912674
  outer loop
    vertex 21.5000000000002 438.4849242404909 11.484924240491774
    vertex 18.50000000000019 438.0499999999991 11.818653347947333
    vertex 18.50000000000019 438.4849242404909 11.484924240491774
  endloop
endfacet
facet normal -0.0 -0.6087614290086789 -0.7933533402912674
  outer loop
    vertex 18.50000000000019 438.0499999999991 11.818653347947333
    vertex 21.5000000000002 438.4849242404909 11.484924240491774
    vertex 21.5000000000002 438.0499999999991 11.818653347947333
  endloop
endfacet
facet normal -0.0 -0.38268343236506525 -0.9238795325112968
  outer loop
    vertex 21.5000000000002 438.0499999999991 11.818653347947333
    vertex 18.50000000000019 437.54351999471436 12.02844423520704
    vertex 18.50000000000019 438.0499999999991 11.818653347947333
  endloop
endfacet
facet normal -0.0 -0.38268343236506525 -0.9238795325112968
  outer loop
    vertex 18.50000000000019 437.54351999471436 12.02844423520704
    vertex 21.5000000000002 438.0499999999991 11.818653347947333
    vertex 21.5000000000002 437.54351999471436 12.02844423520704
  endloop
endfacet
facet normal -0.0 -0.13052619222004422 -0.9914448613738115
  outer loop
    vertex 21.5000000000002 437.54351999471436 12.02844423520704
    vertex 18.50000000000019 436.99999999999915 12.099999999999985
    vertex 18.50000000000019 437.54351999471436 12.02844423520704
  endloop
endfacet
facet normal -0.0 -0.13052619222004422 -0.9914448613738115
  outer loop
    vertex 18.50000000000019 436.99999999999915 12.099999999999985
    vertex 21.5000000000002 437.54351999471436 12.02844423520704
    vertex 21.5000000000002 436.99999999999915 12.099999999999985
  endloop
endfacet
facet normal 0.0 0.1305261922200659 -0.9914448613738086
  outer loop
    vertex 21.5000000000002 436.99999999999915 12.099999999999985
    vertex 18.50000000000019 436.4564800052838 12.028444235207017
    vertex 18.50000000000019 436.99999999999915 12.099999999999985
  endloop
endfacet
facet normal 0.0 0.1305261922200659 -0.9914448613738086
  outer loop
    vertex 18.50000000000019 436.4564800052838 12.028444235207017
    vertex 21.5000000000002 436.99999999999915 12.099999999999985
    vertex 21.5000000000002 436.4564800052838 12.028444235207017
  endloop
endfacet
facet normal 0.0 0.3826834323650982 -0.9238795325112833
  outer loop
    vertex 21.5000000000002 436.4564800052838 12.028444235207017
    vertex 18.50000000000019 435.94999999999914 11.818653347947288
    vertex 18.50000000000019 436.4564800052838 12.028444235207017
  endloop
endfacet
facet normal 0.0 0.3826834323650982 -0.9238795325112833
  outer loop
    vertex 18.50000000000019 435.94999999999914 11.818653347947288
    vertex 21.5000000000002 436.4564800052838 12.028444235207017
    vertex 21.5000000000002 435.94999999999914 11.818653347947288
  endloop
endfacet
facet normal 0.0 0.6087614290087794 -0.7933533402911901
  outer loop
    vertex 21.5000000000002 435.94999999999914 11.818653347947288
    vertex 18.50000000000019 435.51507575950745 11.484924240491711
    vertex 18.50000000000019 435.94999999999914 11.818653347947288
  endloop
endfacet
facet normal 0.0 0.6087614290087794 -0.7933533402911901
  outer loop
    vertex 18.50000000000019 435.51507575950745 11.484924240491711
    vertex 21.5000000000002 435.94999999999914 11.818653347947288
    vertex 21.5000000000002 435.51507575950745 11.484924240491711
  endloop
endfacet
facet normal 0.0 0.7933533402912089 -0.6087614290087552
  outer loop
    vertex 18.50000000000019 435.51507575950745 11.484924240491711
    vertex 21.5000000000002 435.18134665205184 11.04999999999996
    vertex 18.50000000000019 435.18134665205184 11.04999999999996
  endloop
endfacet
facet normal 0.0 0.7933533402912089 -0.6087614290087552
  outer loop
    vertex 21.5000000000002 435.18134665205184 11.04999999999996
    vertex 18.50000000000019 435.51507575950745 11.484924240491711
    vertex 21.5000000000002 435.51507575950745 11.484924240491711
  endloop
endfacet
facet normal 0.0 0.9238795325112882 -0.3826834323650865
  outer loop
    vertex 18.50000000000019 435.18134665205184 11.04999999999996
    vertex 21.5000000000002 434.97155576479213 10.543519994715256
    vertex 18.50000000000019 434.97155576479213 10.543519994715256
  endloop
endfacet
facet normal 0.0 0.9238795325112882 -0.3826834323650865
  outer loop
    vertex 21.5000000000002 434.97155576479213 10.543519994715256
    vertex 18.50000000000019 435.18134665205184 11.04999999999996
    vertex 21.5000000000002 435.18134665205184 11.04999999999996
  endloop
endfacet
facet normal 0.0 0.9914448613738166 -0.13052619222000564
  outer loop
    vertex 18.50000000000019 434.97155576479213 10.543519994715256
    vertex 21.5000000000002 434.8999999999992 9.999999999999968
    vertex 18.50000000000019 434.8999999999992 9.999999999999968
  endloop
endfacet
facet normal 0.0 0.9914448613738166 -0.13052619222000564
  outer loop
    vertex 21.5000000000002 434.8999999999992 9.999999999999968
    vertex 18.50000000000019 434.97155576479213 10.543519994715256
    vertex 21.5000000000002 434.97155576479213 10.543519994715256
  endloop
endfacet
facet normal 0.0 0.9914448613738164 0.13052619222000594
  outer loop
    vertex 18.50000000000019 434.8999999999992 9.999999999999968
    vertex 21.5000000000002 434.97155576479213 9.456480005284682
    vertex 18.50000000000019 434.97155576479213 9.456480005284682
  endloop
endfacet
facet normal 0.0 0.9914448613738164 0.13052619222000594
  outer loop
    vertex 21.5000000000002 434.97155576479213 9.456480005284682
    vertex 18.50000000000019 434.8999999999992 9.999999999999968
    vertex 21.5000000000002 434.8999999999992 9.999999999999968
  endloop
endfacet
facet normal 0.0 0.9238795325112273 0.3826834323652334
  outer loop
    vertex 18.50000000000019 434.97155576479213 9.456480005284682
    vertex 21.5000000000002 435.1813466520519 8.949999999999987
    vertex 18.50000000000019 435.1813466520519 8.949999999999987
  endloop
endfacet
facet normal 0.0 0.9238795325112273 0.3826834323652334
  outer loop
    vertex 21.5000000000002 435.1813466520519 8.949999999999987
    vertex 18.50000000000019 434.97155576479213 9.456480005284682
    vertex 21.5000000000002 434.97155576479213 9.456480005284682
  endloop
endfacet
facet normal 0.0 0.7933533402912797 0.6087614290086627
  outer loop
    vertex 18.50000000000019 435.1813466520519 8.949999999999987
    vertex 21.5000000000002 435.51507575950745 8.515075759508248
    vertex 18.50000000000019 435.51507575950745 8.515075759508248
  endloop
endfacet
facet normal 0.0 0.7933533402912797 0.6087614290086627
  outer loop
    vertex 21.5000000000002 435.51507575950745 8.515075759508248
    vertex 18.50000000000019 435.1813466520519 8.949999999999987
    vertex 21.5000000000002 435.1813466520519 8.949999999999987
  endloop
endfacet
facet normal 0.0 0.6087614290086772 0.7933533402912686
  outer loop
    vertex 21.5000000000002 435.51507575950745 8.515075759508248
    vertex 18.50000000000019 435.9499999999992 8.181346652052692
    vertex 18.50000000000019 435.51507575950745 8.515075759508248
  endloop
endfacet
facet normal 0.0 0.6087614290086772 0.7933533402912686
  outer loop
    vertex 18.50000000000019 435.9499999999992 8.181346652052692
    vertex 21.5000000000002 435.51507575950745 8.515075759508248
    vertex 21.5000000000002 435.9499999999992 8.181346652052692
  endloop
endfacet
facet normal 0.0 0.3826834323650676 0.9238795325112961
  outer loop
    vertex 21.5000000000002 435.9499999999992 8.181346652052692
    vertex 18.50000000000019 436.45648000528394 7.971555764792982
    vertex 18.50000000000019 435.9499999999992 8.181346652052692
  endloop
endfacet
facet normal 0.0 0.3826834323650676 0.9238795325112961
  outer loop
    vertex 18.50000000000019 436.45648000528394 7.971555764792982
    vertex 21.5000000000002 435.9499999999992 8.181346652052692
    vertex 21.5000000000002 436.45648000528394 7.971555764792982
  endloop
endfacet
facet normal 0.0 0.13052619222004422 0.9914448613738115
  outer loop
    vertex 21.5000000000002 436.45648000528394 7.971555764792982
    vertex 18.50000000000019 436.99999999999915 7.900000000000038
    vertex 18.50000000000019 436.45648000528394 7.971555764792982
  endloop
endfacet
facet normal 0.0 0.13052619222004422 0.9914448613738115
  outer loop
    vertex 18.50000000000019 436.99999999999915 7.900000000000038
    vertex 21.5000000000002 436.45648000528394 7.971555764792982
    vertex 21.5000000000002 436.99999999999915 7.900000000000038
  endloop
endfacet
facet normal 0.0 -0.13052619222006337 0.9914448613738089
  outer loop
    vertex 21.5000000000002 436.99999999999915 7.900000000000038
    vertex 18.50000000000019 437.5435199947145 7.971555764793004
    vertex 18.50000000000019 436.99999999999915 7.900000000000038
  endloop
endfacet
facet normal 0.0 -0.13052619222006337 0.9914448613738089
  outer loop
    vertex 18.50000000000019 437.5435199947145 7.971555764793004
    vertex 21.5000000000002 436.99999999999915 7.900000000000038
    vertex 21.5000000000002 437.5435199947145 7.971555764793004
  endloop
endfacet
facet normal 0.0 -0.3826834323651005 0.9238795325112825
  outer loop
    vertex 21.5000000000002 437.5435199947145 7.971555764793004
    vertex 18.50000000000019 438.04999999999916 8.181346652052735
    vertex 18.50000000000019 437.5435199947145 7.971555764793004
  endloop
endfacet
facet normal 0.0 -0.3826834323651005 0.9238795325112825
  outer loop
    vertex 18.50000000000019 438.04999999999916 8.181346652052735
    vertex 21.5000000000002 437.5435199947145 7.971555764793004
    vertex 21.5000000000002 438.04999999999916 8.181346652052735
  endloop
endfacet
facet normal 0.0 -0.6087614290087778 0.7933533402911914
  outer loop
    vertex 21.5000000000002 438.04999999999916 8.181346652052735
    vertex 18.50000000000019 438.4849242404909 8.51507575950831
    vertex 18.50000000000019 438.04999999999916 8.181346652052735
  endloop
endfacet
facet normal 0.0 -0.6087614290087778 0.7933533402911914
  outer loop
    vertex 18.50000000000019 438.4849242404909 8.51507575950831
    vertex 21.5000000000002 438.04999999999916 8.181346652052735
    vertex 21.5000000000002 438.4849242404909 8.51507575950831
  endloop
endfacet
facet normal 0.0 -0.7933533402912099 0.608761429008754
  outer loop
    vertex 21.5000000000002 438.81865334794645 8.950000000000063
    vertex 18.50000000000019 438.4849242404909 8.51507575950831
    vertex 21.5000000000002 438.4849242404909 8.51507575950831
  endloop
endfacet
facet normal 0.0 -0.7933533402912099 0.608761429008754
  outer loop
    vertex 18.50000000000019 438.4849242404909 8.51507575950831
    vertex 21.5000000000002 438.81865334794645 8.950000000000063
    vertex 18.50000000000019 438.81865334794645 8.950000000000063
  endloop
endfacet
endsolid Ender 5 Clone
