solid Bed Inside Rails
facet normal 0.3826834323650224 0.0 0.9238795325113148
  outer loop
    vertex 27.072948575581545 476.99999999999835 528.4062223866232
    vertex 26.675000000000708 479.99999999999847 528.5710580837558
    vertex 26.675000000000708 476.99999999999835 528.5710580837558
  endloop
endfacet
facet normal 0.3826834323650224 0.0 0.9238795325113148
  outer loop
    vertex 26.675000000000708 479.99999999999847 528.5710580837558
    vertex 27.072948575581545 476.99999999999835 528.4062223866232
    vertex 27.072948575581545 479.99999999999847 528.4062223866232
  endloop
endfacet
facet normal 0.7933533402912288 0.0 0.6087614290087289
  outer loop
    vertex 26.3332738110429 479.99999999999847 528.8332738110423
    vertex 26.071058083756387 476.99999999999835 529.1750000000001
    vertex 26.3332738110429 476.99999999999835 528.8332738110423
  endloop
endfacet
facet normal 0.7933533402912288 0.0 0.6087614290087289
  outer loop
    vertex 26.071058083756387 476.99999999999835 529.1750000000001
    vertex 26.3332738110429 479.99999999999847 528.8332738110423
    vertex 26.071058083756387 479.99999999999847 529.1750000000001
  endloop
endfacet
facet normal 0.9914448613738088 0.0 0.1305261922200645
  outer loop
    vertex 25.90622238662375 479.99999999999847 529.572948575581
    vertex 25.85000000000071 476.99999999999835 530.0000000000001
    vertex 25.90622238662375 476.99999999999835 529.572948575581
  endloop
endfacet
facet normal 0.9914448613738088 0.0 0.1305261922200645
  outer loop
    vertex 25.85000000000071 476.99999999999835 530.0000000000001
    vertex 25.90622238662375 479.99999999999847 529.572948575581
    vertex 25.85000000000071 479.99999999999847 530.0000000000001
  endloop
endfacet
facet normal -0.3826834323650224 0.0 0.9238795325113148
  outer loop
    vertex 28.325000000000703 476.99999999999835 528.5710580837558
    vertex 27.927051424419865 479.99999999999847 528.4062223866232
    vertex 27.927051424419865 476.99999999999835 528.4062223866232
  endloop
endfacet
facet normal -0.3826834323650224 0.0 0.9238795325113148
  outer loop
    vertex 27.927051424419865 479.99999999999847 528.4062223866232
    vertex 28.325000000000703 476.99999999999835 528.5710580837558
    vertex 28.325000000000703 479.99999999999847 528.5710580837558
  endloop
endfacet
facet normal 0.6087614290087346 0.0 0.7933533402912245
  outer loop
    vertex 26.675000000000708 476.99999999999835 528.5710580837558
    vertex 26.3332738110429 479.99999999999847 528.8332738110423
    vertex 26.3332738110429 476.99999999999835 528.8332738110423
  endloop
endfacet
facet normal 0.6087614290087346 0.0 0.7933533402912245
  outer loop
    vertex 26.3332738110429 479.99999999999847 528.8332738110423
    vertex 26.675000000000708 476.99999999999835 528.5710580837558
    vertex 26.675000000000708 479.99999999999847 528.5710580837558
  endloop
endfacet
facet normal -0.6087614290087346 0.0 0.7933533402912245
  outer loop
    vertex 28.66672618895851 476.99999999999835 528.8332738110423
    vertex 28.325000000000703 479.99999999999847 528.5710580837558
    vertex 28.325000000000703 476.99999999999835 528.5710580837558
  endloop
endfacet
facet normal -0.6087614290087346 0.0 0.7933533402912245
  outer loop
    vertex 28.325000000000703 479.99999999999847 528.5710580837558
    vertex 28.66672618895851 476.99999999999835 528.8332738110423
    vertex 28.66672618895851 479.99999999999847 528.8332738110423
  endloop
endfacet
facet normal 0.1305261922201221 0.0 0.9914448613738013
  outer loop
    vertex 27.500000000000707 476.99999999999835 528.3500000000001
    vertex 27.072948575581545 479.99999999999847 528.4062223866232
    vertex 27.072948575581545 476.99999999999835 528.4062223866232
  endloop
endfacet
facet normal 0.1305261922201221 0.0 0.9914448613738013
  outer loop
    vertex 27.072948575581545 479.99999999999847 528.4062223866232
    vertex 27.500000000000707 476.99999999999835 528.3500000000001
    vertex 27.500000000000707 479.99999999999847 528.3500000000001
  endloop
endfacet
facet normal 0.9238795325112927 0.0 0.3826834323650755
  outer loop
    vertex 26.071058083756387 479.99999999999847 529.1750000000001
    vertex 25.90622238662375 476.99999999999835 529.572948575581
    vertex 26.071058083756387 476.99999999999835 529.1750000000001
  endloop
endfacet
facet normal 0.9238795325112927 0.0 0.3826834323650755
  outer loop
    vertex 25.90622238662375 476.99999999999835 529.572948575581
    vertex 26.071058083756387 479.99999999999847 529.1750000000001
    vertex 25.90622238662375 479.99999999999847 529.572948575581
  endloop
endfacet
facet normal -0.1305261922201221 0.0 0.9914448613738013
  outer loop
    vertex 27.927051424419865 476.99999999999835 528.4062223866232
    vertex 27.500000000000707 479.99999999999847 528.3500000000001
    vertex 27.500000000000707 476.99999999999835 528.3500000000001
  endloop
endfacet
facet normal -0.1305261922201221 0.0 0.9914448613738013
  outer loop
    vertex 27.500000000000707 479.99999999999847 528.3500000000001
    vertex 27.927051424419865 476.99999999999835 528.4062223866232
    vertex 27.927051424419865 479.99999999999847 528.4062223866232
  endloop
endfacet
facet normal 0.9238795325112882 0.0 -0.38268343236508673
  outer loop
    vertex 25.906222386623742 479.99999999999847 530.4270514244192
    vertex 26.071058083756387 476.99999999999835 530.8250000000002
    vertex 25.906222386623742 476.99999999999835 530.4270514244192
  endloop
endfacet
facet normal 0.9238795325112882 0.0 -0.38268343236508673
  outer loop
    vertex 26.071058083756387 476.99999999999835 530.8250000000002
    vertex 25.906222386623742 479.99999999999847 530.4270514244192
    vertex 26.071058083756387 479.99999999999847 530.8250000000002
  endloop
endfacet
facet normal 0.9914448613738104 0.0 -0.13052619222005163
  outer loop
    vertex 25.85000000000071 479.99999999999847 530.0000000000001
    vertex 25.906222386623742 476.99999999999835 530.4270514244192
    vertex 25.85000000000071 476.99999999999835 530.0000000000001
  endloop
endfacet
facet normal 0.9914448613738104 0.0 -0.13052619222005163
  outer loop
    vertex 25.906222386623742 476.99999999999835 530.4270514244192
    vertex 25.85000000000071 479.99999999999847 530.0000000000001
    vertex 25.906222386623742 479.99999999999847 530.4270514244192
  endloop
endfacet
facet normal 0.6087614290087346 0.0 -0.7933533402912245
  outer loop
    vertex 26.675000000000708 479.99999999999847 531.4289419162444
    vertex 26.3332738110429 476.99999999999835 531.1667261889579
    vertex 26.3332738110429 479.99999999999847 531.1667261889579
  endloop
endfacet
facet normal 0.6087614290087346 0.0 -0.7933533402912245
  outer loop
    vertex 26.3332738110429 476.99999999999835 531.1667261889579
    vertex 26.675000000000708 479.99999999999847 531.4289419162444
    vertex 26.675000000000708 476.99999999999835 531.4289419162444
  endloop
endfacet
facet normal 0.7933533402912288 0.0 -0.6087614290087289
  outer loop
    vertex 26.071058083756387 479.99999999999847 530.8250000000002
    vertex 26.3332738110429 476.99999999999835 531.1667261889579
    vertex 26.071058083756387 476.99999999999835 530.8250000000002
  endloop
endfacet
facet normal 0.7933533402912288 0.0 -0.6087614290087289
  outer loop
    vertex 26.3332738110429 476.99999999999835 531.1667261889579
    vertex 26.071058083756387 479.99999999999847 530.8250000000002
    vertex 26.3332738110429 479.99999999999847 531.1667261889579
  endloop
endfacet
facet normal 0.707106781186546 -0.707106781186549 0.0
  outer loop
    vertex 33.5000000000007 476.99999999999835 525.5000000000001
    vertex 21.50000000000068 464.9999999999984 522.5000000000001
    vertex 33.5000000000007 476.99999999999835 522.5000000000001
  endloop
endfacet
facet normal 0.707106781186546 -0.707106781186549 0.0
  outer loop
    vertex 21.50000000000068 464.9999999999984 522.5000000000001
    vertex 33.5000000000007 476.99999999999835 525.5000000000001
    vertex 21.50000000000068 464.9999999999984 525.5000000000001
  endloop
endfacet
facet normal 0.0 0.0 1.0
  outer loop
    vertex 33.5000000000007 476.99999999999835 525.5000000000001
    vertex 21.500000000000682 476.99999999999835 525.5000000000001
    vertex 21.50000000000068 464.9999999999984 525.5000000000001
  endloop
endfacet
facet normal 0.0 0.79335334029121 0.6087614290087536
  outer loop
    vertex 18.500000000000675 469.57105808375405 529.1750000000001
    vertex 21.50000000000068 469.8332738110406 528.8332738110423
    vertex 18.500000000000675 469.8332738110406 528.8332738110423
  endloop
endfacet
facet normal 0.0 0.79335334029121 0.6087614290087536
  outer loop
    vertex 21.50000000000068 469.8332738110406 528.8332738110423
    vertex 18.500000000000675 469.57105808375405 529.1750000000001
    vertex 21.50000000000068 469.57105808375405 529.1750000000001
  endloop
endfacet
facet normal 0.0 0.6087614290087536 0.79335334029121
  outer loop
    vertex 21.50000000000068 469.8332738110406 528.8332738110423
    vertex 18.500000000000675 470.17499999999836 528.5710580837558
    vertex 18.500000000000675 469.8332738110406 528.8332738110423
  endloop
endfacet
facet normal 0.0 0.6087614290087536 0.79335334029121
  outer loop
    vertex 18.500000000000675 470.17499999999836 528.5710580837558
    vertex 21.50000000000068 469.8332738110406 528.8332738110423
    vertex 21.50000000000068 470.17499999999836 528.5710580837558
  endloop
endfacet
facet normal 0.0 0.9238795325113205 -0.38268343236500846
  outer loop
    vertex 18.500000000000675 469.57105808375405 530.8250000000002
    vertex 21.50000000000068 469.40622238662144 530.4270514244192
    vertex 18.500000000000675 469.40622238662144 530.4270514244192
  endloop
endfacet
facet normal 0.0 0.9238795325113205 -0.38268343236500846
  outer loop
    vertex 21.50000000000068 469.40622238662144 530.4270514244192
    vertex 18.500000000000675 469.57105808375405 530.8250000000002
    vertex 21.50000000000068 469.57105808375405 530.8250000000002
  endloop
endfacet
facet normal 0.0 0.79335334029121 -0.6087614290087536
  outer loop
    vertex 18.500000000000675 469.8332738110406 531.1667261889579
    vertex 21.50000000000068 469.57105808375405 530.8250000000002
    vertex 18.500000000000675 469.57105808375405 530.8250000000002
  endloop
endfacet
facet normal 0.0 0.79335334029121 -0.6087614290087536
  outer loop
    vertex 21.50000000000068 469.57105808375405 530.8250000000002
    vertex 18.500000000000675 469.8332738110406 531.1667261889579
    vertex 21.50000000000068 469.8332738110406 531.1667261889579
  endloop
endfacet
facet normal 0.0 0.38268343236500846 0.9238795325113205
  outer loop
    vertex 21.50000000000068 470.17499999999836 528.5710580837558
    vertex 18.500000000000675 470.57294857557923 528.4062223866232
    vertex 18.500000000000675 470.17499999999836 528.5710580837558
  endloop
endfacet
facet normal 0.0 0.38268343236500846 0.9238795325113205
  outer loop
    vertex 18.500000000000675 470.57294857557923 528.4062223866232
    vertex 21.50000000000068 470.17499999999836 528.5710580837558
    vertex 21.50000000000068 470.57294857557923 528.4062223866232
  endloop
endfacet
facet normal 0.0 0.9914448613738004 0.13052619222012887
  outer loop
    vertex 18.500000000000675 469.3499999999984 530.0000000000001
    vertex 21.50000000000068 469.40622238662144 529.572948575581
    vertex 18.500000000000675 469.40622238662144 529.572948575581
  endloop
endfacet
facet normal 0.0 0.9914448613738004 0.13052619222012887
  outer loop
    vertex 21.50000000000068 469.40622238662144 529.572948575581
    vertex 18.500000000000675 469.3499999999984 530.0000000000001
    vertex 21.50000000000068 469.3499999999984 530.0000000000001
  endloop
endfacet
facet normal 0.0 0.9914448613738004 -0.13052619222012887
  outer loop
    vertex 18.500000000000675 469.40622238662144 530.4270514244192
    vertex 21.50000000000068 469.3499999999984 530.0000000000001
    vertex 18.500000000000675 469.3499999999984 530.0000000000001
  endloop
endfacet
facet normal 0.0 0.9914448613738004 -0.13052619222012887
  outer loop
    vertex 21.50000000000068 469.3499999999984 530.0000000000001
    vertex 18.500000000000675 469.40622238662144 530.4270514244192
    vertex 21.50000000000068 469.40622238662144 530.4270514244192
  endloop
endfacet
facet normal 0.0 0.6087614290087536 -0.79335334029121
  outer loop
    vertex 21.50000000000068 470.17499999999836 531.4289419162444
    vertex 18.500000000000675 469.8332738110406 531.1667261889579
    vertex 18.500000000000675 470.17499999999836 531.4289419162444
  endloop
endfacet
facet normal 0.0 0.6087614290087536 -0.79335334029121
  outer loop
    vertex 18.500000000000675 469.8332738110406 531.1667261889579
    vertex 21.50000000000068 470.17499999999836 531.4289419162444
    vertex 21.50000000000068 469.8332738110406 531.1667261889579
  endloop
endfacet
facet normal 0.0 0.38268343236500846 -0.9238795325113205
  outer loop
    vertex 21.50000000000068 470.57294857557923 531.593777613377
    vertex 18.500000000000675 470.17499999999836 531.4289419162444
    vertex 18.500000000000675 470.57294857557923 531.593777613377
  endloop
endfacet
facet normal 0.0 0.38268343236500846 -0.9238795325113205
  outer loop
    vertex 18.500000000000675 470.17499999999836 531.4289419162444
    vertex 21.50000000000068 470.57294857557923 531.593777613377
    vertex 21.50000000000068 470.17499999999836 531.4289419162444
  endloop
endfacet
facet normal 0.0 0.9238795325113205 0.38268343236500846
  outer loop
    vertex 18.500000000000675 469.40622238662144 529.572948575581
    vertex 21.50000000000068 469.57105808375405 529.1750000000001
    vertex 18.500000000000675 469.57105808375405 529.1750000000001
  endloop
endfacet
facet normal 0.0 0.9238795325113205 0.38268343236500846
  outer loop
    vertex 21.50000000000068 469.57105808375405 529.1750000000001
    vertex 18.500000000000675 469.40622238662144 529.572948575581
    vertex 21.50000000000068 469.40622238662144 529.572948575581
  endloop
endfacet
facet normal 0.0 0.13052619222012887 -0.9914448613738004
  outer loop
    vertex 21.50000000000068 470.99999999999835 531.6500000000001
    vertex 18.500000000000675 470.57294857557923 531.593777613377
    vertex 18.500000000000675 470.99999999999835 531.6500000000001
  endloop
endfacet
facet normal 0.0 0.13052619222012887 -0.9914448613738004
  outer loop
    vertex 18.500000000000675 470.57294857557923 531.593777613377
    vertex 21.50000000000068 470.99999999999835 531.6500000000001
    vertex 21.50000000000068 470.57294857557923 531.593777613377
  endloop
endfacet
facet normal -0.0 -0.13052619222012887 -0.9914448613738004
  outer loop
    vertex 21.50000000000068 471.4270514244175 531.593777613377
    vertex 18.500000000000675 470.99999999999835 531.6500000000001
    vertex 18.500000000000675 471.4270514244175 531.593777613377
  endloop
endfacet
facet normal -0.0 -0.13052619222012887 -0.9914448613738004
  outer loop
    vertex 18.500000000000675 470.99999999999835 531.6500000000001
    vertex 21.50000000000068 471.4270514244175 531.593777613377
    vertex 21.50000000000068 470.99999999999835 531.6500000000001
  endloop
endfacet
facet normal -0.0 -0.6087614290087536 -0.79335334029121
  outer loop
    vertex 21.50000000000068 472.16672618895615 531.1667261889579
    vertex 18.500000000000675 471.82499999999834 531.4289419162444
    vertex 18.500000000000675 472.16672618895615 531.1667261889579
  endloop
endfacet
facet normal -0.0 -0.6087614290087536 -0.79335334029121
  outer loop
    vertex 18.500000000000675 471.82499999999834 531.4289419162444
    vertex 21.50000000000068 472.16672618895615 531.1667261889579
    vertex 21.50000000000068 471.82499999999834 531.4289419162444
  endloop
endfacet
facet normal 0.0 -0.6087614290087536 0.79335334029121
  outer loop
    vertex 21.50000000000068 471.82499999999834 528.5710580837558
    vertex 18.500000000000675 472.16672618895615 528.8332738110423
    vertex 18.500000000000675 471.82499999999834 528.5710580837558
  endloop
endfacet
facet normal 0.0 -0.6087614290087536 0.79335334029121
  outer loop
    vertex 18.500000000000675 472.16672618895615 528.8332738110423
    vertex 21.50000000000068 471.82499999999834 528.5710580837558
    vertex 21.50000000000068 472.16672618895615 528.8332738110423
  endloop
endfacet
facet normal -0.0 -0.38268343236500846 -0.9238795325113205
  outer loop
    vertex 21.50000000000068 471.82499999999834 531.4289419162444
    vertex 18.500000000000675 471.4270514244175 531.593777613377
    vertex 18.500000000000675 471.82499999999834 531.4289419162444
  endloop
endfacet
facet normal -0.0 -0.38268343236500846 -0.9238795325113205
  outer loop
    vertex 18.500000000000675 471.4270514244175 531.593777613377
    vertex 21.50000000000068 471.82499999999834 531.4289419162444
    vertex 21.50000000000068 471.4270514244175 531.593777613377
  endloop
endfacet
facet normal 0.0 -0.9914448613738004 0.13052619222012887
  outer loop
    vertex 21.50000000000068 472.64999999999833 530.0000000000001
    vertex 18.500000000000675 472.59377761337527 529.572948575581
    vertex 21.50000000000068 472.59377761337527 529.572948575581
  endloop
endfacet
facet normal 0.0 -0.9914448613738004 0.13052619222012887
  outer loop
    vertex 18.500000000000675 472.59377761337527 529.572948575581
    vertex 21.50000000000068 472.64999999999833 530.0000000000001
    vertex 18.500000000000675 472.64999999999833 530.0000000000001
  endloop
endfacet
facet normal 0.0 -0.9238795325113205 0.38268343236500846
  outer loop
    vertex 21.50000000000068 472.59377761337527 529.572948575581
    vertex 18.500000000000675 472.4289419162427 529.1750000000001
    vertex 21.50000000000068 472.4289419162427 529.1750000000001
  endloop
endfacet
facet normal 0.0 -0.9238795325113205 0.38268343236500846
  outer loop
    vertex 18.500000000000675 472.4289419162427 529.1750000000001
    vertex 21.50000000000068 472.59377761337527 529.572948575581
    vertex 18.500000000000675 472.59377761337527 529.572948575581
  endloop
endfacet
facet normal 0.0 -0.38268343236500846 0.9238795325113205
  outer loop
    vertex 21.50000000000068 471.4270514244175 528.4062223866232
    vertex 18.500000000000675 471.82499999999834 528.5710580837558
    vertex 18.500000000000675 471.4270514244175 528.4062223866232
  endloop
endfacet
facet normal 0.0 -0.38268343236500846 0.9238795325113205
  outer loop
    vertex 18.500000000000675 471.82499999999834 528.5710580837558
    vertex 21.50000000000068 471.4270514244175 528.4062223866232
    vertex 21.50000000000068 471.82499999999834 528.5710580837558
  endloop
endfacet
facet normal 0.0 -0.79335334029121 0.6087614290087536
  outer loop
    vertex 21.50000000000068 472.4289419162427 529.1750000000001
    vertex 18.500000000000675 472.16672618895615 528.8332738110423
    vertex 21.50000000000068 472.16672618895615 528.8332738110423
  endloop
endfacet
facet normal 0.0 -0.79335334029121 0.6087614290087536
  outer loop
    vertex 18.500000000000675 472.16672618895615 528.8332738110423
    vertex 21.50000000000068 472.4289419162427 529.1750000000001
    vertex 18.500000000000675 472.4289419162427 529.1750000000001
  endloop
endfacet
facet normal 0.0 -0.13052619222012887 0.9914448613738004
  outer loop
    vertex 21.50000000000068 470.99999999999835 528.3500000000001
    vertex 18.500000000000675 471.4270514244175 528.4062223866232
    vertex 18.500000000000675 470.99999999999835 528.3500000000001
  endloop
endfacet
facet normal 0.0 -0.13052619222012887 0.9914448613738004
  outer loop
    vertex 18.500000000000675 471.4270514244175 528.4062223866232
    vertex 21.50000000000068 470.99999999999835 528.3500000000001
    vertex 21.50000000000068 471.4270514244175 528.4062223866232
  endloop
endfacet
facet normal -0.0 -0.9238795325113205 -0.38268343236500846
  outer loop
    vertex 21.50000000000068 472.4289419162427 530.8250000000002
    vertex 18.500000000000675 472.59377761337527 530.4270514244192
    vertex 21.50000000000068 472.59377761337527 530.4270514244192
  endloop
endfacet
facet normal -0.0 -0.9238795325113205 -0.38268343236500846
  outer loop
    vertex 18.500000000000675 472.59377761337527 530.4270514244192
    vertex 21.50000000000068 472.4289419162427 530.8250000000002
    vertex 18.500000000000675 472.4289419162427 530.8250000000002
  endloop
endfacet
facet normal -0.0 -0.9914448613738004 -0.13052619222012887
  outer loop
    vertex 21.50000000000068 472.59377761337527 530.4270514244192
    vertex 18.500000000000675 472.64999999999833 530.0000000000001
    vertex 21.50000000000068 472.64999999999833 530.0000000000001
  endloop
endfacet
facet normal -0.0 -0.9914448613738004 -0.13052619222012887
  outer loop
    vertex 18.500000000000675 472.64999999999833 530.0000000000001
    vertex 21.50000000000068 472.59377761337527 530.4270514244192
    vertex 18.500000000000675 472.59377761337527 530.4270514244192
  endloop
endfacet
facet normal -0.0 -0.79335334029121 -0.6087614290087536
  outer loop
    vertex 21.50000000000068 472.16672618895615 531.1667261889579
    vertex 18.500000000000675 472.4289419162427 530.8250000000002
    vertex 21.50000000000068 472.4289419162427 530.8250000000002
  endloop
endfacet
facet normal -0.0 -0.79335334029121 -0.6087614290087536
  outer loop
    vertex 18.500000000000675 472.4289419162427 530.8250000000002
    vertex 21.50000000000068 472.16672618895615 531.1667261889579
    vertex 18.500000000000675 472.16672618895615 531.1667261889579
  endloop
endfacet
facet normal 0.0 0.13052619222012887 0.9914448613738004
  outer loop
    vertex 21.50000000000068 470.57294857557923 528.4062223866232
    vertex 18.500000000000675 470.99999999999835 528.3500000000001
    vertex 18.500000000000675 470.57294857557923 528.4062223866232
  endloop
endfacet
facet normal 0.0 0.13052619222012887 0.9914448613738004
  outer loop
    vertex 18.500000000000675 470.99999999999835 528.3500000000001
    vertex 21.50000000000068 470.57294857557923 528.4062223866232
    vertex 21.50000000000068 470.99999999999835 528.3500000000001
  endloop
endfacet
facet normal -0.9914448613738104 0.0 0.13052619222005163
  outer loop
    vertex 29.150000000000702 479.99999999999847 530.0000000000001
    vertex 29.093777613377668 476.99999999999835 529.572948575581
    vertex 29.150000000000702 476.99999999999835 530.0000000000001
  endloop
endfacet
facet normal -0.9914448613738104 0.0 0.13052619222005163
  outer loop
    vertex 29.093777613377668 476.99999999999835 529.572948575581
    vertex 29.150000000000702 479.99999999999847 530.0000000000001
    vertex 29.093777613377668 479.99999999999847 529.572948575581
  endloop
endfacet
facet normal -0.7933533402912225 -0.0 -0.6087614290087371
  outer loop
    vertex 28.666726188958503 479.99999999999847 531.1667261889579
    vertex 28.928941916245023 476.99999999999835 530.8250000000002
    vertex 28.666726188958503 476.99999999999835 531.1667261889579
  endloop
endfacet
facet normal -0.7933533402912225 -0.0 -0.6087614290087371
  outer loop
    vertex 28.928941916245023 476.99999999999835 530.8250000000002
    vertex 28.666726188958503 479.99999999999847 531.1667261889579
    vertex 28.928941916245023 479.99999999999847 530.8250000000002
  endloop
endfacet
facet normal -0.9238795325112927 -0.0 -0.3826834323650755
  outer loop
    vertex 28.928941916245023 479.99999999999847 530.8250000000002
    vertex 29.09377761337766 476.99999999999835 530.4270514244192
    vertex 28.928941916245023 476.99999999999835 530.8250000000002
  endloop
endfacet
facet normal -0.9238795325112927 -0.0 -0.3826834323650755
  outer loop
    vertex 29.09377761337766 476.99999999999835 530.4270514244192
    vertex 28.928941916245023 479.99999999999847 530.8250000000002
    vertex 29.09377761337766 479.99999999999847 530.4270514244192
  endloop
endfacet
facet normal -0.7933533402912288 0.0 0.6087614290087289
  outer loop
    vertex 28.928941916245023 479.99999999999847 529.1750000000001
    vertex 28.66672618895851 476.99999999999835 528.8332738110423
    vertex 28.928941916245023 476.99999999999835 529.1750000000001
  endloop
endfacet
facet normal -0.7933533402912288 0.0 0.6087614290087289
  outer loop
    vertex 28.66672618895851 476.99999999999835 528.8332738110423
    vertex 28.928941916245023 479.99999999999847 529.1750000000001
    vertex 28.66672618895851 479.99999999999847 528.8332738110423
  endloop
endfacet
facet normal -0.1305261922201221 -0.0 -0.9914448613738013
  outer loop
    vertex 27.927051424419865 479.99999999999847 531.593777613377
    vertex 27.500000000000707 476.99999999999835 531.6500000000001
    vertex 27.500000000000707 479.99999999999847 531.6500000000001
  endloop
endfacet
facet normal -0.1305261922201221 -0.0 -0.9914448613738013
  outer loop
    vertex 27.500000000000707 476.99999999999835 531.6500000000001
    vertex 27.927051424419865 479.99999999999847 531.593777613377
    vertex 27.927051424419865 476.99999999999835 531.593777613377
  endloop
endfacet
facet normal -0.3826834323650224 -0.0 -0.9238795325113148
  outer loop
    vertex 28.325000000000703 479.99999999999847 531.4289419162444
    vertex 27.927051424419865 476.99999999999835 531.593777613377
    vertex 27.927051424419865 479.99999999999847 531.593777613377
  endloop
endfacet
facet normal -0.3826834323650224 -0.0 -0.9238795325113148
  outer loop
    vertex 27.927051424419865 476.99999999999835 531.593777613377
    vertex 28.325000000000703 479.99999999999847 531.4289419162444
    vertex 28.325000000000703 476.99999999999835 531.4289419162444
  endloop
endfacet
facet normal 0.1305261922201221 0.0 -0.9914448613738013
  outer loop
    vertex 27.500000000000707 479.99999999999847 531.6500000000001
    vertex 27.072948575581545 476.99999999999835 531.593777613377
    vertex 27.072948575581545 479.99999999999847 531.593777613377
  endloop
endfacet
facet normal 0.1305261922201221 0.0 -0.9914448613738013
  outer loop
    vertex 27.072948575581545 476.99999999999835 531.593777613377
    vertex 27.500000000000707 479.99999999999847 531.6500000000001
    vertex 27.500000000000707 476.99999999999835 531.6500000000001
  endloop
endfacet
facet normal -0.9914448613738088 -0.0 -0.1305261922200645
  outer loop
    vertex 29.09377761337766 479.99999999999847 530.4270514244192
    vertex 29.150000000000702 476.99999999999835 530.0000000000001
    vertex 29.09377761337766 476.99999999999835 530.4270514244192
  endloop
endfacet
facet normal -0.9914448613738088 -0.0 -0.1305261922200645
  outer loop
    vertex 29.150000000000702 476.99999999999835 530.0000000000001
    vertex 29.09377761337766 479.99999999999847 530.4270514244192
    vertex 29.150000000000702 479.99999999999847 530.0000000000001
  endloop
endfacet
facet normal 0.3826834323650224 0.0 -0.9238795325113148
  outer loop
    vertex 27.072948575581545 479.99999999999847 531.593777613377
    vertex 26.675000000000708 476.99999999999835 531.4289419162444
    vertex 26.675000000000708 479.99999999999847 531.4289419162444
  endloop
endfacet
facet normal 0.3826834323650224 0.0 -0.9238795325113148
  outer loop
    vertex 26.675000000000708 476.99999999999835 531.4289419162444
    vertex 27.072948575581545 479.99999999999847 531.593777613377
    vertex 27.072948575581545 476.99999999999835 531.593777613377
  endloop
endfacet
facet normal -0.608761429008741 -0.0 -0.7933533402912196
  outer loop
    vertex 28.666726188958503 479.99999999999847 531.1667261889579
    vertex 28.325000000000703 476.99999999999835 531.4289419162444
    vertex 28.325000000000703 479.99999999999847 531.4289419162444
  endloop
endfacet
facet normal -0.608761429008741 -0.0 -0.7933533402912196
  outer loop
    vertex 28.325000000000703 476.99999999999835 531.4289419162444
    vertex 28.666726188958503 479.99999999999847 531.1667261889579
    vertex 28.666726188958503 476.99999999999835 531.1667261889579
  endloop
endfacet
facet normal -0.9238795325112882 0.0 0.38268343236508673
  outer loop
    vertex 29.093777613377668 479.99999999999847 529.572948575581
    vertex 28.928941916245023 476.99999999999835 529.1750000000001
    vertex 29.093777613377668 476.99999999999835 529.572948575581
  endloop
endfacet
facet normal -0.9238795325112882 0.0 0.38268343236508673
  outer loop
    vertex 28.928941916245023 476.99999999999835 529.1750000000001
    vertex 29.093777613377668 479.99999999999847 529.572948575581
    vertex 28.928941916245023 479.99999999999847 529.1750000000001
  endloop
endfacet
facet normal 0.0 -1.0 0.0
  outer loop
    vertex 21.50000000000068 464.9999999999984 525.5000000000001
    vertex 18.500000000000675 464.9999999999984 522.5000000000001
    vertex 21.50000000000068 464.9999999999984 522.5000000000001
  endloop
endfacet
facet normal 0.0 -1.0 0.0
  outer loop
    vertex 18.500000000000675 464.9999999999984 522.5000000000001
    vertex 21.50000000000068 464.9999999999984 525.5000000000001
    vertex 18.500000000000675 464.9999999999984 537.5000000000001
  endloop
endfacet
facet normal 0.0 -1.0 0.0
  outer loop
    vertex 18.500000000000675 464.9999999999984 537.5000000000001
    vertex 21.50000000000068 464.9999999999984 525.5000000000001
    vertex 21.50000000000068 464.9999999999984 534.5000000000001
  endloop
endfacet
facet normal 0.0 -1.0 0.0
  outer loop
    vertex 18.500000000000675 464.9999999999984 537.5000000000001
    vertex 21.50000000000068 464.9999999999984 534.5000000000001
    vertex 21.50000000000068 464.9999999999984 537.5000000000001
  endloop
endfacet
facet normal 1.0 -4.699944137579837e-16 0.0
  outer loop
    vertex 21.50000000000068 464.9999999999984 525.5000000000001
    vertex 21.50000000000068 469.8332738110406 528.8332738110423
    vertex 21.50000000000068 464.9999999999984 534.5000000000001
  endloop
endfacet
facet normal 1.0 -4.699944137579837e-16 0.0
  outer loop
    vertex 21.50000000000068 469.8332738110406 528.8332738110423
    vertex 21.50000000000068 464.9999999999984 525.5000000000001
    vertex 21.50000000000068 470.17499999999836 528.5710580837558
  endloop
endfacet
facet normal 1.0 -4.699944137579837e-16 0.0
  outer loop
    vertex 21.50000000000068 470.17499999999836 528.5710580837558
    vertex 21.50000000000068 464.9999999999984 525.5000000000001
    vertex 21.500000000000682 476.99999999999835 525.5000000000001
  endloop
endfacet
facet normal 1.0 -4.699944137579837e-16 0.0
  outer loop
    vertex 21.50000000000068 464.9999999999984 534.5000000000001
    vertex 21.50000000000068 469.8332738110406 528.8332738110423
    vertex 21.50000000000068 469.57105808375405 529.1750000000001
  endloop
endfacet
facet normal 1.0 -4.699944137579837e-16 0.0
  outer loop
    vertex 21.50000000000068 464.9999999999984 534.5000000000001
    vertex 21.50000000000068 469.57105808375405 529.1750000000001
    vertex 21.50000000000068 469.40622238662144 529.572948575581
  endloop
endfacet
facet normal 1.0 -4.699944137579837e-16 0.0
  outer loop
    vertex 21.50000000000068 464.9999999999984 534.5000000000001
    vertex 21.50000000000068 469.40622238662144 529.572948575581
    vertex 21.50000000000068 469.3499999999984 530.0000000000001
  endloop
endfacet
facet normal 1.0 -4.699944137579837e-16 0.0
  outer loop
    vertex 21.50000000000068 470.17499999999836 528.5710580837558
    vertex 21.500000000000682 476.99999999999835 525.5000000000001
    vertex 21.50000000000068 470.57294857557923 528.4062223866232
  endloop
endfacet
facet normal 1.0 -4.699944137579837e-16 0.0
  outer loop
    vertex 21.50000000000068 470.57294857557923 528.4062223866232
    vertex 21.500000000000682 476.99999999999835 525.5000000000001
    vertex 21.50000000000068 470.99999999999835 528.3500000000001
  endloop
endfacet
facet normal 1.0 -4.699944137579837e-16 0.0
  outer loop
    vertex 21.50000000000068 470.99999999999835 528.3500000000001
    vertex 21.500000000000682 476.99999999999835 525.5000000000001
    vertex 21.50000000000068 471.4270514244175 528.4062223866232
  endloop
endfacet
facet normal 1.0 -4.699944137579837e-16 0.0
  outer loop
    vertex 21.50000000000068 471.4270514244175 528.4062223866232
    vertex 21.500000000000682 476.99999999999835 525.5000000000001
    vertex 21.50000000000068 471.82499999999834 528.5710580837558
  endloop
endfacet
facet normal 1.0 -4.699944137579837e-16 0.0
  outer loop
    vertex 21.50000000000068 471.82499999999834 528.5710580837558
    vertex 21.500000000000682 476.99999999999835 525.5000000000001
    vertex 21.50000000000068 472.16672618895615 528.8332738110423
  endloop
endfacet
facet normal 1.0 -4.699944137579837e-16 0.0
  outer loop
    vertex 21.50000000000068 472.16672618895615 528.8332738110423
    vertex 21.500000000000682 476.99999999999835 525.5000000000001
    vertex 21.50000000000068 472.4289419162427 529.1750000000001
  endloop
endfacet
facet normal 1.0 -4.699944137579837e-16 0.0
  outer loop
    vertex 21.50000000000068 472.4289419162427 529.1750000000001
    vertex 21.500000000000682 476.99999999999835 525.5000000000001
    vertex 21.50000000000068 472.59377761337527 529.572948575581
  endloop
endfacet
facet normal 1.0 -4.699944137579837e-16 0.0
  outer loop
    vertex 21.50000000000068 472.59377761337527 529.572948575581
    vertex 21.500000000000682 476.99999999999835 525.5000000000001
    vertex 21.50000000000068 472.64999999999833 530.0000000000001
  endloop
endfacet
facet normal 1.0 -4.699944137579837e-16 0.0
  outer loop
    vertex 21.50000000000068 464.9999999999984 534.5000000000001
    vertex 21.50000000000068 470.17499999999836 531.4289419162444
    vertex 21.500000000000682 476.99999999999835 534.5000000000001
  endloop
endfacet
facet normal 1.0 -4.699944137579837e-16 0.0
  outer loop
    vertex 21.50000000000068 470.17499999999836 531.4289419162444
    vertex 21.50000000000068 464.9999999999984 534.5000000000001
    vertex 21.50000000000068 469.8332738110406 531.1667261889579
  endloop
endfacet
facet normal 1.0 -4.699944137579837e-16 0.0
  outer loop
    vertex 21.50000000000068 469.8332738110406 531.1667261889579
    vertex 21.50000000000068 464.9999999999984 534.5000000000001
    vertex 21.50000000000068 469.57105808375405 530.8250000000002
  endloop
endfacet
facet normal 1.0 -4.699944137579837e-16 0.0
  outer loop
    vertex 21.50000000000068 469.57105808375405 530.8250000000002
    vertex 21.50000000000068 464.9999999999984 534.5000000000001
    vertex 21.50000000000068 469.40622238662144 530.4270514244192
  endloop
endfacet
facet normal 1.0 -4.699944137579837e-16 0.0
  outer loop
    vertex 21.50000000000068 469.40622238662144 530.4270514244192
    vertex 21.50000000000068 464.9999999999984 534.5000000000001
    vertex 21.50000000000068 469.3499999999984 530.0000000000001
  endloop
endfacet
facet normal 1.0 -4.699944137579837e-16 0.0
  outer loop
    vertex 21.500000000000682 476.99999999999835 534.5000000000001
    vertex 21.50000000000068 470.17499999999836 531.4289419162444
    vertex 21.50000000000068 470.57294857557923 531.593777613377
  endloop
endfacet
facet normal 1.0 -4.699944137579837e-16 0.0
  outer loop
    vertex 21.500000000000682 476.99999999999835 534.5000000000001
    vertex 21.50000000000068 470.57294857557923 531.593777613377
    vertex 21.50000000000068 470.99999999999835 531.6500000000001
  endloop
endfacet
facet normal 1.0 -4.699944137579837e-16 0.0
  outer loop
    vertex 21.500000000000682 476.99999999999835 534.5000000000001
    vertex 21.50000000000068 470.99999999999835 531.6500000000001
    vertex 21.50000000000068 471.4270514244175 531.593777613377
  endloop
endfacet
facet normal 1.0 -4.699944137579837e-16 0.0
  outer loop
    vertex 21.500000000000682 476.99999999999835 534.5000000000001
    vertex 21.50000000000068 471.4270514244175 531.593777613377
    vertex 21.50000000000068 471.82499999999834 531.4289419162444
  endloop
endfacet
facet normal 1.0 -4.699944137579837e-16 0.0
  outer loop
    vertex 21.500000000000682 476.99999999999835 534.5000000000001
    vertex 21.50000000000068 471.82499999999834 531.4289419162444
    vertex 21.50000000000068 472.16672618895615 531.1667261889579
  endloop
endfacet
facet normal 1.0 -4.699944137579837e-16 0.0
  outer loop
    vertex 21.500000000000682 476.99999999999835 534.5000000000001
    vertex 21.50000000000068 472.16672618895615 531.1667261889579
    vertex 21.50000000000068 472.4289419162427 530.8250000000002
  endloop
endfacet
facet normal 1.0 -4.699944137579837e-16 0.0
  outer loop
    vertex 21.500000000000682 476.99999999999835 534.5000000000001
    vertex 21.50000000000068 472.4289419162427 530.8250000000002
    vertex 21.50000000000068 472.59377761337527 530.4270514244192
  endloop
endfacet
facet normal 1.0 -4.699944137579837e-16 0.0
  outer loop
    vertex 21.500000000000682 476.99999999999835 534.5000000000001
    vertex 21.50000000000068 472.59377761337527 530.4270514244192
    vertex 21.50000000000068 472.64999999999833 530.0000000000001
  endloop
endfacet
facet normal 1.0 -4.699944137579837e-16 0.0
  outer loop
    vertex 21.500000000000682 476.99999999999835 534.5000000000001
    vertex 21.50000000000068 472.64999999999833 530.0000000000001
    vertex 21.500000000000682 476.99999999999835 525.5000000000001
  endloop
endfacet
facet normal 0.0 0.0 1.0
  outer loop
    vertex 21.50000000000068 464.9999999999984 537.5000000000001
    vertex 18.500000000000682 476.99999999999835 537.5000000000001
    vertex 18.500000000000675 464.9999999999984 537.5000000000001
  endloop
endfacet
facet normal 0.0 0.0 1.0
  outer loop
    vertex 18.500000000000682 476.99999999999835 537.5000000000001
    vertex 21.50000000000068 464.9999999999984 537.5000000000001
    vertex 18.500000000000682 479.9999999999984 537.5000000000001
  endloop
endfacet
facet normal 0.0 0.0 1.0
  outer loop
    vertex 18.500000000000682 479.9999999999984 537.5000000000001
    vertex 21.50000000000068 464.9999999999984 537.5000000000001
    vertex 33.5000000000007 479.9999999999984 537.5000000000001
  endloop
endfacet
facet normal 0.0 0.0 1.0
  outer loop
    vertex 33.5000000000007 479.9999999999984 537.5000000000001
    vertex 21.50000000000068 464.9999999999984 537.5000000000001
    vertex 33.5000000000007 476.99999999999835 537.5000000000001
  endloop
endfacet
facet normal 0.0 0.0 -1.0
  outer loop
    vertex 33.5000000000007 476.99999999999835 534.5000000000001
    vertex 21.50000000000068 464.9999999999984 534.5000000000001
    vertex 21.500000000000682 476.99999999999835 534.5000000000001
  endloop
endfacet
facet normal 0.707106781186546 -0.707106781186549 0.0
  outer loop
    vertex 33.5000000000007 476.99999999999835 537.5000000000001
    vertex 21.50000000000068 464.9999999999984 534.5000000000001
    vertex 33.5000000000007 476.99999999999835 534.5000000000001
  endloop
endfacet
facet normal 0.707106781186546 -0.707106781186549 0.0
  outer loop
    vertex 21.50000000000068 464.9999999999984 534.5000000000001
    vertex 33.5000000000007 476.99999999999835 537.5000000000001
    vertex 21.50000000000068 464.9999999999984 537.5000000000001
  endloop
endfacet
facet normal 0.0 0.0 -1.0
  outer loop
    vertex 33.5000000000007 479.9999999999984 522.5000000000001
    vertex 18.500000000000682 476.99999999999835 522.5000000000001
    vertex 18.500000000000682 479.9999999999984 522.5000000000001
  endloop
endfacet
facet normal 0.0 0.0 -1.0
  outer loop
    vertex 18.500000000000682 476.99999999999835 522.5000000000001
    vertex 33.5000000000007 479.9999999999984 522.5000000000001
    vertex 21.50000000000068 464.9999999999984 522.5000000000001
  endloop
endfacet
facet normal 0.0 0.0 -1.0
  outer loop
    vertex 21.50000000000068 464.9999999999984 522.5000000000001
    vertex 33.5000000000007 479.9999999999984 522.5000000000001
    vertex 33.5000000000007 476.99999999999835 522.5000000000001
  endloop
endfacet
facet normal 0.0 0.0 -1.0
  outer loop
    vertex 21.50000000000068 464.9999999999984 522.5000000000001
    vertex 18.500000000000675 464.9999999999984 522.5000000000001
    vertex 18.500000000000682 476.99999999999835 522.5000000000001
  endloop
endfacet
facet normal 0.0 1.0 0.0
  outer loop
    vertex 18.500000000000682 479.9999999999984 522.5000000000001
    vertex 26.3332738110429 479.99999999999847 528.8332738110423
    vertex 33.5000000000007 479.9999999999984 522.5000000000001
  endloop
endfacet
facet normal 0.0 1.0 0.0
  outer loop
    vertex 26.3332738110429 479.99999999999847 528.8332738110423
    vertex 18.500000000000682 479.9999999999984 522.5000000000001
    vertex 18.500000000000682 479.9999999999984 537.5000000000001
  endloop
endfacet
facet normal 0.0 1.0 0.0
  outer loop
    vertex 33.5000000000007 479.9999999999984 522.5000000000001
    vertex 26.3332738110429 479.99999999999847 528.8332738110423
    vertex 26.675000000000708 479.99999999999847 528.5710580837558
  endloop
endfacet
facet normal 0.0 1.0 0.0
  outer loop
    vertex 33.5000000000007 479.9999999999984 522.5000000000001
    vertex 26.675000000000708 479.99999999999847 528.5710580837558
    vertex 27.072948575581545 479.99999999999847 528.4062223866232
  endloop
endfacet
facet normal 0.0 1.0 0.0
  outer loop
    vertex 33.5000000000007 479.9999999999984 522.5000000000001
    vertex 27.072948575581545 479.99999999999847 528.4062223866232
    vertex 27.500000000000707 479.99999999999847 528.3500000000001
  endloop
endfacet
facet normal 0.0 1.0 0.0
  outer loop
    vertex 26.3332738110429 479.99999999999847 528.8332738110423
    vertex 18.500000000000682 479.9999999999984 537.5000000000001
    vertex 26.071058083756387 479.99999999999847 529.1750000000001
  endloop
endfacet
facet normal 0.0 1.0 0.0
  outer loop
    vertex 26.071058083756387 479.99999999999847 529.1750000000001
    vertex 18.500000000000682 479.9999999999984 537.5000000000001
    vertex 25.90622238662375 479.99999999999847 529.572948575581
  endloop
endfacet
facet normal 0.0 1.0 0.0
  outer loop
    vertex 25.90622238662375 479.99999999999847 529.572948575581
    vertex 18.500000000000682 479.9999999999984 537.5000000000001
    vertex 25.85000000000071 479.99999999999847 530.0000000000001
  endloop
endfacet
facet normal 0.0 1.0 0.0
  outer loop
    vertex 25.85000000000071 479.99999999999847 530.0000000000001
    vertex 18.500000000000682 479.9999999999984 537.5000000000001
    vertex 25.906222386623742 479.99999999999847 530.4270514244192
  endloop
endfacet
facet normal 0.0 1.0 0.0
  outer loop
    vertex 25.906222386623742 479.99999999999847 530.4270514244192
    vertex 18.500000000000682 479.9999999999984 537.5000000000001
    vertex 26.071058083756387 479.99999999999847 530.8250000000002
  endloop
endfacet
facet normal 0.0 1.0 0.0
  outer loop
    vertex 26.071058083756387 479.99999999999847 530.8250000000002
    vertex 18.500000000000682 479.9999999999984 537.5000000000001
    vertex 26.3332738110429 479.99999999999847 531.1667261889579
  endloop
endfacet
facet normal 0.0 1.0 0.0
  outer loop
    vertex 26.3332738110429 479.99999999999847 531.1667261889579
    vertex 18.500000000000682 479.9999999999984 537.5000000000001
    vertex 26.675000000000708 479.99999999999847 531.4289419162444
  endloop
endfacet
facet normal 0.0 1.0 0.0
  outer loop
    vertex 26.675000000000708 479.99999999999847 531.4289419162444
    vertex 18.500000000000682 479.9999999999984 537.5000000000001
    vertex 27.072948575581545 479.99999999999847 531.593777613377
  endloop
endfacet
facet normal 0.0 1.0 0.0
  outer loop
    vertex 27.072948575581545 479.99999999999847 531.593777613377
    vertex 18.500000000000682 479.9999999999984 537.5000000000001
    vertex 27.500000000000707 479.99999999999847 531.6500000000001
  endloop
endfacet
facet normal 0.0 1.0 0.0
  outer loop
    vertex 33.5000000000007 479.9999999999984 522.5000000000001
    vertex 28.928941916245023 479.99999999999847 529.1750000000001
    vertex 33.5000000000007 479.9999999999984 537.5000000000001
  endloop
endfacet
facet normal 0.0 1.0 0.0
  outer loop
    vertex 28.928941916245023 479.99999999999847 529.1750000000001
    vertex 33.5000000000007 479.9999999999984 522.5000000000001
    vertex 28.66672618895851 479.99999999999847 528.8332738110423
  endloop
endfacet
facet normal 0.0 1.0 0.0
  outer loop
    vertex 28.66672618895851 479.99999999999847 528.8332738110423
    vertex 33.5000000000007 479.9999999999984 522.5000000000001
    vertex 28.325000000000703 479.99999999999847 528.5710580837558
  endloop
endfacet
facet normal 0.0 1.0 0.0
  outer loop
    vertex 28.325000000000703 479.99999999999847 528.5710580837558
    vertex 33.5000000000007 479.9999999999984 522.5000000000001
    vertex 27.927051424419865 479.99999999999847 528.4062223866232
  endloop
endfacet
facet normal 0.0 1.0 0.0
  outer loop
    vertex 27.927051424419865 479.99999999999847 528.4062223866232
    vertex 33.5000000000007 479.9999999999984 522.5000000000001
    vertex 27.500000000000707 479.99999999999847 528.3500000000001
  endloop
endfacet
facet normal 0.0 1.0 0.0
  outer loop
    vertex 33.5000000000007 479.9999999999984 537.5000000000001
    vertex 28.928941916245023 479.99999999999847 529.1750000000001
    vertex 29.093777613377668 479.99999999999847 529.572948575581
  endloop
endfacet
facet normal 0.0 1.0 0.0
  outer loop
    vertex 33.5000000000007 479.9999999999984 537.5000000000001
    vertex 29.093777613377668 479.99999999999847 529.572948575581
    vertex 29.150000000000702 479.99999999999847 530.0000000000001
  endloop
endfacet
facet normal 0.0 1.0 0.0
  outer loop
    vertex 33.5000000000007 479.9999999999984 537.5000000000001
    vertex 29.150000000000702 479.99999999999847 530.0000000000001
    vertex 29.09377761337766 479.99999999999847 530.4270514244192
  endloop
endfacet
facet normal 0.0 1.0 0.0
  outer loop
    vertex 33.5000000000007 479.9999999999984 537.5000000000001
    vertex 29.09377761337766 479.99999999999847 530.4270514244192
    vertex 28.928941916245023 479.99999999999847 530.8250000000002
  endloop
endfacet
facet normal 0.0 1.0 0.0
  outer loop
    vertex 33.5000000000007 479.9999999999984 537.5000000000001
    vertex 28.928941916245023 479.99999999999847 530.8250000000002
    vertex 28.666726188958503 479.99999999999847 531.1667261889579
  endloop
endfacet
facet normal 0.0 1.0 0.0
  outer loop
    vertex 33.5000000000007 479.9999999999984 537.5000000000001
    vertex 28.666726188958503 479.99999999999847 531.1667261889579
    vertex 28.325000000000703 479.99999999999847 531.4289419162444
  endloop
endfacet
facet normal 0.0 1.0 0.0
  outer loop
    vertex 33.5000000000007 479.9999999999984 537.5000000000001
    vertex 28.325000000000703 479.99999999999847 531.4289419162444
    vertex 27.927051424419865 479.99999999999847 531.593777613377
  endloop
endfacet
facet normal 0.0 1.0 0.0
  outer loop
    vertex 33.5000000000007 479.9999999999984 537.5000000000001
    vertex 27.927051424419865 479.99999999999847 531.593777613377
    vertex 27.500000000000707 479.99999999999847 531.6500000000001
  endloop
endfacet
facet normal 0.0 1.0 0.0
  outer loop
    vertex 33.5000000000007 479.9999999999984 537.5000000000001
    vertex 27.500000000000707 479.99999999999847 531.6500000000001
    vertex 18.500000000000682 479.9999999999984 537.5000000000001
  endloop
endfacet
facet normal -1.0 -0.0 -0.0
  outer loop
    vertex 18.500000000000682 479.9999999999984 537.5000000000001
    vertex 18.500000000000682 476.99999999999835 522.5000000000001
    vertex 18.500000000000682 476.99999999999835 537.5000000000001
  endloop
endfacet
facet normal -1.0 -0.0 -0.0
  outer loop
    vertex 18.500000000000682 476.99999999999835 522.5000000000001
    vertex 18.500000000000682 479.9999999999984 537.5000000000001
    vertex 18.500000000000682 479.9999999999984 522.5000000000001
  endloop
endfacet
facet normal -1.0 4.699944137579838e-16 0.0
  outer loop
    vertex 18.500000000000675 464.9999999999984 537.5000000000001
    vertex 18.500000000000675 469.57105808375405 530.8250000000002
    vertex 18.500000000000675 464.9999999999984 522.5000000000001
  endloop
endfacet
facet normal -1.0 4.699944137579838e-16 0.0
  outer loop
    vertex 18.500000000000675 469.57105808375405 530.8250000000002
    vertex 18.500000000000675 464.9999999999984 537.5000000000001
    vertex 18.500000000000675 469.8332738110406 531.1667261889579
  endloop
endfacet
facet normal -1.0 4.699944137579838e-16 0.0
  outer loop
    vertex 18.500000000000675 469.8332738110406 531.1667261889579
    vertex 18.500000000000675 464.9999999999984 537.5000000000001
    vertex 18.500000000000682 476.99999999999835 537.5000000000001
  endloop
endfacet
facet normal -1.0 4.699944137579838e-16 0.0
  outer loop
    vertex 18.500000000000675 464.9999999999984 522.5000000000001
    vertex 18.500000000000675 469.57105808375405 530.8250000000002
    vertex 18.500000000000675 469.40622238662144 530.4270514244192
  endloop
endfacet
facet normal -1.0 4.699944137579838e-16 0.0
  outer loop
    vertex 18.500000000000675 464.9999999999984 522.5000000000001
    vertex 18.500000000000675 469.40622238662144 530.4270514244192
    vertex 18.500000000000675 469.3499999999984 530.0000000000001
  endloop
endfacet
facet normal -1.0 4.699944137579838e-16 0.0
  outer loop
    vertex 18.500000000000675 469.8332738110406 531.1667261889579
    vertex 18.500000000000682 476.99999999999835 537.5000000000001
    vertex 18.500000000000675 470.17499999999836 531.4289419162444
  endloop
endfacet
facet normal -1.0 4.699944137579838e-16 0.0
  outer loop
    vertex 18.500000000000675 470.17499999999836 531.4289419162444
    vertex 18.500000000000682 476.99999999999835 537.5000000000001
    vertex 18.500000000000675 470.57294857557923 531.593777613377
  endloop
endfacet
facet normal -1.0 4.699944137579838e-16 0.0
  outer loop
    vertex 18.500000000000675 470.57294857557923 531.593777613377
    vertex 18.500000000000682 476.99999999999835 537.5000000000001
    vertex 18.500000000000675 470.99999999999835 531.6500000000001
  endloop
endfacet
facet normal -1.0 4.699944137579838e-16 0.0
  outer loop
    vertex 18.500000000000675 470.99999999999835 531.6500000000001
    vertex 18.500000000000682 476.99999999999835 537.5000000000001
    vertex 18.500000000000675 471.4270514244175 531.593777613377
  endloop
endfacet
facet normal -1.0 4.699944137579838e-16 0.0
  outer loop
    vertex 18.500000000000675 471.4270514244175 531.593777613377
    vertex 18.500000000000682 476.99999999999835 537.5000000000001
    vertex 18.500000000000675 471.82499999999834 531.4289419162444
  endloop
endfacet
facet normal -1.0 4.699944137579838e-16 0.0
  outer loop
    vertex 18.500000000000675 471.82499999999834 531.4289419162444
    vertex 18.500000000000682 476.99999999999835 537.5000000000001
    vertex 18.500000000000675 472.16672618895615 531.1667261889579
  endloop
endfacet
facet normal -1.0 4.699944137579838e-16 0.0
  outer loop
    vertex 18.500000000000675 472.16672618895615 531.1667261889579
    vertex 18.500000000000682 476.99999999999835 537.5000000000001
    vertex 18.500000000000675 472.4289419162427 530.8250000000002
  endloop
endfacet
facet normal -1.0 4.699944137579838e-16 0.0
  outer loop
    vertex 18.500000000000675 472.4289419162427 530.8250000000002
    vertex 18.500000000000682 476.99999999999835 537.5000000000001
    vertex 18.500000000000675 472.59377761337527 530.4270514244192
  endloop
endfacet
facet normal -1.0 4.699944137579838e-16 0.0
  outer loop
    vertex 18.500000000000675 472.59377761337527 530.4270514244192
    vertex 18.500000000000682 476.99999999999835 537.5000000000001
    vertex 18.500000000000675 472.64999999999833 530.0000000000001
  endloop
endfacet
facet normal -1.0 4.699944137579838e-16 0.0
  outer loop
    vertex 18.500000000000675 464.9999999999984 522.5000000000001
    vertex 18.500000000000675 469.8332738110406 528.8332738110423
    vertex 18.500000000000682 476.99999999999835 522.5000000000001
  endloop
endfacet
facet normal -1.0 4.699944137579838e-16 0.0
  outer loop
    vertex 18.500000000000675 469.8332738110406 528.8332738110423
    vertex 18.500000000000675 464.9999999999984 522.5000000000001
    vertex 18.500000000000675 469.57105808375405 529.1750000000001
  endloop
endfacet
facet normal -1.0 4.699944137579838e-16 0.0
  outer loop
    vertex 18.500000000000675 469.57105808375405 529.1750000000001
    vertex 18.500000000000675 464.9999999999984 522.5000000000001
    vertex 18.500000000000675 469.40622238662144 529.572948575581
  endloop
endfacet
facet normal -1.0 4.699944137579838e-16 0.0
  outer loop
    vertex 18.500000000000675 469.40622238662144 529.572948575581
    vertex 18.500000000000675 464.9999999999984 522.5000000000001
    vertex 18.500000000000675 469.3499999999984 530.0000000000001
  endloop
endfacet
facet normal -1.0 4.699944137579838e-16 0.0
  outer loop
    vertex 18.500000000000682 476.99999999999835 522.5000000000001
    vertex 18.500000000000675 469.8332738110406 528.8332738110423
    vertex 18.500000000000675 470.17499999999836 528.5710580837558
  endloop
endfacet
facet normal -1.0 4.699944137579838e-16 0.0
  outer loop
    vertex 18.500000000000682 476.99999999999835 522.5000000000001
    vertex 18.500000000000675 470.17499999999836 528.5710580837558
    vertex 18.500000000000675 470.57294857557923 528.4062223866232
  endloop
endfacet
facet normal -1.0 4.699944137579838e-16 0.0
  outer loop
    vertex 18.500000000000682 476.99999999999835 522.5000000000001
    vertex 18.500000000000675 470.57294857557923 528.4062223866232
    vertex 18.500000000000675 470.99999999999835 528.3500000000001
  endloop
endfacet
facet normal -1.0 4.699944137579838e-16 0.0
  outer loop
    vertex 18.500000000000682 476.99999999999835 522.5000000000001
    vertex 18.500000000000675 470.99999999999835 528.3500000000001
    vertex 18.500000000000675 471.4270514244175 528.4062223866232
  endloop
endfacet
facet normal -1.0 4.699944137579838e-16 0.0
  outer loop
    vertex 18.500000000000682 476.99999999999835 522.5000000000001
    vertex 18.500000000000675 471.4270514244175 528.4062223866232
    vertex 18.500000000000675 471.82499999999834 528.5710580837558
  endloop
endfacet
facet normal -1.0 4.699944137579838e-16 0.0
  outer loop
    vertex 18.500000000000682 476.99999999999835 522.5000000000001
    vertex 18.500000000000675 471.82499999999834 528.5710580837558
    vertex 18.500000000000675 472.16672618895615 528.8332738110423
  endloop
endfacet
facet normal -1.0 4.699944137579838e-16 0.0
  outer loop
    vertex 18.500000000000682 476.99999999999835 522.5000000000001
    vertex 18.500000000000675 472.16672618895615 528.8332738110423
    vertex 18.500000000000675 472.4289419162427 529.1750000000001
  endloop
endfacet
facet normal -1.0 4.699944137579838e-16 0.0
  outer loop
    vertex 18.500000000000682 476.99999999999835 522.5000000000001
    vertex 18.500000000000675 472.4289419162427 529.1750000000001
    vertex 18.500000000000675 472.59377761337527 529.572948575581
  endloop
endfacet
facet normal -1.0 4.699944137579838e-16 0.0
  outer loop
    vertex 18.500000000000682 476.99999999999835 522.5000000000001
    vertex 18.500000000000675 472.59377761337527 529.572948575581
    vertex 18.500000000000675 472.64999999999833 530.0000000000001
  endloop
endfacet
facet normal -1.0 4.699944137579838e-16 0.0
  outer loop
    vertex 18.500000000000682 476.99999999999835 522.5000000000001
    vertex 18.500000000000675 472.64999999999833 530.0000000000001
    vertex 18.500000000000682 476.99999999999835 537.5000000000001
  endloop
endfacet
facet normal 1.0 0.0 0.0
  outer loop
    vertex 33.5000000000007 479.9999999999984 522.5000000000001
    vertex 33.5000000000007 476.99999999999835 525.5000000000001
    vertex 33.5000000000007 476.99999999999835 522.5000000000001
  endloop
endfacet
facet normal 1.0 0.0 0.0
  outer loop
    vertex 33.5000000000007 476.99999999999835 525.5000000000001
    vertex 33.5000000000007 479.9999999999984 522.5000000000001
    vertex 33.5000000000007 476.99999999999835 534.5000000000001
  endloop
endfacet
facet normal 1.0 0.0 0.0
  outer loop
    vertex 33.5000000000007 476.99999999999835 534.5000000000001
    vertex 33.5000000000007 479.9999999999984 522.5000000000001
    vertex 33.5000000000007 476.99999999999835 537.5000000000001
  endloop
endfacet
facet normal 1.0 0.0 0.0
  outer loop
    vertex 33.5000000000007 476.99999999999835 537.5000000000001
    vertex 33.5000000000007 479.9999999999984 522.5000000000001
    vertex 33.5000000000007 479.9999999999984 537.5000000000001
  endloop
endfacet
facet normal 0.0 -1.0 0.0
  outer loop
    vertex 33.5000000000007 476.99999999999835 525.5000000000001
    vertex 28.325000000000703 476.99999999999835 528.5710580837558
    vertex 21.500000000000682 476.99999999999835 525.5000000000001
  endloop
endfacet
facet normal 0.0 -1.0 0.0
  outer loop
    vertex 28.325000000000703 476.99999999999835 528.5710580837558
    vertex 33.5000000000007 476.99999999999835 525.5000000000001
    vertex 28.66672618895851 476.99999999999835 528.8332738110423
  endloop
endfacet
facet normal 0.0 -1.0 0.0
  outer loop
    vertex 28.66672618895851 476.99999999999835 528.8332738110423
    vertex 33.5000000000007 476.99999999999835 525.5000000000001
    vertex 33.5000000000007 476.99999999999835 534.5000000000001
  endloop
endfacet
facet normal 0.0 -1.0 0.0
  outer loop
    vertex 21.500000000000682 476.99999999999835 525.5000000000001
    vertex 28.325000000000703 476.99999999999835 528.5710580837558
    vertex 27.927051424419865 476.99999999999835 528.4062223866232
  endloop
endfacet
facet normal 0.0 -1.0 0.0
  outer loop
    vertex 21.500000000000682 476.99999999999835 525.5000000000001
    vertex 27.927051424419865 476.99999999999835 528.4062223866232
    vertex 27.500000000000707 476.99999999999835 528.3500000000001
  endloop
endfacet
facet normal 0.0 -1.0 0.0
  outer loop
    vertex 28.66672618895851 476.99999999999835 528.8332738110423
    vertex 33.5000000000007 476.99999999999835 534.5000000000001
    vertex 28.928941916245023 476.99999999999835 529.1750000000001
  endloop
endfacet
facet normal 0.0 -1.0 0.0
  outer loop
    vertex 28.928941916245023 476.99999999999835 529.1750000000001
    vertex 33.5000000000007 476.99999999999835 534.5000000000001
    vertex 29.093777613377668 476.99999999999835 529.572948575581
  endloop
endfacet
facet normal 0.0 -1.0 0.0
  outer loop
    vertex 29.093777613377668 476.99999999999835 529.572948575581
    vertex 33.5000000000007 476.99999999999835 534.5000000000001
    vertex 29.150000000000702 476.99999999999835 530.0000000000001
  endloop
endfacet
facet normal 0.0 -1.0 0.0
  outer loop
    vertex 29.150000000000702 476.99999999999835 530.0000000000001
    vertex 33.5000000000007 476.99999999999835 534.5000000000001
    vertex 29.09377761337766 476.99999999999835 530.4270514244192
  endloop
endfacet
facet normal 0.0 -1.0 0.0
  outer loop
    vertex 29.09377761337766 476.99999999999835 530.4270514244192
    vertex 33.5000000000007 476.99999999999835 534.5000000000001
    vertex 28.928941916245023 476.99999999999835 530.8250000000002
  endloop
endfacet
facet normal 0.0 -1.0 0.0
  outer loop
    vertex 28.928941916245023 476.99999999999835 530.8250000000002
    vertex 33.5000000000007 476.99999999999835 534.5000000000001
    vertex 28.666726188958503 476.99999999999835 531.1667261889579
  endloop
endfacet
facet normal 0.0 -1.0 0.0
  outer loop
    vertex 28.666726188958503 476.99999999999835 531.1667261889579
    vertex 33.5000000000007 476.99999999999835 534.5000000000001
    vertex 28.325000000000703 476.99999999999835 531.4289419162444
  endloop
endfacet
facet normal 0.0 -1.0 0.0
  outer loop
    vertex 28.325000000000703 476.99999999999835 531.4289419162444
    vertex 33.5000000000007 476.99999999999835 534.5000000000001
    vertex 27.927051424419865 476.99999999999835 531.593777613377
  endloop
endfacet
facet normal 0.0 -1.0 0.0
  outer loop
    vertex 27.927051424419865 476.99999999999835 531.593777613377
    vertex 33.5000000000007 476.99999999999835 534.5000000000001
    vertex 27.500000000000707 476.99999999999835 531.6500000000001
  endloop
endfacet
facet normal 0.0 -1.0 0.0
  outer loop
    vertex 21.500000000000682 476.99999999999835 525.5000000000001
    vertex 26.3332738110429 476.99999999999835 528.8332738110423
    vertex 21.500000000000682 476.99999999999835 534.5000000000001
  endloop
endfacet
facet normal 0.0 -1.0 0.0
  outer loop
    vertex 26.3332738110429 476.99999999999835 528.8332738110423
    vertex 21.500000000000682 476.99999999999835 525.5000000000001
    vertex 26.675000000000708 476.99999999999835 528.5710580837558
  endloop
endfacet
facet normal 0.0 -1.0 0.0
  outer loop
    vertex 26.675000000000708 476.99999999999835 528.5710580837558
    vertex 21.500000000000682 476.99999999999835 525.5000000000001
    vertex 27.072948575581545 476.99999999999835 528.4062223866232
  endloop
endfacet
facet normal 0.0 -1.0 0.0
  outer loop
    vertex 27.072948575581545 476.99999999999835 528.4062223866232
    vertex 21.500000000000682 476.99999999999835 525.5000000000001
    vertex 27.500000000000707 476.99999999999835 528.3500000000001
  endloop
endfacet
facet normal 0.0 -1.0 0.0
  outer loop
    vertex 21.500000000000682 476.99999999999835 534.5000000000001
    vertex 26.3332738110429 476.99999999999835 528.8332738110423
    vertex 26.071058083756387 476.99999999999835 529.1750000000001
  endloop
endfacet
facet normal 0.0 -1.0 0.0
  outer loop
    vertex 21.500000000000682 476.99999999999835 534.5000000000001
    vertex 26.071058083756387 476.99999999999835 529.1750000000001
    vertex 25.90622238662375 476.99999999999835 529.572948575581
  endloop
endfacet
facet normal 0.0 -1.0 0.0
  outer loop
    vertex 21.500000000000682 476.99999999999835 534.5000000000001
    vertex 25.90622238662375 476.99999999999835 529.572948575581
    vertex 25.85000000000071 476.99999999999835 530.0000000000001
  endloop
endfacet
facet normal 0.0 -1.0 0.0
  outer loop
    vertex 21.500000000000682 476.99999999999835 534.5000000000001
    vertex 25.85000000000071 476.99999999999835 530.0000000000001
    vertex 25.906222386623742 476.99999999999835 530.4270514244192
  endloop
endfacet
facet normal 0.0 -1.0 0.0
  outer loop
    vertex 21.500000000000682 476.99999999999835 534.5000000000001
    vertex 25.906222386623742 476.99999999999835 530.4270514244192
    vertex 26.071058083756387 476.99999999999835 530.8250000000002
  endloop
endfacet
facet normal 0.0 -1.0 0.0
  outer loop
    vertex 21.500000000000682 476.99999999999835 534.5000000000001
    vertex 26.071058083756387 476.99999999999835 530.8250000000002
    vertex 26.3332738110429 476.99999999999835 531.1667261889579
  endloop
endfacet
facet normal 0.0 -1.0 0.0
  outer loop
    vertex 21.500000000000682 476.99999999999835 534.5000000000001
    vertex 26.3332738110429 476.99999999999835 531.1667261889579
    vertex 26.675000000000708 476.99999999999835 531.4289419162444
  endloop
endfacet
facet normal 0.0 -1.0 0.0
  outer loop
    vertex 21.500000000000682 476.99999999999835 534.5000000000001
    vertex 26.675000000000708 476.99999999999835 531.4289419162444
    vertex 27.072948575581545 476.99999999999835 531.593777613377
  endloop
endfacet
facet normal 0.0 -1.0 0.0
  outer loop
    vertex 21.500000000000682 476.99999999999835 534.5000000000001
    vertex 27.072948575581545 476.99999999999835 531.593777613377
    vertex 27.500000000000707 476.99999999999835 531.6500000000001
  endloop
endfacet
facet normal 0.0 -1.0 0.0
  outer loop
    vertex 21.500000000000682 476.99999999999835 534.5000000000001
    vertex 27.500000000000707 476.99999999999835 531.6500000000001
    vertex 33.5000000000007 476.99999999999835 534.5000000000001
  endloop
endfacet
endsolid Bed Inside Rails
