solid Ender 5 Clone
facet normal 0.0 1.0 0.0
  outer loop
    vertex 498.5000000000005 479.99999999999795 521.5000000000002
    vertex 506.20000000000044 479.9999999999981 528.614359353945
    vertex 518.5000000000003 479.99999999999795 521.5000000000002
  endloop
endfacet
facet normal 0.0 1.0 0.0
  outer loop
    vertex 506.20000000000044 479.9999999999981 528.614359353945
    vertex 498.5000000000005 479.99999999999795 521.5000000000002
    vertex 505.868629150102 479.9999999999981 528.8686291501016
  endloop
endfacet
facet normal 0.0 1.0 0.0
  outer loop
    vertex 505.868629150102 479.9999999999981 528.8686291501016
    vertex 498.5000000000005 479.99999999999795 521.5000000000002
    vertex 505.61435935394536 479.9999999999981 529.2000000000002
  endloop
endfacet
facet normal 0.0 1.0 0.0
  outer loop
    vertex 505.61435935394536 479.9999999999981 529.2000000000002
    vertex 498.5000000000005 479.99999999999795 521.5000000000002
    vertex 498.5000000000005 479.99999999999795 538.5000000000001
  endloop
endfacet
facet normal 0.0 1.0 0.0
  outer loop
    vertex 518.5000000000003 479.99999999999795 521.5000000000002
    vertex 506.20000000000044 479.9999999999981 528.614359353945
    vertex 506.5858895278364 479.9999999999981 528.4545186779376
  endloop
endfacet
facet normal 0.0 1.0 0.0
  outer loop
    vertex 518.5000000000003 479.99999999999795 521.5000000000002
    vertex 506.5858895278364 479.9999999999981 528.4545186779376
    vertex 507.00000000000045 479.9999999999981 528.4000000000001
  endloop
endfacet
facet normal 0.0 1.0 0.0
  outer loop
    vertex 505.61435935394536 479.9999999999981 529.2000000000002
    vertex 498.5000000000005 479.99999999999795 538.5000000000001
    vertex 505.454518677938 479.9999999999981 529.585889527836
  endloop
endfacet
facet normal 0.0 1.0 0.0
  outer loop
    vertex 505.454518677938 479.9999999999981 529.585889527836
    vertex 498.5000000000005 479.99999999999795 538.5000000000001
    vertex 505.4000000000005 479.9999999999981 530.0000000000001
  endloop
endfacet
facet normal 0.0 1.0 0.0
  outer loop
    vertex 505.4000000000005 479.9999999999981 530.0000000000001
    vertex 498.5000000000005 479.99999999999795 538.5000000000001
    vertex 505.454518677938 479.9999999999981 530.4141104721641
  endloop
endfacet
facet normal 0.0 1.0 0.0
  outer loop
    vertex 505.454518677938 479.9999999999981 530.4141104721641
    vertex 498.5000000000005 479.99999999999795 538.5000000000001
    vertex 505.61435935394536 479.9999999999981 530.8000000000001
  endloop
endfacet
facet normal 0.0 1.0 0.0
  outer loop
    vertex 505.61435935394536 479.9999999999981 530.8000000000001
    vertex 498.5000000000005 479.99999999999795 538.5000000000001
    vertex 505.868629150102 479.9999999999981 531.1313708498986
  endloop
endfacet
facet normal 0.0 1.0 0.0
  outer loop
    vertex 505.868629150102 479.9999999999981 531.1313708498986
    vertex 498.5000000000005 479.99999999999795 538.5000000000001
    vertex 506.20000000000044 479.9999999999981 531.3856406460552
  endloop
endfacet
facet normal 0.0 1.0 0.0
  outer loop
    vertex 506.20000000000044 479.9999999999981 531.3856406460552
    vertex 498.5000000000005 479.99999999999795 538.5000000000001
    vertex 506.5858895278364 479.9999999999981 531.5454813220626
  endloop
endfacet
facet normal 0.0 1.0 0.0
  outer loop
    vertex 506.5858895278364 479.9999999999981 531.5454813220626
    vertex 498.5000000000005 479.99999999999795 538.5000000000001
    vertex 507.00000000000045 479.9999999999981 531.6000000000001
  endloop
endfacet
facet normal 0.0 1.0 0.0
  outer loop
    vertex 518.5000000000003 479.99999999999795 521.5000000000002
    vertex 508.131370849899 479.9999999999981 528.8686291501016
    vertex 518.5000000000003 479.99999999999795 538.5000000000001
  endloop
endfacet
facet normal 0.0 1.0 0.0
  outer loop
    vertex 508.131370849899 479.9999999999981 528.8686291501016
    vertex 518.5000000000003 479.99999999999795 521.5000000000002
    vertex 507.80000000000047 479.9999999999981 528.614359353945
  endloop
endfacet
facet normal 0.0 1.0 0.0
  outer loop
    vertex 507.80000000000047 479.9999999999981 528.614359353945
    vertex 518.5000000000003 479.99999999999795 521.5000000000002
    vertex 507.4141104721645 479.9999999999981 528.4545186779376
  endloop
endfacet
facet normal 0.0 1.0 0.0
  outer loop
    vertex 507.4141104721645 479.9999999999981 528.4545186779376
    vertex 518.5000000000003 479.99999999999795 521.5000000000002
    vertex 507.00000000000045 479.9999999999981 528.4000000000001
  endloop
endfacet
facet normal 0.0 1.0 0.0
  outer loop
    vertex 518.5000000000003 479.99999999999795 538.5000000000001
    vertex 508.131370849899 479.9999999999981 528.8686291501016
    vertex 508.3856406460556 479.9999999999981 529.2000000000002
  endloop
endfacet
facet normal 0.0 1.0 0.0
  outer loop
    vertex 518.5000000000003 479.99999999999795 538.5000000000001
    vertex 508.3856406460556 479.9999999999981 529.2000000000002
    vertex 508.5454813220629 479.9999999999981 529.585889527836
  endloop
endfacet
facet normal 0.0 1.0 0.0
  outer loop
    vertex 518.5000000000003 479.99999999999795 538.5000000000001
    vertex 508.5454813220629 479.9999999999981 529.585889527836
    vertex 508.6000000000005 479.9999999999981 530.0000000000001
  endloop
endfacet
facet normal 0.0 1.0 0.0
  outer loop
    vertex 518.5000000000003 479.99999999999795 538.5000000000001
    vertex 508.6000000000005 479.9999999999981 530.0000000000001
    vertex 508.5454813220629 479.9999999999981 530.4141104721641
  endloop
endfacet
facet normal 0.0 1.0 0.0
  outer loop
    vertex 518.5000000000003 479.99999999999795 538.5000000000001
    vertex 508.5454813220629 479.9999999999981 530.4141104721641
    vertex 508.3856406460556 479.9999999999981 530.8000000000001
  endloop
endfacet
facet normal 0.0 1.0 0.0
  outer loop
    vertex 518.5000000000003 479.99999999999795 538.5000000000001
    vertex 508.3856406460556 479.9999999999981 530.8000000000001
    vertex 508.131370849899 479.9999999999981 531.1313708498986
  endloop
endfacet
facet normal 0.0 1.0 0.0
  outer loop
    vertex 518.5000000000003 479.99999999999795 538.5000000000001
    vertex 508.131370849899 479.9999999999981 531.1313708498986
    vertex 507.80000000000047 479.9999999999981 531.3856406460552
  endloop
endfacet
facet normal 0.0 1.0 0.0
  outer loop
    vertex 518.5000000000003 479.99999999999795 538.5000000000001
    vertex 507.80000000000047 479.9999999999981 531.3856406460552
    vertex 507.4141104721645 479.9999999999981 531.5454813220626
  endloop
endfacet
facet normal 0.0 1.0 0.0
  outer loop
    vertex 518.5000000000003 479.99999999999795 538.5000000000001
    vertex 507.4141104721645 479.9999999999981 531.5454813220626
    vertex 507.00000000000045 479.9999999999981 531.6000000000001
  endloop
endfacet
facet normal 0.0 1.0 0.0
  outer loop
    vertex 518.5000000000003 479.99999999999795 538.5000000000001
    vertex 507.00000000000045 479.9999999999981 531.6000000000001
    vertex 498.5000000000005 479.99999999999795 538.5000000000001
  endloop
endfacet
facet normal 0.38268343236499053 0.0 -0.9238795325113278
  outer loop
    vertex 506.5858895278364 479.9999999999981 531.5454813220626
    vertex 506.20000000000044 476.9999999999979 531.3856406460552
    vertex 506.20000000000044 479.9999999999981 531.3856406460552
  endloop
endfacet
facet normal 0.38268343236499053 0.0 -0.9238795325113278
  outer loop
    vertex 506.20000000000044 476.9999999999979 531.3856406460552
    vertex 506.5858895278364 479.9999999999981 531.5454813220626
    vertex 506.5858895278364 476.9999999999979 531.5454813220626
  endloop
endfacet
facet normal 0.9238795325113278 0.0 -0.38268343236499053
  outer loop
    vertex 505.454518677938 479.9999999999981 530.4141104721641
    vertex 505.61435935394536 476.9999999999979 530.8000000000001
    vertex 505.454518677938 476.9999999999979 530.4141104721641
  endloop
endfacet
facet normal 0.9238795325113278 0.0 -0.38268343236499053
  outer loop
    vertex 505.61435935394536 476.9999999999979 530.8000000000001
    vertex 505.454518677938 479.9999999999981 530.4141104721641
    vertex 505.61435935394536 479.9999999999981 530.8000000000001
  endloop
endfacet
facet normal 0.9914448613738028 0.0 -0.13052619222010886
  outer loop
    vertex 505.4000000000005 479.9999999999981 530.0000000000001
    vertex 505.454518677938 476.9999999999979 530.4141104721641
    vertex 505.4000000000005 476.9999999999979 530.0000000000001
  endloop
endfacet
facet normal 0.9914448613738028 0.0 -0.13052619222010886
  outer loop
    vertex 505.454518677938 476.9999999999979 530.4141104721641
    vertex 505.4000000000005 479.9999999999981 530.0000000000001
    vertex 505.454518677938 479.9999999999981 530.4141104721641
  endloop
endfacet
facet normal 0.9914448613738028 0.0 0.13052619222010886
  outer loop
    vertex 505.454518677938 479.9999999999981 529.585889527836
    vertex 505.4000000000005 476.9999999999979 530.0000000000001
    vertex 505.454518677938 476.9999999999979 529.585889527836
  endloop
endfacet
facet normal 0.9914448613738028 0.0 0.13052619222010886
  outer loop
    vertex 505.4000000000005 476.9999999999979 530.0000000000001
    vertex 505.454518677938 479.9999999999981 529.585889527836
    vertex 505.4000000000005 479.9999999999981 530.0000000000001
  endloop
endfacet
facet normal -0.38268343236499053 -0.0 -0.9238795325113278
  outer loop
    vertex 507.80000000000047 479.9999999999981 531.3856406460552
    vertex 507.4141104721645 476.9999999999979 531.5454813220626
    vertex 507.4141104721645 479.9999999999981 531.5454813220626
  endloop
endfacet
facet normal -0.38268343236499053 -0.0 -0.9238795325113278
  outer loop
    vertex 507.4141104721645 476.9999999999979 531.5454813220626
    vertex 507.80000000000047 479.9999999999981 531.3856406460552
    vertex 507.80000000000047 476.9999999999979 531.3856406460552
  endloop
endfacet
facet normal 0.6087614290086574 0.0 -0.7933533402912838
  outer loop
    vertex 506.20000000000044 479.9999999999981 531.3856406460552
    vertex 505.868629150102 476.9999999999979 531.1313708498986
    vertex 505.868629150102 479.9999999999981 531.1313708498986
  endloop
endfacet
facet normal 0.6087614290086574 0.0 -0.7933533402912838
  outer loop
    vertex 505.868629150102 476.9999999999979 531.1313708498986
    vertex 506.20000000000044 479.9999999999981 531.3856406460552
    vertex 506.20000000000044 476.9999999999979 531.3856406460552
  endloop
endfacet
facet normal 0.7933533402912838 0.0 -0.6087614290086574
  outer loop
    vertex 505.61435935394536 479.9999999999981 530.8000000000001
    vertex 505.868629150102 476.9999999999979 531.1313708498986
    vertex 505.61435935394536 476.9999999999979 530.8000000000001
  endloop
endfacet
facet normal 0.7933533402912838 0.0 -0.6087614290086574
  outer loop
    vertex 505.868629150102 476.9999999999979 531.1313708498986
    vertex 505.61435935394536 479.9999999999981 530.8000000000001
    vertex 505.868629150102 479.9999999999981 531.1313708498986
  endloop
endfacet
facet normal -0.13052619222010886 -0.0 -0.9914448613738028
  outer loop
    vertex 507.4141104721645 479.9999999999981 531.5454813220626
    vertex 507.00000000000045 476.9999999999979 531.6000000000001
    vertex 507.00000000000045 479.9999999999981 531.6000000000001
  endloop
endfacet
facet normal -0.13052619222010886 -0.0 -0.9914448613738028
  outer loop
    vertex 507.00000000000045 476.9999999999979 531.6000000000001
    vertex 507.4141104721645 479.9999999999981 531.5454813220626
    vertex 507.4141104721645 476.9999999999979 531.5454813220626
  endloop
endfacet
facet normal 0.9238795325113278 0.0 0.38268343236499053
  outer loop
    vertex 505.61435935394536 479.9999999999981 529.2000000000002
    vertex 505.454518677938 476.9999999999979 529.585889527836
    vertex 505.61435935394536 476.9999999999979 529.2000000000002
  endloop
endfacet
facet normal 0.9238795325113278 0.0 0.38268343236499053
  outer loop
    vertex 505.454518677938 476.9999999999979 529.585889527836
    vertex 505.61435935394536 479.9999999999981 529.2000000000002
    vertex 505.454518677938 479.9999999999981 529.585889527836
  endloop
endfacet
facet normal 0.7933533402912838 0.0 0.6087614290086574
  outer loop
    vertex 505.868629150102 479.9999999999981 528.8686291501016
    vertex 505.61435935394536 476.9999999999979 529.2000000000002
    vertex 505.868629150102 476.9999999999979 528.8686291501016
  endloop
endfacet
facet normal 0.7933533402912838 0.0 0.6087614290086574
  outer loop
    vertex 505.61435935394536 476.9999999999979 529.2000000000002
    vertex 505.868629150102 479.9999999999981 528.8686291501016
    vertex 505.61435935394536 479.9999999999981 529.2000000000002
  endloop
endfacet
facet normal 0.13052619222010886 0.0 -0.9914448613738028
  outer loop
    vertex 507.00000000000045 479.9999999999981 531.6000000000001
    vertex 506.5858895278364 476.9999999999979 531.5454813220626
    vertex 506.5858895278364 479.9999999999981 531.5454813220626
  endloop
endfacet
facet normal 0.13052619222010886 0.0 -0.9914448613738028
  outer loop
    vertex 506.5858895278364 476.9999999999979 531.5454813220626
    vertex 507.00000000000045 479.9999999999981 531.6000000000001
    vertex 507.00000000000045 476.9999999999979 531.6000000000001
  endloop
endfacet
facet normal 0.0 0.6087614290086574 0.7933533402912838
  outer loop
    vertex 518.5000000000003 467.3686291500994 528.8686291501016
    vertex 515.5000000000002 467.69999999999794 528.614359353945
    vertex 515.5000000000002 467.3686291500994 528.8686291501016
  endloop
endfacet
facet normal 0.0 0.6087614290086574 0.7933533402912838
  outer loop
    vertex 515.5000000000002 467.69999999999794 528.614359353945
    vertex 518.5000000000003 467.3686291500994 528.8686291501016
    vertex 518.5000000000003 467.69999999999794 528.614359353945
  endloop
endfacet
facet normal 0.0 0.6087614290086574 -0.7933533402912838
  outer loop
    vertex 518.5000000000003 467.69999999999794 531.3856406460552
    vertex 515.5000000000002 467.3686291500994 531.1313708498986
    vertex 515.5000000000002 467.69999999999794 531.3856406460552
  endloop
endfacet
facet normal 0.0 0.6087614290086574 -0.7933533402912838
  outer loop
    vertex 515.5000000000002 467.3686291500994 531.1313708498986
    vertex 518.5000000000003 467.69999999999794 531.3856406460552
    vertex 518.5000000000003 467.3686291500994 531.1313708498986
  endloop
endfacet
facet normal 0.0 -0.38268343236499053 0.9238795325113278
  outer loop
    vertex 518.5000000000003 468.914110472162 528.4545186779376
    vertex 515.5000000000002 469.29999999999797 528.614359353945
    vertex 515.5000000000002 468.914110472162 528.4545186779376
  endloop
endfacet
facet normal 0.0 -0.38268343236499053 0.9238795325113278
  outer loop
    vertex 515.5000000000002 469.29999999999797 528.614359353945
    vertex 518.5000000000003 468.914110472162 528.4545186779376
    vertex 518.5000000000003 469.29999999999797 528.614359353945
  endloop
endfacet
facet normal -0.0 -0.9238795325113278 -0.38268343236499053
  outer loop
    vertex 518.5000000000003 469.88564064605305 530.8000000000001
    vertex 515.5000000000002 470.0454813220604 530.4141104721641
    vertex 518.5000000000003 470.0454813220604 530.4141104721641
  endloop
endfacet
facet normal -0.0 -0.9238795325113278 -0.38268343236499053
  outer loop
    vertex 515.5000000000002 470.0454813220604 530.4141104721641
    vertex 518.5000000000003 469.88564064605305 530.8000000000001
    vertex 515.5000000000002 469.88564064605305 530.8000000000001
  endloop
endfacet
facet normal 0.0 -0.9238795325113278 0.38268343236499053
  outer loop
    vertex 518.5000000000003 470.0454813220604 529.585889527836
    vertex 515.5000000000002 469.88564064605305 529.2000000000002
    vertex 518.5000000000003 469.88564064605305 529.2000000000002
  endloop
endfacet
facet normal 0.0 -0.9238795325113278 0.38268343236499053
  outer loop
    vertex 515.5000000000002 469.88564064605305 529.2000000000002
    vertex 518.5000000000003 470.0454813220604 529.585889527836
    vertex 515.5000000000002 470.0454813220604 529.585889527836
  endloop
endfacet
facet normal 0.0 -0.7933533402912838 0.6087614290086574
  outer loop
    vertex 518.5000000000003 469.88564064605305 529.2000000000002
    vertex 515.5000000000002 469.6313708498965 528.8686291501016
    vertex 518.5000000000003 469.6313708498965 528.8686291501016
  endloop
endfacet
facet normal 0.0 -0.7933533402912838 0.6087614290086574
  outer loop
    vertex 515.5000000000002 469.6313708498965 528.8686291501016
    vertex 518.5000000000003 469.88564064605305 529.2000000000002
    vertex 515.5000000000002 469.88564064605305 529.2000000000002
  endloop
endfacet
facet normal 0.0 0.38268343236499053 0.9238795325113278
  outer loop
    vertex 518.5000000000003 467.69999999999794 528.614359353945
    vertex 515.5000000000002 468.0858895278339 528.4545186779376
    vertex 515.5000000000002 467.69999999999794 528.614359353945
  endloop
endfacet
facet normal 0.0 0.38268343236499053 0.9238795325113278
  outer loop
    vertex 515.5000000000002 468.0858895278339 528.4545186779376
    vertex 518.5000000000003 467.69999999999794 528.614359353945
    vertex 518.5000000000003 468.0858895278339 528.4545186779376
  endloop
endfacet
facet normal 0.0 0.13052619222010886 0.9914448613738028
  outer loop
    vertex 518.5000000000003 468.0858895278339 528.4545186779376
    vertex 515.5000000000002 468.49999999999795 528.4000000000001
    vertex 515.5000000000002 468.0858895278339 528.4545186779376
  endloop
endfacet
facet normal 0.0 0.13052619222010886 0.9914448613738028
  outer loop
    vertex 515.5000000000002 468.49999999999795 528.4000000000001
    vertex 518.5000000000003 468.0858895278339 528.4545186779376
    vertex 518.5000000000003 468.49999999999795 528.4000000000001
  endloop
endfacet
facet normal 0.0 0.7933533402912838 0.6087614290086574
  outer loop
    vertex 515.5000000000002 467.1143593539428 529.2000000000002
    vertex 518.5000000000003 467.3686291500994 528.8686291501016
    vertex 515.5000000000002 467.3686291500994 528.8686291501016
  endloop
endfacet
facet normal 0.0 0.7933533402912838 0.6087614290086574
  outer loop
    vertex 518.5000000000003 467.3686291500994 528.8686291501016
    vertex 515.5000000000002 467.1143593539428 529.2000000000002
    vertex 518.5000000000003 467.1143593539428 529.2000000000002
  endloop
endfacet
facet normal 0.0 0.9238795325113278 0.38268343236499053
  outer loop
    vertex 515.5000000000002 466.9545186779355 529.585889527836
    vertex 518.5000000000003 467.1143593539428 529.2000000000002
    vertex 515.5000000000002 467.1143593539428 529.2000000000002
  endloop
endfacet
facet normal 0.0 0.9238795325113278 0.38268343236499053
  outer loop
    vertex 518.5000000000003 467.1143593539428 529.2000000000002
    vertex 515.5000000000002 466.9545186779355 529.585889527836
    vertex 518.5000000000003 466.9545186779355 529.585889527836
  endloop
endfacet
facet normal 0.0 -0.9914448613738028 0.13052619222010886
  outer loop
    vertex 518.5000000000003 470.0999999999979 530.0000000000001
    vertex 515.5000000000002 470.0454813220604 529.585889527836
    vertex 518.5000000000003 470.0454813220604 529.585889527836
  endloop
endfacet
facet normal 0.0 -0.9914448613738028 0.13052619222010886
  outer loop
    vertex 515.5000000000002 470.0454813220604 529.585889527836
    vertex 518.5000000000003 470.0999999999979 530.0000000000001
    vertex 515.5000000000002 470.0999999999979 530.0000000000001
  endloop
endfacet
facet normal 0.0 -0.6087614290086574 0.7933533402912838
  outer loop
    vertex 518.5000000000003 469.29999999999797 528.614359353945
    vertex 515.5000000000002 469.6313708498965 528.8686291501016
    vertex 515.5000000000002 469.29999999999797 528.614359353945
  endloop
endfacet
facet normal 0.0 -0.6087614290086574 0.7933533402912838
  outer loop
    vertex 515.5000000000002 469.6313708498965 528.8686291501016
    vertex 518.5000000000003 469.29999999999797 528.614359353945
    vertex 518.5000000000003 469.6313708498965 528.8686291501016
  endloop
endfacet
facet normal 0.0 -0.13052619222010886 0.9914448613738028
  outer loop
    vertex 518.5000000000003 468.49999999999795 528.4000000000001
    vertex 515.5000000000002 468.914110472162 528.4545186779376
    vertex 515.5000000000002 468.49999999999795 528.4000000000001
  endloop
endfacet
facet normal 0.0 -0.13052619222010886 0.9914448613738028
  outer loop
    vertex 515.5000000000002 468.914110472162 528.4545186779376
    vertex 518.5000000000003 468.49999999999795 528.4000000000001
    vertex 518.5000000000003 468.914110472162 528.4545186779376
  endloop
endfacet
facet normal 0.0 0.9914448613738028 0.13052619222010886
  outer loop
    vertex 515.5000000000002 466.89999999999793 530.0000000000001
    vertex 518.5000000000003 466.9545186779355 529.585889527836
    vertex 515.5000000000002 466.9545186779355 529.585889527836
  endloop
endfacet
facet normal 0.0 0.9914448613738028 0.13052619222010886
  outer loop
    vertex 518.5000000000003 466.9545186779355 529.585889527836
    vertex 515.5000000000002 466.89999999999793 530.0000000000001
    vertex 518.5000000000003 466.89999999999793 530.0000000000001
  endloop
endfacet
facet normal -0.0 -0.9914448613738028 -0.13052619222010886
  outer loop
    vertex 518.5000000000003 470.0454813220604 530.4141104721641
    vertex 515.5000000000002 470.0999999999979 530.0000000000001
    vertex 518.5000000000003 470.0999999999979 530.0000000000001
  endloop
endfacet
facet normal -0.0 -0.9914448613738028 -0.13052619222010886
  outer loop
    vertex 515.5000000000002 470.0999999999979 530.0000000000001
    vertex 518.5000000000003 470.0454813220604 530.4141104721641
    vertex 515.5000000000002 470.0454813220604 530.4141104721641
  endloop
endfacet
facet normal 0.0 0.9914448613738028 -0.13052619222010886
  outer loop
    vertex 515.5000000000002 466.9545186779355 530.4141104721641
    vertex 518.5000000000003 466.89999999999793 530.0000000000001
    vertex 515.5000000000002 466.89999999999793 530.0000000000001
  endloop
endfacet
facet normal 0.0 0.9914448613738028 -0.13052619222010886
  outer loop
    vertex 518.5000000000003 466.89999999999793 530.0000000000001
    vertex 515.5000000000002 466.9545186779355 530.4141104721641
    vertex 518.5000000000003 466.9545186779355 530.4141104721641
  endloop
endfacet
facet normal 0.0 0.9238795325113278 -0.38268343236499053
  outer loop
    vertex 515.5000000000002 467.1143593539428 530.8000000000001
    vertex 518.5000000000003 466.9545186779355 530.4141104721641
    vertex 515.5000000000002 466.9545186779355 530.4141104721641
  endloop
endfacet
facet normal 0.0 0.9238795325113278 -0.38268343236499053
  outer loop
    vertex 518.5000000000003 466.9545186779355 530.4141104721641
    vertex 515.5000000000002 467.1143593539428 530.8000000000001
    vertex 518.5000000000003 467.1143593539428 530.8000000000001
  endloop
endfacet
facet normal -0.0 -0.7933533402912838 -0.6087614290086574
  outer loop
    vertex 518.5000000000003 469.6313708498965 531.1313708498986
    vertex 515.5000000000002 469.88564064605305 530.8000000000001
    vertex 518.5000000000003 469.88564064605305 530.8000000000001
  endloop
endfacet
facet normal -0.0 -0.7933533402912838 -0.6087614290086574
  outer loop
    vertex 515.5000000000002 469.88564064605305 530.8000000000001
    vertex 518.5000000000003 469.6313708498965 531.1313708498986
    vertex 515.5000000000002 469.6313708498965 531.1313708498986
  endloop
endfacet
facet normal 0.0 0.7933533402912838 -0.6087614290086574
  outer loop
    vertex 515.5000000000002 467.3686291500994 531.1313708498986
    vertex 518.5000000000003 467.1143593539428 530.8000000000001
    vertex 515.5000000000002 467.1143593539428 530.8000000000001
  endloop
endfacet
facet normal 0.0 0.7933533402912838 -0.6087614290086574
  outer loop
    vertex 518.5000000000003 467.1143593539428 530.8000000000001
    vertex 515.5000000000002 467.3686291500994 531.1313708498986
    vertex 518.5000000000003 467.3686291500994 531.1313708498986
  endloop
endfacet
facet normal -1.0 -1.769390734147719e-15 3.1742336285965735e-15
  outer loop
    vertex 515.5000000000003 459.999999999998 536.5000000000003
    vertex 515.5000000000002 467.3686291500994 531.1313708498986
    vertex 515.5000000000002 459.999999999998 523.4999999999999
  endloop
endfacet
facet normal -1.0 -1.769390734147719e-15 3.1742336285965735e-15
  outer loop
    vertex 515.5000000000002 467.3686291500994 531.1313708498986
    vertex 515.5000000000003 459.999999999998 536.5000000000003
    vertex 515.5000000000002 467.69999999999794 531.3856406460552
  endloop
endfacet
facet normal -1.0 -1.769390734147719e-15 3.1742336285965735e-15
  outer loop
    vertex 515.5000000000002 467.69999999999794 531.3856406460552
    vertex 515.5000000000003 459.999999999998 536.5000000000003
    vertex 515.5000000000002 476.9999999999979 536.5000000000003
  endloop
endfacet
facet normal -1.0 -1.769390734147719e-15 3.1742336285965735e-15
  outer loop
    vertex 515.5000000000002 459.999999999998 523.4999999999999
    vertex 515.5000000000002 467.3686291500994 531.1313708498986
    vertex 515.5000000000002 467.1143593539428 530.8000000000001
  endloop
endfacet
facet normal -1.0 -1.769390734147719e-15 3.1742336285965735e-15
  outer loop
    vertex 515.5000000000002 459.999999999998 523.4999999999999
    vertex 515.5000000000002 467.1143593539428 530.8000000000001
    vertex 515.5000000000002 466.9545186779355 530.4141104721641
  endloop
endfacet
facet normal -1.0 -1.769390734147719e-15 3.1742336285965735e-15
  outer loop
    vertex 515.5000000000002 459.999999999998 523.4999999999999
    vertex 515.5000000000002 466.9545186779355 530.4141104721641
    vertex 515.5000000000002 466.89999999999793 530.0000000000001
  endloop
endfacet
facet normal -1.0 -1.769390734147719e-15 3.1742336285965735e-15
  outer loop
    vertex 515.5000000000002 467.69999999999794 531.3856406460552
    vertex 515.5000000000002 476.9999999999979 536.5000000000003
    vertex 515.5000000000002 468.0858895278339 531.5454813220626
  endloop
endfacet
facet normal -1.0 -1.769390734147719e-15 3.1742336285965735e-15
  outer loop
    vertex 515.5000000000002 468.0858895278339 531.5454813220626
    vertex 515.5000000000002 476.9999999999979 536.5000000000003
    vertex 515.5000000000002 468.49999999999795 531.6000000000001
  endloop
endfacet
facet normal -1.0 -1.769390734147719e-15 3.1742336285965735e-15
  outer loop
    vertex 515.5000000000002 468.49999999999795 531.6000000000001
    vertex 515.5000000000002 476.9999999999979 536.5000000000003
    vertex 515.5000000000002 468.914110472162 531.5454813220626
  endloop
endfacet
facet normal -1.0 -1.769390734147719e-15 3.1742336285965735e-15
  outer loop
    vertex 515.5000000000002 468.914110472162 531.5454813220626
    vertex 515.5000000000002 476.9999999999979 536.5000000000003
    vertex 515.5000000000002 469.29999999999797 531.3856406460552
  endloop
endfacet
facet normal -1.0 -1.769390734147719e-15 3.1742336285965735e-15
  outer loop
    vertex 515.5000000000002 469.29999999999797 531.3856406460552
    vertex 515.5000000000002 476.9999999999979 536.5000000000003
    vertex 515.5000000000002 469.6313708498965 531.1313708498986
  endloop
endfacet
facet normal -1.0 -1.769390734147719e-15 3.1742336285965735e-15
  outer loop
    vertex 515.5000000000002 469.6313708498965 531.1313708498986
    vertex 515.5000000000002 476.9999999999979 536.5000000000003
    vertex 515.5000000000002 469.88564064605305 530.8000000000001
  endloop
endfacet
facet normal -1.0 -1.769390734147719e-15 3.1742336285965735e-15
  outer loop
    vertex 515.5000000000002 469.88564064605305 530.8000000000001
    vertex 515.5000000000002 476.9999999999979 536.5000000000003
    vertex 515.5000000000002 470.0454813220604 530.4141104721641
  endloop
endfacet
facet normal -1.0 -1.769390734147719e-15 3.1742336285965735e-15
  outer loop
    vertex 515.5000000000002 470.0454813220604 530.4141104721641
    vertex 515.5000000000002 476.9999999999979 536.5000000000003
    vertex 515.5000000000002 470.0999999999979 530.0000000000001
  endloop
endfacet
facet normal -1.0 -1.769390734147719e-15 3.1742336285965735e-15
  outer loop
    vertex 515.5000000000002 459.999999999998 523.4999999999999
    vertex 515.5000000000002 467.69999999999794 528.614359353945
    vertex 515.5000000000002 476.9999999999979 523.5
  endloop
endfacet
facet normal -1.0 -1.769390734147719e-15 3.1742336285965735e-15
  outer loop
    vertex 515.5000000000002 467.69999999999794 528.614359353945
    vertex 515.5000000000002 459.999999999998 523.4999999999999
    vertex 515.5000000000002 467.3686291500994 528.8686291501016
  endloop
endfacet
facet normal -1.0 -1.769390734147719e-15 3.1742336285965735e-15
  outer loop
    vertex 515.5000000000002 467.3686291500994 528.8686291501016
    vertex 515.5000000000002 459.999999999998 523.4999999999999
    vertex 515.5000000000002 467.1143593539428 529.2000000000002
  endloop
endfacet
facet normal -1.0 -1.769390734147719e-15 3.1742336285965735e-15
  outer loop
    vertex 515.5000000000002 467.1143593539428 529.2000000000002
    vertex 515.5000000000002 459.999999999998 523.4999999999999
    vertex 515.5000000000002 466.9545186779355 529.585889527836
  endloop
endfacet
facet normal -1.0 -1.769390734147719e-15 3.1742336285965735e-15
  outer loop
    vertex 515.5000000000002 466.9545186779355 529.585889527836
    vertex 515.5000000000002 459.999999999998 523.4999999999999
    vertex 515.5000000000002 466.89999999999793 530.0000000000001
  endloop
endfacet
facet normal -1.0 -1.769390734147719e-15 3.1742336285965735e-15
  outer loop
    vertex 515.5000000000002 476.9999999999979 523.5
    vertex 515.5000000000002 467.69999999999794 528.614359353945
    vertex 515.5000000000002 468.0858895278339 528.4545186779376
  endloop
endfacet
facet normal -1.0 -1.769390734147719e-15 3.1742336285965735e-15
  outer loop
    vertex 515.5000000000002 476.9999999999979 523.5
    vertex 515.5000000000002 468.0858895278339 528.4545186779376
    vertex 515.5000000000002 468.49999999999795 528.4000000000001
  endloop
endfacet
facet normal -1.0 -1.769390734147719e-15 3.1742336285965735e-15
  outer loop
    vertex 515.5000000000002 476.9999999999979 523.5
    vertex 515.5000000000002 468.49999999999795 528.4000000000001
    vertex 515.5000000000002 468.914110472162 528.4545186779376
  endloop
endfacet
facet normal -1.0 -1.769390734147719e-15 3.1742336285965735e-15
  outer loop
    vertex 515.5000000000002 476.9999999999979 523.5
    vertex 515.5000000000002 468.914110472162 528.4545186779376
    vertex 515.5000000000002 469.29999999999797 528.614359353945
  endloop
endfacet
facet normal -1.0 -1.769390734147719e-15 3.1742336285965735e-15
  outer loop
    vertex 515.5000000000002 476.9999999999979 523.5
    vertex 515.5000000000002 469.29999999999797 528.614359353945
    vertex 515.5000000000002 469.6313708498965 528.8686291501016
  endloop
endfacet
facet normal -1.0 -1.769390734147719e-15 3.1742336285965735e-15
  outer loop
    vertex 515.5000000000002 476.9999999999979 523.5
    vertex 515.5000000000002 469.6313708498965 528.8686291501016
    vertex 515.5000000000002 469.88564064605305 529.2000000000002
  endloop
endfacet
facet normal -1.0 -1.769390734147719e-15 3.1742336285965735e-15
  outer loop
    vertex 515.5000000000002 476.9999999999979 523.5
    vertex 515.5000000000002 469.88564064605305 529.2000000000002
    vertex 515.5000000000002 470.0454813220604 529.585889527836
  endloop
endfacet
facet normal -1.0 -1.769390734147719e-15 3.1742336285965735e-15
  outer loop
    vertex 515.5000000000002 476.9999999999979 523.5
    vertex 515.5000000000002 470.0454813220604 529.585889527836
    vertex 515.5000000000002 470.0999999999979 530.0000000000001
  endloop
endfacet
facet normal -1.0 -1.769390734147719e-15 3.1742336285965735e-15
  outer loop
    vertex 515.5000000000002 476.9999999999979 523.5
    vertex 515.5000000000002 470.0999999999979 530.0000000000001
    vertex 515.5000000000002 476.9999999999979 536.5000000000003
  endloop
endfacet
facet normal -0.7933533402912838 -0.0 -0.6087614290086574
  outer loop
    vertex 508.131370849899 479.9999999999981 531.1313708498986
    vertex 508.3856406460556 476.9999999999979 530.8000000000001
    vertex 508.131370849899 476.9999999999979 531.1313708498986
  endloop
endfacet
facet normal -0.7933533402912838 -0.0 -0.6087614290086574
  outer loop
    vertex 508.3856406460556 476.9999999999979 530.8000000000001
    vertex 508.131370849899 479.9999999999981 531.1313708498986
    vertex 508.3856406460556 479.9999999999981 530.8000000000001
  endloop
endfacet
facet normal -0.6087614290086574 -0.0 -0.7933533402912838
  outer loop
    vertex 508.131370849899 479.9999999999981 531.1313708498986
    vertex 507.80000000000047 476.9999999999979 531.3856406460552
    vertex 507.80000000000047 479.9999999999981 531.3856406460552
  endloop
endfacet
facet normal -0.6087614290086574 -0.0 -0.7933533402912838
  outer loop
    vertex 507.80000000000047 476.9999999999979 531.3856406460552
    vertex 508.131370849899 479.9999999999981 531.1313708498986
    vertex 508.131370849899 476.9999999999979 531.1313708498986
  endloop
endfacet
facet normal 1.0 0.0 0.0
  outer loop
    vertex 518.5000000000003 479.99999999999795 521.5000000000002
    vertex 518.5000000000003 476.9999999999979 538.5000000000001
    vertex 518.5000000000003 476.9999999999979 521.5000000000001
  endloop
endfacet
facet normal 1.0 0.0 0.0
  outer loop
    vertex 518.5000000000003 476.9999999999979 538.5000000000001
    vertex 518.5000000000003 479.99999999999795 521.5000000000002
    vertex 518.5000000000003 479.99999999999795 538.5000000000001
  endloop
endfacet
facet normal -1.0 0.0 0.0
  outer loop
    vertex 498.5000000000005 479.99999999999795 538.5000000000001
    vertex 498.5000000000005 476.9999999999979 536.5000000000003
    vertex 498.5000000000005 476.9999999999979 538.5000000000001
  endloop
endfacet
facet normal -1.0 0.0 0.0
  outer loop
    vertex 498.5000000000005 476.9999999999979 536.5000000000003
    vertex 498.5000000000005 479.99999999999795 538.5000000000001
    vertex 498.5000000000005 476.9999999999979 523.5
  endloop
endfacet
facet normal -1.0 0.0 0.0
  outer loop
    vertex 498.5000000000005 476.9999999999979 523.5
    vertex 498.5000000000005 479.99999999999795 538.5000000000001
    vertex 498.5000000000005 476.9999999999979 521.5000000000002
  endloop
endfacet
facet normal -1.0 0.0 0.0
  outer loop
    vertex 498.5000000000005 476.9999999999979 521.5000000000002
    vertex 498.5000000000005 479.99999999999795 538.5000000000001
    vertex 498.5000000000005 479.99999999999795 521.5000000000002
  endloop
endfacet
facet normal 0.0 -1.0 0.0
  outer loop
    vertex 515.5000000000002 476.9999999999979 523.5
    vertex 507.80000000000047 476.9999999999979 528.614359353945
    vertex 498.5000000000005 476.9999999999979 523.5
  endloop
endfacet
facet normal 0.0 -1.0 0.0
  outer loop
    vertex 507.80000000000047 476.9999999999979 528.614359353945
    vertex 515.5000000000002 476.9999999999979 523.5
    vertex 508.131370849899 476.9999999999979 528.8686291501016
  endloop
endfacet
facet normal 0.0 -1.0 0.0
  outer loop
    vertex 508.131370849899 476.9999999999979 528.8686291501016
    vertex 515.5000000000002 476.9999999999979 523.5
    vertex 515.5000000000002 476.9999999999979 536.5000000000003
  endloop
endfacet
facet normal 0.0 -1.0 0.0
  outer loop
    vertex 498.5000000000005 476.9999999999979 523.5
    vertex 507.80000000000047 476.9999999999979 528.614359353945
    vertex 507.4141104721645 476.9999999999979 528.4545186779376
  endloop
endfacet
facet normal 0.0 -1.0 0.0
  outer loop
    vertex 498.5000000000005 476.9999999999979 523.5
    vertex 507.4141104721645 476.9999999999979 528.4545186779376
    vertex 507.00000000000045 476.9999999999979 528.4000000000001
  endloop
endfacet
facet normal 0.0 -1.0 0.0
  outer loop
    vertex 508.131370849899 476.9999999999979 528.8686291501016
    vertex 515.5000000000002 476.9999999999979 536.5000000000003
    vertex 508.3856406460556 476.9999999999979 529.2000000000002
  endloop
endfacet
facet normal 0.0 -1.0 0.0
  outer loop
    vertex 508.3856406460556 476.9999999999979 529.2000000000002
    vertex 515.5000000000002 476.9999999999979 536.5000000000003
    vertex 508.5454813220629 476.9999999999979 529.585889527836
  endloop
endfacet
facet normal 0.0 -1.0 0.0
  outer loop
    vertex 508.5454813220629 476.9999999999979 529.585889527836
    vertex 515.5000000000002 476.9999999999979 536.5000000000003
    vertex 508.6000000000005 476.9999999999979 530.0000000000001
  endloop
endfacet
facet normal 0.0 -1.0 0.0
  outer loop
    vertex 508.6000000000005 476.9999999999979 530.0000000000001
    vertex 515.5000000000002 476.9999999999979 536.5000000000003
    vertex 508.5454813220629 476.9999999999979 530.4141104721641
  endloop
endfacet
facet normal 0.0 -1.0 0.0
  outer loop
    vertex 508.5454813220629 476.9999999999979 530.4141104721641
    vertex 515.5000000000002 476.9999999999979 536.5000000000003
    vertex 508.3856406460556 476.9999999999979 530.8000000000001
  endloop
endfacet
facet normal 0.0 -1.0 0.0
  outer loop
    vertex 508.3856406460556 476.9999999999979 530.8000000000001
    vertex 515.5000000000002 476.9999999999979 536.5000000000003
    vertex 508.131370849899 476.9999999999979 531.1313708498986
  endloop
endfacet
facet normal 0.0 -1.0 0.0
  outer loop
    vertex 508.131370849899 476.9999999999979 531.1313708498986
    vertex 515.5000000000002 476.9999999999979 536.5000000000003
    vertex 507.80000000000047 476.9999999999979 531.3856406460552
  endloop
endfacet
facet normal 0.0 -1.0 0.0
  outer loop
    vertex 507.80000000000047 476.9999999999979 531.3856406460552
    vertex 515.5000000000002 476.9999999999979 536.5000000000003
    vertex 507.4141104721645 476.9999999999979 531.5454813220626
  endloop
endfacet
facet normal 0.0 -1.0 0.0
  outer loop
    vertex 507.4141104721645 476.9999999999979 531.5454813220626
    vertex 515.5000000000002 476.9999999999979 536.5000000000003
    vertex 507.00000000000045 476.9999999999979 531.6000000000001
  endloop
endfacet
facet normal 0.0 -1.0 0.0
  outer loop
    vertex 498.5000000000005 476.9999999999979 523.5
    vertex 505.868629150102 476.9999999999979 528.8686291501016
    vertex 498.5000000000005 476.9999999999979 536.5000000000003
  endloop
endfacet
facet normal 0.0 -1.0 0.0
  outer loop
    vertex 505.868629150102 476.9999999999979 528.8686291501016
    vertex 498.5000000000005 476.9999999999979 523.5
    vertex 506.20000000000044 476.9999999999979 528.614359353945
  endloop
endfacet
facet normal 0.0 -1.0 0.0
  outer loop
    vertex 506.20000000000044 476.9999999999979 528.614359353945
    vertex 498.5000000000005 476.9999999999979 523.5
    vertex 506.5858895278364 476.9999999999979 528.4545186779376
  endloop
endfacet
facet normal 0.0 -1.0 0.0
  outer loop
    vertex 506.5858895278364 476.9999999999979 528.4545186779376
    vertex 498.5000000000005 476.9999999999979 523.5
    vertex 507.00000000000045 476.9999999999979 528.4000000000001
  endloop
endfacet
facet normal 0.0 -1.0 0.0
  outer loop
    vertex 498.5000000000005 476.9999999999979 536.5000000000003
    vertex 505.868629150102 476.9999999999979 528.8686291501016
    vertex 505.61435935394536 476.9999999999979 529.2000000000002
  endloop
endfacet
facet normal 0.0 -1.0 0.0
  outer loop
    vertex 498.5000000000005 476.9999999999979 536.5000000000003
    vertex 505.61435935394536 476.9999999999979 529.2000000000002
    vertex 505.454518677938 476.9999999999979 529.585889527836
  endloop
endfacet
facet normal 0.0 -1.0 0.0
  outer loop
    vertex 498.5000000000005 476.9999999999979 536.5000000000003
    vertex 505.454518677938 476.9999999999979 529.585889527836
    vertex 505.4000000000005 476.9999999999979 530.0000000000001
  endloop
endfacet
facet normal 0.0 -1.0 0.0
  outer loop
    vertex 498.5000000000005 476.9999999999979 536.5000000000003
    vertex 505.4000000000005 476.9999999999979 530.0000000000001
    vertex 505.454518677938 476.9999999999979 530.4141104721641
  endloop
endfacet
facet normal 0.0 -1.0 0.0
  outer loop
    vertex 498.5000000000005 476.9999999999979 536.5000000000003
    vertex 505.454518677938 476.9999999999979 530.4141104721641
    vertex 505.61435935394536 476.9999999999979 530.8000000000001
  endloop
endfacet
facet normal 0.0 -1.0 0.0
  outer loop
    vertex 498.5000000000005 476.9999999999979 536.5000000000003
    vertex 505.61435935394536 476.9999999999979 530.8000000000001
    vertex 505.868629150102 476.9999999999979 531.1313708498986
  endloop
endfacet
facet normal 0.0 -1.0 0.0
  outer loop
    vertex 498.5000000000005 476.9999999999979 536.5000000000003
    vertex 505.868629150102 476.9999999999979 531.1313708498986
    vertex 506.20000000000044 476.9999999999979 531.3856406460552
  endloop
endfacet
facet normal 0.0 -1.0 0.0
  outer loop
    vertex 498.5000000000005 476.9999999999979 536.5000000000003
    vertex 506.20000000000044 476.9999999999979 531.3856406460552
    vertex 506.5858895278364 476.9999999999979 531.5454813220626
  endloop
endfacet
facet normal 0.0 -1.0 0.0
  outer loop
    vertex 498.5000000000005 476.9999999999979 536.5000000000003
    vertex 506.5858895278364 476.9999999999979 531.5454813220626
    vertex 507.00000000000045 476.9999999999979 531.6000000000001
  endloop
endfacet
facet normal 0.0 -1.0 0.0
  outer loop
    vertex 498.5000000000005 476.9999999999979 536.5000000000003
    vertex 507.00000000000045 476.9999999999979 531.6000000000001
    vertex 515.5000000000002 476.9999999999979 536.5000000000003
  endloop
endfacet
facet normal 0.0 0.0 1.0
  outer loop
    vertex 518.5000000000003 459.999999999998 538.5000000000001
    vertex 518.5000000000003 476.9999999999979 538.5000000000001
    vertex 515.5000000000003 459.999999999998 538.5000000000001
  endloop
endfacet
facet normal 0.0 0.0 1.0
  outer loop
    vertex 515.5000000000003 459.999999999998 538.5000000000001
    vertex 498.5000000000005 479.99999999999795 538.5000000000001
    vertex 498.5000000000005 476.9999999999979 538.5000000000001
  endloop
endfacet
facet normal 0.0 0.0 1.0
  outer loop
    vertex 498.5000000000005 479.99999999999795 538.5000000000001
    vertex 515.5000000000003 459.999999999998 538.5000000000001
    vertex 518.5000000000003 479.99999999999795 538.5000000000001
  endloop
endfacet
facet normal 0.0 0.0 1.0
  outer loop
    vertex 518.5000000000003 479.99999999999795 538.5000000000001
    vertex 515.5000000000003 459.999999999998 538.5000000000001
    vertex 518.5000000000003 476.9999999999979 538.5000000000001
  endloop
endfacet
facet normal -0.9914448613738028 0.0 0.13052619222010886
  outer loop
    vertex 508.6000000000005 479.9999999999981 530.0000000000001
    vertex 508.5454813220629 476.9999999999979 529.585889527836
    vertex 508.6000000000005 476.9999999999979 530.0000000000001
  endloop
endfacet
facet normal -0.9914448613738028 0.0 0.13052619222010886
  outer loop
    vertex 508.5454813220629 476.9999999999979 529.585889527836
    vertex 508.6000000000005 479.9999999999981 530.0000000000001
    vertex 508.5454813220629 479.9999999999981 529.585889527836
  endloop
endfacet
facet normal -0.9914448613738028 -0.0 -0.13052619222010886
  outer loop
    vertex 508.5454813220629 479.9999999999981 530.4141104721641
    vertex 508.6000000000005 476.9999999999979 530.0000000000001
    vertex 508.5454813220629 476.9999999999979 530.4141104721641
  endloop
endfacet
facet normal -0.9914448613738028 -0.0 -0.13052619222010886
  outer loop
    vertex 508.6000000000005 476.9999999999979 530.0000000000001
    vertex 508.5454813220629 479.9999999999981 530.4141104721641
    vertex 508.6000000000005 479.9999999999981 530.0000000000001
  endloop
endfacet
facet normal 0.6087614290086574 0.0 0.7933533402912838
  outer loop
    vertex 506.20000000000044 476.9999999999979 528.614359353945
    vertex 505.868629150102 479.9999999999981 528.8686291501016
    vertex 505.868629150102 476.9999999999979 528.8686291501016
  endloop
endfacet
facet normal 0.6087614290086574 0.0 0.7933533402912838
  outer loop
    vertex 505.868629150102 479.9999999999981 528.8686291501016
    vertex 506.20000000000044 476.9999999999979 528.614359353945
    vertex 506.20000000000044 479.9999999999981 528.614359353945
  endloop
endfacet
facet normal -0.38268343236499053 0.0 0.9238795325113278
  outer loop
    vertex 507.80000000000047 476.9999999999979 528.614359353945
    vertex 507.4141104721645 479.9999999999981 528.4545186779376
    vertex 507.4141104721645 476.9999999999979 528.4545186779376
  endloop
endfacet
facet normal -0.38268343236499053 0.0 0.9238795325113278
  outer loop
    vertex 507.4141104721645 479.9999999999981 528.4545186779376
    vertex 507.80000000000047 476.9999999999979 528.614359353945
    vertex 507.80000000000047 479.9999999999981 528.614359353945
  endloop
endfacet
facet normal -0.9238795325113278 -0.0 -0.38268343236499053
  outer loop
    vertex 508.3856406460556 479.9999999999981 530.8000000000001
    vertex 508.5454813220629 476.9999999999979 530.4141104721641
    vertex 508.3856406460556 476.9999999999979 530.8000000000001
  endloop
endfacet
facet normal -0.9238795325113278 -0.0 -0.38268343236499053
  outer loop
    vertex 508.5454813220629 476.9999999999979 530.4141104721641
    vertex 508.3856406460556 479.9999999999981 530.8000000000001
    vertex 508.5454813220629 479.9999999999981 530.4141104721641
  endloop
endfacet
facet normal -0.13052619222010886 0.0 0.9914448613738028
  outer loop
    vertex 507.4141104721645 476.9999999999979 528.4545186779376
    vertex 507.00000000000045 479.9999999999981 528.4000000000001
    vertex 507.00000000000045 476.9999999999979 528.4000000000001
  endloop
endfacet
facet normal -0.13052619222010886 0.0 0.9914448613738028
  outer loop
    vertex 507.00000000000045 479.9999999999981 528.4000000000001
    vertex 507.4141104721645 476.9999999999979 528.4545186779376
    vertex 507.4141104721645 479.9999999999981 528.4545186779376
  endloop
endfacet
facet normal 0.38268343236499053 0.0 0.9238795325113278
  outer loop
    vertex 506.5858895278364 476.9999999999979 528.4545186779376
    vertex 506.20000000000044 479.9999999999981 528.614359353945
    vertex 506.20000000000044 476.9999999999979 528.614359353945
  endloop
endfacet
facet normal 0.38268343236499053 0.0 0.9238795325113278
  outer loop
    vertex 506.20000000000044 479.9999999999981 528.614359353945
    vertex 506.5858895278364 476.9999999999979 528.4545186779376
    vertex 506.5858895278364 479.9999999999981 528.4545186779376
  endloop
endfacet
facet normal 0.13052619222010886 0.0 0.9914448613738028
  outer loop
    vertex 507.00000000000045 476.9999999999979 528.4000000000001
    vertex 506.5858895278364 479.9999999999981 528.4545186779376
    vertex 506.5858895278364 476.9999999999979 528.4545186779376
  endloop
endfacet
facet normal 0.13052619222010886 0.0 0.9914448613738028
  outer loop
    vertex 506.5858895278364 479.9999999999981 528.4545186779376
    vertex 507.00000000000045 476.9999999999979 528.4000000000001
    vertex 507.00000000000045 479.9999999999981 528.4000000000001
  endloop
endfacet
facet normal -0.6087614290086574 0.0 0.7933533402912838
  outer loop
    vertex 508.131370849899 476.9999999999979 528.8686291501016
    vertex 507.80000000000047 479.9999999999981 528.614359353945
    vertex 507.80000000000047 476.9999999999979 528.614359353945
  endloop
endfacet
facet normal -0.6087614290086574 0.0 0.7933533402912838
  outer loop
    vertex 507.80000000000047 479.9999999999981 528.614359353945
    vertex 508.131370849899 476.9999999999979 528.8686291501016
    vertex 508.131370849899 479.9999999999981 528.8686291501016
  endloop
endfacet
facet normal -0.7933533402912838 0.0 0.6087614290086574
  outer loop
    vertex 508.3856406460556 479.9999999999981 529.2000000000002
    vertex 508.131370849899 476.9999999999979 528.8686291501016
    vertex 508.3856406460556 476.9999999999979 529.2000000000002
  endloop
endfacet
facet normal -0.7933533402912838 0.0 0.6087614290086574
  outer loop
    vertex 508.131370849899 476.9999999999979 528.8686291501016
    vertex 508.3856406460556 479.9999999999981 529.2000000000002
    vertex 508.131370849899 479.9999999999981 528.8686291501016
  endloop
endfacet
facet normal -0.9238795325113278 0.0 0.38268343236499053
  outer loop
    vertex 508.5454813220629 479.9999999999981 529.585889527836
    vertex 508.3856406460556 476.9999999999979 529.2000000000002
    vertex 508.5454813220629 476.9999999999979 529.585889527836
  endloop
endfacet
facet normal -0.9238795325113278 0.0 0.38268343236499053
  outer loop
    vertex 508.3856406460556 476.9999999999979 529.2000000000002
    vertex 508.5454813220629 479.9999999999981 529.585889527836
    vertex 508.3856406460556 479.9999999999981 529.2000000000002
  endloop
endfacet
facet normal -0.7071067811865513 -0.7071067811865438 -1.978439161473743e-16
  outer loop
    vertex 498.5000000000005 476.9999999999979 523.5
    vertex 515.5000000000002 459.999999999998 521.5000000000001
    vertex 515.5000000000002 459.999999999998 523.4999999999999
  endloop
endfacet
facet normal -0.7071067811865513 -0.7071067811865438 -1.978439161473743e-16
  outer loop
    vertex 515.5000000000002 459.999999999998 521.5000000000001
    vertex 498.5000000000005 476.9999999999979 523.5
    vertex 498.5000000000005 476.9999999999979 521.5000000000002
  endloop
endfacet
facet normal 0.0 0.0 1.0
  outer loop
    vertex 515.5000000000003 459.999999999998 536.5000000000003
    vertex 515.5000000000002 476.9999999999979 536.5000000000003
    vertex 498.5000000000005 476.9999999999979 536.5000000000003
  endloop
endfacet
facet normal 0.7071067811865495 0.7071067811865457 0.0
  outer loop
    vertex 498.5000000000005 476.9999999999979 536.5000000000003
    vertex 515.5000000000003 459.999999999998 538.5000000000001
    vertex 515.5000000000003 459.999999999998 536.5000000000003
  endloop
endfacet
facet normal 0.7071067811865495 0.7071067811865457 0.0
  outer loop
    vertex 515.5000000000003 459.999999999998 538.5000000000001
    vertex 498.5000000000005 476.9999999999979 536.5000000000003
    vertex 498.5000000000005 476.9999999999979 538.5000000000001
  endloop
endfacet
facet normal 5.30817220244318e-15 -5.308172202443125e-15 1.0
  outer loop
    vertex 515.5000000000002 476.9999999999979 523.5
    vertex 498.5000000000005 476.9999999999979 523.5
    vertex 515.5000000000002 459.999999999998 523.4999999999999
  endloop
endfacet
facet normal 1.0 2.6540861012215693e-15 -2.6540861012215618e-15
  outer loop
    vertex 518.5000000000003 459.999999999998 521.5000000000001
    vertex 518.5000000000003 467.1143593539428 529.2000000000002
    vertex 518.5000000000003 459.999999999998 538.5000000000001
  endloop
endfacet
facet normal 1.0 2.6540861012215693e-15 -2.6540861012215618e-15
  outer loop
    vertex 518.5000000000003 467.1143593539428 529.2000000000002
    vertex 518.5000000000003 459.999999999998 521.5000000000001
    vertex 518.5000000000003 467.3686291500994 528.8686291501016
  endloop
endfacet
facet normal 1.0 2.6540861012215693e-15 -2.6540861012215618e-15
  outer loop
    vertex 518.5000000000003 467.3686291500994 528.8686291501016
    vertex 518.5000000000003 459.999999999998 521.5000000000001
    vertex 518.5000000000003 467.69999999999794 528.614359353945
  endloop
endfacet
facet normal 1.0 2.6540861012215693e-15 -2.6540861012215618e-15
  outer loop
    vertex 518.5000000000003 467.69999999999794 528.614359353945
    vertex 518.5000000000003 459.999999999998 521.5000000000001
    vertex 518.5000000000003 476.9999999999979 521.5000000000001
  endloop
endfacet
facet normal 1.0 2.6540861012215693e-15 -2.6540861012215618e-15
  outer loop
    vertex 518.5000000000003 459.999999999998 538.5000000000001
    vertex 518.5000000000003 467.1143593539428 529.2000000000002
    vertex 518.5000000000003 466.9545186779355 529.585889527836
  endloop
endfacet
facet normal 1.0 2.6540861012215693e-15 -2.6540861012215618e-15
  outer loop
    vertex 518.5000000000003 459.999999999998 538.5000000000001
    vertex 518.5000000000003 466.9545186779355 529.585889527836
    vertex 518.5000000000003 466.89999999999793 530.0000000000001
  endloop
endfacet
facet normal 1.0 2.6540861012215693e-15 -2.6540861012215618e-15
  outer loop
    vertex 518.5000000000003 467.69999999999794 528.614359353945
    vertex 518.5000000000003 476.9999999999979 521.5000000000001
    vertex 518.5000000000003 468.0858895278339 528.4545186779376
  endloop
endfacet
facet normal 1.0 2.6540861012215693e-15 -2.6540861012215618e-15
  outer loop
    vertex 518.5000000000003 468.0858895278339 528.4545186779376
    vertex 518.5000000000003 476.9999999999979 521.5000000000001
    vertex 518.5000000000003 468.49999999999795 528.4000000000001
  endloop
endfacet
facet normal 1.0 2.6540861012215693e-15 -2.6540861012215618e-15
  outer loop
    vertex 518.5000000000003 468.49999999999795 528.4000000000001
    vertex 518.5000000000003 476.9999999999979 521.5000000000001
    vertex 518.5000000000003 468.914110472162 528.4545186779376
  endloop
endfacet
facet normal 1.0 2.6540861012215693e-15 -2.6540861012215618e-15
  outer loop
    vertex 518.5000000000003 468.914110472162 528.4545186779376
    vertex 518.5000000000003 476.9999999999979 521.5000000000001
    vertex 518.5000000000003 469.29999999999797 528.614359353945
  endloop
endfacet
facet normal 1.0 2.6540861012215693e-15 -2.6540861012215618e-15
  outer loop
    vertex 518.5000000000003 469.29999999999797 528.614359353945
    vertex 518.5000000000003 476.9999999999979 521.5000000000001
    vertex 518.5000000000003 469.6313708498965 528.8686291501016
  endloop
endfacet
facet normal 1.0 2.6540861012215693e-15 -2.6540861012215618e-15
  outer loop
    vertex 518.5000000000003 469.6313708498965 528.8686291501016
    vertex 518.5000000000003 476.9999999999979 521.5000000000001
    vertex 518.5000000000003 469.88564064605305 529.2000000000002
  endloop
endfacet
facet normal 1.0 2.6540861012215693e-15 -2.6540861012215618e-15
  outer loop
    vertex 518.5000000000003 469.88564064605305 529.2000000000002
    vertex 518.5000000000003 476.9999999999979 521.5000000000001
    vertex 518.5000000000003 470.0454813220604 529.585889527836
  endloop
endfacet
facet normal 1.0 2.6540861012215693e-15 -2.6540861012215618e-15
  outer loop
    vertex 518.5000000000003 470.0454813220604 529.585889527836
    vertex 518.5000000000003 476.9999999999979 521.5000000000001
    vertex 518.5000000000003 470.0999999999979 530.0000000000001
  endloop
endfacet
facet normal 1.0 2.6540861012215693e-15 -2.6540861012215618e-15
  outer loop
    vertex 518.5000000000003 459.999999999998 538.5000000000001
    vertex 518.5000000000003 467.69999999999794 531.3856406460552
    vertex 518.5000000000003 476.9999999999979 538.5000000000001
  endloop
endfacet
facet normal 1.0 2.6540861012215693e-15 -2.6540861012215618e-15
  outer loop
    vertex 518.5000000000003 467.69999999999794 531.3856406460552
    vertex 518.5000000000003 459.999999999998 538.5000000000001
    vertex 518.5000000000003 467.3686291500994 531.1313708498986
  endloop
endfacet
facet normal 1.0 2.6540861012215693e-15 -2.6540861012215618e-15
  outer loop
    vertex 518.5000000000003 467.3686291500994 531.1313708498986
    vertex 518.5000000000003 459.999999999998 538.5000000000001
    vertex 518.5000000000003 467.1143593539428 530.8000000000001
  endloop
endfacet
facet normal 1.0 2.6540861012215693e-15 -2.6540861012215618e-15
  outer loop
    vertex 518.5000000000003 467.1143593539428 530.8000000000001
    vertex 518.5000000000003 459.999999999998 538.5000000000001
    vertex 518.5000000000003 466.9545186779355 530.4141104721641
  endloop
endfacet
facet normal 1.0 2.6540861012215693e-15 -2.6540861012215618e-15
  outer loop
    vertex 518.5000000000003 466.9545186779355 530.4141104721641
    vertex 518.5000000000003 459.999999999998 538.5000000000001
    vertex 518.5000000000003 466.89999999999793 530.0000000000001
  endloop
endfacet
facet normal 1.0 2.6540861012215693e-15 -2.6540861012215618e-15
  outer loop
    vertex 518.5000000000003 476.9999999999979 538.5000000000001
    vertex 518.5000000000003 467.69999999999794 531.3856406460552
    vertex 518.5000000000003 468.0858895278339 531.5454813220626
  endloop
endfacet
facet normal 1.0 2.6540861012215693e-15 -2.6540861012215618e-15
  outer loop
    vertex 518.5000000000003 476.9999999999979 538.5000000000001
    vertex 518.5000000000003 468.0858895278339 531.5454813220626
    vertex 518.5000000000003 468.49999999999795 531.6000000000001
  endloop
endfacet
facet normal 1.0 2.6540861012215693e-15 -2.6540861012215618e-15
  outer loop
    vertex 518.5000000000003 476.9999999999979 538.5000000000001
    vertex 518.5000000000003 468.49999999999795 531.6000000000001
    vertex 518.5000000000003 468.914110472162 531.5454813220626
  endloop
endfacet
facet normal 1.0 2.6540861012215693e-15 -2.6540861012215618e-15
  outer loop
    vertex 518.5000000000003 476.9999999999979 538.5000000000001
    vertex 518.5000000000003 468.914110472162 531.5454813220626
    vertex 518.5000000000003 469.29999999999797 531.3856406460552
  endloop
endfacet
facet normal 1.0 2.6540861012215693e-15 -2.6540861012215618e-15
  outer loop
    vertex 518.5000000000003 476.9999999999979 538.5000000000001
    vertex 518.5000000000003 469.29999999999797 531.3856406460552
    vertex 518.5000000000003 469.6313708498965 531.1313708498986
  endloop
endfacet
facet normal 1.0 2.6540861012215693e-15 -2.6540861012215618e-15
  outer loop
    vertex 518.5000000000003 476.9999999999979 538.5000000000001
    vertex 518.5000000000003 469.6313708498965 531.1313708498986
    vertex 518.5000000000003 469.88564064605305 530.8000000000001
  endloop
endfacet
facet normal 1.0 2.6540861012215693e-15 -2.6540861012215618e-15
  outer loop
    vertex 518.5000000000003 476.9999999999979 538.5000000000001
    vertex 518.5000000000003 469.88564064605305 530.8000000000001
    vertex 518.5000000000003 470.0454813220604 530.4141104721641
  endloop
endfacet
facet normal 1.0 2.6540861012215693e-15 -2.6540861012215618e-15
  outer loop
    vertex 518.5000000000003 476.9999999999979 538.5000000000001
    vertex 518.5000000000003 470.0454813220604 530.4141104721641
    vertex 518.5000000000003 470.0999999999979 530.0000000000001
  endloop
endfacet
facet normal 1.0 2.6540861012215693e-15 -2.6540861012215618e-15
  outer loop
    vertex 518.5000000000003 476.9999999999979 538.5000000000001
    vertex 518.5000000000003 470.0999999999979 530.0000000000001
    vertex 518.5000000000003 476.9999999999979 521.5000000000001
  endloop
endfacet
facet normal 0.0 -1.0 0.0
  outer loop
    vertex 518.5000000000003 459.999999999998 538.5000000000001
    vertex 515.5000000000002 459.999999999998 521.5000000000001
    vertex 518.5000000000003 459.999999999998 521.5000000000001
  endloop
endfacet
facet normal 0.0 -1.0 0.0
  outer loop
    vertex 515.5000000000002 459.999999999998 521.5000000000001
    vertex 518.5000000000003 459.999999999998 538.5000000000001
    vertex 515.5000000000002 459.999999999998 523.4999999999999
  endloop
endfacet
facet normal 0.0 -1.0 0.0
  outer loop
    vertex 515.5000000000002 459.999999999998 523.4999999999999
    vertex 518.5000000000003 459.999999999998 538.5000000000001
    vertex 515.5000000000003 459.999999999998 536.5000000000003
  endloop
endfacet
facet normal 0.0 -1.0 0.0
  outer loop
    vertex 515.5000000000003 459.999999999998 536.5000000000003
    vertex 518.5000000000003 459.999999999998 538.5000000000001
    vertex 515.5000000000003 459.999999999998 538.5000000000001
  endloop
endfacet
facet normal -0.0 -0.38268343236499053 -0.9238795325113278
  outer loop
    vertex 518.5000000000003 469.29999999999797 531.3856406460552
    vertex 515.5000000000002 468.914110472162 531.5454813220626
    vertex 515.5000000000002 469.29999999999797 531.3856406460552
  endloop
endfacet
facet normal -0.0 -0.38268343236499053 -0.9238795325113278
  outer loop
    vertex 515.5000000000002 468.914110472162 531.5454813220626
    vertex 518.5000000000003 469.29999999999797 531.3856406460552
    vertex 518.5000000000003 468.914110472162 531.5454813220626
  endloop
endfacet
facet normal 0.0 0.13052619222010886 -0.9914448613738028
  outer loop
    vertex 518.5000000000003 468.49999999999795 531.6000000000001
    vertex 515.5000000000002 468.0858895278339 531.5454813220626
    vertex 515.5000000000002 468.49999999999795 531.6000000000001
  endloop
endfacet
facet normal 0.0 0.13052619222010886 -0.9914448613738028
  outer loop
    vertex 515.5000000000002 468.0858895278339 531.5454813220626
    vertex 518.5000000000003 468.49999999999795 531.6000000000001
    vertex 518.5000000000003 468.0858895278339 531.5454813220626
  endloop
endfacet
facet normal -2.1557458000462994e-15 7.69058178290567e-15 -1.0
  outer loop
    vertex 518.5000000000003 479.99999999999795 521.5000000000002
    vertex 498.5000000000005 476.9999999999979 521.5000000000002
    vertex 498.5000000000005 479.99999999999795 521.5000000000002
  endloop
endfacet
facet normal -2.1557458000462994e-15 7.69058178290567e-15 -1.0
  outer loop
    vertex 498.5000000000005 476.9999999999979 521.5000000000002
    vertex 518.5000000000003 479.99999999999795 521.5000000000002
    vertex 515.5000000000002 459.999999999998 521.5000000000001
  endloop
endfacet
facet normal -2.1557458000462994e-15 7.69058178290567e-15 -1.0
  outer loop
    vertex 515.5000000000002 459.999999999998 521.5000000000001
    vertex 518.5000000000003 479.99999999999795 521.5000000000002
    vertex 518.5000000000003 459.999999999998 521.5000000000001
  endloop
endfacet
facet normal -2.1557458000462994e-15 7.69058178290567e-15 -1.0
  outer loop
    vertex 518.5000000000003 459.999999999998 521.5000000000001
    vertex 518.5000000000003 479.99999999999795 521.5000000000002
    vertex 518.5000000000003 476.9999999999979 521.5000000000001
  endloop
endfacet
facet normal -0.0 -0.13052619222010886 -0.9914448613738028
  outer loop
    vertex 518.5000000000003 468.914110472162 531.5454813220626
    vertex 515.5000000000002 468.49999999999795 531.6000000000001
    vertex 515.5000000000002 468.914110472162 531.5454813220626
  endloop
endfacet
facet normal -0.0 -0.13052619222010886 -0.9914448613738028
  outer loop
    vertex 515.5000000000002 468.49999999999795 531.6000000000001
    vertex 518.5000000000003 468.914110472162 531.5454813220626
    vertex 518.5000000000003 468.49999999999795 531.6000000000001
  endloop
endfacet
facet normal 0.0 0.38268343236499053 -0.9238795325113278
  outer loop
    vertex 518.5000000000003 468.0858895278339 531.5454813220626
    vertex 515.5000000000002 467.69999999999794 531.3856406460552
    vertex 515.5000000000002 468.0858895278339 531.5454813220626
  endloop
endfacet
facet normal 0.0 0.38268343236499053 -0.9238795325113278
  outer loop
    vertex 515.5000000000002 467.69999999999794 531.3856406460552
    vertex 518.5000000000003 468.0858895278339 531.5454813220626
    vertex 518.5000000000003 467.69999999999794 531.3856406460552
  endloop
endfacet
facet normal -0.0 -0.6087614290086574 -0.7933533402912838
  outer loop
    vertex 518.5000000000003 469.6313708498965 531.1313708498986
    vertex 515.5000000000002 469.29999999999797 531.3856406460552
    vertex 515.5000000000002 469.6313708498965 531.1313708498986
  endloop
endfacet
facet normal -0.0 -0.6087614290086574 -0.7933533402912838
  outer loop
    vertex 515.5000000000002 469.29999999999797 531.3856406460552
    vertex 518.5000000000003 469.6313708498965 531.1313708498986
    vertex 518.5000000000003 469.29999999999797 531.3856406460552
  endloop
endfacet
endsolid Ender 5 Clone
