solid Bed Inside Rails
facet normal 0.0 0.0 -1.0
  outer loop
    vertex 30.903178599445436 -85.62268547868632 0.0
    vertex 30.903178599445436 -88.72851401991657 0.0
    vertex 30.698733557179843 -87.17559974930145 0.0
  endloop
endfacet
facet normal 0.0 0.0 -1.0
  outer loop
    vertex 30.903178599445436 -88.72851401991657 0.0
    vertex 30.903178599445436 -85.62268547868632 0.0
    vertex 31.502581134473214 -84.17559974930144 0.0
  endloop
endfacet
facet normal 0.0 0.0 -1.0
  outer loop
    vertex 30.903178599445436 -88.72851401991657 0.0
    vertex 31.502581134473214 -84.17559974930144 0.0
    vertex 31.50258113447321 -90.17559974930144 0.0
  endloop
endfacet
facet normal 0.0 0.0 -1.0
  outer loop
    vertex 31.50258113447321 -90.17559974930144 0.0
    vertex 31.502581134473214 -84.17559974930144 0.0
    vertex 32.45609287006056 -91.41824043642073 0.0
  endloop
endfacet
facet normal 0.0 0.0 -1.0
  outer loop
    vertex 32.45609287006056 -91.41824043642073 0.0
    vertex 31.502581134473214 -84.17559974930144 0.0
    vertex 32.45609287006056 -82.93295906218216 0.0
  endloop
endfacet
facet normal 0.0 0.0 -1.0
  outer loop
    vertex 32.45609287006056 -91.41824043642073 0.0
    vertex 32.45609287006056 -82.93295906218216 0.0
    vertex 33.69873355717984 -81.97944732659482 0.0
  endloop
endfacet
facet normal 0.0 0.0 -1.0
  outer loop
    vertex 32.45609287006056 -91.41824043642073 0.0
    vertex 33.69873355717984 -81.97944732659482 0.0
    vertex 33.69873355717984 -92.37175217200809 0.0
  endloop
endfacet
facet normal 0.0 0.0 -1.0
  outer loop
    vertex 33.69873355717984 -92.37175217200809 0.0
    vertex 33.69873355717984 -81.97944732659482 0.0
    vertex 35.145819286564716 -81.38004479156704 0.0
  endloop
endfacet
facet normal 0.0 0.0 -1.0
  outer loop
    vertex 33.69873355717984 -92.37175217200809 0.0
    vertex 35.145819286564716 -81.38004479156704 0.0
    vertex 34.548733557179844 -87.17559974930145 0.0
  endloop
endfacet
facet normal 0.0 0.0 -1.0
  outer loop
    vertex 34.548733557179844 -87.17559974930145 0.0
    vertex 35.145819286564716 -81.38004479156704 0.0
    vertex 34.621993030658345 -86.61913880233102 0.0
  endloop
endfacet
facet normal 0.0 0.0 -1.0
  outer loop
    vertex 34.621993030658345 -86.61913880233102 0.0
    vertex 35.145819286564716 -81.38004479156704 0.0
    vertex 34.8367789390433 -86.10059974930145 0.0
  endloop
endfacet
facet normal 0.0 0.0 -1.0
  outer loop
    vertex 34.8367789390433 -86.10059974930145 0.0
    vertex 35.145819286564716 -81.38004479156704 0.0
    vertex 35.17845397762876 -85.65532016975037 0.0
  endloop
endfacet
facet normal 0.0 0.0 -1.0
  outer loop
    vertex 35.17845397762876 -85.65532016975037 0.0
    vertex 35.145819286564716 -81.38004479156704 0.0
    vertex 36.69873355717984 -81.17559974930145 0.0
  endloop
endfacet
facet normal 0.0 0.0 -1.0
  outer loop
    vertex 35.17845397762876 -85.65532016975037 0.0
    vertex 36.69873355717984 -81.17559974930145 0.0
    vertex 35.62373355717985 -85.3136451311649 0.0
  endloop
endfacet
facet normal 0.0 0.0 -1.0
  outer loop
    vertex 35.62373355717985 -85.3136451311649 0.0
    vertex 36.69873355717984 -81.17559974930145 0.0
    vertex 36.142272610209424 -85.09885922277996 0.0
  endloop
endfacet
facet normal 0.0 0.0 -1.0
  outer loop
    vertex 36.142272610209424 -85.09885922277996 0.0
    vertex 36.69873355717984 -81.17559974930145 0.0
    vertex 36.69873355717984 -85.02559974930145 0.0
  endloop
endfacet
facet normal 0.0 0.0 -1.0
  outer loop
    vertex 36.69873355717984 -85.02559974930145 0.0
    vertex 36.69873355717984 -81.17559974930145 0.0
    vertex 38.251647827794976 -81.38004479156704 0.0
  endloop
endfacet
facet normal 0.0 0.0 -1.0
  outer loop
    vertex 36.69873355717984 -85.02559974930145 0.0
    vertex 38.251647827794976 -81.38004479156704 0.0
    vertex 37.25519450415027 -85.09885922277996 0.0
  endloop
endfacet
facet normal 0.0 0.0 -1.0
  outer loop
    vertex 37.25519450415027 -85.09885922277996 0.0
    vertex 38.251647827794976 -81.38004479156704 0.0
    vertex 37.773733557179845 -85.3136451311649 0.0
  endloop
endfacet
facet normal 0.0 0.0 -1.0
  outer loop
    vertex 37.773733557179845 -85.3136451311649 0.0
    vertex 38.251647827794976 -81.38004479156704 0.0
    vertex 38.21901313673092 -85.65532016975037 0.0
  endloop
endfacet
facet normal 0.0 0.0 -1.0
  outer loop
    vertex 38.21901313673092 -85.65532016975037 0.0
    vertex 38.251647827794976 -81.38004479156704 0.0
    vertex 38.56068817531639 -86.10059974930145 0.0
  endloop
endfacet
facet normal 0.0 0.0 -1.0
  outer loop
    vertex 38.56068817531639 -86.10059974930145 0.0
    vertex 38.251647827794976 -81.38004479156704 0.0
    vertex 39.69873355717985 -81.97944732659482 0.0
  endloop
endfacet
facet normal 0.0 0.0 -1.0
  outer loop
    vertex 38.56068817531639 -86.10059974930145 0.0
    vertex 39.69873355717985 -81.97944732659482 0.0
    vertex 38.77547408370134 -86.61913880233102 0.0
  endloop
endfacet
facet normal 0.0 0.0 -1.0
  outer loop
    vertex 38.77547408370134 -86.61913880233102 0.0
    vertex 39.69873355717985 -81.97944732659482 0.0
    vertex 38.84873355717985 -87.17559974930145 0.0
  endloop
endfacet
facet normal 0.0 0.0 -1.0
  outer loop
    vertex 38.84873355717985 -87.17559974930145 0.0
    vertex 39.69873355717985 -81.97944732659482 0.0
    vertex 39.69873355717984 -92.37175217200809 0.0
  endloop
endfacet
facet normal 0.0 0.0 -1.0
  outer loop
    vertex 39.69873355717984 -92.37175217200809 0.0
    vertex 39.69873355717985 -81.97944732659482 0.0
    vertex 40.941374244299126 -91.41824043642073 0.0
  endloop
endfacet
facet normal 0.0 0.0 -1.0
  outer loop
    vertex 40.941374244299126 -91.41824043642073 0.0
    vertex 39.69873355717985 -81.97944732659482 0.0
    vertex 40.941374244299126 -82.93295906218216 0.0
  endloop
endfacet
facet normal 0.0 0.0 -1.0
  outer loop
    vertex 40.941374244299126 -91.41824043642073 0.0
    vertex 40.941374244299126 -82.93295906218216 0.0
    vertex 41.89488597988648 -84.17559974930145 0.0
  endloop
endfacet
facet normal 0.0 0.0 -1.0
  outer loop
    vertex 40.941374244299126 -91.41824043642073 0.0
    vertex 41.89488597988648 -84.17559974930145 0.0
    vertex 41.894885979886475 -90.17559974930145 0.0
  endloop
endfacet
facet normal 0.0 0.0 -1.0
  outer loop
    vertex 41.894885979886475 -90.17559974930145 0.0
    vertex 41.89488597988648 -84.17559974930145 0.0
    vertex 42.49428851491425 -88.72851401991657 0.0
  endloop
endfacet
facet normal 0.0 0.0 -1.0
  outer loop
    vertex 42.49428851491425 -88.72851401991657 0.0
    vertex 41.89488597988648 -84.17559974930145 0.0
    vertex 42.49428851491425 -85.62268547868632 0.0
  endloop
endfacet
facet normal 0.0 0.0 -1.0
  outer loop
    vertex 42.49428851491425 -88.72851401991657 0.0
    vertex 42.49428851491425 -85.62268547868632 0.0
    vertex 42.69873355717984 -87.17559974930145 0.0
  endloop
endfacet
facet normal 0.0 0.0 -1.0
  outer loop
    vertex 34.548733557179844 -87.17559974930145 0.0
    vertex 35.145819286564716 -92.97115470703586 0.0
    vertex 33.69873355717984 -92.37175217200809 0.0
  endloop
endfacet
facet normal 0.0 0.0 -1.0
  outer loop
    vertex 35.145819286564716 -92.97115470703586 0.0
    vertex 34.548733557179844 -87.17559974930145 0.0
    vertex 34.621993030658345 -87.73206069627187 0.0
  endloop
endfacet
facet normal 0.0 0.0 -1.0
  outer loop
    vertex 35.145819286564716 -92.97115470703586 0.0
    vertex 34.621993030658345 -87.73206069627187 0.0
    vertex 34.8367789390433 -88.25059974930146 0.0
  endloop
endfacet
facet normal 0.0 0.0 -1.0
  outer loop
    vertex 35.145819286564716 -92.97115470703586 0.0
    vertex 34.8367789390433 -88.25059974930146 0.0
    vertex 35.17845397762876 -88.69587932885253 0.0
  endloop
endfacet
facet normal 0.0 0.0 -1.0
  outer loop
    vertex 35.145819286564716 -92.97115470703586 0.0
    vertex 35.17845397762876 -88.69587932885253 0.0
    vertex 36.69873355717984 -93.17559974930145 0.0
  endloop
endfacet
facet normal 0.0 0.0 -1.0
  outer loop
    vertex 36.69873355717984 -93.17559974930145 0.0
    vertex 35.17845397762876 -88.69587932885253 0.0
    vertex 35.62373355717984 -89.03755436743799 0.0
  endloop
endfacet
facet normal 0.0 0.0 -1.0
  outer loop
    vertex 36.69873355717984 -93.17559974930145 0.0
    vertex 35.62373355717984 -89.03755436743799 0.0
    vertex 36.142272610209424 -89.25234027582295 0.0
  endloop
endfacet
facet normal 0.0 0.0 -1.0
  outer loop
    vertex 36.69873355717984 -93.17559974930145 0.0
    vertex 36.142272610209424 -89.25234027582295 0.0
    vertex 36.69873355717984 -89.32559974930146 0.0
  endloop
endfacet
facet normal 0.0 0.0 -1.0
  outer loop
    vertex 36.69873355717984 -93.17559974930145 0.0
    vertex 36.69873355717984 -89.32559974930146 0.0
    vertex 37.25519450415027 -89.25234027582296 0.0
  endloop
endfacet
facet normal 0.0 0.0 -1.0
  outer loop
    vertex 36.69873355717984 -93.17559974930145 0.0
    vertex 37.25519450415027 -89.25234027582296 0.0
    vertex 38.25164782779496 -92.97115470703586 0.0
  endloop
endfacet
facet normal 0.0 0.0 -1.0
  outer loop
    vertex 38.25164782779496 -92.97115470703586 0.0
    vertex 37.25519450415027 -89.25234027582296 0.0
    vertex 37.773733557179845 -89.03755436743799 0.0
  endloop
endfacet
facet normal 0.0 0.0 -1.0
  outer loop
    vertex 38.25164782779496 -92.97115470703586 0.0
    vertex 37.773733557179845 -89.03755436743799 0.0
    vertex 38.21901313673092 -88.69587932885253 0.0
  endloop
endfacet
facet normal 0.0 0.0 -1.0
  outer loop
    vertex 38.25164782779496 -92.97115470703586 0.0
    vertex 38.21901313673092 -88.69587932885253 0.0
    vertex 38.560688175316386 -88.25059974930146 0.0
  endloop
endfacet
facet normal 0.0 0.0 -1.0
  outer loop
    vertex 38.25164782779496 -92.97115470703586 0.0
    vertex 38.560688175316386 -88.25059974930146 0.0
    vertex 39.69873355717984 -92.37175217200809 0.0
  endloop
endfacet
facet normal 0.0 0.0 -1.0
  outer loop
    vertex 39.69873355717984 -92.37175217200809 0.0
    vertex 38.560688175316386 -88.25059974930146 0.0
    vertex 38.77547408370134 -87.73206069627187 0.0
  endloop
endfacet
facet normal 0.0 0.0 -1.0
  outer loop
    vertex 39.69873355717984 -92.37175217200809 0.0
    vertex 38.77547408370134 -87.73206069627187 0.0
    vertex 38.84873355717985 -87.17559974930145 0.0
  endloop
endfacet
facet normal -0.13052619222005168 0.9914448613738105 0.0
  outer loop
    vertex 35.145819286564716 -81.38004479156704 1.5
    vertex 36.69873355717984 -81.17559974930145 0.0
    vertex 35.145819286564716 -81.38004479156704 0.0
  endloop
endfacet
facet normal -0.13052619222005168 0.9914448613738105 0.0
  outer loop
    vertex 36.69873355717984 -81.17559974930145 0.0
    vertex 35.145819286564716 -81.38004479156704 1.5
    vertex 36.69873355717984 -81.17559974930145 1.5
  endloop
endfacet
facet normal 0.13052619222005124 0.9914448613738106 0.0
  outer loop
    vertex 36.69873355717984 -81.17559974930145 1.5
    vertex 38.251647827794976 -81.38004479156704 0.0
    vertex 36.69873355717984 -81.17559974930145 0.0
  endloop
endfacet
facet normal 0.13052619222005124 0.9914448613738106 0.0
  outer loop
    vertex 38.251647827794976 -81.38004479156704 0.0
    vertex 36.69873355717984 -81.17559974930145 1.5
    vertex 38.251647827794976 -81.38004479156704 1.5
  endloop
endfacet
facet normal 0.3826834323650882 0.9238795325112874 0.0
  outer loop
    vertex 38.251647827794976 -81.38004479156704 1.5
    vertex 39.69873355717985 -81.97944732659482 0.0
    vertex 38.251647827794976 -81.38004479156704 0.0
  endloop
endfacet
facet normal 0.3826834323650882 0.9238795325112874 0.0
  outer loop
    vertex 39.69873355717985 -81.97944732659482 0.0
    vertex 38.251647827794976 -81.38004479156704 1.5
    vertex 39.69873355717985 -81.97944732659482 1.5
  endloop
endfacet
facet normal -0.0 -0.0 1.0
  outer loop
    vertex 30.903178599445436 -88.72851401991657 1.5
    vertex 30.903178599445436 -85.62268547868632 1.5
    vertex 30.698733557179843 -87.17559974930145 1.5
  endloop
endfacet
facet normal -0.0 -0.0 1.0
  outer loop
    vertex 30.903178599445436 -85.62268547868632 1.5
    vertex 30.903178599445436 -88.72851401991657 1.5
    vertex 31.50258113447321 -90.17559974930144 1.5
  endloop
endfacet
facet normal -0.0 -0.0 1.0
  outer loop
    vertex 30.903178599445436 -85.62268547868632 1.5
    vertex 31.50258113447321 -90.17559974930144 1.5
    vertex 31.502581134473214 -84.17559974930144 1.5
  endloop
endfacet
facet normal -0.0 -0.0 1.0
  outer loop
    vertex 31.502581134473214 -84.17559974930144 1.5
    vertex 31.50258113447321 -90.17559974930144 1.5
    vertex 32.45609287006056 -91.41824043642073 1.5
  endloop
endfacet
facet normal -0.0 -0.0 1.0
  outer loop
    vertex 31.502581134473214 -84.17559974930144 1.5
    vertex 32.45609287006056 -91.41824043642073 1.5
    vertex 32.45609287006056 -82.93295906218216 1.5
  endloop
endfacet
facet normal -0.0 -0.0 1.0
  outer loop
    vertex 32.45609287006056 -82.93295906218216 1.5
    vertex 32.45609287006056 -91.41824043642073 1.5
    vertex 33.69873355717984 -92.37175217200809 1.5
  endloop
endfacet
facet normal -0.0 -0.0 1.0
  outer loop
    vertex 32.45609287006056 -82.93295906218216 1.5
    vertex 33.69873355717984 -92.37175217200809 1.5
    vertex 33.69873355717984 -81.97944732659482 1.5
  endloop
endfacet
facet normal -0.0 -0.0 1.0
  outer loop
    vertex 33.69873355717984 -81.97944732659482 1.5
    vertex 33.69873355717984 -92.37175217200809 1.5
    vertex 35.145819286564716 -92.97115470703586 1.5
  endloop
endfacet
facet normal -0.0 -0.0 1.0
  outer loop
    vertex 33.69873355717984 -81.97944732659482 1.5
    vertex 35.145819286564716 -92.97115470703586 1.5
    vertex 34.548733557179844 -87.17559974930145 1.5
  endloop
endfacet
facet normal -0.0 -0.0 1.0
  outer loop
    vertex 34.548733557179844 -87.17559974930145 1.5
    vertex 35.145819286564716 -92.97115470703586 1.5
    vertex 34.621993030658345 -87.73206069627187 1.5
  endloop
endfacet
facet normal -0.0 -0.0 1.0
  outer loop
    vertex 34.621993030658345 -87.73206069627187 1.5
    vertex 35.145819286564716 -92.97115470703586 1.5
    vertex 34.8367789390433 -88.25059974930146 1.5
  endloop
endfacet
facet normal -0.0 -0.0 1.0
  outer loop
    vertex 34.8367789390433 -88.25059974930146 1.5
    vertex 35.145819286564716 -92.97115470703586 1.5
    vertex 35.17845397762876 -88.69587932885253 1.5
  endloop
endfacet
facet normal -0.0 -0.0 1.0
  outer loop
    vertex 35.17845397762876 -88.69587932885253 1.5
    vertex 35.145819286564716 -92.97115470703586 1.5
    vertex 36.69873355717984 -93.17559974930145 1.5
  endloop
endfacet
facet normal -0.0 -0.0 1.0
  outer loop
    vertex 35.17845397762876 -88.69587932885253 1.5
    vertex 36.69873355717984 -93.17559974930145 1.5
    vertex 35.62373355717984 -89.03755436743799 1.5
  endloop
endfacet
facet normal -0.0 -0.0 1.0
  outer loop
    vertex 35.62373355717984 -89.03755436743799 1.5
    vertex 36.69873355717984 -93.17559974930145 1.5
    vertex 36.142272610209424 -89.25234027582295 1.5
  endloop
endfacet
facet normal -0.0 -0.0 1.0
  outer loop
    vertex 36.142272610209424 -89.25234027582295 1.5
    vertex 36.69873355717984 -93.17559974930145 1.5
    vertex 36.69873355717984 -89.32559974930146 1.5
  endloop
endfacet
facet normal -0.0 -0.0 1.0
  outer loop
    vertex 36.69873355717984 -89.32559974930146 1.5
    vertex 36.69873355717984 -93.17559974930145 1.5
    vertex 38.25164782779496 -92.97115470703586 1.5
  endloop
endfacet
facet normal -0.0 -0.0 1.0
  outer loop
    vertex 36.69873355717984 -89.32559974930146 1.5
    vertex 38.25164782779496 -92.97115470703586 1.5
    vertex 37.25519450415027 -89.25234027582296 1.5
  endloop
endfacet
facet normal -0.0 -0.0 1.0
  outer loop
    vertex 37.25519450415027 -89.25234027582296 1.5
    vertex 38.25164782779496 -92.97115470703586 1.5
    vertex 37.773733557179845 -89.03755436743799 1.5
  endloop
endfacet
facet normal -0.0 -0.0 1.0
  outer loop
    vertex 37.773733557179845 -89.03755436743799 1.5
    vertex 38.25164782779496 -92.97115470703586 1.5
    vertex 38.21901313673092 -88.69587932885253 1.5
  endloop
endfacet
facet normal -0.0 -0.0 1.0
  outer loop
    vertex 38.21901313673092 -88.69587932885253 1.5
    vertex 38.25164782779496 -92.97115470703586 1.5
    vertex 38.560688175316386 -88.25059974930146 1.5
  endloop
endfacet
facet normal -0.0 -0.0 1.0
  outer loop
    vertex 38.560688175316386 -88.25059974930146 1.5
    vertex 38.25164782779496 -92.97115470703586 1.5
    vertex 39.69873355717984 -92.37175217200809 1.5
  endloop
endfacet
facet normal -0.0 -0.0 1.0
  outer loop
    vertex 38.560688175316386 -88.25059974930146 1.5
    vertex 39.69873355717984 -92.37175217200809 1.5
    vertex 38.77547408370134 -87.73206069627187 1.5
  endloop
endfacet
facet normal -0.0 -0.0 1.0
  outer loop
    vertex 38.77547408370134 -87.73206069627187 1.5
    vertex 39.69873355717984 -92.37175217200809 1.5
    vertex 38.84873355717985 -87.17559974930145 1.5
  endloop
endfacet
facet normal -0.0 -0.0 1.0
  outer loop
    vertex 34.548733557179844 -87.17559974930145 1.5
    vertex 35.145819286564716 -81.38004479156704 1.5
    vertex 33.69873355717984 -81.97944732659482 1.5
  endloop
endfacet
facet normal -0.0 -0.0 1.0
  outer loop
    vertex 35.145819286564716 -81.38004479156704 1.5
    vertex 34.548733557179844 -87.17559974930145 1.5
    vertex 34.621993030658345 -86.61913880233102 1.5
  endloop
endfacet
facet normal -0.0 -0.0 1.0
  outer loop
    vertex 35.145819286564716 -81.38004479156704 1.5
    vertex 34.621993030658345 -86.61913880233102 1.5
    vertex 34.8367789390433 -86.10059974930145 1.5
  endloop
endfacet
facet normal -0.0 -0.0 1.0
  outer loop
    vertex 35.145819286564716 -81.38004479156704 1.5
    vertex 34.8367789390433 -86.10059974930145 1.5
    vertex 35.17845397762876 -85.65532016975037 1.5
  endloop
endfacet
facet normal -0.0 -0.0 1.0
  outer loop
    vertex 35.145819286564716 -81.38004479156704 1.5
    vertex 35.17845397762876 -85.65532016975037 1.5
    vertex 36.69873355717984 -81.17559974930145 1.5
  endloop
endfacet
facet normal -0.0 -0.0 1.0
  outer loop
    vertex 36.69873355717984 -81.17559974930145 1.5
    vertex 35.17845397762876 -85.65532016975037 1.5
    vertex 35.62373355717985 -85.3136451311649 1.5
  endloop
endfacet
facet normal -0.0 -0.0 1.0
  outer loop
    vertex 36.69873355717984 -81.17559974930145 1.5
    vertex 35.62373355717985 -85.3136451311649 1.5
    vertex 36.142272610209424 -85.09885922277996 1.5
  endloop
endfacet
facet normal -0.0 -0.0 1.0
  outer loop
    vertex 36.69873355717984 -81.17559974930145 1.5
    vertex 36.142272610209424 -85.09885922277996 1.5
    vertex 36.69873355717984 -85.02559974930145 1.5
  endloop
endfacet
facet normal -0.0 -0.0 1.0
  outer loop
    vertex 36.69873355717984 -81.17559974930145 1.5
    vertex 36.69873355717984 -85.02559974930145 1.5
    vertex 37.25519450415027 -85.09885922277996 1.5
  endloop
endfacet
facet normal -0.0 -0.0 1.0
  outer loop
    vertex 36.69873355717984 -81.17559974930145 1.5
    vertex 37.25519450415027 -85.09885922277996 1.5
    vertex 38.251647827794976 -81.38004479156704 1.5
  endloop
endfacet
facet normal -0.0 -0.0 1.0
  outer loop
    vertex 38.251647827794976 -81.38004479156704 1.5
    vertex 37.25519450415027 -85.09885922277996 1.5
    vertex 37.773733557179845 -85.3136451311649 1.5
  endloop
endfacet
facet normal -0.0 -0.0 1.0
  outer loop
    vertex 38.251647827794976 -81.38004479156704 1.5
    vertex 37.773733557179845 -85.3136451311649 1.5
    vertex 38.21901313673092 -85.65532016975037 1.5
  endloop
endfacet
facet normal -0.0 -0.0 1.0
  outer loop
    vertex 38.251647827794976 -81.38004479156704 1.5
    vertex 38.21901313673092 -85.65532016975037 1.5
    vertex 38.56068817531639 -86.10059974930145 1.5
  endloop
endfacet
facet normal -0.0 -0.0 1.0
  outer loop
    vertex 38.251647827794976 -81.38004479156704 1.5
    vertex 38.56068817531639 -86.10059974930145 1.5
    vertex 39.69873355717985 -81.97944732659482 1.5
  endloop
endfacet
facet normal -0.0 -0.0 1.0
  outer loop
    vertex 39.69873355717985 -81.97944732659482 1.5
    vertex 38.56068817531639 -86.10059974930145 1.5
    vertex 38.77547408370134 -86.61913880233102 1.5
  endloop
endfacet
facet normal -0.0 -0.0 1.0
  outer loop
    vertex 39.69873355717985 -81.97944732659482 1.5
    vertex 38.77547408370134 -86.61913880233102 1.5
    vertex 38.84873355717985 -87.17559974930145 1.5
  endloop
endfacet
facet normal -0.0 -0.0 1.0
  outer loop
    vertex 39.69873355717985 -81.97944732659482 1.5
    vertex 38.84873355717985 -87.17559974930145 1.5
    vertex 39.69873355717984 -92.37175217200809 1.5
  endloop
endfacet
facet normal -0.0 -0.0 1.0
  outer loop
    vertex 39.69873355717985 -81.97944732659482 1.5
    vertex 39.69873355717984 -92.37175217200809 1.5
    vertex 40.941374244299126 -91.41824043642073 1.5
  endloop
endfacet
facet normal -0.0 -0.0 1.0
  outer loop
    vertex 39.69873355717985 -81.97944732659482 1.5
    vertex 40.941374244299126 -91.41824043642073 1.5
    vertex 40.941374244299126 -82.93295906218216 1.5
  endloop
endfacet
facet normal -0.0 -0.0 1.0
  outer loop
    vertex 40.941374244299126 -82.93295906218216 1.5
    vertex 40.941374244299126 -91.41824043642073 1.5
    vertex 41.894885979886475 -90.17559974930145 1.5
  endloop
endfacet
facet normal -0.0 -0.0 1.0
  outer loop
    vertex 40.941374244299126 -82.93295906218216 1.5
    vertex 41.894885979886475 -90.17559974930145 1.5
    vertex 41.89488597988648 -84.17559974930145 1.5
  endloop
endfacet
facet normal -0.0 -0.0 1.0
  outer loop
    vertex 41.89488597988648 -84.17559974930145 1.5
    vertex 41.894885979886475 -90.17559974930145 1.5
    vertex 42.49428851491425 -88.72851401991657 1.5
  endloop
endfacet
facet normal -0.0 -0.0 1.0
  outer loop
    vertex 41.89488597988648 -84.17559974930145 1.5
    vertex 42.49428851491425 -88.72851401991657 1.5
    vertex 42.49428851491425 -85.62268547868632 1.5
  endloop
endfacet
facet normal -0.0 -0.0 1.0
  outer loop
    vertex 42.49428851491425 -85.62268547868632 1.5
    vertex 42.49428851491425 -88.72851401991657 1.5
    vertex 42.69873355717984 -87.17559974930145 1.5
  endloop
endfacet
facet normal 0.38268343236508867 -0.9238795325112874 0.0
  outer loop
    vertex 36.142272610209424 -85.09885922277996 1.5
    vertex 35.62373355717985 -85.3136451311649 0.0
    vertex 36.142272610209424 -85.09885922277996 0.0
  endloop
endfacet
facet normal 0.38268343236508867 -0.9238795325112874 0.0
  outer loop
    vertex 35.62373355717985 -85.3136451311649 0.0
    vertex 36.142272610209424 -85.09885922277996 1.5
    vertex 35.62373355717985 -85.3136451311649 1.5
  endloop
endfacet
facet normal 0.7933533402912321 -0.6087614290087249 0.0
  outer loop
    vertex 35.17845397762876 -85.65532016975037 0.0
    vertex 34.8367789390433 -86.10059974930145 1.5
    vertex 34.8367789390433 -86.10059974930145 0.0
  endloop
endfacet
facet normal 0.7933533402912321 -0.6087614290087249 0.0
  outer loop
    vertex 34.8367789390433 -86.10059974930145 1.5
    vertex 35.17845397762876 -85.65532016975037 0.0
    vertex 35.17845397762876 -85.65532016975037 1.5
  endloop
endfacet
facet normal 0.6087614290087243 0.7933533402912326 0.0
  outer loop
    vertex 39.69873355717985 -81.97944732659482 1.5
    vertex 40.941374244299126 -82.93295906218216 0.0
    vertex 39.69873355717985 -81.97944732659482 0.0
  endloop
endfacet
facet normal 0.6087614290087243 0.7933533402912326 0.0
  outer loop
    vertex 40.941374244299126 -82.93295906218216 0.0
    vertex 39.69873355717985 -81.97944732659482 1.5
    vertex 40.941374244299126 -82.93295906218216 1.5
  endloop
endfacet
facet normal 0.9238795325112868 0.3826834323650895 0.0
  outer loop
    vertex 41.89488597988648 -84.17559974930145 0.0
    vertex 42.49428851491425 -85.62268547868632 1.5
    vertex 42.49428851491425 -85.62268547868632 0.0
  endloop
endfacet
facet normal 0.9238795325112868 0.3826834323650895 0.0
  outer loop
    vertex 42.49428851491425 -85.62268547868632 1.5
    vertex 41.89488597988648 -84.17559974930145 0.0
    vertex 41.89488597988648 -84.17559974930145 1.5
  endloop
endfacet
facet normal 0.9238795325112867 -0.38268343236509006 0.0
  outer loop
    vertex 42.49428851491425 -88.72851401991657 0.0
    vertex 41.894885979886475 -90.17559974930145 1.5
    vertex 41.894885979886475 -90.17559974930145 0.0
  endloop
endfacet
facet normal 0.9238795325112867 -0.38268343236509006 0.0
  outer loop
    vertex 41.894885979886475 -90.17559974930145 1.5
    vertex 42.49428851491425 -88.72851401991657 0.0
    vertex 42.49428851491425 -88.72851401991657 1.5
  endloop
endfacet
facet normal -0.9914448613738105 0.13052619222005168 0.0
  outer loop
    vertex 30.903178599445436 -85.62268547868632 1.5
    vertex 30.698733557179843 -87.17559974930145 0.0
    vertex 30.698733557179843 -87.17559974930145 1.5
  endloop
endfacet
facet normal -0.9914448613738105 0.13052619222005168 0.0
  outer loop
    vertex 30.698733557179843 -87.17559974930145 0.0
    vertex 30.903178599445436 -85.62268547868632 1.5
    vertex 30.903178599445436 -85.62268547868632 0.0
  endloop
endfacet
facet normal 0.7933533402912353 0.6087614290087208 0.0
  outer loop
    vertex 40.941374244299126 -82.93295906218216 0.0
    vertex 41.89488597988648 -84.17559974930145 1.5
    vertex 41.89488597988648 -84.17559974930145 0.0
  endloop
endfacet
facet normal 0.7933533402912353 0.6087614290087208 0.0
  outer loop
    vertex 41.89488597988648 -84.17559974930145 1.5
    vertex 40.941374244299126 -82.93295906218216 0.0
    vertex 40.941374244299126 -82.93295906218216 1.5
  endloop
endfacet
facet normal 0.13052619222005216 -0.9914448613738104 0.0
  outer loop
    vertex 38.25164782779496 -92.97115470703586 1.5
    vertex 36.69873355717984 -93.17559974930145 0.0
    vertex 38.25164782779496 -92.97115470703586 0.0
  endloop
endfacet
facet normal 0.13052619222005216 -0.9914448613738104 0.0
  outer loop
    vertex 36.69873355717984 -93.17559974930145 0.0
    vertex 38.25164782779496 -92.97115470703586 1.5
    vertex 36.69873355717984 -93.17559974930145 1.5
  endloop
endfacet
facet normal -0.9238795325112867 0.38268343236509006 0.0
  outer loop
    vertex 31.502581134473214 -84.17559974930144 1.5
    vertex 30.903178599445436 -85.62268547868632 0.0
    vertex 30.903178599445436 -85.62268547868632 1.5
  endloop
endfacet
facet normal -0.9238795325112867 0.38268343236509006 0.0
  outer loop
    vertex 30.903178599445436 -85.62268547868632 0.0
    vertex 31.502581134473214 -84.17559974930144 1.5
    vertex 31.502581134473214 -84.17559974930144 0.0
  endloop
endfacet
facet normal -0.9238795325112874 -0.38268343236508867 -0.0
  outer loop
    vertex 38.56068817531639 -86.10059974930145 1.5
    vertex 38.77547408370134 -86.61913880233102 0.0
    vertex 38.77547408370134 -86.61913880233102 1.5
  endloop
endfacet
facet normal -0.9238795325112874 -0.38268343236508867 -0.0
  outer loop
    vertex 38.77547408370134 -86.61913880233102 0.0
    vertex 38.56068817531639 -86.10059974930145 1.5
    vertex 38.56068817531639 -86.10059974930145 0.0
  endloop
endfacet
facet normal -0.6087614290087185 -0.7933533402912369 -0.0
  outer loop
    vertex 38.21901313673092 -85.65532016975037 1.5
    vertex 37.773733557179845 -85.3136451311649 0.0
    vertex 38.21901313673092 -85.65532016975037 0.0
  endloop
endfacet
facet normal -0.6087614290087185 -0.7933533402912369 -0.0
  outer loop
    vertex 37.773733557179845 -85.3136451311649 0.0
    vertex 38.21901313673092 -85.65532016975037 1.5
    vertex 37.773733557179845 -85.3136451311649 1.5
  endloop
endfacet
facet normal -0.13052619222007092 -0.9914448613738079 -0.0
  outer loop
    vertex 37.25519450415027 -85.09885922277996 1.5
    vertex 36.69873355717984 -85.02559974930145 0.0
    vertex 37.25519450415027 -85.09885922277996 0.0
  endloop
endfacet
facet normal -0.13052619222007092 -0.9914448613738079 -0.0
  outer loop
    vertex 36.69873355717984 -85.02559974930145 0.0
    vertex 37.25519450415027 -85.09885922277996 1.5
    vertex 36.69873355717984 -85.02559974930145 1.5
  endloop
endfacet
facet normal 0.38268343236508695 -0.923879532511288 0.0
  outer loop
    vertex 39.69873355717984 -92.37175217200809 1.5
    vertex 38.25164782779496 -92.97115470703586 0.0
    vertex 39.69873355717984 -92.37175217200809 0.0
  endloop
endfacet
facet normal 0.38268343236508695 -0.923879532511288 0.0
  outer loop
    vertex 38.25164782779496 -92.97115470703586 0.0
    vertex 39.69873355717984 -92.37175217200809 1.5
    vertex 38.25164782779496 -92.97115470703586 1.5
  endloop
endfacet
facet normal -0.6087614290087225 -0.7933533402912339 -0.0
  outer loop
    vertex 33.69873355717984 -92.37175217200809 1.5
    vertex 32.45609287006056 -91.41824043642073 0.0
    vertex 33.69873355717984 -92.37175217200809 0.0
  endloop
endfacet
facet normal -0.6087614290087225 -0.7933533402912339 -0.0
  outer loop
    vertex 32.45609287006056 -91.41824043642073 0.0
    vertex 33.69873355717984 -92.37175217200809 1.5
    vertex 32.45609287006056 -91.41824043642073 1.5
  endloop
endfacet
facet normal -0.9914448613738105 -0.13052619222005168 -0.0
  outer loop
    vertex 30.698733557179843 -87.17559974930145 1.5
    vertex 30.903178599445436 -88.72851401991657 0.0
    vertex 30.903178599445436 -88.72851401991657 1.5
  endloop
endfacet
facet normal -0.9914448613738105 -0.13052619222005168 -0.0
  outer loop
    vertex 30.903178599445436 -88.72851401991657 0.0
    vertex 30.698733557179843 -87.17559974930145 1.5
    vertex 30.698733557179843 -87.17559974930145 0.0
  endloop
endfacet
facet normal 0.13052619222007092 -0.9914448613738079 0.0
  outer loop
    vertex 36.69873355717984 -85.02559974930145 1.5
    vertex 36.142272610209424 -85.09885922277996 0.0
    vertex 36.69873355717984 -85.02559974930145 0.0
  endloop
endfacet
facet normal 0.13052619222007092 -0.9914448613738079 0.0
  outer loop
    vertex 36.142272610209424 -85.09885922277996 0.0
    vertex 36.69873355717984 -85.02559974930145 1.5
    vertex 36.142272610209424 -85.09885922277996 1.5
  endloop
endfacet
facet normal -0.7933533402912343 0.608761429008722 0.0
  outer loop
    vertex 32.45609287006056 -82.93295906218216 1.5
    vertex 31.502581134473214 -84.17559974930144 0.0
    vertex 31.502581134473214 -84.17559974930144 1.5
  endloop
endfacet
facet normal -0.7933533402912343 0.608761429008722 0.0
  outer loop
    vertex 31.502581134473214 -84.17559974930144 0.0
    vertex 32.45609287006056 -82.93295906218216 1.5
    vertex 32.45609287006056 -82.93295906218216 0.0
  endloop
endfacet
facet normal 0.6087614290087137 -0.7933533402912405 0.0
  outer loop
    vertex 35.62373355717985 -85.3136451311649 1.5
    vertex 35.17845397762876 -85.65532016975037 0.0
    vertex 35.62373355717985 -85.3136451311649 0.0
  endloop
endfacet
facet normal 0.6087614290087137 -0.7933533402912405 0.0
  outer loop
    vertex 35.17845397762876 -85.65532016975037 0.0
    vertex 35.62373355717985 -85.3136451311649 1.5
    vertex 35.17845397762876 -85.65532016975037 1.5
  endloop
endfacet
facet normal -0.3826834323650882 -0.9238795325112874 -0.0
  outer loop
    vertex 35.145819286564716 -92.97115470703586 1.5
    vertex 33.69873355717984 -92.37175217200809 0.0
    vertex 35.145819286564716 -92.97115470703586 0.0
  endloop
endfacet
facet normal -0.3826834323650882 -0.9238795325112874 -0.0
  outer loop
    vertex 33.69873355717984 -92.37175217200809 0.0
    vertex 35.145819286564716 -92.97115470703586 1.5
    vertex 33.69873355717984 -92.37175217200809 1.5
  endloop
endfacet
facet normal 0.9238795325112874 -0.38268343236508867 0.0
  outer loop
    vertex 34.8367789390433 -86.10059974930145 0.0
    vertex 34.621993030658345 -86.61913880233102 1.5
    vertex 34.621993030658345 -86.61913880233102 0.0
  endloop
endfacet
facet normal 0.9238795325112874 -0.38268343236508867 0.0
  outer loop
    vertex 34.621993030658345 -86.61913880233102 1.5
    vertex 34.8367789390433 -86.10059974930145 0.0
    vertex 34.8367789390433 -86.10059974930145 1.5
  endloop
endfacet
facet normal -0.7933533402912353 -0.6087614290087208 -0.0
  outer loop
    vertex 31.50258113447321 -90.17559974930144 1.5
    vertex 32.45609287006056 -91.41824043642073 0.0
    vertex 32.45609287006056 -91.41824043642073 1.5
  endloop
endfacet
facet normal -0.7933533402912353 -0.6087614290087208 -0.0
  outer loop
    vertex 32.45609287006056 -91.41824043642073 0.0
    vertex 31.50258113447321 -90.17559974930144 1.5
    vertex 31.50258113447321 -90.17559974930144 0.0
  endloop
endfacet
facet normal -0.382683432365085 -0.9238795325112887 -0.0
  outer loop
    vertex 37.773733557179845 -85.3136451311649 1.5
    vertex 37.25519450415027 -85.09885922277996 0.0
    vertex 37.773733557179845 -85.3136451311649 0.0
  endloop
endfacet
facet normal -0.382683432365085 -0.9238795325112887 -0.0
  outer loop
    vertex 37.25519450415027 -85.09885922277996 0.0
    vertex 37.773733557179845 -85.3136451311649 1.5
    vertex 37.25519450415027 -85.09885922277996 1.5
  endloop
endfacet
facet normal 0.9914448613738106 -0.13052619222004985 0.0
  outer loop
    vertex 34.621993030658345 -86.61913880233102 0.0
    vertex 34.548733557179844 -87.17559974930145 1.5
    vertex 34.548733557179844 -87.17559974930145 0.0
  endloop
endfacet
facet normal 0.9914448613738106 -0.13052619222004985 0.0
  outer loop
    vertex 34.548733557179844 -87.17559974930145 1.5
    vertex 34.621993030658345 -86.61913880233102 0.0
    vertex 34.621993030658345 -86.61913880233102 1.5
  endloop
endfacet
facet normal 0.6087614290087225 -0.7933533402912339 0.0
  outer loop
    vertex 40.941374244299126 -91.41824043642073 1.5
    vertex 39.69873355717984 -92.37175217200809 0.0
    vertex 40.941374244299126 -91.41824043642073 0.0
  endloop
endfacet
facet normal 0.6087614290087225 -0.7933533402912339 0.0
  outer loop
    vertex 39.69873355717984 -92.37175217200809 0.0
    vertex 40.941374244299126 -91.41824043642073 1.5
    vertex 39.69873355717984 -92.37175217200809 1.5
  endloop
endfacet
facet normal 0.9914448613738105 -0.13052619222005168 0.0
  outer loop
    vertex 42.69873355717984 -87.17559974930145 0.0
    vertex 42.49428851491425 -88.72851401991657 1.5
    vertex 42.49428851491425 -88.72851401991657 0.0
  endloop
endfacet
facet normal 0.9914448613738105 -0.13052619222005168 0.0
  outer loop
    vertex 42.49428851491425 -88.72851401991657 1.5
    vertex 42.69873355717984 -87.17559974930145 0.0
    vertex 42.69873355717984 -87.17559974930145 1.5
  endloop
endfacet
facet normal -0.13052619222005168 -0.9914448613738105 -0.0
  outer loop
    vertex 36.69873355717984 -93.17559974930145 1.5
    vertex 35.145819286564716 -92.97115470703586 0.0
    vertex 36.69873355717984 -93.17559974930145 0.0
  endloop
endfacet
facet normal -0.13052619222005168 -0.9914448613738105 -0.0
  outer loop
    vertex 35.145819286564716 -92.97115470703586 0.0
    vertex 36.69873355717984 -93.17559974930145 1.5
    vertex 35.145819286564716 -92.97115470703586 1.5
  endloop
endfacet
facet normal -0.9238795325112868 -0.3826834323650895 -0.0
  outer loop
    vertex 30.903178599445436 -88.72851401991657 1.5
    vertex 31.50258113447321 -90.17559974930144 0.0
    vertex 31.50258113447321 -90.17559974930144 1.5
  endloop
endfacet
facet normal -0.9238795325112868 -0.3826834323650895 -0.0
  outer loop
    vertex 31.50258113447321 -90.17559974930144 0.0
    vertex 30.903178599445436 -88.72851401991657 1.5
    vertex 30.903178599445436 -88.72851401991657 0.0
  endloop
endfacet
facet normal 0.7933533402912343 -0.608761429008722 0.0
  outer loop
    vertex 41.894885979886475 -90.17559974930145 0.0
    vertex 40.941374244299126 -91.41824043642073 1.5
    vertex 40.941374244299126 -91.41824043642073 0.0
  endloop
endfacet
facet normal 0.7933533402912343 -0.608761429008722 0.0
  outer loop
    vertex 40.941374244299126 -91.41824043642073 1.5
    vertex 41.894885979886475 -90.17559974930145 0.0
    vertex 41.894885979886475 -90.17559974930145 1.5
  endloop
endfacet
facet normal -0.6087614290087225 0.7933533402912339 0.0
  outer loop
    vertex 32.45609287006056 -82.93295906218216 1.5
    vertex 33.69873355717984 -81.97944732659482 0.0
    vertex 32.45609287006056 -82.93295906218216 0.0
  endloop
endfacet
facet normal -0.6087614290087225 0.7933533402912339 0.0
  outer loop
    vertex 33.69873355717984 -81.97944732659482 0.0
    vertex 32.45609287006056 -82.93295906218216 1.5
    vertex 33.69873355717984 -81.97944732659482 1.5
  endloop
endfacet
facet normal -0.3826834323650882 0.9238795325112874 0.0
  outer loop
    vertex 33.69873355717984 -81.97944732659482 1.5
    vertex 35.145819286564716 -81.38004479156704 0.0
    vertex 33.69873355717984 -81.97944732659482 0.0
  endloop
endfacet
facet normal -0.3826834323650882 0.9238795325112874 0.0
  outer loop
    vertex 35.145819286564716 -81.38004479156704 0.0
    vertex 33.69873355717984 -81.97944732659482 1.5
    vertex 35.145819286564716 -81.38004479156704 1.5
  endloop
endfacet
facet normal 0.9914448613738105 0.13052619222005168 0.0
  outer loop
    vertex 42.49428851491425 -85.62268547868632 0.0
    vertex 42.69873355717984 -87.17559974930145 1.5
    vertex 42.69873355717984 -87.17559974930145 0.0
  endloop
endfacet
facet normal 0.9914448613738105 0.13052619222005168 0.0
  outer loop
    vertex 42.69873355717984 -87.17559974930145 1.5
    vertex 42.49428851491425 -85.62268547868632 0.0
    vertex 42.49428851491425 -85.62268547868632 1.5
  endloop
endfacet
facet normal -0.7933533402912321 -0.6087614290087249 -0.0
  outer loop
    vertex 38.21901313673092 -85.65532016975037 1.5
    vertex 38.56068817531639 -86.10059974930145 0.0
    vertex 38.56068817531639 -86.10059974930145 1.5
  endloop
endfacet
facet normal -0.7933533402912321 -0.6087614290087249 -0.0
  outer loop
    vertex 38.56068817531639 -86.10059974930145 0.0
    vertex 38.21901313673092 -85.65532016975037 1.5
    vertex 38.21901313673092 -85.65532016975037 0.0
  endloop
endfacet
facet normal 0.6087614290087185 0.7933533402912369 0.0
  outer loop
    vertex 35.17845397762876 -88.69587932885253 1.5
    vertex 35.62373355717984 -89.03755436743799 0.0
    vertex 35.17845397762876 -88.69587932885253 0.0
  endloop
endfacet
facet normal 0.6087614290087185 0.7933533402912369 0.0
  outer loop
    vertex 35.62373355717984 -89.03755436743799 0.0
    vertex 35.17845397762876 -88.69587932885253 1.5
    vertex 35.62373355717984 -89.03755436743799 1.5
  endloop
endfacet
facet normal 0.382683432365085 0.9238795325112887 0.0
  outer loop
    vertex 35.62373355717984 -89.03755436743799 1.5
    vertex 36.142272610209424 -89.25234027582295 0.0
    vertex 35.62373355717984 -89.03755436743799 0.0
  endloop
endfacet
facet normal 0.382683432365085 0.9238795325112887 0.0
  outer loop
    vertex 36.142272610209424 -89.25234027582295 0.0
    vertex 35.62373355717984 -89.03755436743799 1.5
    vertex 36.142272610209424 -89.25234027582295 1.5
  endloop
endfacet
facet normal 0.9914448613738104 0.13052619222005246 0.0
  outer loop
    vertex 34.548733557179844 -87.17559974930145 0.0
    vertex 34.621993030658345 -87.73206069627187 1.5
    vertex 34.621993030658345 -87.73206069627187 0.0
  endloop
endfacet
facet normal 0.9914448613738104 0.13052619222005246 0.0
  outer loop
    vertex 34.621993030658345 -87.73206069627187 1.5
    vertex 34.548733557179844 -87.17559974930145 0.0
    vertex 34.548733557179844 -87.17559974930145 1.5
  endloop
endfacet
facet normal 0.13052619222007092 0.9914448613738079 0.0
  outer loop
    vertex 36.142272610209424 -89.25234027582295 1.5
    vertex 36.69873355717984 -89.32559974930146 0.0
    vertex 36.142272610209424 -89.25234027582295 0.0
  endloop
endfacet
facet normal 0.13052619222007092 0.9914448613738079 0.0
  outer loop
    vertex 36.69873355717984 -89.32559974930146 0.0
    vertex 36.142272610209424 -89.25234027582295 1.5
    vertex 36.69873355717984 -89.32559974930146 1.5
  endloop
endfacet
facet normal -0.13052619222005118 0.9914448613738106 0.0
  outer loop
    vertex 36.69873355717984 -89.32559974930146 1.5
    vertex 37.25519450415027 -89.25234027582296 0.0
    vertex 36.69873355717984 -89.32559974930146 0.0
  endloop
endfacet
facet normal -0.13052619222005118 0.9914448613738106 0.0
  outer loop
    vertex 37.25519450415027 -89.25234027582296 0.0
    vertex 36.69873355717984 -89.32559974930146 1.5
    vertex 37.25519450415027 -89.25234027582296 1.5
  endloop
endfacet
facet normal -0.6087614290087137 0.7933533402912405 0.0
  outer loop
    vertex 37.773733557179845 -89.03755436743799 1.5
    vertex 38.21901313673092 -88.69587932885253 0.0
    vertex 37.773733557179845 -89.03755436743799 0.0
  endloop
endfacet
facet normal -0.6087614290087137 0.7933533402912405 0.0
  outer loop
    vertex 38.21901313673092 -88.69587932885253 0.0
    vertex 37.773733557179845 -89.03755436743799 1.5
    vertex 38.21901313673092 -88.69587932885253 1.5
  endloop
endfacet
facet normal -0.9914448613738106 -0.13052619222004985 -0.0
  outer loop
    vertex 38.77547408370134 -86.61913880233102 1.5
    vertex 38.84873355717985 -87.17559974930145 0.0
    vertex 38.84873355717985 -87.17559974930145 1.5
  endloop
endfacet
facet normal -0.9914448613738106 -0.13052619222004985 -0.0
  outer loop
    vertex 38.84873355717985 -87.17559974930145 0.0
    vertex 38.77547408370134 -86.61913880233102 1.5
    vertex 38.77547408370134 -86.61913880233102 0.0
  endloop
endfacet
facet normal -0.9914448613738106 0.13052619222004985 0.0
  outer loop
    vertex 38.84873355717985 -87.17559974930145 1.5
    vertex 38.77547408370134 -87.73206069627187 0.0
    vertex 38.77547408370134 -87.73206069627187 1.5
  endloop
endfacet
facet normal -0.9914448613738106 0.13052619222004985 0.0
  outer loop
    vertex 38.77547408370134 -87.73206069627187 0.0
    vertex 38.84873355717985 -87.17559974930145 1.5
    vertex 38.84873355717985 -87.17559974930145 0.0
  endloop
endfacet
facet normal 0.9238795325112902 0.38268343236508146 0.0
  outer loop
    vertex 34.621993030658345 -87.73206069627187 0.0
    vertex 34.8367789390433 -88.25059974930146 1.5
    vertex 34.8367789390433 -88.25059974930146 0.0
  endloop
endfacet
facet normal 0.9238795325112902 0.38268343236508146 0.0
  outer loop
    vertex 34.8367789390433 -88.25059974930146 1.5
    vertex 34.621993030658345 -87.73206069627187 0.0
    vertex 34.621993030658345 -87.73206069627187 1.5
  endloop
endfacet
facet normal -0.7933533402912369 0.6087614290087185 0.0
  outer loop
    vertex 38.560688175316386 -88.25059974930146 1.5
    vertex 38.21901313673092 -88.69587932885253 0.0
    vertex 38.21901313673092 -88.69587932885253 1.5
  endloop
endfacet
facet normal -0.7933533402912369 0.6087614290087185 0.0
  outer loop
    vertex 38.21901313673092 -88.69587932885253 0.0
    vertex 38.560688175316386 -88.25059974930146 1.5
    vertex 38.560688175316386 -88.25059974930146 0.0
  endloop
endfacet
facet normal 0.7933533402912321 0.6087614290087249 0.0
  outer loop
    vertex 34.8367789390433 -88.25059974930146 0.0
    vertex 35.17845397762876 -88.69587932885253 1.5
    vertex 35.17845397762876 -88.69587932885253 0.0
  endloop
endfacet
facet normal 0.7933533402912321 0.6087614290087249 0.0
  outer loop
    vertex 35.17845397762876 -88.69587932885253 1.5
    vertex 34.8367789390433 -88.25059974930146 0.0
    vertex 34.8367789390433 -88.25059974930146 1.5
  endloop
endfacet
facet normal -0.9238795325112837 0.38268343236509716 0.0
  outer loop
    vertex 38.77547408370134 -87.73206069627187 1.5
    vertex 38.560688175316386 -88.25059974930146 0.0
    vertex 38.560688175316386 -88.25059974930146 1.5
  endloop
endfacet
facet normal -0.9238795325112837 0.38268343236509716 0.0
  outer loop
    vertex 38.560688175316386 -88.25059974930146 0.0
    vertex 38.77547408370134 -87.73206069627187 1.5
    vertex 38.77547408370134 -87.73206069627187 0.0
  endloop
endfacet
facet normal -0.3826834323651058 0.9238795325112803 0.0
  outer loop
    vertex 37.25519450415027 -89.25234027582296 1.5
    vertex 37.773733557179845 -89.03755436743799 0.0
    vertex 37.25519450415027 -89.25234027582296 0.0
  endloop
endfacet
facet normal -0.3826834323651058 0.9238795325112803 0.0
  outer loop
    vertex 37.773733557179845 -89.03755436743799 0.0
    vertex 37.25519450415027 -89.25234027582296 1.5
    vertex 37.773733557179845 -89.03755436743799 1.5
  endloop
endfacet
endsolid Bed Inside Rails
