solid UHP-500-24 Holder
facet normal 1.0 -2.7755575615628907e-17 0.0
  outer loop
    vertex 104.99999999999994 199.01625905085217 34.999139243370685
    vertex 104.99999999999994 219.01625905085217 -0.00086075662931612
    vertex 104.99999999999994 219.01625905085217 34.999139243370685
  endloop
endfacet
facet normal 1.0 -2.7755575615628907e-17 0.0
  outer loop
    vertex 104.99999999999994 219.01625905085217 -0.00086075662931612
    vertex 104.99999999999994 199.01625905085217 34.999139243370685
    vertex 104.99999999999994 199.01625905085217 -0.00086075662931612
  endloop
endfacet
facet normal -1.0 2.7755575615628907e-17 0.0
  outer loop
    vertex -20.000000000000053 199.01625905085217 -0.0008607566292992003
    vertex -20.000000000000053 219.01625905085217 34.999139243370685
    vertex -20.000000000000053 219.01625905085217 -0.0008607566292992003
  endloop
endfacet
facet normal -1.0 2.7755575615628907e-17 0.0
  outer loop
    vertex -20.000000000000053 219.01625905085217 34.999139243370685
    vertex -20.000000000000053 199.01625905085217 -0.0008607566292992003
    vertex -20.000000000000053 199.01625905085217 34.999139243370685
  endloop
endfacet
facet normal -0.13052619222005615 -0.9914448613738099 0.0
  outer loop
    vertex -9.352952387243759 211.43107361657485 34.999139243370685
    vertex -10.000000000000071 211.51625905085217 -0.0008607566292992003
    vertex -9.352952387243759 211.43107361657485 -0.0008607566292992003
  endloop
endfacet
facet normal -0.13052619222005615 -0.9914448613738099 0.0
  outer loop
    vertex -10.000000000000071 211.51625905085217 -0.0008607566292992003
    vertex -9.352952387243759 211.43107361657485 34.999139243370685
    vertex -10.000000000000071 211.51625905085217 34.999139243370685
  endloop
endfacet
facet normal 0.6087614290087074 0.7933533402912453 0.0
  outer loop
    vertex -11.767766952966422 207.24849209788582 34.999139243370685
    vertex -11.250000000000059 206.8511955413911 -0.0008607566292992003
    vertex -11.767766952966422 207.24849209788582 -0.0008607566292992003
  endloop
endfacet
facet normal 0.6087614290087074 0.7933533402912453 0.0
  outer loop
    vertex -11.250000000000059 206.8511955413911 -0.0008607566292992003
    vertex -11.767766952966422 207.24849209788582 34.999139243370685
    vertex -11.250000000000059 206.8511955413911 34.999139243370685
  endloop
endfacet
facet normal 0.6087614290087074 -0.7933533402912453 0.0
  outer loop
    vertex -11.250000000000059 211.18132256031328 34.999139243370685
    vertex -11.767766952966422 210.78402600381855 -0.0008607566292992003
    vertex -11.250000000000059 211.18132256031328 -0.0008607566292992003
  endloop
endfacet
facet normal 0.6087614290087074 -0.7933533402912453 0.0
  outer loop
    vertex -11.767766952966422 210.78402600381855 -0.0008607566292992003
    vertex -11.250000000000059 211.18132256031328 34.999139243370685
    vertex -11.767766952966422 210.78402600381855 34.999139243370685
  endloop
endfacet
facet normal 0.7933533402912416 -0.6087614290087126 0.0
  outer loop
    vertex -12.165063509461156 210.26625905085214 34.999139243370685
    vertex -11.767766952966422 210.78402600381855 -0.0008607566292992003
    vertex -11.767766952966422 210.78402600381855 34.999139243370685
  endloop
endfacet
facet normal 0.7933533402912416 -0.6087614290087126 0.0
  outer loop
    vertex -11.767766952966422 210.78402600381855 -0.0008607566292992003
    vertex -12.165063509461156 210.26625905085214 34.999139243370685
    vertex -12.165063509461156 210.26625905085214 -0.0008607566292992003
  endloop
endfacet
facet normal 0.3826834323650976 -0.9238795325112836 0.0
  outer loop
    vertex -10.647047612756362 211.43107361657485 34.999139243370685
    vertex -11.250000000000059 211.18132256031328 -0.0008607566292992003
    vertex -10.647047612756362 211.43107361657485 -0.0008607566292992003
  endloop
endfacet
facet normal 0.3826834323650976 -0.9238795325112836 0.0
  outer loop
    vertex -11.250000000000059 211.18132256031328 -0.0008607566292992003
    vertex -10.647047612756362 211.43107361657485 34.999139243370685
    vertex -11.250000000000059 211.18132256031328 34.999139243370685
  endloop
endfacet
facet normal 0.9238795325112896 -0.38268343236508284 0.0
  outer loop
    vertex -12.414814565722713 209.66330666360844 34.999139243370685
    vertex -12.165063509461156 210.26625905085214 -0.0008607566292992003
    vertex -12.165063509461156 210.26625905085214 34.999139243370685
  endloop
endfacet
facet normal 0.9238795325112896 -0.38268343236508284 0.0
  outer loop
    vertex -12.165063509461156 210.26625905085214 -0.0008607566292992003
    vertex -12.414814565722713 209.66330666360844 34.999139243370685
    vertex -12.414814565722713 209.66330666360844 -0.0008607566292992003
  endloop
endfacet
facet normal 0.9914448613738102 0.13052619222005385 0.0
  outer loop
    vertex -12.414814565722713 208.36921143809587 34.999139243370685
    vertex -12.500000000000044 209.01625905085217 -0.0008607566292992003
    vertex -12.500000000000044 209.01625905085217 34.999139243370685
  endloop
endfacet
facet normal 0.9914448613738102 0.13052619222005385 0.0
  outer loop
    vertex -12.500000000000044 209.01625905085217 -0.0008607566292992003
    vertex -12.414814565722713 208.36921143809587 34.999139243370685
    vertex -12.414814565722713 208.36921143809587 -0.0008607566292992003
  endloop
endfacet
facet normal 0.1305261922200561 -0.9914448613738099 0.0
  outer loop
    vertex -10.000000000000071 211.51625905085217 34.999139243370685
    vertex -10.647047612756362 211.43107361657485 -0.0008607566292992003
    vertex -10.000000000000071 211.51625905085217 -0.0008607566292992003
  endloop
endfacet
facet normal 0.1305261922200561 -0.9914448613738099 0.0
  outer loop
    vertex -10.647047612756362 211.43107361657485 -0.0008607566292992003
    vertex -10.000000000000071 211.51625905085217 34.999139243370685
    vertex -10.647047612756362 211.43107361657485 34.999139243370685
  endloop
endfacet
facet normal 0.9914448613738096 -0.1305261922200584 0.0
  outer loop
    vertex -12.500000000000044 209.01625905085217 34.999139243370685
    vertex -12.414814565722713 209.66330666360844 -0.0008607566292992003
    vertex -12.414814565722713 209.66330666360844 34.999139243370685
  endloop
endfacet
facet normal 0.9914448613738096 -0.1305261922200584 0.0
  outer loop
    vertex -12.414814565722713 209.66330666360844 -0.0008607566292992003
    vertex -12.500000000000044 209.01625905085217 34.999139243370685
    vertex -12.500000000000044 209.01625905085217 -0.0008607566292992003
  endloop
endfacet
facet normal 0.9238795325112896 0.38268343236508284 0.0
  outer loop
    vertex -12.165063509461156 207.76625905085217 34.999139243370685
    vertex -12.414814565722713 208.36921143809587 -0.0008607566292992003
    vertex -12.414814565722713 208.36921143809587 34.999139243370685
  endloop
endfacet
facet normal 0.9238795325112896 0.38268343236508284 0.0
  outer loop
    vertex -12.414814565722713 208.36921143809587 -0.0008607566292992003
    vertex -12.165063509461156 207.76625905085217 34.999139243370685
    vertex -12.165063509461156 207.76625905085217 -0.0008607566292992003
  endloop
endfacet
facet normal 0.7933533402912287 0.6087614290087292 0.0
  outer loop
    vertex -11.767766952966422 207.24849209788582 34.999139243370685
    vertex -12.165063509461156 207.76625905085217 -0.0008607566292992003
    vertex -12.165063509461156 207.76625905085217 34.999139243370685
  endloop
endfacet
facet normal 0.7933533402912287 0.6087614290087292 0.0
  outer loop
    vertex -12.165063509461156 207.76625905085217 -0.0008607566292992003
    vertex -11.767766952966422 207.24849209788582 34.999139243370685
    vertex -11.767766952966422 207.24849209788582 -0.0008607566292992003
  endloop
endfacet
facet normal -0.9238795325112947 -0.38268343236507063 0.0
  outer loop
    vertex -7.585185434277387 209.66330666360844 -0.0008607566292992003
    vertex -7.834936490538966 210.2662590508522 34.999139243370685
    vertex -7.834936490538966 210.2662590508522 -0.0008607566292992003
  endloop
endfacet
facet normal -0.9238795325112947 -0.38268343236507063 0.0
  outer loop
    vertex -7.834936490538966 210.2662590508522 34.999139243370685
    vertex -7.585185434277387 209.66330666360844 -0.0008607566292992003
    vertex -7.585185434277387 209.66330666360844 34.999139243370685
  endloop
endfacet
facet normal -0.9914448613738096 0.1305261922200584 0.0
  outer loop
    vertex -7.585185434277387 208.36921143809587 -0.0008607566292992003
    vertex -7.500000000000054 209.01625905085217 34.999139243370685
    vertex -7.500000000000054 209.01625905085217 -0.0008607566292992003
  endloop
endfacet
facet normal -0.9914448613738096 0.1305261922200584 0.0
  outer loop
    vertex -7.500000000000054 209.01625905085217 34.999139243370685
    vertex -7.585185434277387 208.36921143809587 -0.0008607566292992003
    vertex -7.585185434277387 208.36921143809587 34.999139243370685
  endloop
endfacet
facet normal 0.3826834323650976 0.9238795325112836 0.0
  outer loop
    vertex -11.250000000000059 206.8511955413911 34.999139243370685
    vertex -10.647047612756362 206.60144448512952 -0.0008607566292992003
    vertex -11.250000000000059 206.8511955413911 -0.0008607566292992003
  endloop
endfacet
facet normal 0.3826834323650976 0.9238795325112836 0.0
  outer loop
    vertex -10.647047612756362 206.60144448512952 -0.0008607566292992003
    vertex -11.250000000000059 206.8511955413911 34.999139243370685
    vertex -10.647047612756362 206.60144448512952 34.999139243370685
  endloop
endfacet
facet normal -0.1305261922200561 0.9914448613738099 0.0
  outer loop
    vertex -10.000000000000071 206.5162590508522 34.999139243370685
    vertex -9.352952387243759 206.60144448512952 -0.0008607566292992003
    vertex -10.000000000000071 206.5162590508522 -0.0008607566292992003
  endloop
endfacet
facet normal -0.1305261922200561 0.9914448613738099 0.0
  outer loop
    vertex -9.352952387243759 206.60144448512952 -0.0008607566292992003
    vertex -10.000000000000071 206.5162590508522 34.999139243370685
    vertex -9.352952387243759 206.60144448512952 34.999139243370685
  endloop
endfacet
facet normal -0.3826834323650976 -0.9238795325112836 0.0
  outer loop
    vertex -8.750000000000062 211.18132256031328 34.999139243370685
    vertex -9.352952387243759 211.43107361657485 -0.0008607566292992003
    vertex -8.750000000000062 211.18132256031328 -0.0008607566292992003
  endloop
endfacet
facet normal -0.3826834323650976 -0.9238795325112836 0.0
  outer loop
    vertex -9.352952387243759 211.43107361657485 -0.0008607566292992003
    vertex -8.750000000000062 211.18132256031328 34.999139243370685
    vertex -9.352952387243759 211.43107361657485 34.999139243370685
  endloop
endfacet
facet normal -0.7933533402912467 0.6087614290087058 0.0
  outer loop
    vertex 96.76776695296628 207.24849209788582 -0.0008607566293133001
    vertex 97.165063509461 207.76625905085217 34.999139243370685
    vertex 97.165063509461 207.76625905085217 -0.0008607566293133001
  endloop
endfacet
facet normal -0.7933533402912467 0.6087614290087058 0.0
  outer loop
    vertex 97.165063509461 207.76625905085217 34.999139243370685
    vertex 96.76776695296628 207.24849209788582 -0.0008607566293133001
    vertex 96.76776695296628 207.24849209788582 34.999139243370685
  endloop
endfacet
facet normal -0.3826834323650976 0.9238795325112836 0.0
  outer loop
    vertex -9.352952387243759 206.60144448512952 34.999139243370685
    vertex -8.750000000000062 206.8511955413911 -0.0008607566292992003
    vertex -9.352952387243759 206.60144448512952 -0.0008607566292992003
  endloop
endfacet
facet normal -0.3826834323650976 0.9238795325112836 0.0
  outer loop
    vertex -8.750000000000062 206.8511955413911 -0.0008607566292992003
    vertex -9.352952387243759 206.60144448512952 34.999139243370685
    vertex -8.750000000000062 206.8511955413911 34.999139243370685
  endloop
endfacet
facet normal 0.13052619222005615 0.9914448613738099 0.0
  outer loop
    vertex -10.647047612756362 206.60144448512952 34.999139243370685
    vertex -10.000000000000071 206.5162590508522 -0.0008607566292992003
    vertex -10.647047612756362 206.60144448512952 -0.0008607566292992003
  endloop
endfacet
facet normal 0.13052619222005615 0.9914448613738099 0.0
  outer loop
    vertex -10.000000000000071 206.5162590508522 -0.0008607566292992003
    vertex -10.647047612756362 206.60144448512952 34.999139243370685
    vertex -10.000000000000071 206.5162590508522 34.999139243370685
  endloop
endfacet
facet normal -0.7933533402912287 -0.6087614290087292 0.0
  outer loop
    vertex -7.834936490538966 210.2662590508522 -0.0008607566292992003
    vertex -8.232233047033699 210.78402600381855 34.999139243370685
    vertex -8.232233047033699 210.78402600381855 -0.0008607566292992003
  endloop
endfacet
facet normal -0.7933533402912287 -0.6087614290087292 0.0
  outer loop
    vertex -8.232233047033699 210.78402600381855 34.999139243370685
    vertex -7.834936490538966 210.2662590508522 -0.0008607566292992003
    vertex -7.834936490538966 210.2662590508522 34.999139243370685
  endloop
endfacet
facet normal -0.9238795325112866 0.3826834323650902 0.0
  outer loop
    vertex 97.165063509461 207.76625905085217 -0.0008607566293133001
    vertex 97.41481456572258 208.36921143809587 34.999139243370685
    vertex 97.41481456572258 208.36921143809587 -0.0008607566293133001
  endloop
endfacet
facet normal -0.9238795325112866 0.3826834323650902 0.0
  outer loop
    vertex 97.41481456572258 208.36921143809587 34.999139243370685
    vertex 97.165063509461 207.76625905085217 -0.0008607566293133001
    vertex 97.165063509461 207.76625905085217 34.999139243370685
  endloop
endfacet
facet normal -0.9914448613738102 0.13052619222005413 0.0
  outer loop
    vertex 97.41481456572258 208.36921143809587 -0.0008607566293133001
    vertex 97.4999999999999 209.01625905085217 34.999139243370685
    vertex 97.4999999999999 209.01625905085217 -0.0008607566293133001
  endloop
endfacet
facet normal -0.9914448613738102 0.13052619222005413 0.0
  outer loop
    vertex 97.4999999999999 209.01625905085217 34.999139243370685
    vertex 97.41481456572258 208.36921143809587 -0.0008607566293133001
    vertex 97.41481456572258 208.36921143809587 34.999139243370685
  endloop
endfacet
facet normal -0.9914448613738102 -0.13052619222005407 0.0
  outer loop
    vertex 97.4999999999999 209.01625905085217 -0.0008607566293133001
    vertex 97.41481456572258 209.66330666360844 34.999139243370685
    vertex 97.41481456572258 209.66330666360844 -0.0008607566293133001
  endloop
endfacet
facet normal -0.9914448613738102 -0.13052619222005407 0.0
  outer loop
    vertex 97.41481456572258 209.66330666360844 34.999139243370685
    vertex 97.4999999999999 209.01625905085217 -0.0008607566293133001
    vertex 97.4999999999999 209.01625905085217 34.999139243370685
  endloop
endfacet
facet normal -0.9238795325112917 -0.382683432365078 0.0
  outer loop
    vertex 97.41481456572258 209.66330666360844 -0.0008607566293133001
    vertex 97.165063509461 210.2662590508522 34.999139243370685
    vertex 97.165063509461 210.2662590508522 -0.0008607566293133001
  endloop
endfacet
facet normal -0.9238795325112917 -0.382683432365078 0.0
  outer loop
    vertex 97.165063509461 210.2662590508522 34.999139243370685
    vertex 97.41481456572258 209.66330666360844 -0.0008607566293133001
    vertex 97.41481456572258 209.66330666360844 34.999139243370685
  endloop
endfacet
facet normal -0.6087614290087074 0.7933533402912453 0.0
  outer loop
    vertex -8.750000000000062 206.8511955413911 34.999139243370685
    vertex -8.232233047033699 207.24849209788582 -0.0008607566292992003
    vertex -8.750000000000062 206.8511955413911 -0.0008607566292992003
  endloop
endfacet
facet normal -0.6087614290087074 0.7933533402912453 0.0
  outer loop
    vertex -8.232233047033699 207.24849209788582 -0.0008607566292992003
    vertex -8.750000000000062 206.8511955413911 34.999139243370685
    vertex -8.232233047033699 207.24849209788582 34.999139243370685
  endloop
endfacet
facet normal -0.7933533402912338 -0.6087614290087224 0.0
  outer loop
    vertex 97.165063509461 210.2662590508522 -0.0008607566293133001
    vertex 96.76776695296628 210.78402600381855 34.999139243370685
    vertex 96.76776695296628 210.78402600381855 -0.0008607566293133001
  endloop
endfacet
facet normal -0.7933533402912338 -0.6087614290087224 0.0
  outer loop
    vertex 96.76776695296628 210.78402600381855 34.999139243370685
    vertex 97.165063509461 210.2662590508522 -0.0008607566293133001
    vertex 97.165063509461 210.2662590508522 34.999139243370685
  endloop
endfacet
facet normal -0.7933533402912416 0.6087614290087126 0.0
  outer loop
    vertex -8.232233047033699 207.24849209788582 -0.0008607566292992003
    vertex -7.834936490538966 207.76625905085217 34.999139243370685
    vertex -7.834936490538966 207.76625905085217 -0.0008607566292992003
  endloop
endfacet
facet normal -0.7933533402912416 0.6087614290087126 0.0
  outer loop
    vertex -7.834936490538966 207.76625905085217 34.999139243370685
    vertex -8.232233047033699 207.24849209788582 -0.0008607566292992003
    vertex -8.232233047033699 207.24849209788582 34.999139243370685
  endloop
endfacet
facet normal -0.6087614290087074 -0.7933533402912453 0.0
  outer loop
    vertex -8.232233047033699 210.78402600381855 34.999139243370685
    vertex -8.750000000000062 211.18132256031328 -0.0008607566292992003
    vertex -8.232233047033699 210.78402600381855 -0.0008607566292992003
  endloop
endfacet
facet normal -0.6087614290087074 -0.7933533402912453 0.0
  outer loop
    vertex -8.750000000000062 211.18132256031328 -0.0008607566292992003
    vertex -8.232233047033699 210.78402600381855 34.999139243370685
    vertex -8.750000000000062 211.18132256031328 34.999139243370685
  endloop
endfacet
facet normal -0.9238795325112896 0.38268343236508284 0.0
  outer loop
    vertex -7.834936490538966 207.76625905085217 -0.0008607566292992003
    vertex -7.585185434277387 208.36921143809587 34.999139243370685
    vertex -7.585185434277387 208.36921143809587 -0.0008607566292992003
  endloop
endfacet
facet normal -0.9238795325112896 0.38268343236508284 0.0
  outer loop
    vertex -7.585185434277387 208.36921143809587 34.999139243370685
    vertex -7.834936490538966 207.76625905085217 -0.0008607566292992003
    vertex -7.834936490538966 207.76625905085217 34.999139243370685
  endloop
endfacet
facet normal -0.9914448613738096 -0.13052619222005835 0.0
  outer loop
    vertex -7.500000000000054 209.01625905085217 -0.0008607566292992003
    vertex -7.585185434277387 209.66330666360844 34.999139243370685
    vertex -7.585185434277387 209.66330666360844 -0.0008607566292992003
  endloop
endfacet
facet normal -0.9914448613738096 -0.13052619222005835 0.0
  outer loop
    vertex -7.585185434277387 209.66330666360844 34.999139243370685
    vertex -7.500000000000054 209.01625905085217 -0.0008607566292992003
    vertex -7.500000000000054 209.01625905085217 34.999139243370685
  endloop
endfacet
facet normal 0.13052619222005582 -0.9914448613738098 0.0
  outer loop
    vertex 94.9999999999999 211.51625905085217 34.999139243370685
    vertex 94.3529523872436 211.43107361657485 -0.0008607566293133001
    vertex 94.9999999999999 211.51625905085217 -0.0008607566293133001
  endloop
endfacet
facet normal 0.13052619222005582 -0.9914448613738098 0.0
  outer loop
    vertex 94.3529523872436 211.43107361657485 -0.0008607566293133001
    vertex 94.9999999999999 211.51625905085217 34.999139243370685
    vertex 94.3529523872436 211.43107361657485 34.999139243370685
  endloop
endfacet
facet normal -0.6087614290087054 0.793353340291247 0.0
  outer loop
    vertex 96.24999999999991 206.8511955413911 34.999139243370685
    vertex 96.76776695296628 207.24849209788582 -0.0008607566293133001
    vertex 96.24999999999991 206.8511955413911 -0.0008607566293133001
  endloop
endfacet
facet normal -0.6087614290087054 0.793353340291247 0.0
  outer loop
    vertex 96.76776695296628 207.24849209788582 -0.0008607566293133001
    vertex 96.24999999999991 206.8511955413911 34.999139243370685
    vertex 96.76776695296628 207.24849209788582 34.999139243370685
  endloop
endfacet
facet normal -0.6087614290087043 -0.7933533402912477 0.0
  outer loop
    vertex 96.76776695296628 210.78402600381855 34.999139243370685
    vertex 96.2499999999999 211.18132256031328 -0.0008607566293133001
    vertex 96.76776695296628 210.78402600381855 -0.0008607566293133001
  endloop
endfacet
facet normal -0.6087614290087043 -0.7933533402912477 0.0
  outer loop
    vertex 96.2499999999999 211.18132256031328 -0.0008607566293133001
    vertex 96.76776695296628 210.78402600381855 34.999139243370685
    vertex 96.2499999999999 211.18132256031328 34.999139243370685
  endloop
endfacet
facet normal 0.9914448613738102 -0.13052619222005413 0.0
  outer loop
    vertex 92.49999999999991 209.01625905085217 34.999139243370685
    vertex 92.58518543427724 209.66330666360844 -0.0008607566293133001
    vertex 92.58518543427724 209.66330666360844 34.999139243370685
  endloop
endfacet
facet normal 0.9914448613738102 -0.13052619222005413 0.0
  outer loop
    vertex 92.58518543427724 209.66330666360844 -0.0008607566293133001
    vertex 92.49999999999991 209.01625905085217 34.999139243370685
    vertex 92.49999999999991 209.01625905085217 -0.0008607566293133001
  endloop
endfacet
facet normal -0.3826834323650969 0.923879532511284 0.0
  outer loop
    vertex 95.64704761275621 206.60144448512952 34.999139243370685
    vertex 96.24999999999991 206.8511955413911 -0.0008607566293133001
    vertex 95.64704761275621 206.60144448512952 -0.0008607566293133001
  endloop
endfacet
facet normal -0.3826834323650969 0.923879532511284 0.0
  outer loop
    vertex 96.24999999999991 206.8511955413911 -0.0008607566293133001
    vertex 95.64704761275621 206.60144448512952 34.999139243370685
    vertex 96.24999999999991 206.8511955413911 34.999139243370685
  endloop
endfacet
facet normal 0.9238795325112873 -0.38268343236508834 0.0
  outer loop
    vertex 92.58518543427724 209.66330666360844 34.999139243370685
    vertex 92.83493649053882 210.26625905085214 -0.0008607566293133001
    vertex 92.83493649053882 210.26625905085214 34.999139243370685
  endloop
endfacet
facet normal 0.9238795325112873 -0.38268343236508834 0.0
  outer loop
    vertex 92.83493649053882 210.26625905085214 -0.0008607566293133001
    vertex 92.58518543427724 209.66330666360844 34.999139243370685
    vertex 92.58518543427724 209.66330666360844 -0.0008607566293133001
  endloop
endfacet
facet normal -0.13052619222005615 -0.9914448613738099 0.0
  outer loop
    vertex 95.64704761275621 211.43107361657485 34.999139243370685
    vertex 94.9999999999999 211.51625905085217 -0.0008607566293133001
    vertex 95.64704761275621 211.43107361657485 -0.0008607566293133001
  endloop
endfacet
facet normal -0.13052619222005615 -0.9914448613738099 0.0
  outer loop
    vertex 94.9999999999999 211.51625905085217 -0.0008607566293133001
    vertex 95.64704761275621 211.43107361657485 34.999139243370685
    vertex 94.9999999999999 211.51625905085217 34.999139243370685
  endloop
endfacet
facet normal 0.9914448613738107 0.1305261922200496 0.0
  outer loop
    vertex 92.58518543427724 208.36921143809587 34.999139243370685
    vertex 92.49999999999991 209.01625905085217 -0.0008607566293133001
    vertex 92.49999999999991 209.01625905085217 34.999139243370685
  endloop
endfacet
facet normal 0.9914448613738107 0.1305261922200496 0.0
  outer loop
    vertex 92.49999999999991 209.01625905085217 -0.0008607566293133001
    vertex 92.58518543427724 208.36921143809587 34.999139243370685
    vertex 92.58518543427724 208.36921143809587 -0.0008607566293133001
  endloop
endfacet
facet normal 0.9238795325112866 0.3826834323650902 0.0
  outer loop
    vertex 92.83493649053882 207.76625905085217 34.999139243370685
    vertex 92.58518543427724 208.36921143809587 -0.0008607566293133001
    vertex 92.58518543427724 208.36921143809587 34.999139243370685
  endloop
endfacet
facet normal 0.9238795325112866 0.3826834323650902 0.0
  outer loop
    vertex 92.58518543427724 208.36921143809587 -0.0008607566293133001
    vertex 92.83493649053882 207.76625905085217 34.999139243370685
    vertex 92.83493649053882 207.76625905085217 -0.0008607566293133001
  endloop
endfacet
facet normal -0.3826834323650976 -0.9238795325112836 0.0
  outer loop
    vertex 96.2499999999999 211.18132256031328 34.999139243370685
    vertex 95.64704761275621 211.43107361657485 -0.0008607566293133001
    vertex 96.2499999999999 211.18132256031328 -0.0008607566293133001
  endloop
endfacet
facet normal -0.3826834323650976 -0.9238795325112836 0.0
  outer loop
    vertex 95.64704761275621 211.43107361657485 -0.0008607566293133001
    vertex 96.2499999999999 211.18132256031328 34.999139243370685
    vertex 95.64704761275621 211.43107361657485 34.999139243370685
  endloop
endfacet
facet normal 0.3826834323650976 -0.9238795325112836 0.0
  outer loop
    vertex 94.3529523872436 211.43107361657485 34.999139243370685
    vertex 93.7499999999999 211.18132256031328 -0.0008607566293133001
    vertex 94.3529523872436 211.43107361657485 -0.0008607566293133001
  endloop
endfacet
facet normal 0.3826834323650976 -0.9238795325112836 0.0
  outer loop
    vertex 93.7499999999999 211.18132256031328 -0.0008607566293133001
    vertex 94.3529523872436 211.43107361657485 34.999139243370685
    vertex 93.7499999999999 211.18132256031328 34.999139243370685
  endloop
endfacet
facet normal 0.7933533402912457 -0.6087614290087071 0.0
  outer loop
    vertex 92.83493649053882 210.26625905085214 34.999139243370685
    vertex 93.23223304703355 210.78402600381855 -0.0008607566293133001
    vertex 93.23223304703355 210.78402600381855 34.999139243370685
  endloop
endfacet
facet normal 0.7933533402912457 -0.6087614290087071 0.0
  outer loop
    vertex 93.23223304703355 210.78402600381855 -0.0008607566293133001
    vertex 92.83493649053882 210.26625905085214 34.999139243370685
    vertex 92.83493649053882 210.26625905085214 -0.0008607566293133001
  endloop
endfacet
facet normal 0.3826834323650969 0.923879532511284 0.0
  outer loop
    vertex 93.7499999999999 206.8511955413911 34.999139243370685
    vertex 94.35295238724362 206.60144448512952 -0.0008607566293133001
    vertex 93.7499999999999 206.8511955413911 -0.0008607566293133001
  endloop
endfacet
facet normal 0.3826834323650969 0.923879532511284 0.0
  outer loop
    vertex 94.35295238724362 206.60144448512952 -0.0008607566293133001
    vertex 93.7499999999999 206.8511955413911 34.999139243370685
    vertex 94.35295238724362 206.60144448512952 34.999139243370685
  endloop
endfacet
facet normal 0.6087614290087054 0.793353340291247 0.0
  outer loop
    vertex 93.23223304703355 207.24849209788582 34.999139243370685
    vertex 93.7499999999999 206.8511955413911 -0.0008607566293133001
    vertex 93.23223304703355 207.24849209788582 -0.0008607566293133001
  endloop
endfacet
facet normal 0.6087614290087054 0.793353340291247 0.0
  outer loop
    vertex 93.7499999999999 206.8511955413911 -0.0008607566293133001
    vertex 93.23223304703355 207.24849209788582 34.999139243370685
    vertex 93.7499999999999 206.8511955413911 34.999139243370685
  endloop
endfacet
facet normal 0.793353340291233 0.6087614290087238 0.0
  outer loop
    vertex 93.23223304703355 207.24849209788582 34.999139243370685
    vertex 92.83493649053882 207.76625905085217 -0.0008607566293133001
    vertex 92.83493649053882 207.76625905085217 34.999139243370685
  endloop
endfacet
facet normal 0.793353340291233 0.6087614290087238 0.0
  outer loop
    vertex 92.83493649053882 207.76625905085217 -0.0008607566293133001
    vertex 93.23223304703355 207.24849209788582 34.999139243370685
    vertex 93.23223304703355 207.24849209788582 -0.0008607566293133001
  endloop
endfacet
facet normal 0.1305261922200564 0.9914448613738097 0.0
  outer loop
    vertex 94.35295238724362 206.60144448512952 34.999139243370685
    vertex 94.9999999999999 206.5162590508522 -0.0008607566293133001
    vertex 94.35295238724362 206.60144448512952 -0.0008607566293133001
  endloop
endfacet
facet normal 0.1305261922200564 0.9914448613738097 0.0
  outer loop
    vertex 94.9999999999999 206.5162590508522 -0.0008607566293133001
    vertex 94.35295238724362 206.60144448512952 34.999139243370685
    vertex 94.9999999999999 206.5162590508522 34.999139243370685
  endloop
endfacet
facet normal 0.6087614290087054 -0.793353340291247 0.0
  outer loop
    vertex 93.7499999999999 211.18132256031328 34.999139243370685
    vertex 93.23223304703355 210.78402600381855 -0.0008607566293133001
    vertex 93.7499999999999 211.18132256031328 -0.0008607566293133001
  endloop
endfacet
facet normal 0.6087614290087054 -0.793353340291247 0.0
  outer loop
    vertex 93.23223304703355 210.78402600381855 -0.0008607566293133001
    vertex 93.7499999999999 211.18132256031328 34.999139243370685
    vertex 93.23223304703355 210.78402600381855 34.999139243370685
  endloop
endfacet
facet normal -0.1305261922200561 0.9914448613738099 0.0
  outer loop
    vertex 94.9999999999999 206.5162590508522 34.999139243370685
    vertex 95.64704761275621 206.60144448512952 -0.0008607566293133001
    vertex 94.9999999999999 206.5162590508522 -0.0008607566293133001
  endloop
endfacet
facet normal -0.1305261922200561 0.9914448613738099 0.0
  outer loop
    vertex 95.64704761275621 206.60144448512952 -0.0008607566293133001
    vertex 94.9999999999999 206.5162590508522 34.999139243370685
    vertex 95.64704761275621 206.60144448512952 34.999139243370685
  endloop
endfacet
facet normal -3.256270724883142e-05 3.5819022921267956e-05 0.9999999988283339
  outer loop
    vertex 2.000013110278918 219.01609153482218 34.999139243370685
    vertex -7.585185434277387 209.66330666360844 34.999139243370685
    vertex -7.500000000000054 209.01625905085217 34.999139243370685
  endloop
endfacet
facet normal -3.256270724883142e-05 3.5819022921267956e-05 0.9999999988283339
  outer loop
    vertex -7.585185434277387 209.66330666360844 34.999139243370685
    vertex 2.000013110278918 219.01609153482218 34.999139243370685
    vertex -7.834936490538966 210.2662590508522 34.999139243370685
  endloop
endfacet
facet normal -3.256270724883142e-05 3.5819022921267956e-05 0.9999999988283339
  outer loop
    vertex -7.834936490538966 210.2662590508522 34.999139243370685
    vertex 2.000013110278918 219.01609153482218 34.999139243370685
    vertex -8.232233047033699 210.78402600381855 34.999139243370685
  endloop
endfacet
facet normal -3.256270724883142e-05 3.5819022921267956e-05 0.9999999988283339
  outer loop
    vertex -8.232233047033699 210.78402600381855 34.999139243370685
    vertex 2.000013110278918 219.01609153482218 34.999139243370685
    vertex -8.750000000000062 211.18132256031328 34.999139243370685
  endloop
endfacet
facet normal -3.256270724883142e-05 3.5819022921267956e-05 0.9999999988283339
  outer loop
    vertex -8.750000000000062 211.18132256031328 34.999139243370685
    vertex 2.000013110278918 219.01609153482218 34.999139243370685
    vertex -20.000000000000053 219.01625905085217 34.999139243370685
  endloop
endfacet
facet normal -3.256270724883142e-05 3.5819022921267956e-05 0.9999999988283339
  outer loop
    vertex -8.750000000000062 211.18132256031328 34.999139243370685
    vertex -20.000000000000053 219.01625905085217 34.999139243370685
    vertex -9.352952387243759 211.43107361657485 34.999139243370685
  endloop
endfacet
facet normal -3.256270724883142e-05 3.5819022921267956e-05 0.9999999988283339
  outer loop
    vertex -9.352952387243759 211.43107361657485 34.999139243370685
    vertex -20.000000000000053 219.01625905085217 34.999139243370685
    vertex -10.000000000000071 211.51625905085217 34.999139243370685
  endloop
endfacet
facet normal -3.256270724883142e-05 3.5819022921267956e-05 0.9999999988283339
  outer loop
    vertex -10.000000000000071 211.51625905085217 34.999139243370685
    vertex -20.000000000000053 219.01625905085217 34.999139243370685
    vertex -10.647047612756362 211.43107361657485 34.999139243370685
  endloop
endfacet
facet normal -3.256270724883142e-05 3.5819022921267956e-05 0.9999999988283339
  outer loop
    vertex -10.647047612756362 211.43107361657485 34.999139243370685
    vertex -20.000000000000053 219.01625905085217 34.999139243370685
    vertex -11.250000000000059 211.18132256031328 34.999139243370685
  endloop
endfacet
facet normal -3.256270724883142e-05 3.5819022921267956e-05 0.9999999988283339
  outer loop
    vertex -11.250000000000059 211.18132256031328 34.999139243370685
    vertex -20.000000000000053 219.01625905085217 34.999139243370685
    vertex -11.767766952966422 210.78402600381855 34.999139243370685
  endloop
endfacet
facet normal -3.256270724883142e-05 3.5819022921267956e-05 0.9999999988283339
  outer loop
    vertex -11.767766952966422 210.78402600381855 34.999139243370685
    vertex -20.000000000000053 219.01625905085217 34.999139243370685
    vertex -12.165063509461156 210.26625905085214 34.999139243370685
  endloop
endfacet
facet normal -3.256270724883142e-05 3.5819022921267956e-05 0.9999999988283339
  outer loop
    vertex -12.165063509461156 210.26625905085214 34.999139243370685
    vertex -20.000000000000053 219.01625905085217 34.999139243370685
    vertex -12.414814565722713 209.66330666360844 34.999139243370685
  endloop
endfacet
facet normal -3.256270724883142e-05 3.5819022921267956e-05 0.9999999988283339
  outer loop
    vertex -12.414814565722713 209.66330666360844 34.999139243370685
    vertex -20.000000000000053 219.01625905085217 34.999139243370685
    vertex -12.500000000000044 209.01625905085217 34.999139243370685
  endloop
endfacet
facet normal -3.256270724883142e-05 3.5819022921267956e-05 0.9999999988283339
  outer loop
    vertex 2.000015105783396 199.01639839083347 35.00057200435437
    vertex -8.750000000000062 206.8511955413911 34.999139243370685
    vertex -20.000000000000053 199.01625905085217 34.999139243370685
  endloop
endfacet
facet normal -3.256270724883142e-05 3.5819022921267956e-05 0.9999999988283339
  outer loop
    vertex -8.750000000000062 206.8511955413911 34.999139243370685
    vertex 2.000015105783396 199.01639839083347 35.00057200435437
    vertex -8.232233047033699 207.24849209788582 34.999139243370685
  endloop
endfacet
facet normal -3.256270724883142e-05 3.5819022921267956e-05 0.9999999988283339
  outer loop
    vertex -8.232233047033699 207.24849209788582 34.999139243370685
    vertex 2.000015105783396 199.01639839083347 35.00057200435437
    vertex 2.000013110278918 219.01609153482218 34.999139243370685
  endloop
endfacet
facet normal -3.256270724883142e-05 3.5819022921267956e-05 0.9999999988283339
  outer loop
    vertex -8.232233047033699 207.24849209788582 34.999139243370685
    vertex 2.000013110278918 219.01609153482218 34.999139243370685
    vertex -7.834936490538966 207.76625905085217 34.999139243370685
  endloop
endfacet
facet normal -3.256270724883142e-05 3.5819022921267956e-05 0.9999999988283339
  outer loop
    vertex -7.834936490538966 207.76625905085217 34.999139243370685
    vertex 2.000013110278918 219.01609153482218 34.999139243370685
    vertex -7.585185434277387 208.36921143809587 34.999139243370685
  endloop
endfacet
facet normal -3.256270724883142e-05 3.5819022921267956e-05 0.9999999988283339
  outer loop
    vertex -7.585185434277387 208.36921143809587 34.999139243370685
    vertex 2.000013110278918 219.01609153482218 34.999139243370685
    vertex -7.500000000000054 209.01625905085217 34.999139243370685
  endloop
endfacet
facet normal -3.256270724883142e-05 3.5819022921267956e-05 0.9999999988283339
  outer loop
    vertex -20.000000000000053 199.01625905085217 34.999139243370685
    vertex -8.750000000000062 206.8511955413911 34.999139243370685
    vertex -9.352952387243759 206.60144448512952 34.999139243370685
  endloop
endfacet
facet normal -3.256270724883142e-05 3.5819022921267956e-05 0.9999999988283339
  outer loop
    vertex -20.000000000000053 199.01625905085217 34.999139243370685
    vertex -9.352952387243759 206.60144448512952 34.999139243370685
    vertex -10.000000000000071 206.5162590508522 34.999139243370685
  endloop
endfacet
facet normal -3.256270724883142e-05 3.5819022921267956e-05 0.9999999988283339
  outer loop
    vertex -20.000000000000053 199.01625905085217 34.999139243370685
    vertex -10.000000000000071 206.5162590508522 34.999139243370685
    vertex -10.647047612756362 206.60144448512952 34.999139243370685
  endloop
endfacet
facet normal -3.256270724883142e-05 3.5819022921267956e-05 0.9999999988283339
  outer loop
    vertex -20.000000000000053 199.01625905085217 34.999139243370685
    vertex -10.647047612756362 206.60144448512952 34.999139243370685
    vertex -11.250000000000059 206.8511955413911 34.999139243370685
  endloop
endfacet
facet normal -3.256270724883142e-05 3.5819022921267956e-05 0.9999999988283339
  outer loop
    vertex -20.000000000000053 199.01625905085217 34.999139243370685
    vertex -11.250000000000059 206.8511955413911 34.999139243370685
    vertex -11.767766952966422 207.24849209788582 34.999139243370685
  endloop
endfacet
facet normal -3.256270724883142e-05 3.5819022921267956e-05 0.9999999988283339
  outer loop
    vertex -20.000000000000053 199.01625905085217 34.999139243370685
    vertex -11.767766952966422 207.24849209788582 34.999139243370685
    vertex -12.165063509461156 207.76625905085217 34.999139243370685
  endloop
endfacet
facet normal -3.256270724883142e-05 3.5819022921267956e-05 0.9999999988283339
  outer loop
    vertex -20.000000000000053 199.01625905085217 34.999139243370685
    vertex -12.165063509461156 207.76625905085217 34.999139243370685
    vertex -12.414814565722713 208.36921143809587 34.999139243370685
  endloop
endfacet
facet normal -3.256270724883142e-05 3.5819022921267956e-05 0.9999999988283339
  outer loop
    vertex -20.000000000000053 199.01625905085217 34.999139243370685
    vertex -12.414814565722713 208.36921143809587 34.999139243370685
    vertex -12.500000000000044 209.01625905085217 34.999139243370685
  endloop
endfacet
facet normal -3.256270724883142e-05 3.5819022921267956e-05 0.9999999988283339
  outer loop
    vertex -20.000000000000053 199.01625905085217 34.999139243370685
    vertex -12.500000000000044 209.01625905085217 34.999139243370685
    vertex -20.000000000000053 219.01625905085217 34.999139243370685
  endloop
endfacet
facet normal 1.9107242528098534e-08 -0.9999999999987812 1.5611911900476867e-06
  outer loop
    vertex 104.99999999999994 199.01625905085217 -0.00086075662931612
    vertex 82.99999999999989 199.01625905085217 1.9991392433706858
    vertex -20.000000000000053 199.01625905085217 -0.0008607566292992003
  endloop
endfacet
facet normal 1.9107242528098534e-08 -0.9999999999987812 1.5611911900476867e-06
  outer loop
    vertex 82.99999999999989 199.01625905085217 1.9991392433706858
    vertex 104.99999999999994 199.01625905085217 -0.00086075662931612
    vertex 104.99999999999994 199.01625905085217 34.999139243370685
  endloop
endfacet
facet normal 1.9107242528098534e-08 -0.9999999999987812 1.5611911900476867e-06
  outer loop
    vertex -20.000000000000053 199.01625905085217 -0.0008607566292992003
    vertex 82.99999999999989 199.01625905085217 1.9991392433706858
    vertex 1.9999999999999962 199.01625905085217 1.999139243370683
  endloop
endfacet
facet normal 1.9107242528098534e-08 -0.9999999999987812 1.5611911900476867e-06
  outer loop
    vertex 82.99999999999989 199.01625905085217 1.9991392433706858
    vertex 104.99999999999994 199.01625905085217 34.999139243370685
    vertex 83.00001510558464 199.0164145546678 35.00057200435437
  endloop
endfacet
facet normal 1.9107242528098534e-08 -0.9999999999987812 1.5611911900476867e-06
  outer loop
    vertex 1.9999999999999962 199.01625905085217 1.999139243370683
    vertex -20.000000000000053 199.01625905085217 34.999139243370685
    vertex -20.000000000000053 199.01625905085217 -0.0008607566292992003
  endloop
endfacet
facet normal 1.9107242528098534e-08 -0.9999999999987812 1.5611911900476867e-06
  outer loop
    vertex -20.000000000000053 199.01625905085217 34.999139243370685
    vertex 1.9999999999999962 199.01625905085217 1.999139243370683
    vertex 2.000015105783396 199.01639839083347 35.00057200435437
  endloop
endfacet
facet normal -1.7407200509554968e-17 -5.63993296509579e-17 1.0
  outer loop
    vertex 2.00001311008037 219.01595634646083 1.9992511674323414
    vertex 82.99999999999989 199.01625905085217 1.9991392433706858
    vertex 83.00001311008015 219.01595634646083 1.9992511674323414
  endloop
endfacet
facet normal -1.7407200509554968e-17 -5.63993296509579e-17 1.0
  outer loop
    vertex 82.99999999999989 199.01625905085217 1.9991392433706858
    vertex 2.00001311008037 219.01595634646083 1.9992511674323414
    vertex 1.9999999999999962 199.01625905085217 1.999139243370683
  endloop
endfacet
facet normal 4.6604284479794515e-05 0.0002636466051079222 -0.9999999641592536
  outer loop
    vertex 104.99999999999994 199.01625905085217 -0.00086075662931612
    vertex 97.165063509461 207.76625905085217 -0.0008607566293133001
    vertex 104.99999999999994 219.01625905085217 -0.00086075662931612
  endloop
endfacet
facet normal 4.6604284479794515e-05 0.0002636466051079222 -0.9999999641592536
  outer loop
    vertex 97.165063509461 207.76625905085217 -0.0008607566293133001
    vertex 104.99999999999994 199.01625905085217 -0.00086075662931612
    vertex 96.76776695296628 207.24849209788582 -0.0008607566293133001
  endloop
endfacet
facet normal 4.6604284479794515e-05 0.0002636466051079222 -0.9999999641592536
  outer loop
    vertex 96.76776695296628 207.24849209788582 -0.0008607566293133001
    vertex 104.99999999999994 199.01625905085217 -0.00086075662931612
    vertex 96.24999999999991 206.8511955413911 -0.0008607566293133001
  endloop
endfacet
facet normal 4.6604284479794515e-05 0.0002636466051079222 -0.9999999641592536
  outer loop
    vertex 96.24999999999991 206.8511955413911 -0.0008607566293133001
    vertex 104.99999999999994 199.01625905085217 -0.00086075662931612
    vertex 95.64704761275621 206.60144448512952 -0.0008607566293133001
  endloop
endfacet
facet normal 4.6604284479794515e-05 0.0002636466051079222 -0.9999999641592536
  outer loop
    vertex 95.64704761275621 206.60144448512952 -0.0008607566293133001
    vertex 104.99999999999994 199.01625905085217 -0.00086075662931612
    vertex 94.9999999999999 206.5162590508522 -0.0008607566293133001
  endloop
endfacet
facet normal 4.6604284479794515e-05 0.0002636466051079222 -0.9999999641592536
  outer loop
    vertex 94.9999999999999 206.5162590508522 -0.0008607566293133001
    vertex 104.99999999999994 199.01625905085217 -0.00086075662931612
    vertex -20.000000000000053 199.01625905085217 -0.0008607566292992003
  endloop
endfacet
facet normal 4.6604284479794515e-05 0.0002636466051079222 -0.9999999641592536
  outer loop
    vertex 104.99999999999994 219.01625905085217 -0.00086075662931612
    vertex 97.165063509461 207.76625905085217 -0.0008607566293133001
    vertex 97.41481456572258 208.36921143809587 -0.0008607566293133001
  endloop
endfacet
facet normal 4.6604284479794515e-05 0.0002636466051079222 -0.9999999641592536
  outer loop
    vertex 104.99999999999994 219.01625905085217 -0.00086075662931612
    vertex 97.41481456572258 208.36921143809587 -0.0008607566293133001
    vertex 97.4999999999999 209.01625905085217 -0.0008607566293133001
  endloop
endfacet
facet normal 4.6604284479794515e-05 0.0002636466051079222 -0.9999999641592536
  outer loop
    vertex 94.9999999999999 206.5162590508522 -0.0008607566293133001
    vertex -20.000000000000053 199.01625905085217 -0.0008607566292992003
    vertex 94.35295238724362 206.60144448512952 -0.0008607566293133001
  endloop
endfacet
facet normal 4.6604284479794515e-05 0.0002636466051079222 -0.9999999641592536
  outer loop
    vertex 94.35295238724362 206.60144448512952 -0.0008607566293133001
    vertex -20.000000000000053 199.01625905085217 -0.0008607566292992003
    vertex 93.7499999999999 206.8511955413911 -0.0008607566293133001
  endloop
endfacet
facet normal 4.6604284479794515e-05 0.0002636466051079222 -0.9999999641592536
  outer loop
    vertex 93.7499999999999 206.8511955413911 -0.0008607566293133001
    vertex -20.000000000000053 199.01625905085217 -0.0008607566292992003
    vertex 93.23223304703355 207.24849209788582 -0.0008607566293133001
  endloop
endfacet
facet normal 4.6604284479794515e-05 0.0002636466051079222 -0.9999999641592536
  outer loop
    vertex 93.23223304703355 207.24849209788582 -0.0008607566293133001
    vertex -20.000000000000053 199.01625905085217 -0.0008607566292992003
    vertex 92.83493649053882 207.76625905085217 -0.0008607566293133001
  endloop
endfacet
facet normal 4.6604284479794515e-05 0.0002636466051079222 -0.9999999641592536
  outer loop
    vertex 92.83493649053882 207.76625905085217 -0.0008607566293133001
    vertex -20.000000000000053 199.01625905085217 -0.0008607566292992003
    vertex 92.58518543427724 208.36921143809587 -0.0008607566293133001
  endloop
endfacet
facet normal 4.6604284479794515e-05 0.0002636466051079222 -0.9999999641592536
  outer loop
    vertex 92.58518543427724 208.36921143809587 -0.0008607566293133001
    vertex -20.000000000000053 199.01625905085217 -0.0008607566292992003
    vertex 92.49999999999991 209.01625905085217 -0.0008607566293133001
  endloop
endfacet
facet normal 4.6604284479794515e-05 0.0002636466051079222 -0.9999999641592536
  outer loop
    vertex 92.49999999999991 209.01625905085217 -0.0008607566293133001
    vertex -20.000000000000053 199.01625905085217 -0.0008607566292992003
    vertex -8.750000000000062 206.8511955413911 -0.0008607566292992003
  endloop
endfacet
facet normal 4.6604284479794515e-05 0.0002636466051079222 -0.9999999641592536
  outer loop
    vertex 92.49999999999991 209.01625905085217 -0.0008607566293133001
    vertex -8.750000000000062 206.8511955413911 -0.0008607566292992003
    vertex -8.232233047033699 207.24849209788582 -0.0008607566292992003
  endloop
endfacet
facet normal 4.6604284479794515e-05 0.0002636466051079222 -0.9999999641592536
  outer loop
    vertex 92.49999999999991 209.01625905085217 -0.0008607566293133001
    vertex -8.232233047033699 207.24849209788582 -0.0008607566292992003
    vertex -7.834936490538966 207.76625905085217 -0.0008607566292992003
  endloop
endfacet
facet normal 4.6604284479794515e-05 0.0002636466051079222 -0.9999999641592536
  outer loop
    vertex 92.49999999999991 209.01625905085217 -0.0008607566293133001
    vertex -7.834936490538966 207.76625905085217 -0.0008607566292992003
    vertex -7.585185434277387 208.36921143809587 -0.0008607566292992003
  endloop
endfacet
facet normal 4.6604284479794515e-05 0.0002636466051079222 -0.9999999641592536
  outer loop
    vertex 92.49999999999991 209.01625905085217 -0.0008607566293133001
    vertex -7.585185434277387 208.36921143809587 -0.0008607566292992003
    vertex -7.500000000000054 209.01625905085217 -0.0008607566292992003
  endloop
endfacet
facet normal 4.6604284479794515e-05 0.0002636466051079222 -0.9999999641592536
  outer loop
    vertex -8.750000000000062 206.8511955413911 -0.0008607566292992003
    vertex -20.000000000000053 199.01625905085217 -0.0008607566292992003
    vertex -9.352952387243759 206.60144448512952 -0.0008607566292992003
  endloop
endfacet
facet normal 4.6604284479794515e-05 0.0002636466051079222 -0.9999999641592536
  outer loop
    vertex -9.352952387243759 206.60144448512952 -0.0008607566292992003
    vertex -20.000000000000053 199.01625905085217 -0.0008607566292992003
    vertex -10.000000000000071 206.5162590508522 -0.0008607566292992003
  endloop
endfacet
facet normal 4.6604284479794515e-05 0.0002636466051079222 -0.9999999641592536
  outer loop
    vertex -10.000000000000071 206.5162590508522 -0.0008607566292992003
    vertex -20.000000000000053 199.01625905085217 -0.0008607566292992003
    vertex -10.647047612756362 206.60144448512952 -0.0008607566292992003
  endloop
endfacet
facet normal 4.6604284479794515e-05 0.0002636466051079222 -0.9999999641592536
  outer loop
    vertex -10.647047612756362 206.60144448512952 -0.0008607566292992003
    vertex -20.000000000000053 199.01625905085217 -0.0008607566292992003
    vertex -11.250000000000059 206.8511955413911 -0.0008607566292992003
  endloop
endfacet
facet normal 4.6604284479794515e-05 0.0002636466051079222 -0.9999999641592536
  outer loop
    vertex -11.250000000000059 206.8511955413911 -0.0008607566292992003
    vertex -20.000000000000053 199.01625905085217 -0.0008607566292992003
    vertex -11.767766952966422 207.24849209788582 -0.0008607566292992003
  endloop
endfacet
facet normal 4.6604284479794515e-05 0.0002636466051079222 -0.9999999641592536
  outer loop
    vertex -11.767766952966422 207.24849209788582 -0.0008607566292992003
    vertex -20.000000000000053 199.01625905085217 -0.0008607566292992003
    vertex -12.165063509461156 207.76625905085217 -0.0008607566292992003
  endloop
endfacet
facet normal 4.6604284479794515e-05 0.0002636466051079222 -0.9999999641592536
  outer loop
    vertex -12.165063509461156 207.76625905085217 -0.0008607566292992003
    vertex -20.000000000000053 199.01625905085217 -0.0008607566292992003
    vertex -12.414814565722713 208.36921143809587 -0.0008607566292992003
  endloop
endfacet
facet normal 4.6604284479794515e-05 0.0002636466051079222 -0.9999999641592536
  outer loop
    vertex -12.414814565722713 208.36921143809587 -0.0008607566292992003
    vertex -20.000000000000053 199.01625905085217 -0.0008607566292992003
    vertex -12.500000000000044 209.01625905085217 -0.0008607566292992003
  endloop
endfacet
facet normal 4.6604284479794515e-05 0.0002636466051079222 -0.9999999641592536
  outer loop
    vertex 104.99999999999994 219.01625905085217 -0.00086075662931612
    vertex 94.9999999999999 211.51625905085217 -0.0008607566293133001
    vertex -20.000000000000053 219.01625905085217 -0.0008607566292992003
  endloop
endfacet
facet normal 4.6604284479794515e-05 0.0002636466051079222 -0.9999999641592536
  outer loop
    vertex 94.9999999999999 211.51625905085217 -0.0008607566293133001
    vertex 104.99999999999994 219.01625905085217 -0.00086075662931612
    vertex 95.64704761275621 211.43107361657485 -0.0008607566293133001
  endloop
endfacet
facet normal 4.6604284479794515e-05 0.0002636466051079222 -0.9999999641592536
  outer loop
    vertex 95.64704761275621 211.43107361657485 -0.0008607566293133001
    vertex 104.99999999999994 219.01625905085217 -0.00086075662931612
    vertex 96.2499999999999 211.18132256031328 -0.0008607566293133001
  endloop
endfacet
facet normal 4.6604284479794515e-05 0.0002636466051079222 -0.9999999641592536
  outer loop
    vertex 96.2499999999999 211.18132256031328 -0.0008607566293133001
    vertex 104.99999999999994 219.01625905085217 -0.00086075662931612
    vertex 96.76776695296628 210.78402600381855 -0.0008607566293133001
  endloop
endfacet
facet normal 4.6604284479794515e-05 0.0002636466051079222 -0.9999999641592536
  outer loop
    vertex 96.76776695296628 210.78402600381855 -0.0008607566293133001
    vertex 104.99999999999994 219.01625905085217 -0.00086075662931612
    vertex 97.165063509461 210.2662590508522 -0.0008607566293133001
  endloop
endfacet
facet normal 4.6604284479794515e-05 0.0002636466051079222 -0.9999999641592536
  outer loop
    vertex 97.165063509461 210.2662590508522 -0.0008607566293133001
    vertex 104.99999999999994 219.01625905085217 -0.00086075662931612
    vertex 97.41481456572258 209.66330666360844 -0.0008607566293133001
  endloop
endfacet
facet normal 4.6604284479794515e-05 0.0002636466051079222 -0.9999999641592536
  outer loop
    vertex 97.41481456572258 209.66330666360844 -0.0008607566293133001
    vertex 104.99999999999994 219.01625905085217 -0.00086075662931612
    vertex 97.4999999999999 209.01625905085217 -0.0008607566293133001
  endloop
endfacet
facet normal 4.6604284479794515e-05 0.0002636466051079222 -0.9999999641592536
  outer loop
    vertex -20.000000000000053 219.01625905085217 -0.0008607566292992003
    vertex 94.9999999999999 211.51625905085217 -0.0008607566293133001
    vertex 94.3529523872436 211.43107361657485 -0.0008607566293133001
  endloop
endfacet
facet normal 4.6604284479794515e-05 0.0002636466051079222 -0.9999999641592536
  outer loop
    vertex -20.000000000000053 219.01625905085217 -0.0008607566292992003
    vertex 94.3529523872436 211.43107361657485 -0.0008607566293133001
    vertex 93.7499999999999 211.18132256031328 -0.0008607566293133001
  endloop
endfacet
facet normal 4.6604284479794515e-05 0.0002636466051079222 -0.9999999641592536
  outer loop
    vertex -20.000000000000053 219.01625905085217 -0.0008607566292992003
    vertex 93.7499999999999 211.18132256031328 -0.0008607566293133001
    vertex 93.23223304703355 210.78402600381855 -0.0008607566293133001
  endloop
endfacet
facet normal 4.6604284479794515e-05 0.0002636466051079222 -0.9999999641592536
  outer loop
    vertex -20.000000000000053 219.01625905085217 -0.0008607566292992003
    vertex 93.23223304703355 210.78402600381855 -0.0008607566293133001
    vertex 92.83493649053882 210.26625905085214 -0.0008607566293133001
  endloop
endfacet
facet normal 4.6604284479794515e-05 0.0002636466051079222 -0.9999999641592536
  outer loop
    vertex -20.000000000000053 219.01625905085217 -0.0008607566292992003
    vertex 92.83493649053882 210.26625905085214 -0.0008607566293133001
    vertex 92.58518543427724 209.66330666360844 -0.0008607566293133001
  endloop
endfacet
facet normal 4.6604284479794515e-05 0.0002636466051079222 -0.9999999641592536
  outer loop
    vertex -20.000000000000053 219.01625905085217 -0.0008607566292992003
    vertex 92.58518543427724 209.66330666360844 -0.0008607566293133001
    vertex 92.49999999999991 209.01625905085217 -0.0008607566293133001
  endloop
endfacet
facet normal 4.6604284479794515e-05 0.0002636466051079222 -0.9999999641592536
  outer loop
    vertex -20.000000000000053 219.01625905085217 -0.0008607566292992003
    vertex 92.49999999999991 209.01625905085217 -0.0008607566293133001
    vertex -8.750000000000062 211.18132256031328 -0.0008607566292992003
  endloop
endfacet
facet normal 4.6604284479794515e-05 0.0002636466051079222 -0.9999999641592536
  outer loop
    vertex -8.750000000000062 211.18132256031328 -0.0008607566292992003
    vertex 92.49999999999991 209.01625905085217 -0.0008607566293133001
    vertex -8.232233047033699 210.78402600381855 -0.0008607566292992003
  endloop
endfacet
facet normal 4.6604284479794515e-05 0.0002636466051079222 -0.9999999641592536
  outer loop
    vertex -8.232233047033699 210.78402600381855 -0.0008607566292992003
    vertex 92.49999999999991 209.01625905085217 -0.0008607566293133001
    vertex -7.834936490538966 210.2662590508522 -0.0008607566292992003
  endloop
endfacet
facet normal 4.6604284479794515e-05 0.0002636466051079222 -0.9999999641592536
  outer loop
    vertex -7.834936490538966 210.2662590508522 -0.0008607566292992003
    vertex 92.49999999999991 209.01625905085217 -0.0008607566293133001
    vertex -7.585185434277387 209.66330666360844 -0.0008607566292992003
  endloop
endfacet
facet normal 4.6604284479794515e-05 0.0002636466051079222 -0.9999999641592536
  outer loop
    vertex -7.585185434277387 209.66330666360844 -0.0008607566292992003
    vertex 92.49999999999991 209.01625905085217 -0.0008607566293133001
    vertex -7.500000000000054 209.01625905085217 -0.0008607566292992003
  endloop
endfacet
facet normal 4.6604284479794515e-05 0.0002636466051079222 -0.9999999641592536
  outer loop
    vertex -20.000000000000053 219.01625905085217 -0.0008607566292992003
    vertex -8.750000000000062 211.18132256031328 -0.0008607566292992003
    vertex -9.352952387243759 211.43107361657485 -0.0008607566292992003
  endloop
endfacet
facet normal 4.6604284479794515e-05 0.0002636466051079222 -0.9999999641592536
  outer loop
    vertex -20.000000000000053 219.01625905085217 -0.0008607566292992003
    vertex -9.352952387243759 211.43107361657485 -0.0008607566292992003
    vertex -10.000000000000071 211.51625905085217 -0.0008607566292992003
  endloop
endfacet
facet normal 4.6604284479794515e-05 0.0002636466051079222 -0.9999999641592536
  outer loop
    vertex -20.000000000000053 219.01625905085217 -0.0008607566292992003
    vertex -10.000000000000071 211.51625905085217 -0.0008607566292992003
    vertex -10.647047612756362 211.43107361657485 -0.0008607566292992003
  endloop
endfacet
facet normal 4.6604284479794515e-05 0.0002636466051079222 -0.9999999641592536
  outer loop
    vertex -20.000000000000053 219.01625905085217 -0.0008607566292992003
    vertex -10.647047612756362 211.43107361657485 -0.0008607566292992003
    vertex -11.250000000000059 211.18132256031328 -0.0008607566292992003
  endloop
endfacet
facet normal 4.6604284479794515e-05 0.0002636466051079222 -0.9999999641592536
  outer loop
    vertex -20.000000000000053 219.01625905085217 -0.0008607566292992003
    vertex -11.250000000000059 211.18132256031328 -0.0008607566292992003
    vertex -11.767766952966422 210.78402600381855 -0.0008607566292992003
  endloop
endfacet
facet normal 4.6604284479794515e-05 0.0002636466051079222 -0.9999999641592536
  outer loop
    vertex -20.000000000000053 219.01625905085217 -0.0008607566292992003
    vertex -11.767766952966422 210.78402600381855 -0.0008607566292992003
    vertex -12.165063509461156 210.26625905085214 -0.0008607566292992003
  endloop
endfacet
facet normal 4.6604284479794515e-05 0.0002636466051079222 -0.9999999641592536
  outer loop
    vertex -20.000000000000053 219.01625905085217 -0.0008607566292992003
    vertex -12.165063509461156 210.26625905085214 -0.0008607566292992003
    vertex -12.414814565722713 209.66330666360844 -0.0008607566292992003
  endloop
endfacet
facet normal 4.6604284479794515e-05 0.0002636466051079222 -0.9999999641592536
  outer loop
    vertex -20.000000000000053 219.01625905085217 -0.0008607566292992003
    vertex -12.414814565722713 209.66330666360844 -0.0008607566292992003
    vertex -12.500000000000044 209.01625905085217 -0.0008607566292992003
  endloop
endfacet
facet normal 4.6604284479794515e-05 0.0002636466051079222 -0.9999999641592536
  outer loop
    vertex -20.000000000000053 219.01625905085217 -0.0008607566292992003
    vertex -12.500000000000044 209.01625905085217 -0.0008607566292992003
    vertex -20.000000000000053 199.01625905085217 -0.0008607566292992003
  endloop
endfacet
facet normal -2.5705428074828523e-08 0.9999999999999962 8.458930738210708e-08
  outer loop
    vertex -20.000000000000053 219.01625905085217 34.999139243370685
    vertex 2.00001311008037 219.01595634646083 1.9992511674323414
    vertex -20.000000000000053 219.01625905085217 -0.0008607566292992003
  endloop
endfacet
facet normal -2.5705428074828523e-08 0.9999999999999962 8.458930738210708e-08
  outer loop
    vertex 2.00001311008037 219.01595634646083 1.9992511674323414
    vertex -20.000000000000053 219.01625905085217 34.999139243370685
    vertex 2.000013110278918 219.01609153482218 34.999139243370685
  endloop
endfacet
facet normal -2.5705428074828523e-08 0.9999999999999962 8.458930738210708e-08
  outer loop
    vertex 104.99999999999994 219.01625905085217 -0.00086075662931612
    vertex 83.00001311008015 219.01595634646083 1.9992511674323414
    vertex 104.99999999999994 219.01625905085217 34.999139243370685
  endloop
endfacet
facet normal -2.5705428074828523e-08 0.9999999999999962 8.458930738210708e-08
  outer loop
    vertex 83.00001311008015 219.01595634646083 1.9992511674323414
    vertex 104.99999999999994 219.01625905085217 -0.00086075662931612
    vertex -20.000000000000053 219.01625905085217 -0.0008607566292992003
  endloop
endfacet
facet normal -2.5705428074828523e-08 0.9999999999999962 8.458930738210708e-08
  outer loop
    vertex 83.00001311008015 219.01595634646083 1.9992511674323414
    vertex -20.000000000000053 219.01625905085217 -0.0008607566292992003
    vertex 2.00001311008037 219.01595634646083 1.9992511674323414
  endloop
endfacet
facet normal -2.5705428074828523e-08 0.9999999999999962 8.458930738210708e-08
  outer loop
    vertex 104.99999999999994 219.01625905085217 34.999139243370685
    vertex 83.00001311008015 219.01595634646083 1.9992511674323414
    vertex 83.00001311008015 219.0161076986565 34.999139243370685
  endloop
endfacet
facet normal 0.9999999999999609 -1.519975779420599e-07 -2.353388450868694e-07
  outer loop
    vertex 2.000015105783396 199.01639839083347 35.00057200435437
    vertex 2.00001311008037 219.01595634646083 1.9992511674323414
    vertex 2.000013110278918 219.01609153482218 34.999139243370685
  endloop
endfacet
facet normal 0.9999999999999609 -1.519975779420599e-07 -2.353388450868694e-07
  outer loop
    vertex 2.00001311008037 219.01595634646083 1.9992511674323414
    vertex 2.000015105783396 199.01639839083347 35.00057200435437
    vertex 1.9999999999999962 199.01625905085217 1.999139243370683
  endloop
endfacet
facet normal -0.9999999999999103 4.037548416837903e-07 1.287055781762567e-07
  outer loop
    vertex 83.00001311008015 219.01595634646083 1.9992511674323414
    vertex 83.00001510558464 199.0164145546678 35.00057200435437
    vertex 83.00001311008015 219.0161076986565 34.999139243370685
  endloop
endfacet
facet normal -0.9999999999999103 4.037548416837903e-07 1.287055781762567e-07
  outer loop
    vertex 83.00001510558464 199.0164145546678 35.00057200435437
    vertex 83.00001311008015 219.01595634646083 1.9992511674323414
    vertex 82.99999999999989 199.01625905085217 1.9991392433706858
  endloop
endfacet
facet normal 3.2562772375125735e-05 3.581902617022353e-05 0.9999999988283317
  outer loop
    vertex 104.99999999999994 219.01625905085217 34.999139243370685
    vertex 97.165063509461 210.2662590508522 34.999139243370685
    vertex 104.99999999999994 199.01625905085217 34.999139243370685
  endloop
endfacet
facet normal 3.2562772375125735e-05 3.581902617022353e-05 0.9999999988283317
  outer loop
    vertex 97.165063509461 210.2662590508522 34.999139243370685
    vertex 104.99999999999994 219.01625905085217 34.999139243370685
    vertex 96.76776695296628 210.78402600381855 34.999139243370685
  endloop
endfacet
facet normal 3.2562772375125735e-05 3.581902617022353e-05 0.9999999988283317
  outer loop
    vertex 96.76776695296628 210.78402600381855 34.999139243370685
    vertex 104.99999999999994 219.01625905085217 34.999139243370685
    vertex 96.2499999999999 211.18132256031328 34.999139243370685
  endloop
endfacet
facet normal 3.2562772375125735e-05 3.581902617022353e-05 0.9999999988283317
  outer loop
    vertex 96.2499999999999 211.18132256031328 34.999139243370685
    vertex 104.99999999999994 219.01625905085217 34.999139243370685
    vertex 83.00001311008015 219.0161076986565 34.999139243370685
  endloop
endfacet
facet normal 3.2562772375125735e-05 3.581902617022353e-05 0.9999999988283317
  outer loop
    vertex 104.99999999999994 199.01625905085217 34.999139243370685
    vertex 97.165063509461 210.2662590508522 34.999139243370685
    vertex 97.41481456572258 209.66330666360844 34.999139243370685
  endloop
endfacet
facet normal 3.2562772375125735e-05 3.581902617022353e-05 0.9999999988283317
  outer loop
    vertex 104.99999999999994 199.01625905085217 34.999139243370685
    vertex 97.41481456572258 209.66330666360844 34.999139243370685
    vertex 97.4999999999999 209.01625905085217 34.999139243370685
  endloop
endfacet
facet normal 3.2562772375125735e-05 3.581902617022353e-05 0.9999999988283317
  outer loop
    vertex 96.2499999999999 211.18132256031328 34.999139243370685
    vertex 83.00001311008015 219.0161076986565 34.999139243370685
    vertex 95.64704761275621 211.43107361657485 34.999139243370685
  endloop
endfacet
facet normal 3.2562772375125735e-05 3.581902617022353e-05 0.9999999988283317
  outer loop
    vertex 95.64704761275621 211.43107361657485 34.999139243370685
    vertex 83.00001311008015 219.0161076986565 34.999139243370685
    vertex 94.9999999999999 211.51625905085217 34.999139243370685
  endloop
endfacet
facet normal 3.2562772375125735e-05 3.581902617022353e-05 0.9999999988283317
  outer loop
    vertex 94.9999999999999 211.51625905085217 34.999139243370685
    vertex 83.00001311008015 219.0161076986565 34.999139243370685
    vertex 94.3529523872436 211.43107361657485 34.999139243370685
  endloop
endfacet
facet normal 3.2562772375125735e-05 3.581902617022353e-05 0.9999999988283317
  outer loop
    vertex 94.3529523872436 211.43107361657485 34.999139243370685
    vertex 83.00001311008015 219.0161076986565 34.999139243370685
    vertex 93.7499999999999 211.18132256031328 34.999139243370685
  endloop
endfacet
facet normal 3.2562772375125735e-05 3.581902617022353e-05 0.9999999988283317
  outer loop
    vertex 93.7499999999999 211.18132256031328 34.999139243370685
    vertex 83.00001311008015 219.0161076986565 34.999139243370685
    vertex 93.23223304703355 210.78402600381855 34.999139243370685
  endloop
endfacet
facet normal 3.2562772375125735e-05 3.581902617022353e-05 0.9999999988283317
  outer loop
    vertex 93.23223304703355 210.78402600381855 34.999139243370685
    vertex 83.00001311008015 219.0161076986565 34.999139243370685
    vertex 92.83493649053882 210.26625905085214 34.999139243370685
  endloop
endfacet
facet normal 3.2562772375125735e-05 3.581902617022353e-05 0.9999999988283317
  outer loop
    vertex 92.83493649053882 210.26625905085214 34.999139243370685
    vertex 83.00001311008015 219.0161076986565 34.999139243370685
    vertex 92.58518543427724 209.66330666360844 34.999139243370685
  endloop
endfacet
facet normal 3.2562772375125735e-05 3.581902617022353e-05 0.9999999988283317
  outer loop
    vertex 92.58518543427724 209.66330666360844 34.999139243370685
    vertex 83.00001311008015 219.0161076986565 34.999139243370685
    vertex 92.49999999999991 209.01625905085217 34.999139243370685
  endloop
endfacet
facet normal 3.2562772375125735e-05 3.581902617022353e-05 0.9999999988283317
  outer loop
    vertex 92.49999999999991 209.01625905085217 34.999139243370685
    vertex 83.00001311008015 219.0161076986565 34.999139243370685
    vertex 83.00001510558464 199.0164145546678 35.00057200435437
  endloop
endfacet
facet normal 3.2562772375125735e-05 3.581902617022353e-05 0.9999999988283317
  outer loop
    vertex 104.99999999999994 199.01625905085217 34.999139243370685
    vertex 96.24999999999991 206.8511955413911 34.999139243370685
    vertex 83.00001510558464 199.0164145546678 35.00057200435437
  endloop
endfacet
facet normal 3.2562772375125735e-05 3.581902617022353e-05 0.9999999988283317
  outer loop
    vertex 96.24999999999991 206.8511955413911 34.999139243370685
    vertex 104.99999999999994 199.01625905085217 34.999139243370685
    vertex 96.76776695296628 207.24849209788582 34.999139243370685
  endloop
endfacet
facet normal 3.2562772375125735e-05 3.581902617022353e-05 0.9999999988283317
  outer loop
    vertex 96.76776695296628 207.24849209788582 34.999139243370685
    vertex 104.99999999999994 199.01625905085217 34.999139243370685
    vertex 97.165063509461 207.76625905085217 34.999139243370685
  endloop
endfacet
facet normal 3.2562772375125735e-05 3.581902617022353e-05 0.9999999988283317
  outer loop
    vertex 97.165063509461 207.76625905085217 34.999139243370685
    vertex 104.99999999999994 199.01625905085217 34.999139243370685
    vertex 97.41481456572258 208.36921143809587 34.999139243370685
  endloop
endfacet
facet normal 3.2562772375125735e-05 3.581902617022353e-05 0.9999999988283317
  outer loop
    vertex 97.41481456572258 208.36921143809587 34.999139243370685
    vertex 104.99999999999994 199.01625905085217 34.999139243370685
    vertex 97.4999999999999 209.01625905085217 34.999139243370685
  endloop
endfacet
facet normal 3.2562772375125735e-05 3.581902617022353e-05 0.9999999988283317
  outer loop
    vertex 83.00001510558464 199.0164145546678 35.00057200435437
    vertex 96.24999999999991 206.8511955413911 34.999139243370685
    vertex 95.64704761275621 206.60144448512952 34.999139243370685
  endloop
endfacet
facet normal 3.2562772375125735e-05 3.581902617022353e-05 0.9999999988283317
  outer loop
    vertex 83.00001510558464 199.0164145546678 35.00057200435437
    vertex 95.64704761275621 206.60144448512952 34.999139243370685
    vertex 94.9999999999999 206.5162590508522 34.999139243370685
  endloop
endfacet
facet normal 3.2562772375125735e-05 3.581902617022353e-05 0.9999999988283317
  outer loop
    vertex 83.00001510558464 199.0164145546678 35.00057200435437
    vertex 94.9999999999999 206.5162590508522 34.999139243370685
    vertex 94.35295238724362 206.60144448512952 34.999139243370685
  endloop
endfacet
facet normal 3.2562772375125735e-05 3.581902617022353e-05 0.9999999988283317
  outer loop
    vertex 83.00001510558464 199.0164145546678 35.00057200435437
    vertex 94.35295238724362 206.60144448512952 34.999139243370685
    vertex 93.7499999999999 206.8511955413911 34.999139243370685
  endloop
endfacet
facet normal 3.2562772375125735e-05 3.581902617022353e-05 0.9999999988283317
  outer loop
    vertex 83.00001510558464 199.0164145546678 35.00057200435437
    vertex 93.7499999999999 206.8511955413911 34.999139243370685
    vertex 93.23223304703355 207.24849209788582 34.999139243370685
  endloop
endfacet
facet normal 3.2562772375125735e-05 3.581902617022353e-05 0.9999999988283317
  outer loop
    vertex 83.00001510558464 199.0164145546678 35.00057200435437
    vertex 93.23223304703355 207.24849209788582 34.999139243370685
    vertex 92.83493649053882 207.76625905085217 34.999139243370685
  endloop
endfacet
facet normal 3.2562772375125735e-05 3.581902617022353e-05 0.9999999988283317
  outer loop
    vertex 83.00001510558464 199.0164145546678 35.00057200435437
    vertex 92.83493649053882 207.76625905085217 34.999139243370685
    vertex 92.58518543427724 208.36921143809587 34.999139243370685
  endloop
endfacet
facet normal 3.2562772375125735e-05 3.581902617022353e-05 0.9999999988283317
  outer loop
    vertex 83.00001510558464 199.0164145546678 35.00057200435437
    vertex 92.58518543427724 208.36921143809587 34.999139243370685
    vertex 92.49999999999991 209.01625905085217 34.999139243370685
  endloop
endfacet
endsolid UHP-500-24 Holder
